<?xml version="1.0" encoding="UTF-8" ?>
<!DOCTYPE svg PUBLIC "-//W3C//DTD SVG 1.1//EN" "http://www.w3.org/Graphics/SVG/1.1/DTD/svg11.dtd">
<svg width="1024pt" height="1024pt" viewBox="0 0 1024 1024" version="1.1" xmlns="http://www.w3.org/2000/svg">
<g id="#d00030ff">
<path fill="#d00030" opacity="1.00" d=" M 130.66 258.86 C 257.81 213.54 384.94 168.17 512.09 122.86 C 639.23 168.12 766.35 213.48 893.46 258.84 C 873.98 426.93 854.63 595.03 835.27 763.12 C 727.53 822.79 619.81 882.48 512.06 942.12 C 404.32 882.44 296.58 822.76 188.83 763.10 C 169.41 595.02 150.03 426.94 130.66 258.86 M 511.70 214.09 C 432.33 392.03 352.97 569.98 273.61 747.93 C 303.27 747.89 332.93 748.04 362.59 747.86 C 378.43 707.98 394.50 668.19 410.41 628.35 C 477.86 628.33 545.30 628.33 612.75 628.32 C 628.82 668.19 644.63 708.16 660.79 747.97 C 690.38 747.88 719.97 747.95 749.56 747.94 C 670.51 570.02 591.42 392.12 512.35 214.21 C 512.19 214.18 511.86 214.12 511.70 214.09 Z" />
<path fill="#d00030" opacity="1.00" d=" M 442.37 554.57 C 465.61 498.77 488.76 442.92 512.00 387.12 C 535.25 442.92 558.41 498.76 581.64 554.58 C 535.21 554.63 488.79 554.60 442.37 554.57 Z" />
</g>
<g id="#ffffffff">
<path fill="#ffffff" opacity="1.00" d=" M 511.70 214.09 C 511.86 214.12 512.19 214.18 512.35 214.21 C 591.42 392.12 670.51 570.02 749.56 747.94 C 719.97 747.95 690.38 747.88 660.79 747.97 C 644.63 708.16 628.82 668.19 612.75 628.32 C 545.30 628.33 477.86 628.33 410.41 628.35 C 394.50 668.19 378.43 707.98 362.59 747.86 C 332.93 748.04 303.27 747.89 273.61 747.93 C 352.97 569.98 432.33 392.03 511.70 214.09 M 442.37 554.57 C 488.79 554.60 535.21 554.63 581.64 554.58 C 558.41 498.76 535.25 442.92 512.00 387.12 C 488.76 442.92 465.61 498.77 442.37 554.57 Z" />
</g>
</svg>
