<?xml version="1.0" encoding="UTF-8" ?>
<!DOCTYPE svg PUBLIC "-//W3C//DTD SVG 1.1//EN" "http://www.w3.org/Graphics/SVG/1.1/DTD/svg11.dtd">
<svg width="1200pt" height="956pt" viewBox="0 0 1200 956" version="1.1" xmlns="http://www.w3.org/2000/svg">
<g id="#7c12f8ff">
<path fill="#7c12f8" opacity="1.00" d=" M 248.10 0.00 L 951.82 0.00 C 971.83 0.17 991.80 5.66 1008.95 16.02 C 1046.32 38.18 1069.42 81.65 1067.70 124.97 C 1065.82 186.56 1068.15 248.80 1081.94 309.06 C 1087.33 331.80 1094.49 354.23 1104.83 375.24 C 1113.37 392.33 1124.31 408.50 1138.67 421.24 C 1155.52 436.43 1177.45 445.58 1200.00 447.53 L 1200.00 508.43 C 1182.21 510.12 1164.71 515.91 1149.91 526.02 C 1135.49 535.71 1123.79 549.00 1114.50 563.59 C 1105.01 578.42 1097.98 594.68 1092.17 611.27 C 1076.19 658.15 1070.26 707.79 1067.92 757.06 C 1066.67 783.03 1067.11 809.04 1067.73 835.03 C 1067.95 872.67 1049.68 909.95 1019.66 932.70 C 1000.38 947.58 976.19 955.78 951.85 956.00 L 248.14 956.00 C 227.16 955.79 206.28 949.68 188.60 938.38 C 152.97 915.99 131.01 874.00 132.36 832.00 C 134.02 779.65 132.49 726.97 123.81 675.24 C 119.80 651.96 114.33 628.88 106.23 606.67 C 99.85 589.23 91.91 572.21 81.12 557.03 C 71.12 542.89 58.49 530.37 43.33 521.82 C 30.10 514.24 15.15 509.88 0.00 508.49 L 0.00 447.54 C 10.18 446.49 20.28 444.33 29.82 440.59 C 54.25 431.32 73.66 412.08 87.02 390.01 C 104.29 361.51 114.01 329.16 120.81 296.75 C 130.65 247.83 133.40 197.75 132.89 147.94 C 132.82 133.02 131.28 117.99 133.59 103.16 C 138.01 72.58 154.36 43.84 178.63 24.67 C 198.20 9.05 223.03 0.14 248.10 0.00 M 416.08 222.32 C 415.51 225.20 415.81 228.14 415.77 231.05 C 415.80 398.48 415.76 565.90 415.80 733.32 C 485.51 733.33 555.21 733.34 624.92 733.31 C 661.78 733.29 699.56 727.78 732.61 710.67 C 757.82 697.81 779.34 677.16 791.45 651.42 C 800.32 632.94 804.36 612.41 804.82 591.99 C 805.38 569.88 800.73 547.44 790.12 527.94 C 777.21 503.86 755.43 485.09 730.39 474.44 C 716.26 468.14 701.04 464.91 685.82 462.61 C 690.43 461.07 695.31 460.47 699.91 458.86 C 740.78 446.10 772.18 408.30 778.08 366.01 C 782.59 332.27 773.30 296.18 750.45 270.53 C 728.70 245.63 696.98 231.45 664.85 225.87 C 639.18 221.08 612.96 222.75 587.01 222.43 C 530.03 222.36 473.05 222.58 416.08 222.32 Z" />
<path fill="#7c12f8" opacity="1.00" d=" M 499.12 289.26 C 526.06 289.45 553.00 289.29 579.95 289.34 C 600.96 289.51 622.39 288.10 642.88 293.78 C 658.39 297.84 673.42 305.90 683.15 318.95 C 694.53 334.05 697.52 353.99 695.27 372.40 C 693.55 387.75 686.56 402.60 675.12 413.09 C 661.87 425.41 644.36 431.97 626.86 435.41 C 613.42 438.04 599.70 438.85 586.03 438.87 C 557.03 438.88 528.03 438.84 499.03 438.89 C 499.04 389.02 498.86 339.13 499.12 289.26 Z" />
<path fill="#7c12f8" opacity="1.00" d=" M 499.18 501.37 C 524.46 501.63 549.74 501.41 575.03 501.48 C 599.40 501.65 624.04 500.37 648.09 505.23 C 667.28 508.94 686.65 516.23 700.53 530.50 C 711.93 542.07 718.09 558.03 719.36 574.08 C 720.98 592.59 718.20 612.22 707.90 628.04 C 699.40 641.31 685.97 650.76 671.45 656.46 C 651.64 664.25 630.11 666.39 608.98 666.44 C 572.32 666.43 535.66 666.46 499.00 666.42 C 499.00 612.62 498.99 558.82 499.01 505.02 C 499.03 503.80 499.08 502.58 499.18 501.37 Z" />
</g>
<g id="#f7f1fdff">
<path fill="#f7f1fd" opacity="1.00" d=" M 416.08 222.32 C 473.05 222.58 530.03 222.36 587.01 222.43 C 612.96 222.75 639.18 221.08 664.85 225.87 C 696.98 231.45 728.70 245.63 750.45 270.53 C 773.30 296.18 782.59 332.27 778.08 366.01 C 772.18 408.30 740.78 446.10 699.91 458.86 C 695.31 460.47 690.43 461.07 685.82 462.61 C 701.04 464.91 716.26 468.14 730.39 474.44 C 755.43 485.09 777.21 503.86 790.12 527.94 C 800.73 547.44 805.38 569.88 804.82 591.99 C 804.36 612.41 800.32 632.94 791.45 651.42 C 779.34 677.16 757.82 697.81 732.61 710.67 C 699.56 727.78 661.78 733.29 624.92 733.31 C 555.21 733.34 485.51 733.33 415.80 733.32 C 415.76 565.90 415.80 398.48 415.77 231.05 C 415.81 228.14 415.51 225.20 416.08 222.32 M 499.12 289.26 C 498.86 339.13 499.04 389.02 499.03 438.89 C 528.03 438.84 557.03 438.88 586.03 438.87 C 599.70 438.85 613.42 438.04 626.86 435.41 C 644.36 431.97 661.87 425.41 675.12 413.09 C 686.56 402.60 693.55 387.75 695.27 372.40 C 697.52 353.99 694.53 334.05 683.15 318.95 C 673.42 305.90 658.39 297.84 642.88 293.78 C 622.39 288.10 600.96 289.51 579.95 289.34 C 553.00 289.29 526.06 289.45 499.12 289.26 M 499.18 501.37 C 499.08 502.58 499.03 503.80 499.01 505.02 C 498.99 558.82 499.00 612.62 499.00 666.42 C 535.66 666.46 572.32 666.43 608.98 666.44 C 630.11 666.39 651.64 664.25 671.45 656.46 C 685.97 650.76 699.40 641.31 707.90 628.04 C 718.20 612.22 720.98 592.59 719.36 574.08 C 718.09 558.03 711.93 542.07 700.53 530.50 C 686.65 516.23 667.28 508.94 648.09 505.23 C 624.04 500.37 599.40 501.65 575.03 501.48 C 549.74 501.41 524.46 501.63 499.18 501.37 Z" />
</g>
</svg>
