<?xml version="1.0" encoding="UTF-8" ?>
<!DOCTYPE svg PUBLIC "-//W3C//DTD SVG 1.1//EN" "http://www.w3.org/Graphics/SVG/1.1/DTD/svg11.dtd">
<svg width="1200pt" height="560pt" viewBox="0 0 1200 560" version="1.1" xmlns="http://www.w3.org/2000/svg">
<g id="#1919195c">
<path fill="#191919" opacity="0.36" d=" M 232.69 2.89 C 234.39 1.45 236.91 2.39 238.95 2.13 C 437.31 2.04 635.66 2.00 834.02 2.14 C 840.57 2.24 847.16 1.90 853.70 2.31 L 854.34 2.89 C 647.12 3.01 439.91 3.01 232.69 2.89 Z" />
</g>
<g id="#1e1e1eb8">
<path fill="#1e1e1e" opacity="0.72" d=" M 228.14 4.13 C 228.57 2.58 229.53 2.28 231.03 3.25 C 230.21 4.04 229.24 4.33 228.14 4.13 Z" />
</g>
<g id="#000000ff">
<path fill="#000000" opacity="1.00" d=" M 231.03 3.25 C 231.45 3.16 232.28 2.98 232.69 2.89 C 439.91 3.01 647.12 3.01 854.34 2.89 C 860.99 3.08 867.80 7.82 869.91 14.10 C 870.14 14.60 870.61 15.59 870.84 16.08 L 871.36 17.01 C 872.06 21.64 871.83 26.33 871.85 30.99 C 871.85 80.33 871.83 129.66 871.86 179.00 C 871.80 181.89 871.56 184.92 870.00 187.44 C 863.02 186.58 855.99 187.05 848.99 186.92 C 849.00 133.02 849.02 79.11 848.98 25.21 C 645.65 25.24 442.33 25.22 239.01 25.21 C 238.99 118.09 238.99 210.97 239.01 303.85 C 231.38 303.87 223.75 304.28 216.12 303.83 C 215.64 208.49 216.26 113.12 215.79 17.78 C 216.94 11.62 221.93 5.40 228.14 4.13 C 229.24 4.33 230.21 4.04 231.03 3.25 Z" />
<path fill="#000000" opacity="1.00" d=" M 282.98 374.01 C 436.66 374.03 590.35 373.92 744.03 374.06 L 744.58 374.33 C 744.18 381.41 744.29 388.55 744.52 395.65 L 744.13 395.63 C 739.83 395.54 735.53 395.60 731.24 395.61 C 610.73 395.59 490.22 395.59 369.71 395.61 C 354.08 395.57 338.44 395.62 322.81 395.60 C 312.75 395.59 302.70 395.60 292.65 395.61 C 289.42 395.59 286.19 395.59 282.96 395.61 C 282.69 388.41 282.75 381.20 282.98 374.01 Z" />
</g>
<g id="#1f1f1fa5">
<path fill="#1f1f1f" opacity="0.65" d=" M 869.91 14.10 L 870.78 14.22 C 870.80 14.69 870.83 15.62 870.84 16.08 C 870.61 15.59 870.14 14.60 869.91 14.10 Z" />
</g>
<g id="#ffffffff">
<path fill="#ffffff" opacity="1.00" d=" M 871.36 17.01 C 871.79 18.98 871.96 21.00 871.95 23.02 C 871.93 75.03 871.94 127.04 871.95 179.05 C 872.05 181.88 871.29 184.76 872.04 187.54 C 890.02 187.02 908.04 187.47 926.04 187.34 C 946.27 187.43 966.51 187.27 986.74 187.42 L 987.40 187.44 C 971.70 189.47 955.82 187.52 940.05 188.07 C 918.70 188.15 897.35 188.16 876.00 188.08 C 864.36 186.84 852.66 187.59 840.98 187.57 C 814.71 187.67 788.44 187.67 762.17 187.58 C 760.81 187.63 759.46 187.74 758.13 187.93 C 761.02 187.37 763.99 187.45 766.93 187.41 C 790.28 187.39 813.62 187.38 836.97 187.39 C 837.03 159.26 836.99 131.13 836.99 103.00 C 641.66 103.00 446.34 103.00 251.01 103.00 C 250.99 153.33 251.00 203.66 251.00 253.99 C 415.35 254.01 579.69 253.99 744.04 254.00 C 743.99 257.66 743.95 261.33 743.99 265.00 C 712.33 265.01 680.67 264.98 649.01 265.01 C 649.01 298.00 649.04 330.99 649.00 363.98 C 680.66 364.03 712.32 363.98 743.98 364.00 C 744.01 367.35 743.97 370.71 744.03 374.06 C 590.35 373.92 436.66 374.03 282.98 374.01 C 283.10 370.67 283.05 367.33 283.06 364.00 C 335.03 363.99 387.00 364.02 438.97 363.98 C 438.96 331.00 438.92 298.02 438.99 265.04 C 376.33 264.96 313.67 265.00 251.01 265.01 C 251.02 277.70 251.01 290.39 251.03 303.08 C 246.98 302.71 243.04 303.83 239.01 303.85 C 238.99 210.97 238.99 118.09 239.01 25.21 C 442.33 25.22 645.65 25.24 848.98 25.21 C 849.02 79.11 849.00 133.02 848.99 186.92 C 855.99 187.05 863.02 186.58 870.00 187.44 C 871.56 184.92 871.80 181.89 871.86 179.00 C 871.83 129.66 871.85 80.33 871.85 30.99 C 871.83 26.33 872.06 21.64 871.36 17.01 M 251.03 36.01 C 251.03 54.67 251.05 73.32 251.03 91.98 C 298.68 92.02 346.34 92.00 394.00 91.99 C 394.00 73.33 394.00 54.67 394.00 36.02 C 346.35 35.99 298.69 35.99 251.03 36.01 M 405.01 36.01 C 405.00 54.67 405.01 73.32 405.00 91.98 C 549.00 92.03 692.99 91.99 836.99 91.99 C 837.00 73.33 836.99 54.67 837.00 36.01 C 693.00 35.99 549.01 35.99 405.01 36.01 M 450.03 265.00 C 449.98 298.00 450.03 330.99 450.01 363.99 C 512.66 364.00 575.32 364.02 637.97 363.98 C 637.95 330.99 637.95 298.01 637.97 265.02 C 575.32 264.98 512.67 265.01 450.03 265.00 Z" />
<path fill="#ffffff" opacity="1.00" d=" M 777.13 222.86 C 802.64 222.73 828.15 222.94 853.66 222.72 C 866.31 222.89 878.98 222.82 891.64 222.69 C 903.30 222.92 914.97 222.79 926.64 222.69 C 951.22 222.92 975.80 222.68 1000.38 222.64 C 1000.43 236.99 1000.24 251.34 1000.38 265.69 C 1000.36 277.97 1000.20 290.25 1000.38 302.54 C 1000.28 323.10 1000.11 343.68 1000.33 364.24 C 1000.12 416.21 1000.31 468.17 1000.21 520.14 C 925.85 520.13 851.49 520.17 777.13 520.12 C 777.03 421.03 777.04 321.94 777.13 222.86 M 781.08 227.03 C 781.03 239.02 781.18 251.01 781.01 263.00 C 798.34 262.99 815.67 263.02 833.00 262.99 C 833.00 251.00 833.00 239.02 833.00 227.03 C 815.69 227.07 798.38 227.06 781.08 227.03 M 837.06 227.07 C 837.09 239.05 837.20 251.03 837.01 263.00 C 890.00 263.00 943.00 263.00 995.99 263.00 C 995.71 251.02 995.92 239.04 995.89 227.06 C 942.95 227.05 890.00 227.02 837.06 227.07 M 781.02 268.04 C 781.11 304.69 781.12 341.35 781.01 378.00 C 852.68 378.00 924.34 378.01 996.00 377.99 C 995.71 341.35 995.88 304.69 995.92 268.04 C 924.28 267.97 852.65 267.98 781.02 268.04 M 781.02 383.01 C 781.12 413.00 781.12 442.99 781.02 472.98 C 804.01 472.96 826.99 472.95 849.98 472.99 C 850.02 443.00 850.00 413.01 849.99 383.03 C 827.00 383.03 804.01 383.05 781.02 383.01 M 855.00 383.03 C 855.00 413.01 855.00 442.99 855.00 472.96 C 877.33 472.97 899.67 472.97 922.00 472.96 C 921.99 442.98 922.01 413.00 921.99 383.03 C 899.66 383.04 877.33 383.03 855.00 383.03 M 927.00 383.04 C 927.01 413.02 926.97 443.00 927.02 472.98 C 950.02 472.95 973.01 472.99 996.01 472.96 C 995.71 442.98 995.82 412.99 995.96 383.01 C 972.97 383.07 949.99 383.01 927.00 383.04 M 781.12 478.18 C 781.06 490.75 781.11 503.32 781.08 515.89 C 852.66 515.92 924.25 515.96 995.84 515.86 C 995.84 503.31 995.84 490.77 995.81 478.22 C 924.25 478.02 852.68 478.12 781.12 478.18 Z" />
<path fill="#ffffff" opacity="1.00" d=" M 173.03 340.08 C 186.09 340.06 199.16 340.07 212.22 340.07 C 233.04 340.13 253.85 339.98 274.67 340.13 C 274.57 349.68 274.62 359.23 274.63 368.78 C 274.69 405.39 274.52 442.00 274.67 478.62 C 274.63 492.37 274.59 506.12 274.68 519.87 C 240.79 520.00 206.91 519.89 173.03 519.93 C 173.05 473.62 173.02 427.31 173.03 381.01 C 173.05 367.36 173.03 353.72 173.03 340.08 M 176.08 343.09 C 176.14 350.68 176.10 358.26 176.11 365.84 C 187.02 365.77 197.93 365.85 208.85 365.80 C 208.84 358.23 208.83 350.65 208.85 343.08 C 197.92 343.10 187.00 343.08 176.08 343.09 M 211.10 343.06 C 211.09 350.65 211.10 358.24 211.10 365.83 C 231.39 365.82 251.69 365.74 271.99 365.87 C 272.02 358.26 271.99 350.65 272.00 343.04 C 251.70 343.14 231.40 343.10 211.10 343.06 M 176.04 369.11 C 176.16 391.04 176.14 412.97 176.06 434.90 C 208.02 434.94 239.98 434.87 271.94 434.94 C 271.99 412.99 271.96 391.04 271.95 369.09 C 239.98 369.12 208.01 369.07 176.04 369.11 M 176.06 438.10 C 176.11 448.06 176.17 458.02 176.03 467.99 C 208.02 468.01 240.01 468.00 272.00 467.99 C 271.97 458.01 272.06 448.03 271.95 438.05 C 239.99 438.17 208.02 438.07 176.06 438.10 M 176.05 471.12 C 176.11 481.07 176.17 491.02 176.02 500.98 C 208.02 501.02 240.01 501.01 272.00 500.98 C 271.98 491.01 272.05 481.03 271.96 471.06 C 239.99 471.17 208.02 471.06 176.05 471.12 M 176.04 504.12 C 176.12 508.40 176.16 512.69 176.00 516.98 C 208.00 517.02 240.00 517.00 272.00 516.99 C 272.00 512.69 272.02 508.38 271.97 504.08 C 239.99 504.14 208.02 504.06 176.04 504.12 Z" />
</g>
<g id="#27292bff">
<path fill="#27292b" opacity="1.00" d=" M 215.09 21.96 C 215.11 20.54 215.12 19.07 215.79 17.78 C 216.26 113.12 215.64 208.49 216.12 303.83 C 223.75 304.28 231.38 303.87 239.01 303.85 C 243.04 303.83 246.98 302.71 251.03 303.08 C 256.93 302.92 262.83 303.08 268.63 304.27 C 264.12 305.22 259.50 304.62 254.93 304.76 C 228.92 304.85 202.91 304.42 176.91 304.98 C 179.56 303.30 182.98 303.98 185.98 303.78 C 195.62 304.07 205.26 303.96 214.90 303.86 C 215.34 276.91 214.96 249.94 215.09 222.98 C 215.09 155.97 215.09 88.96 215.09 21.96 Z" />
<path fill="#27292b" opacity="1.00" d=" M 282.21 331.92 C 281.54 327.75 281.69 323.53 282.91 319.47 C 283.26 334.31 282.96 349.15 283.06 364.00 C 283.05 367.33 283.10 370.67 282.98 374.01 C 282.75 381.20 282.69 388.41 282.96 395.61 C 283.20 415.49 282.97 435.38 283.14 455.26 C 316.38 455.31 349.63 455.34 382.87 455.29 C 412.62 455.23 442.37 455.41 472.11 455.22 L 472.55 455.45 C 409.37 455.39 346.18 455.32 283.01 455.49 C 283.12 481.05 283.01 506.61 283.06 532.16 L 282.02 532.20 C 282.35 522.44 282.28 512.67 282.30 502.91 C 282.20 445.91 282.36 388.92 282.21 331.92 Z" />
<path fill="#27292b" opacity="1.00" d=" M 892.01 537.88 C 893.44 537.23 894.97 537.20 896.51 537.51 C 896.75 539.24 896.91 541.06 896.12 542.70 L 895.65 542.69 C 891.24 543.01 886.67 542.58 882.39 543.60 L 881.89 543.77 C 881.05 541.91 879.65 539.13 881.98 537.80 C 882.74 537.85 884.26 537.97 885.02 538.03 C 885.20 539.43 885.49 540.84 885.79 542.24 C 887.50 542.25 889.27 542.59 890.98 542.14 C 892.16 541.06 891.82 539.29 892.01 537.88 Z" />
</g>
<g id="#38c8feff">
<path fill="#38c8fe" opacity="1.00" d=" M 251.03 36.01 C 298.69 35.99 346.35 35.99 394.00 36.02 C 394.00 54.67 394.00 73.33 394.00 91.99 C 346.34 92.00 298.68 92.02 251.03 91.98 C 251.05 73.32 251.03 54.67 251.03 36.01 Z" />
<path fill="#38c8fe" opacity="1.00" d=" M 781.08 227.03 C 798.38 227.06 815.69 227.07 833.00 227.03 C 833.00 239.02 833.00 251.00 833.00 262.99 C 815.67 263.02 798.34 262.99 781.01 263.00 C 781.18 251.01 781.03 239.02 781.08 227.03 Z" />
<path fill="#38c8fe" opacity="1.00" d=" M 176.08 343.09 C 187.00 343.08 197.92 343.10 208.85 343.08 C 208.83 350.65 208.84 358.23 208.85 365.80 C 197.93 365.85 187.02 365.77 176.11 365.84 C 176.10 358.26 176.14 350.68 176.08 343.09 Z" />
</g>
<g id="#ffaf47ff">
<path fill="#ffaf47" opacity="1.00" d=" M 405.01 36.01 C 549.01 35.99 693.00 35.99 837.00 36.01 C 836.99 54.67 837.00 73.33 836.99 91.99 C 692.99 91.99 549.00 92.03 405.00 91.98 C 405.01 73.32 405.00 54.67 405.01 36.01 Z" />
<path fill="#ffaf47" opacity="1.00" d=" M 837.06 227.07 C 890.00 227.02 942.95 227.05 995.89 227.06 C 995.92 239.04 995.71 251.02 995.99 263.00 C 943.00 263.00 890.00 263.00 837.01 263.00 C 837.20 251.03 837.09 239.05 837.06 227.07 Z" />
<path fill="#ffaf47" opacity="1.00" d=" M 211.10 343.06 C 231.40 343.10 251.70 343.14 272.00 343.04 C 271.99 350.65 272.02 358.26 271.99 365.87 C 251.69 365.74 231.39 365.82 211.10 365.83 C 211.10 358.24 211.09 350.65 211.10 343.06 Z" />
</g>
<g id="#ff7747ff">
<path fill="#ff7747" opacity="1.00" d=" M 251.01 103.00 C 446.34 103.00 641.66 103.00 836.99 103.00 C 836.99 131.13 837.03 159.26 836.97 187.39 C 813.62 187.38 790.28 187.39 766.93 187.41 C 763.99 187.45 761.02 187.37 758.13 187.93 C 754.32 190.15 750.22 192.54 748.02 196.51 C 747.61 196.45 746.79 196.35 746.38 196.29 C 744.95 199.32 743.90 202.57 744.03 205.96 C 744.08 221.97 744.03 237.99 744.04 254.00 C 579.69 253.99 415.35 254.01 251.00 253.99 C 251.00 203.66 250.99 153.33 251.01 103.00 Z" />
<path fill="#ff7747" opacity="1.00" d=" M 781.02 268.04 C 852.65 267.98 924.28 267.97 995.92 268.04 C 995.88 304.69 995.71 341.35 996.00 377.99 C 924.34 378.01 852.68 378.00 781.01 378.00 C 781.12 341.35 781.11 304.69 781.02 268.04 Z" />
<path fill="#ff7747" opacity="1.00" d=" M 176.04 369.11 C 208.01 369.07 239.98 369.12 271.95 369.09 C 271.96 391.04 271.99 412.99 271.94 434.94 C 239.98 434.87 208.02 434.94 176.06 434.90 C 176.14 412.97 176.16 391.04 176.04 369.11 Z" />
</g>
<g id="#444546ff">
<path fill="#444546" opacity="1.00" d=" M 987.21 186.39 C 991.44 185.92 995.74 186.22 1000.00 186.20 C 1004.55 187.34 1009.23 186.72 1013.87 186.93 C 1019.72 187.24 1025.48 190.27 1028.77 195.16 L 1028.94 196.25 C 1026.00 193.83 1023.43 190.75 1019.63 189.65 C 1014.62 187.55 1009.13 188.94 1003.93 188.14 C 998.48 187.07 992.90 187.58 987.40 187.44 L 986.74 187.42 L 987.21 186.39 Z" />
<path fill="#444546" opacity="1.00" d=" M 942.54 191.66 C 966.76 191.51 990.98 191.42 1015.19 191.59 C 1019.79 192.67 1024.70 195.04 1026.30 199.85 C 1029.52 208.76 1027.47 218.42 1027.78 227.66 C 1026.73 234.38 1027.46 241.19 1027.13 247.96 C 1026.85 250.98 1027.69 254.27 1026.34 257.10 C 1025.13 249.07 1024.58 240.92 1023.00 232.99 C 1020.75 229.00 1020.06 224.37 1017.61 220.50 C 1015.65 216.31 1014.98 210.99 1010.74 208.34 C 1008.48 206.92 1007.43 204.32 1005.39 202.74 C 998.63 200.38 991.82 198.16 984.79 196.76 C 978.57 196.39 972.36 195.63 966.28 194.24 C 959.64 192.63 952.74 193.41 945.98 193.08 C 944.62 193.12 943.48 192.65 942.54 191.66 Z" />
</g>
<g id="#f1f2f4ff">
<path fill="#f1f2f4" opacity="1.00" d=" M 748.02 196.51 C 750.22 192.54 754.32 190.15 758.13 187.93 C 759.46 187.74 760.81 187.63 762.17 187.58 C 788.44 187.67 814.71 187.67 840.98 187.57 C 852.66 187.59 864.36 186.84 876.00 188.08 C 897.35 188.16 918.70 188.15 940.05 188.07 C 955.82 187.52 971.70 189.47 987.40 187.44 C 992.90 187.58 998.48 187.07 1003.93 188.14 C 1009.13 188.94 1014.62 187.55 1019.63 189.65 C 1023.43 190.75 1026.00 193.83 1028.94 196.25 L 1029.49 196.65 C 1029.65 196.99 1029.96 197.67 1030.12 198.01 C 1031.54 204.61 1031.79 211.31 1031.45 218.05 C 1031.17 249.36 1031.80 280.67 1031.72 311.98 C 1031.82 371.60 1031.45 431.28 1031.69 490.94 C 1031.94 502.28 1031.30 513.65 1032.22 524.97 C 1031.33 532.31 1032.76 540.16 1028.71 546.81 C 1028.35 547.71 1027.77 548.40 1026.95 548.89 C 1025.77 549.20 1025.15 549.91 1025.07 551.03 C 1024.62 551.30 1023.72 551.85 1023.27 552.13 C 1021.82 552.84 1020.36 553.56 1018.92 554.25 C 1017.59 554.52 1016.29 554.83 1015.01 555.21 C 995.08 556.22 975.11 555.57 955.17 555.71 C 934.45 555.05 913.69 555.56 892.96 555.70 C 873.98 555.12 855.01 555.75 836.03 555.44 C 824.71 555.76 813.39 555.19 802.07 555.46 C 793.71 555.22 785.38 555.95 777.03 555.80 C 770.52 555.66 763.85 556.32 757.50 554.52 C 757.16 554.36 756.47 554.05 756.12 553.89 C 755.61 553.64 754.58 553.15 754.07 552.91 C 753.18 551.48 751.77 550.56 750.28 549.90 C 749.29 549.50 748.67 548.80 748.40 547.79 C 746.67 543.66 744.16 539.64 744.55 534.97 C 744.43 510.63 744.97 486.29 744.75 461.95 C 745.73 445.98 745.05 429.96 745.22 413.96 C 744.97 407.86 745.83 401.67 744.52 395.65 C 744.29 388.55 744.18 381.41 744.58 374.33 C 744.98 372.25 745.37 370.17 745.31 368.05 C 745.20 337.05 745.27 306.05 745.17 275.06 C 745.37 268.04 744.70 261.02 745.10 254.01 C 745.52 238.67 744.17 223.33 745.05 208.00 C 745.18 203.99 746.55 200.19 748.02 196.51 M 948.03 189.56 C 888.33 189.61 828.64 189.56 768.94 189.58 C 763.08 189.38 756.60 189.95 752.00 194.00 C 747.21 198.20 746.43 205.04 746.47 211.03 C 746.50 318.68 746.34 426.33 746.49 533.97 C 746.40 539.14 747.48 544.89 751.44 548.55 C 755.57 552.47 761.55 553.56 767.06 553.39 C 848.36 553.30 929.66 553.50 1010.95 553.34 C 1012.54 553.27 1014.22 553.28 1015.75 552.69 C 1021.28 552.29 1026.31 548.43 1028.30 543.27 C 1030.37 538.11 1029.62 532.45 1029.75 527.04 C 1029.77 454.38 1029.76 381.71 1029.76 309.05 C 1029.94 296.05 1029.35 283.02 1030.24 270.05 C 1030.41 254.34 1030.45 238.63 1030.37 222.93 C 1030.27 215.35 1030.82 207.60 1028.66 200.25 C 1026.63 194.05 1020.45 189.93 1014.09 189.58 C 992.08 189.23 970.05 189.76 948.03 189.56 Z" />
<path fill="#f1f2f4" opacity="1.00" d=" M 453.08 534.51 C 470.38 534.39 487.67 534.32 504.97 534.00 C 545.33 534.21 585.70 533.50 626.05 534.53 C 628.49 534.50 630.85 535.21 633.22 535.78 C 579.63 535.66 526.02 536.09 472.44 535.58 C 466.18 533.74 459.51 535.05 453.08 534.51 Z" />
</g>
<g id="#0c0d0eff">
<path fill="#0c0d0e" opacity="1.00" d=" M 948.03 189.56 C 970.05 189.76 992.08 189.23 1014.09 189.58 C 1013.57 189.77 1012.52 190.14 1012.00 190.33 C 1013.05 190.76 1014.10 191.20 1015.19 191.59 C 990.98 191.42 966.76 191.51 942.54 191.66 C 933.19 191.32 923.83 191.81 914.49 191.42 C 913.03 191.02 911.56 190.58 910.05 190.64 C 894.70 190.84 879.34 190.63 863.99 190.83 C 859.28 190.95 854.53 190.56 849.87 191.41 C 854.30 192.43 858.89 191.90 863.40 192.18 C 863.41 192.62 863.42 193.48 863.43 193.92 C 864.57 196.36 864.06 199.21 865.31 201.62 C 866.01 203.45 867.54 204.73 868.93 206.04 C 868.53 206.40 867.74 207.13 867.34 207.50 C 868.87 208.70 869.76 210.30 869.24 212.29 C 872.41 213.55 872.45 217.92 873.65 220.72 C 881.75 221.12 889.86 221.38 897.97 221.41 C 895.81 221.60 893.67 221.96 891.64 222.69 C 878.98 222.82 866.31 222.89 853.66 222.72 C 856.38 221.98 859.19 221.75 862.01 221.56 C 849.48 220.51 836.85 221.28 824.31 220.55 C 822.13 219.57 823.62 217.48 824.54 216.14 C 823.58 216.00 822.64 215.85 821.71 215.72 C 821.74 214.48 821.55 213.28 821.12 212.13 C 820.47 212.62 819.84 213.11 819.22 213.61 C 819.75 210.79 818.24 208.09 818.90 205.26 C 818.22 205.79 817.54 206.31 816.87 206.83 C 816.49 204.75 816.36 202.62 815.71 200.61 C 816.97 198.24 815.60 195.76 815.28 193.35 C 817.21 193.17 819.14 192.95 821.07 192.63 C 818.08 191.95 815.02 192.24 812.00 192.21 C 795.64 192.12 779.28 192.03 762.93 191.97 C 757.99 191.76 753.50 194.97 750.97 199.01 C 749.01 202.31 749.26 206.30 749.14 210.00 C 748.77 317.69 748.91 425.39 748.87 533.08 C 749.01 536.87 748.61 541.00 750.70 544.39 C 753.31 549.04 758.89 551.14 764.03 551.03 C 841.02 551.09 918.02 551.01 995.01 551.05 C 1002.13 551.13 1009.26 550.88 1016.38 551.25 L 1015.75 552.69 C 1014.22 553.28 1012.54 553.27 1010.95 553.34 C 929.66 553.50 848.36 553.30 767.06 553.39 C 761.55 553.56 755.57 552.47 751.44 548.55 C 747.48 544.89 746.40 539.14 746.49 533.97 C 746.34 426.33 746.50 318.68 746.47 211.03 C 746.43 205.04 747.21 198.20 752.00 194.00 C 756.60 189.95 763.08 189.38 768.94 189.58 C 828.64 189.56 888.33 189.61 948.03 189.56 Z" />
<path fill="#0c0d0e" opacity="1.00" d=" M 750.28 549.90 C 751.77 550.56 753.18 551.48 754.07 552.91 C 752.54 553.81 749.41 551.65 750.28 549.90 Z" />
</g>
<g id="#151617ff">
<path fill="#151617" opacity="1.00" d=" M 1012.00 190.33 C 1012.52 190.14 1013.57 189.77 1014.09 189.58 C 1020.45 189.93 1026.63 194.05 1028.66 200.25 C 1030.82 207.60 1030.27 215.35 1030.37 222.93 C 1030.45 238.63 1030.41 254.34 1030.24 270.05 C 1029.35 283.02 1029.94 296.05 1029.76 309.05 C 1029.76 381.71 1029.77 454.38 1029.75 527.04 C 1029.62 532.45 1030.37 538.11 1028.30 543.27 C 1026.31 548.43 1021.28 552.29 1015.75 552.69 L 1016.38 551.25 C 1019.25 550.03 1022.27 548.78 1024.30 546.29 C 1027.34 543.03 1027.96 538.33 1027.92 534.07 C 1027.86 502.38 1027.83 470.69 1027.67 439.00 C 1027.57 421.69 1028.11 404.36 1027.21 387.06 C 1027.14 374.05 1026.79 361.05 1027.02 348.04 C 1026.61 336.04 1027.36 324.02 1026.64 312.03 C 1024.93 312.06 1022.54 312.67 1023.25 314.93 C 1024.15 322.58 1026.21 330.25 1025.22 338.01 C 1024.99 341.67 1023.56 345.15 1023.54 348.84 C 1022.20 349.15 1020.85 349.43 1019.56 349.85 C 1020.00 350.98 1020.48 352.11 1020.05 353.34 C 1017.89 353.32 1015.77 353.74 1013.84 354.69 C 1014.48 355.77 1015.15 356.87 1015.81 357.96 C 1012.64 358.70 1009.35 358.31 1006.18 358.98 C 1006.67 359.92 1007.19 360.86 1007.71 361.81 C 1005.90 361.72 1004.10 361.66 1002.31 361.65 C 1002.22 358.68 1002.14 355.71 1001.68 352.77 C 1000.39 356.46 1001.36 360.48 1000.33 364.24 C 1000.11 343.68 1000.28 323.10 1000.38 302.54 C 1003.91 299.26 999.96 293.11 1003.90 289.96 C 1007.63 287.06 1010.39 282.69 1015.05 281.17 C 1016.79 281.82 1018.27 283.13 1020.10 283.59 C 1022.33 283.49 1024.58 283.48 1026.73 284.27 C 1026.91 286.06 1027.10 287.85 1027.32 289.65 L 1027.83 289.67 C 1027.79 283.03 1028.74 276.36 1027.87 269.75 C 1028.34 258.18 1028.00 246.59 1028.20 235.01 C 1028.25 232.55 1028.02 230.10 1027.78 227.66 C 1027.47 218.42 1029.52 208.76 1026.30 199.85 C 1024.70 195.04 1019.79 192.67 1015.19 191.59 C 1014.10 191.20 1013.05 190.76 1012.00 190.33 Z" />
</g>
<g id="#1d1f21ff">
<path fill="#1d1f21" opacity="1.00" d=" M 849.87 191.41 C 854.53 190.56 859.28 190.95 863.99 190.83 C 879.34 190.63 894.70 190.84 910.05 190.64 C 911.56 190.58 913.03 191.02 914.49 191.42 C 907.12 191.97 899.72 191.83 892.34 192.22 C 892.93 195.78 895.16 198.80 895.60 202.39 C 895.90 204.91 898.18 206.65 898.38 209.22 C 898.75 212.80 901.32 215.50 902.89 218.59 C 903.41 219.64 904.40 220.55 905.65 220.56 C 914.71 221.20 923.81 221.00 932.89 221.42 C 930.76 221.65 928.68 222.09 926.64 222.69 C 914.97 222.79 903.30 222.92 891.64 222.69 C 893.67 221.96 895.81 221.60 897.97 221.41 C 889.86 221.38 881.75 221.12 873.65 220.72 C 872.45 217.92 872.41 213.55 869.24 212.29 C 869.76 210.30 868.87 208.70 867.34 207.50 C 867.74 207.13 868.53 206.40 868.93 206.04 C 867.54 204.73 866.01 203.45 865.31 201.62 C 864.06 199.21 864.57 196.36 863.43 193.92 C 863.42 193.48 863.41 192.62 863.40 192.18 C 858.89 191.90 854.30 192.43 849.87 191.41 Z" />
</g>
<g id="#010101ff">
<path fill="#010101" opacity="1.00" d=" M 750.97 199.01 C 753.50 194.97 757.99 191.76 762.93 191.97 C 779.28 192.03 795.64 192.12 812.00 192.21 C 815.02 192.24 818.08 191.95 821.07 192.63 C 819.14 192.95 817.21 193.17 815.28 193.35 C 815.60 195.76 816.97 198.24 815.71 200.61 C 816.36 202.62 816.49 204.75 816.87 206.83 C 817.54 206.31 818.22 205.79 818.90 205.26 C 818.24 208.09 819.75 210.79 819.22 213.61 C 819.84 213.11 820.47 212.62 821.12 212.13 C 821.55 213.28 821.74 214.48 821.71 215.72 C 822.64 215.85 823.58 216.00 824.54 216.14 C 823.62 217.48 822.13 219.57 824.31 220.55 C 836.85 221.28 849.48 220.51 862.01 221.56 C 859.19 221.75 856.38 221.98 853.66 222.72 C 828.15 222.94 802.64 222.73 777.13 222.86 C 777.04 321.94 777.03 421.03 777.13 520.12 C 851.49 520.17 925.85 520.13 1000.21 520.14 C 1000.31 468.17 1000.12 416.21 1000.33 364.24 C 1001.36 360.48 1000.39 356.46 1001.68 352.77 C 1002.14 355.71 1002.22 358.68 1002.31 361.65 C 1004.10 361.66 1005.90 361.72 1007.71 361.81 C 1007.19 360.86 1006.67 359.92 1006.18 358.98 C 1009.35 358.31 1012.64 358.70 1015.81 357.96 C 1015.15 356.87 1014.48 355.77 1013.84 354.69 C 1015.77 353.74 1017.89 353.32 1020.05 353.34 C 1020.48 352.11 1020.00 350.98 1019.56 349.85 C 1020.85 349.43 1022.20 349.15 1023.54 348.84 C 1023.56 345.15 1024.99 341.67 1025.22 338.01 C 1026.21 330.25 1024.15 322.58 1023.25 314.93 C 1022.54 312.67 1024.93 312.06 1026.64 312.03 C 1027.36 324.02 1026.61 336.04 1027.02 348.04 C 1026.79 361.05 1027.14 374.05 1027.21 387.06 C 1028.11 404.36 1027.57 421.69 1027.67 439.00 C 1027.83 470.69 1027.86 502.38 1027.92 534.07 C 1027.96 538.33 1027.34 543.03 1024.30 546.29 C 1022.27 548.78 1019.25 550.03 1016.38 551.25 C 1009.26 550.88 1002.13 551.13 995.01 551.05 C 918.02 551.01 841.02 551.09 764.03 551.03 C 758.89 551.14 753.31 549.04 750.70 544.39 C 748.61 541.00 749.01 536.87 748.87 533.08 C 748.91 425.39 748.77 317.69 749.14 210.00 C 749.26 206.30 749.01 202.31 750.97 199.01 M 885.11 536.45 L 885.02 538.03 C 884.26 537.97 882.74 537.85 881.98 537.80 C 879.65 539.13 881.05 541.91 881.89 543.77 L 882.39 543.60 C 885.40 548.46 893.35 547.98 895.65 542.69 L 896.12 542.70 C 896.91 541.06 896.75 539.24 896.51 537.51 C 894.97 537.20 893.44 537.23 892.01 537.88 L 891.97 536.23 C 890.51 534.06 886.37 534.07 885.11 536.45 Z" />
<path fill="#010101" opacity="1.00" d=" M 170.30 379.17 C 171.21 379.78 172.11 380.39 173.03 381.01 C 173.02 427.31 173.05 473.62 173.03 519.93 C 206.91 519.89 240.79 520.00 274.68 519.87 C 274.59 506.12 274.63 492.37 274.67 478.62 C 275.13 479.05 276.06 479.91 276.52 480.34 C 277.32 489.31 276.56 498.38 277.47 507.37 C 277.74 511.66 278.35 516.08 277.40 520.32 C 275.94 523.64 271.71 523.05 268.75 523.09 C 254.19 522.40 239.59 523.25 225.01 522.99 C 208.35 522.98 191.69 523.06 175.03 523.01 C 172.65 523.32 169.82 521.69 170.04 519.04 C 169.78 485.34 170.15 451.63 170.16 417.93 C 170.06 405.01 170.49 392.09 170.30 379.17 Z" />
</g>
<g id="#323335ff">
<path fill="#323335" opacity="1.00" d=" M 892.34 192.22 C 899.72 191.83 907.12 191.97 914.49 191.42 C 923.83 191.81 933.19 191.32 942.54 191.66 C 943.48 192.65 944.62 193.12 945.98 193.08 C 952.74 193.41 959.64 192.63 966.28 194.24 C 972.36 195.63 978.57 196.39 984.79 196.76 C 991.82 198.16 998.63 200.38 1005.39 202.74 C 1007.43 204.32 1008.48 206.92 1010.74 208.34 C 1014.98 210.99 1015.65 216.31 1017.61 220.50 C 1020.06 224.37 1020.75 229.00 1023.00 232.99 C 1024.58 240.92 1025.13 249.07 1026.34 257.10 C 1027.69 254.27 1026.85 250.98 1027.13 247.96 C 1027.46 241.19 1026.73 234.38 1027.78 227.66 C 1028.02 230.10 1028.25 232.55 1028.20 235.01 C 1028.00 246.59 1028.34 258.18 1027.87 269.75 C 1027.42 270.79 1026.98 271.83 1026.53 272.86 C 1022.65 270.99 1018.73 267.62 1014.13 269.21 C 1010.28 270.77 1006.15 271.54 1002.41 273.37 C 1002.10 275.24 1001.78 277.11 1001.40 278.97 C 1000.94 274.55 1001.41 270.05 1000.38 265.69 C 1000.24 251.34 1000.43 236.99 1000.38 222.64 C 975.80 222.68 951.22 222.92 926.64 222.69 C 928.68 222.09 930.76 221.65 932.89 221.42 C 923.81 221.00 914.71 221.20 905.65 220.56 C 904.40 220.55 903.41 219.64 902.89 218.59 C 901.32 215.50 898.75 212.80 898.38 209.22 C 898.18 206.65 895.90 204.91 895.60 202.39 C 895.16 198.80 892.93 195.78 892.34 192.22 Z" />
</g>
<g id="#bdb5adff">
<path fill="#bdb5ad" opacity="1.00" d=" M 746.38 196.29 C 746.79 196.35 747.61 196.45 748.02 196.51 C 746.55 200.19 745.18 203.99 745.05 208.00 C 744.17 223.33 745.52 238.67 745.10 254.01 C 744.70 261.02 745.37 268.04 745.17 275.06 C 745.27 306.05 745.20 337.05 745.31 368.05 C 745.37 370.17 744.98 372.25 744.58 374.33 L 744.03 374.06 C 743.97 370.71 744.01 367.35 743.98 364.00 C 744.03 331.00 744.04 298.00 743.99 265.00 C 743.95 261.33 743.99 257.66 744.04 254.00 C 744.03 237.99 744.08 221.97 744.03 205.96 C 743.90 202.57 744.95 199.32 746.38 196.29 Z" />
</g>
<g id="#4a4d52ff">
<path fill="#4a4d52" opacity="1.00" d=" M 1030.12 198.01 C 1031.70 199.93 1032.01 202.49 1032.19 204.89 C 1032.59 212.94 1032.26 221.01 1032.86 229.05 C 1032.41 235.34 1032.50 241.66 1032.92 247.95 C 1032.56 253.30 1032.40 258.66 1032.93 264.01 C 1032.35 275.01 1032.72 286.03 1032.63 297.05 C 1032.68 376.03 1032.54 455.03 1032.57 534.01 C 1032.06 538.30 1032.22 543.78 1028.71 546.81 C 1032.76 540.16 1031.33 532.31 1032.22 524.97 C 1031.30 513.65 1031.94 502.28 1031.69 490.94 C 1031.45 431.28 1031.82 371.60 1031.72 311.98 C 1031.80 280.67 1031.17 249.36 1031.45 218.05 C 1031.79 211.31 1031.54 204.61 1030.12 198.01 Z" />
<path fill="#4a4d52" opacity="1.00" d=" M 213.18 539.29 C 215.06 540.25 216.92 541.23 218.90 541.97 C 219.28 541.82 220.05 541.54 220.43 541.40 C 220.54 541.40 220.76 541.41 220.87 541.42 C 223.78 545.16 228.81 541.48 232.58 541.21 C 232.78 541.68 233.18 542.61 233.38 543.08 C 230.84 546.15 227.22 548.75 223.03 548.37 C 219.43 548.49 216.57 546.12 214.01 543.92 C 213.75 542.37 213.47 540.83 213.18 539.29 Z" />
</g>
<g id="#ffd647ff">
<path fill="#ffd647" opacity="1.00" d=" M 251.01 265.01 C 313.67 265.00 376.33 264.96 438.99 265.04 C 438.92 298.02 438.96 331.00 438.97 363.98 C 387.00 364.02 335.03 363.99 283.06 364.00 C 282.96 349.15 283.26 334.31 282.91 319.47 C 282.07 312.23 275.98 305.34 268.63 304.27 C 262.83 303.08 256.93 302.92 251.03 303.08 C 251.01 290.39 251.02 277.70 251.01 265.01 Z" />
<path fill="#ffd647" opacity="1.00" d=" M 450.03 265.00 C 512.67 265.01 575.32 264.98 637.97 265.02 C 637.95 298.01 637.95 330.99 637.97 363.98 C 575.32 364.02 512.66 364.00 450.01 363.99 C 450.03 330.99 449.98 298.00 450.03 265.00 Z" />
<path fill="#ffd647" opacity="1.00" d=" M 649.01 265.01 C 680.67 264.98 712.33 265.01 743.99 265.00 C 744.04 298.00 744.03 331.00 743.98 364.00 C 712.32 363.98 680.66 364.03 649.00 363.98 C 649.04 330.99 649.01 298.00 649.01 265.01 Z" />
<path fill="#ffd647" opacity="1.00" d=" M 781.02 383.01 C 804.01 383.05 827.00 383.03 849.99 383.03 C 850.00 413.01 850.02 443.00 849.98 472.99 C 826.99 472.95 804.01 472.96 781.02 472.98 C 781.12 442.99 781.12 413.00 781.02 383.01 Z" />
<path fill="#ffd647" opacity="1.00" d=" M 855.00 383.03 C 877.33 383.03 899.66 383.04 921.99 383.03 C 922.01 413.00 921.99 442.98 922.00 472.96 C 899.67 472.97 877.33 472.97 855.00 472.96 C 855.00 442.99 855.00 413.01 855.00 383.03 Z" />
<path fill="#ffd647" opacity="1.00" d=" M 927.00 383.04 C 949.99 383.01 972.97 383.07 995.96 383.01 C 995.82 412.99 995.71 442.98 996.01 472.96 C 973.01 472.99 950.02 472.95 927.02 472.98 C 926.97 443.00 927.01 413.02 927.00 383.04 Z" />
<path fill="#ffd647" opacity="1.00" d=" M 176.06 438.10 C 208.02 438.07 239.99 438.17 271.95 438.05 C 272.06 448.03 271.97 458.01 272.00 467.99 C 240.01 468.00 208.02 468.01 176.03 467.99 C 176.17 458.02 176.11 448.06 176.06 438.10 Z" />
<path fill="#ffd647" opacity="1.00" d=" M 176.05 471.12 C 208.02 471.06 239.99 471.17 271.96 471.06 C 272.05 481.03 271.98 491.01 272.00 500.98 C 240.01 501.01 208.02 501.02 176.02 500.98 C 176.17 491.02 176.11 481.07 176.05 471.12 Z" />
<path fill="#ffd647" opacity="1.00" d=" M 176.04 504.12 C 208.02 504.06 239.99 504.14 271.97 504.08 C 272.02 508.38 272.00 512.69 272.00 516.99 C 240.00 517.00 208.00 517.02 176.00 516.98 C 176.16 512.69 176.12 508.40 176.04 504.12 Z" />
</g>
<g id="#232526ff">
<path fill="#232526" opacity="1.00" d=" M 1000.38 302.54 C 1000.20 290.25 1000.36 277.97 1000.38 265.69 C 1001.41 270.05 1000.94 274.55 1001.40 278.97 C 1001.78 277.11 1002.10 275.24 1002.41 273.37 C 1006.15 271.54 1010.28 270.77 1014.13 269.21 C 1018.73 267.62 1022.65 270.99 1026.53 272.86 C 1026.98 271.83 1027.42 270.79 1027.87 269.75 C 1028.74 276.36 1027.79 283.03 1027.83 289.67 L 1027.32 289.65 C 1027.10 287.85 1026.91 286.06 1026.73 284.27 C 1024.58 283.48 1022.33 283.49 1020.10 283.59 C 1018.27 283.13 1016.79 281.82 1015.05 281.17 C 1010.39 282.69 1007.63 287.06 1003.90 289.96 C 999.96 293.11 1003.91 299.26 1000.38 302.54 Z" />
</g>
<g id="#464b52ff">
<path fill="#464b52" opacity="1.00" d=" M 268.63 304.27 C 275.98 305.34 282.07 312.23 282.91 319.47 C 281.69 323.53 281.54 327.75 282.21 331.92 C 282.36 388.92 282.20 445.91 282.30 502.91 C 282.28 512.67 282.35 522.44 282.02 532.20 L 280.70 532.25 C 280.62 529.14 280.57 526.03 280.65 522.93 C 280.65 498.72 280.74 474.51 280.46 450.31 C 281.15 413.53 280.16 376.75 279.82 339.97 C 280.33 333.66 280.31 327.33 280.06 321.01 C 279.75 313.33 272.63 306.69 264.94 306.96 C 247.90 306.89 230.85 306.49 213.80 306.79 C 203.22 306.65 192.63 306.61 182.04 306.63 C 178.72 306.51 175.58 307.78 172.84 309.55 C 170.15 311.74 167.81 314.63 167.38 318.19 C 166.66 324.13 167.10 330.12 167.08 336.08 C 167.23 347.82 166.65 359.57 167.28 371.30 C 167.07 390.63 166.79 409.98 167.24 429.31 C 166.77 460.87 167.23 492.43 166.95 523.99 C 166.94 526.74 166.82 529.49 166.72 532.25 C 166.13 528.19 166.38 524.09 166.36 520.02 C 166.26 461.69 166.48 403.36 165.89 345.04 C 165.70 335.16 167.30 325.13 165.38 315.36 L 165.94 314.71 C 167.87 312.43 170.18 310.51 172.13 308.24 L 171.37 307.51 C 172.24 306.31 175.00 305.20 176.91 304.98 C 202.91 304.42 228.92 304.85 254.93 304.76 C 259.50 304.62 264.12 305.22 268.63 304.27 Z" />
</g>
<g id="#1f1f23ff">
<path fill="#1f1f23" opacity="1.00" d=" M 172.84 309.55 C 175.58 307.78 178.72 306.51 182.04 306.63 C 192.63 306.61 203.22 306.65 213.80 306.79 C 215.19 308.51 216.46 310.43 218.35 311.66 C 220.54 312.03 222.87 311.26 224.99 312.30 C 223.09 312.83 220.61 312.92 220.20 315.32 C 218.59 318.33 221.97 321.53 224.98 320.95 C 227.99 321.37 232.39 319.65 234.09 323.04 C 227.75 323.39 221.39 322.98 215.05 323.21 C 212.53 322.96 213.28 326.04 213.14 327.62 C 215.56 327.66 217.97 327.82 220.38 327.99 C 218.25 328.52 216.13 329.09 214.00 329.64 C 221.56 330.42 229.27 332.08 236.81 330.18 C 237.10 330.59 237.67 331.41 237.95 331.82 C 232.29 332.09 226.61 331.87 220.99 332.81 C 211.42 333.18 201.84 332.97 192.26 333.35 C 193.22 334.59 194.17 335.84 195.12 337.10 C 188.08 337.63 181.02 336.89 173.98 337.12 C 171.81 336.91 169.91 338.87 169.98 341.00 C 169.73 348.15 169.75 355.31 169.75 362.46 C 169.32 362.47 168.48 362.48 168.06 362.48 C 168.07 365.43 167.93 368.40 167.28 371.30 C 166.65 359.57 167.23 347.82 167.08 336.08 C 171.14 331.87 177.19 333.39 182.37 332.40 C 186.51 331.76 190.72 332.09 194.89 331.78 C 187.92 324.03 180.34 316.80 172.84 309.55 Z" />
</g>
<g id="#2a2a2eff">
<path fill="#2a2a2e" opacity="1.00" d=" M 213.80 306.79 C 230.85 306.49 247.90 306.89 264.94 306.96 C 272.63 306.69 279.75 313.33 280.06 321.01 C 280.31 327.33 280.33 333.66 279.82 339.97 C 280.16 376.75 281.15 413.53 280.46 450.31 C 278.95 441.99 279.91 433.41 279.68 424.98 C 279.98 421.84 277.89 419.14 277.96 416.03 C 277.52 406.69 278.29 397.29 277.00 388.00 C 276.52 382.12 276.83 376.21 276.69 370.31 C 276.17 369.93 275.14 369.16 274.63 368.78 C 274.62 359.23 274.57 349.68 274.67 340.13 C 253.85 339.98 233.04 340.13 212.22 340.07 C 211.85 339.59 211.10 338.62 210.73 338.14 C 205.56 337.43 200.35 336.86 195.12 337.10 C 194.17 335.84 193.22 334.59 192.26 333.35 C 201.84 332.97 211.42 333.18 220.99 332.81 C 226.61 331.87 232.29 332.09 237.95 331.82 C 237.67 331.41 237.10 330.59 236.81 330.18 C 229.27 332.08 221.56 330.42 214.00 329.64 C 216.13 329.09 218.25 328.52 220.38 327.99 C 225.25 327.43 230.73 328.97 234.84 325.57 C 234.60 324.72 234.35 323.87 234.09 323.04 C 232.39 319.65 227.99 321.37 224.98 320.95 C 221.97 321.53 218.59 318.33 220.20 315.32 C 220.61 312.92 223.09 312.83 224.99 312.30 C 222.87 311.26 220.54 312.03 218.35 311.66 C 216.46 310.43 215.19 308.51 213.80 306.79 M 222.19 314.24 C 221.25 315.79 221.02 317.95 223.37 318.37 C 223.41 317.62 223.45 316.88 223.49 316.13 C 224.29 316.34 225.09 316.54 225.90 316.75 C 226.09 314.52 224.08 313.67 222.19 314.24 M 233.29 327.19 C 233.85 327.76 233.85 327.76 233.29 327.19 Z" />
</g>
<g id="#88898cff">
<path fill="#88898c" opacity="1.00" d=" M 165.94 314.71 C 167.26 311.98 168.59 309.06 171.37 307.51 L 172.13 308.24 C 170.18 310.51 167.87 312.43 165.94 314.71 Z" />
<path fill="#88898c" opacity="1.00" d=" M 744.13 395.63 L 744.52 395.65 C 745.83 401.67 744.97 407.86 745.22 413.96 C 745.05 429.96 745.73 445.98 744.75 461.95 C 744.97 486.29 744.43 510.63 744.55 534.97 C 744.16 539.64 746.67 543.66 748.40 547.79 C 745.26 545.92 744.34 541.43 744.16 537.98 C 743.95 510.47 744.32 482.95 744.02 455.45 C 701.21 455.43 658.39 455.44 615.58 455.46 C 615.85 460.30 616.25 465.12 616.62 469.96 C 592.74 470.30 568.85 469.97 544.97 470.10 C 520.48 469.93 495.99 470.32 471.50 469.94 C 471.86 465.11 472.30 460.29 472.55 455.45 L 472.11 455.22 C 482.06 454.47 492.05 455.05 502.02 454.86 C 521.35 455.35 540.67 454.66 560.00 455.13 C 598.76 454.59 637.56 455.04 676.34 454.71 C 698.95 455.10 721.57 454.68 744.19 454.79 C 744.53 450.20 744.38 445.61 744.41 441.02 C 744.21 425.89 744.94 410.73 744.13 395.63 Z" />
<path fill="#88898c" opacity="1.00" d=" M 280.21 544.45 C 280.54 544.51 281.21 544.62 281.55 544.67 C 280.17 547.30 278.59 550.07 275.81 551.43 C 275.88 548.55 278.74 546.74 280.21 544.45 Z" />
<path fill="#88898c" opacity="1.00" d=" M 168.45 547.16 C 170.70 548.39 172.19 550.60 173.10 552.94 C 170.98 551.45 169.04 549.72 167.36 547.75 L 168.45 547.16 Z" />
</g>
<g id="#19191dff">
<path fill="#19191d" opacity="1.00" d=" M 167.38 318.19 C 167.81 314.63 170.15 311.74 172.84 309.55 C 180.34 316.80 187.92 324.03 194.89 331.78 C 190.72 332.09 186.51 331.76 182.37 332.40 C 177.19 333.39 171.14 331.87 167.08 336.08 C 167.10 330.12 166.66 324.13 167.38 318.19 Z" />
</g>
<g id="#111418ff">
<path fill="#111418" opacity="1.00" d=" M 222.19 314.24 C 224.08 313.67 226.09 314.52 225.90 316.75 C 225.09 316.54 224.29 316.34 223.49 316.13 C 223.45 316.88 223.41 317.62 223.37 318.37 C 221.02 317.95 221.25 315.79 222.19 314.24 Z" />
</g>
<g id="#2d3236ff">
<path fill="#2d3236" opacity="1.00" d=" M 164.25 338.73 C 164.71 330.96 163.11 322.92 165.38 315.36 C 167.30 325.13 165.70 335.16 165.89 345.04 C 166.48 403.36 166.26 461.69 166.36 520.02 C 166.38 524.09 166.13 528.19 166.72 532.25 C 167.26 536.28 166.52 540.69 168.63 544.36 C 171.06 549.30 176.47 552.43 181.90 552.62 C 209.26 552.62 236.63 552.65 264.00 552.63 C 266.73 552.64 269.45 551.60 272.18 552.28 L 272.32 552.76 C 268.14 554.84 263.42 553.98 258.95 554.09 C 233.30 554.12 207.64 554.11 181.98 554.13 C 179.28 554.08 176.59 553.68 173.95 553.12 L 173.10 552.94 C 172.19 550.60 170.70 548.39 168.45 547.16 L 167.36 547.75 C 165.64 544.78 164.18 541.53 164.22 538.04 C 164.25 489.47 164.29 440.90 164.20 392.33 L 163.06 391.70 C 162.88 388.48 161.99 384.78 164.19 382.05 C 164.36 378.68 164.18 375.30 164.25 371.93 C 161.89 370.35 163.13 367.32 162.83 365.00 C 162.55 363.49 163.52 362.30 164.28 361.13 C 164.17 357.45 164.42 353.75 164.03 350.08 C 163.68 346.30 164.24 342.51 164.25 338.73 Z" />
</g>
<g id="#0b0b0bff">
<path fill="#0b0b0b" opacity="1.00" d=" M 213.14 327.62 C 213.28 326.04 212.53 322.96 215.05 323.21 C 221.39 322.98 227.75 323.39 234.09 323.04 C 234.35 323.87 234.60 324.72 234.84 325.57 C 230.73 328.97 225.25 327.43 220.38 327.99 C 217.97 327.82 215.56 327.66 213.14 327.62 Z" />
</g>
<g id="#606060ff">
<path fill="#606060" opacity="1.00" d=" M 233.29 327.19 C 233.85 327.76 233.85 327.76 233.29 327.19 Z" />
</g>
<g id="#121318ff">
<path fill="#121318" opacity="1.00" d=" M 169.98 341.00 C 169.91 338.87 171.81 336.91 173.98 337.12 C 181.02 336.89 188.08 337.63 195.12 337.10 C 200.35 336.86 205.56 337.43 210.73 338.14 C 211.10 338.62 211.85 339.59 212.22 340.07 C 199.16 340.07 186.09 340.06 173.03 340.08 C 173.03 353.72 173.05 367.36 173.03 381.01 C 172.11 380.39 171.21 379.78 170.30 379.17 C 170.49 392.09 170.06 405.01 170.16 417.93 C 169.65 417.80 168.64 417.53 168.13 417.40 C 167.86 421.37 168.34 425.43 167.24 429.31 C 166.79 409.98 167.07 390.63 167.28 371.30 C 167.93 368.40 168.07 365.43 168.06 362.48 C 168.48 362.48 169.32 362.47 169.75 362.46 C 169.75 355.31 169.73 348.15 169.98 341.00 Z" />
</g>
<g id="#575e66ea">
<path fill="#575e66" opacity="0.92" d=" M 163.00 338.84 L 164.25 338.73 C 164.24 342.51 163.68 346.30 164.03 350.08 L 163.32 349.57 C 162.63 346.06 163.15 342.40 163.00 338.84 Z" />
</g>
<g id="#16171cff">
<path fill="#16171c" opacity="1.00" d=" M 274.63 368.78 C 275.14 369.16 276.17 369.93 276.69 370.31 C 276.83 376.21 276.52 382.12 277.00 388.00 C 278.29 397.29 277.52 406.69 277.96 416.03 C 277.89 419.14 279.98 421.84 279.68 424.98 C 279.91 433.41 278.95 441.99 280.46 450.31 C 280.74 474.51 280.65 498.72 280.65 522.93 C 279.54 525.67 276.68 526.66 274.13 527.59 C 272.13 526.35 270.30 524.86 268.75 523.09 C 271.71 523.05 275.94 523.64 277.40 520.32 C 278.35 516.08 277.74 511.66 277.47 507.37 C 276.56 498.38 277.32 489.31 276.52 480.34 C 276.06 479.91 275.13 479.05 274.67 478.62 C 274.52 442.00 274.69 405.39 274.63 368.78 Z" />
</g>
<g id="#c6c6c6ff">
<path fill="#c6c6c6" opacity="1.00" d=" M 282.96 395.61 C 286.19 395.59 289.42 395.59 292.65 395.61 C 294.26 399.60 297.01 402.94 299.52 406.39 C 307.06 416.44 314.70 426.49 323.66 435.31 C 328.78 442.49 335.90 447.77 342.39 453.60 C 344.54 454.14 346.79 453.97 348.99 454.01 C 360.05 453.92 371.11 454.19 382.16 454.03 L 383.28 454.03 L 382.87 455.29 C 349.63 455.34 316.38 455.31 283.14 455.26 C 282.97 435.38 283.20 415.49 282.96 395.61 Z" />
</g>
<g id="#cdcdcdff">
<path fill="#cdcdcd" opacity="1.00" d=" M 292.65 395.61 C 302.70 395.60 312.75 395.59 322.81 395.60 C 328.13 402.76 333.97 409.49 339.76 416.26 C 345.26 421.75 350.78 427.24 356.24 432.79 C 364.57 440.23 373.38 447.12 382.16 454.03 C 371.11 454.19 360.05 453.92 348.99 454.01 C 346.79 453.97 344.54 454.14 342.39 453.60 C 335.90 447.77 328.78 442.49 323.66 435.31 C 314.70 426.49 307.06 416.44 299.52 406.39 C 297.01 402.94 294.26 399.60 292.65 395.61 Z" />
</g>
<g id="#d3d3d3ff">
<path fill="#d3d3d3" opacity="1.00" d=" M 322.81 395.60 C 338.44 395.62 354.08 395.57 369.71 395.61 C 373.30 400.24 377.56 404.36 382.19 407.95 C 398.58 423.16 417.46 435.55 437.37 445.66 C 443.25 448.30 449.30 450.60 454.97 453.66 C 431.09 454.36 407.18 453.91 383.28 454.03 L 382.16 454.03 C 373.38 447.12 364.57 440.23 356.24 432.79 C 350.78 427.24 345.26 421.75 339.76 416.26 C 333.97 409.49 328.13 402.76 322.81 395.60 Z" />
</g>
<g id="#dadadaff">
<path fill="#dadada" opacity="1.00" d=" M 369.71 395.61 C 490.22 395.59 610.73 395.59 731.24 395.61 C 710.33 419.69 684.31 439.10 656.03 453.74 C 662.78 454.45 669.72 452.88 676.34 454.71 C 637.56 455.04 598.76 454.59 560.00 455.13 C 540.67 454.66 521.35 455.35 502.02 454.86 C 492.05 455.05 482.06 454.47 472.11 455.22 C 442.37 455.41 412.62 455.23 382.87 455.29 L 383.28 454.03 C 407.18 453.91 431.09 454.36 454.97 453.66 C 449.30 450.60 443.25 448.30 437.37 445.66 C 417.46 435.55 398.58 423.16 382.19 407.95 C 377.56 404.36 373.30 400.24 369.71 395.61 M 544.17 415.55 C 547.98 415.29 550.21 411.67 550.75 408.23 C 547.01 408.37 544.03 411.87 544.17 415.55 M 533.18 419.27 C 528.91 425.51 532.65 433.82 537.33 438.70 C 539.83 439.63 542.51 438.49 545.07 438.35 C 547.35 438.80 549.66 439.11 552.01 439.05 C 554.10 436.85 555.83 434.31 556.88 431.44 C 551.82 429.26 551.17 421.58 555.99 418.76 C 553.93 416.07 550.12 414.93 547.03 416.50 C 544.35 418.11 541.60 416.38 538.99 415.63 C 536.80 416.34 534.37 417.12 533.18 419.27 Z" />
</g>
<g id="#d1d1d1ff">
<path fill="#d1d1d1" opacity="1.00" d=" M 731.24 395.61 C 735.53 395.60 739.83 395.54 744.13 395.63 C 744.94 410.73 744.21 425.89 744.41 441.02 C 744.38 445.61 744.53 450.20 744.19 454.79 C 721.57 454.68 698.95 455.10 676.34 454.71 C 669.72 452.88 662.78 454.45 656.03 453.74 C 684.31 439.10 710.33 419.69 731.24 395.61 Z" />
</g>
<g id="#231f20ff">
<path fill="#231f20" opacity="1.00" d=" M 544.17 415.55 C 544.03 411.87 547.01 408.37 550.75 408.23 C 550.21 411.67 547.98 415.29 544.17 415.55 Z" />
<path fill="#231f20" opacity="1.00" d=" M 533.18 419.27 C 534.37 417.12 536.80 416.34 538.99 415.63 C 541.60 416.38 544.35 418.11 547.03 416.50 C 550.12 414.93 553.93 416.07 555.99 418.76 C 551.17 421.58 551.82 429.26 556.88 431.44 C 555.83 434.31 554.10 436.85 552.01 439.05 C 549.66 439.11 547.35 438.80 545.07 438.35 C 542.51 438.49 539.83 439.63 537.33 438.70 C 532.65 433.82 528.91 425.51 533.18 419.27 Z" />
</g>
<g id="#070912ff">
<path fill="#070912" opacity="1.00" d=" M 168.13 417.40 C 168.64 417.53 169.65 417.80 170.16 417.93 C 170.15 451.63 169.78 485.34 170.04 519.04 C 169.82 521.69 172.65 523.32 175.03 523.01 C 191.69 523.06 208.35 522.98 225.01 522.99 C 239.59 523.25 254.19 522.40 268.75 523.09 C 270.30 524.86 272.13 526.35 274.13 527.59 C 270.16 528.86 266.10 527.25 262.07 527.25 C 252.33 527.18 242.60 527.16 232.86 527.15 C 229.95 525.15 226.61 523.44 222.98 523.64 C 219.69 523.67 216.84 525.48 214.08 527.06 C 200.71 527.13 187.34 527.14 173.98 527.10 C 171.24 527.27 169.08 525.43 166.95 523.99 C 167.23 492.43 166.77 460.87 167.24 429.31 C 168.34 425.43 167.86 421.37 168.13 417.40 Z" />
</g>
<g id="#98999cff">
<path fill="#98999c" opacity="1.00" d=" M 471.50 469.94 C 495.99 470.32 520.48 469.93 544.97 470.10 C 568.85 469.97 592.74 470.30 616.62 469.96 C 616.81 472.04 617.00 474.11 617.21 476.20 C 571.13 476.67 525.04 476.20 478.96 476.40 C 476.27 476.43 473.59 476.34 470.91 476.22 C 471.10 474.12 471.29 472.03 471.50 469.94 Z" />
<path fill="#98999c" opacity="1.00" d=" M 219.93 532.87 C 222.46 532.24 225.17 532.43 227.63 533.31 C 227.63 534.96 227.66 536.62 227.65 538.29 C 227.70 541.92 223.35 541.38 220.87 541.42 C 220.76 541.41 220.54 541.40 220.43 541.40 C 220.05 540.81 219.27 539.64 218.88 539.06 C 219.16 537.05 218.29 534.39 219.93 532.87 M 219.99 533.79 C 220.00 535.90 220.04 538.01 220.09 540.13 C 222.24 540.58 224.45 540.55 226.64 540.43 C 226.84 538.17 226.86 535.91 226.70 533.66 C 224.46 533.53 222.22 533.57 219.99 533.79 Z" />
</g>
<g id="#b4b4b6ff">
<path fill="#b4b4b6" opacity="1.00" d=" M 470.91 476.22 C 473.59 476.34 476.27 476.43 478.96 476.40 C 525.04 476.20 571.13 476.67 617.21 476.20 C 617.75 482.13 618.53 488.04 619.57 493.91 C 574.06 493.99 528.55 493.99 483.04 493.98 C 478.20 493.89 473.35 493.86 468.51 494.11 C 469.60 488.18 470.38 482.21 470.91 476.22 Z" />
</g>
<g id="#fdc1ffff">
<path fill="#fdc1ff" opacity="1.00" d=" M 781.12 478.18 C 852.68 478.12 924.25 478.02 995.81 478.22 C 995.84 490.77 995.84 503.31 995.84 515.86 C 924.25 515.96 852.66 515.92 781.08 515.89 C 781.11 503.32 781.06 490.75 781.12 478.18 Z" />
</g>
<g id="#a5a6a8ff">
<path fill="#a5a6a8" opacity="1.00" d=" M 468.51 494.11 C 473.35 493.86 478.20 493.89 483.04 493.98 C 528.55 493.99 574.06 493.99 619.57 493.91 C 619.83 495.08 620.06 496.27 620.27 497.46 C 619.67 498.79 618.52 499.50 617.05 499.23 C 567.20 499.22 517.35 499.23 467.50 499.21 C 467.80 497.50 468.14 495.80 468.51 494.11 Z" />
</g>
<g id="#909295ff">
<path fill="#909295" opacity="1.00" d=" M 620.27 497.46 L 620.38 497.30 C 620.96 499.87 621.45 502.58 622.98 504.80 C 625.50 507.95 628.65 510.51 631.33 513.52 C 627.59 514.11 623.80 514.03 620.04 513.97 C 573.34 514.09 526.65 513.97 479.95 514.04 C 472.19 513.58 464.39 514.62 456.66 513.55 C 460.61 509.10 466.43 505.60 467.32 499.21 L 467.50 499.21 C 517.35 499.23 567.20 499.22 617.05 499.23 C 618.52 499.50 619.67 498.79 620.27 497.46 Z" />
</g>
<g id="#a6a8a9ff">
<path fill="#a6a8a9" opacity="1.00" d=" M 450.82 518.69 C 452.77 516.98 454.59 515.11 456.66 513.55 C 464.39 514.62 472.19 513.58 479.95 514.04 C 526.65 513.97 573.34 514.09 620.04 513.97 C 623.80 514.03 627.59 514.11 631.33 513.52 C 633.51 514.92 635.27 516.93 637.26 518.62 C 630.87 519.31 624.44 518.89 618.03 518.95 C 570.70 518.92 523.37 519.06 476.04 518.98 C 467.63 518.69 459.21 519.43 450.82 518.69 Z" />
</g>
<g id="#babbbcff">
<path fill="#babbbc" opacity="1.00" d=" M 443.68 524.64 C 446.04 522.63 448.43 520.66 450.82 518.69 C 459.21 519.43 467.63 518.69 476.04 518.98 C 523.37 519.06 570.70 518.92 618.03 518.95 C 624.44 518.89 630.87 519.31 637.26 518.62 C 639.59 520.62 641.99 522.53 644.31 524.56 C 629.56 525.34 614.76 524.72 600.00 524.87 C 567.67 524.87 535.35 524.93 503.03 524.87 C 483.25 524.74 463.45 525.28 443.68 524.64 Z" />
</g>
<g id="#000004ff">
<path fill="#000004" opacity="1.00" d=" M 274.13 527.59 C 276.68 526.66 279.54 525.67 280.65 522.93 C 280.57 526.03 280.62 529.14 280.70 532.25 L 282.02 532.20 L 283.06 532.16 C 283.10 536.37 283.34 540.70 281.81 544.72 L 281.55 544.67 C 281.21 544.62 280.54 544.51 280.21 544.45 C 278.74 546.74 275.88 548.55 275.81 551.43 L 275.78 552.08 C 274.58 552.24 273.38 552.31 272.18 552.28 C 269.45 551.60 266.73 552.64 264.00 552.63 C 236.63 552.65 209.26 552.62 181.90 552.62 C 176.47 552.43 171.06 549.30 168.63 544.36 C 166.52 540.69 167.26 536.28 166.72 532.25 C 166.82 529.49 166.94 526.74 166.95 523.99 C 169.08 525.43 171.24 527.27 173.98 527.10 C 187.34 527.14 200.71 527.13 214.08 527.06 C 212.54 530.49 209.63 533.84 210.47 537.85 C 210.78 540.27 211.95 542.54 214.01 543.92 C 216.57 546.12 219.43 548.49 223.03 548.37 C 227.22 548.75 230.84 546.15 233.38 543.08 C 235.22 541.17 236.58 538.68 236.61 535.99 C 236.31 532.74 234.76 529.74 232.86 527.15 C 242.60 527.16 252.33 527.18 262.07 527.25 C 266.10 527.25 270.16 528.86 274.13 527.59 Z" />
<path fill="#000004" opacity="1.00" d=" M 215.17 529.19 C 219.73 525.14 227.24 525.26 231.81 529.22 C 233.88 531.30 234.69 534.24 235.23 537.05 C 232.70 537.43 230.17 537.84 227.65 538.29 C 227.66 536.62 227.63 534.96 227.63 533.31 C 225.17 532.43 222.46 532.24 219.93 532.87 C 218.29 534.39 219.16 537.05 218.88 539.06 C 217.02 537.04 214.13 537.39 211.67 537.04 C 212.37 534.26 213.09 531.29 215.17 529.19 Z" />
</g>
<g id="#232429ff">
<path fill="#232429" opacity="1.00" d=" M 214.08 527.06 C 216.84 525.48 219.69 523.67 222.98 523.64 C 226.61 523.44 229.95 525.15 232.86 527.15 C 234.76 529.74 236.31 532.74 236.61 535.99 C 236.58 538.68 235.22 541.17 233.38 543.08 C 233.18 542.61 232.78 541.68 232.58 541.21 C 228.81 541.48 223.78 545.16 220.87 541.42 C 223.35 541.38 227.70 541.92 227.65 538.29 C 230.17 537.84 232.70 537.43 235.23 537.05 C 234.69 534.24 233.88 531.30 231.81 529.22 C 227.24 525.26 219.73 525.14 215.17 529.19 C 213.09 531.29 212.37 534.26 211.67 537.04 C 214.13 537.39 217.02 537.04 218.88 539.06 C 219.27 539.64 220.05 540.81 220.43 541.40 C 220.05 541.54 219.28 541.82 218.90 541.97 C 216.92 541.23 215.06 540.25 213.18 539.29 C 213.47 540.83 213.75 542.37 214.01 543.92 C 211.95 542.54 210.78 540.27 210.47 537.85 C 209.63 533.84 212.54 530.49 214.08 527.06 Z" />
</g>
<g id="#c2c4c5ff">
<path fill="#c2c4c5" opacity="1.00" d=" M 437.86 529.20 C 439.83 527.71 441.76 526.19 443.68 524.64 C 463.45 525.28 483.25 524.74 503.03 524.87 C 535.35 524.93 567.67 524.87 600.00 524.87 C 614.76 524.72 629.56 525.34 644.31 524.56 C 646.39 526.29 648.80 527.70 650.43 529.93 C 650.16 530.52 649.61 531.70 649.34 532.28 C 645.27 533.03 641.12 533.01 637.00 532.94 C 572.68 533.41 508.35 533.25 444.03 532.88 C 443.30 532.74 441.82 532.47 441.09 532.34 C 440.80 532.33 440.23 532.33 439.94 532.32 C 439.63 532.32 439.01 532.30 438.70 532.30 C 438.49 531.52 438.07 529.97 437.86 529.20 Z" />
</g>
<g id="#02010137">
<path fill="#020101" opacity="0.22" d=" M 437.43 535.67 C 436.96 533.56 436.79 531.16 437.86 529.20 C 438.07 529.97 438.49 531.52 438.70 532.30 C 439.01 532.30 439.63 532.32 439.94 532.32 C 439.54 532.53 438.75 532.94 438.36 533.15 C 437.79 535.62 440.50 535.56 442.01 535.62 C 452.15 535.54 462.30 535.85 472.44 535.58 C 526.02 536.09 579.63 535.66 633.22 535.78 C 638.22 535.88 643.28 536.06 648.26 535.39 C 647.81 538.50 644.29 538.11 641.94 538.12 C 603.62 537.97 565.31 538.19 526.99 538.08 C 498.67 537.59 470.33 538.01 442.01 537.79 C 440.29 537.77 438.50 537.01 437.43 535.67 Z" />
</g>
<g id="#979595ff">
<path fill="#979595" opacity="1.00" d=" M 439.94 532.32 C 440.23 532.33 440.80 532.33 441.09 532.34 C 441.82 532.47 443.30 532.74 444.03 532.88 C 508.35 533.25 572.68 533.41 637.00 532.94 C 641.12 533.01 645.27 533.03 649.34 532.28 C 648.96 533.31 648.60 534.34 648.26 535.39 C 643.28 536.06 638.22 535.88 633.22 535.78 C 630.85 535.21 628.49 534.50 626.05 534.53 C 585.70 533.50 545.33 534.21 504.97 534.00 C 487.67 534.32 470.38 534.39 453.08 534.51 C 459.51 535.05 466.18 533.74 472.44 535.58 C 462.30 535.85 452.15 535.54 442.01 535.62 C 440.50 535.56 437.79 535.62 438.36 533.15 C 438.75 532.94 439.54 532.53 439.94 532.32 Z" />
</g>
<g id="#020204ff">
<path fill="#020204" opacity="1.00" d=" M 219.99 533.79 C 222.22 533.57 224.46 533.53 226.70 533.66 C 226.86 535.91 226.84 538.17 226.64 540.43 C 224.45 540.55 222.24 540.58 220.09 540.13 C 220.04 538.01 220.00 535.90 219.99 533.79 Z" />
<path fill="#020204" opacity="1.00" d=" M 1018.92 554.25 C 1020.36 553.56 1021.82 552.84 1023.27 552.13 L 1024.01 552.25 C 1016.30 557.31 1006.88 556.36 998.12 556.66 C 988.82 557.88 979.40 557.11 970.05 557.34 C 907.02 557.30 843.99 557.42 780.97 557.28 C 772.33 556.91 763.66 556.33 755.04 556.63 C 755.78 556.43 757.27 556.04 758.02 555.84 C 757.55 555.36 756.60 554.38 756.12 553.89 C 756.47 554.05 757.16 554.36 757.50 554.52 C 759.35 556.71 762.36 556.29 764.93 556.34 C 773.62 556.09 782.32 556.61 790.99 555.80 C 845.72 555.65 900.44 556.12 955.17 555.71 C 975.11 555.57 995.08 556.22 1015.01 555.21 C 1016.29 554.83 1017.59 554.52 1018.92 554.25 Z" />
<path fill="#020204" opacity="1.00" d=" M 173.95 553.12 C 176.59 553.68 179.28 554.08 181.98 554.13 C 207.64 554.11 233.30 554.12 258.95 554.09 C 263.42 553.98 268.14 554.84 272.32 552.76 C 272.58 552.75 273.11 552.73 273.37 552.72 C 272.36 553.62 271.35 554.52 270.32 555.42 C 260.62 556.85 250.79 556.21 241.00 556.34 C 223.34 556.35 205.68 556.33 188.02 556.35 C 183.77 556.56 179.63 554.97 175.37 555.57 C 175.50 555.29 175.77 554.73 175.91 554.45 C 175.42 554.12 174.44 553.45 173.95 553.12 Z" />
</g>
<g id="#1a1c1eff">
<path fill="#1a1c1e" opacity="1.00" d=" M 885.11 536.45 C 886.37 534.07 890.51 534.06 891.97 536.23 C 890.71 537.95 890.42 541.72 887.46 540.57 C 886.56 539.26 885.87 537.82 885.11 536.45 Z" />
</g>
<g id="#434547ff">
<path fill="#434547" opacity="1.00" d=" M 885.11 536.45 C 885.87 537.82 886.56 539.26 887.46 540.57 C 890.42 541.72 890.71 537.95 891.97 536.23 L 892.01 537.88 C 891.82 539.29 892.16 541.06 890.98 542.14 C 889.27 542.59 887.50 542.25 885.79 542.24 C 885.49 540.84 885.20 539.43 885.02 538.03 L 885.11 536.45 Z" />
</g>
<g id="#484a4dff">
<path fill="#484a4d" opacity="1.00" d=" M 882.39 543.60 C 886.67 542.58 891.24 543.01 895.65 542.69 C 893.35 547.98 885.40 548.46 882.39 543.60 Z" />
</g>
<g id="#414244a0">
<path fill="#414244" opacity="0.63" d=" M 1025.07 551.03 C 1025.15 549.91 1025.77 549.20 1026.95 548.89 C 1027.30 550.48 1026.67 551.19 1025.07 551.03 Z" />
</g>
</svg>
