<?xml version="1.0" encoding="UTF-8" ?>
<!DOCTYPE svg PUBLIC "-//W3C//DTD SVG 1.1//EN" "http://www.w3.org/Graphics/SVG/1.1/DTD/svg11.dtd">
<svg width="800pt" height="800pt" viewBox="0 0 800 800" version="1.1" xmlns="http://www.w3.org/2000/svg">
<g id="#007affff">
<path fill="#007aff" opacity="1.00" d=" M 389.59 32.83 C 404.99 30.41 421.15 33.52 434.59 41.43 C 524.20 91.81 613.87 142.12 703.45 192.56 C 719.65 201.92 731.54 218.49 734.89 236.93 C 736.36 244.19 735.95 251.63 736.00 258.98 C 735.99 356.66 736.02 454.33 735.99 552.00 C 735.93 574.79 722.63 596.71 702.81 607.80 C 616.20 656.50 529.56 705.14 442.95 753.82 C 436.42 757.39 430.10 761.45 423.05 763.93 C 407.34 769.62 389.54 769.27 374.12 762.81 C 368.87 760.69 364.04 757.70 359.10 754.97 C 271.61 705.78 184.08 656.66 96.61 607.43 C 80.68 598.27 68.89 582.16 65.30 564.10 C 63.85 557.51 63.97 550.73 64.00 544.02 C 64.01 445.35 63.97 346.69 64.02 248.02 C 64.03 225.21 77.37 203.25 97.21 192.17 C 186.58 141.89 275.99 91.70 365.37 41.45 C 372.83 37.13 381.05 34.11 389.59 32.83 M 306.32 232.44 C 275.94 249.41 250.38 274.85 233.14 305.07 C 214.17 338.12 205.55 376.94 208.58 414.92 C 211.65 456.15 228.69 496.13 256.16 527.01 C 280.61 554.75 313.19 575.25 348.85 585.05 C 388.22 596.05 431.11 593.91 469.21 579.10 C 502.19 566.45 531.35 544.26 552.68 516.13 C 529.32 502.60 505.96 489.07 482.60 475.54 C 465.09 494.71 440.76 507.51 415.03 510.97 C 392.41 514.10 368.88 510.00 348.62 499.48 C 319.71 484.62 297.89 456.66 290.81 424.90 C 285.06 399.85 288.24 372.84 299.85 349.89 C 312.72 324.09 335.91 303.62 363.18 294.23 C 387.54 285.71 414.90 285.92 439.05 295.08 C 455.62 301.24 470.66 311.40 482.60 324.43 C 505.95 310.87 529.35 297.40 552.68 283.81 C 543.72 272.06 533.48 261.29 522.08 251.89 C 488.95 224.23 446.15 208.52 403.00 208.05 C 369.37 207.44 335.62 215.91 306.32 232.44 M 560.00 320.00 C 560.00 330.67 560.00 341.33 560.00 352.00 C 549.33 352.00 538.67 352.00 528.00 352.00 C 528.00 362.67 528.00 373.33 528.00 384.00 C 538.67 384.00 549.33 384.00 560.00 384.00 C 560.00 394.67 560.00 405.33 560.00 416.00 C 549.33 416.00 538.67 416.00 528.00 416.00 C 528.00 426.67 528.00 437.33 528.00 448.00 C 538.67 448.00 549.33 448.00 560.00 448.00 C 560.00 458.67 560.00 469.33 560.00 480.00 C 570.67 480.00 581.33 480.00 592.00 480.00 C 592.00 469.33 591.99 458.67 592.00 448.00 C 602.67 448.00 613.33 448.00 624.00 448.00 C 624.00 458.67 624.00 469.33 624.00 480.00 C 634.67 480.00 645.33 480.00 656.00 480.00 C 656.00 469.33 656.00 458.67 656.00 448.00 C 666.67 448.00 677.33 448.00 688.00 448.00 C 688.00 437.33 688.00 426.67 688.00 416.00 C 677.33 416.00 666.67 416.00 656.00 416.00 C 656.00 405.33 656.00 394.67 656.00 384.00 C 666.67 384.00 677.33 384.00 688.00 384.00 C 688.00 373.33 688.00 362.67 688.00 352.00 C 677.33 352.00 666.67 352.00 656.00 352.00 C 656.00 341.33 656.00 330.67 656.00 320.00 C 645.33 320.00 634.67 320.00 624.00 320.00 C 624.00 330.67 624.00 341.33 624.00 352.00 C 613.33 352.00 602.67 352.00 592.00 352.00 C 591.99 341.33 592.00 330.67 592.00 320.00 C 581.33 320.00 570.67 320.00 560.00 320.00 Z" />
<path fill="#007aff" opacity="1.00" d=" M 592.00 384.00 C 602.67 384.00 613.33 384.00 624.00 384.00 C 624.00 394.67 624.00 405.33 624.00 416.00 C 613.33 416.00 602.67 416.00 592.00 416.00 C 592.00 405.33 592.00 394.67 592.00 384.00 Z" />
</g>
</svg>
