<?xml version="1.0" encoding="UTF-8" ?>
<!DOCTYPE svg PUBLIC "-//W3C//DTD SVG 1.1//EN" "http://www.w3.org/Graphics/SVG/1.1/DTD/svg11.dtd">
<svg width="1200pt" height="1319pt" viewBox="0 0 1200 1319" version="1.1" xmlns="http://www.w3.org/2000/svg">
<g id="#9e72d9ff">
<path fill="#9e72d9" opacity="1.00" d=" M 552.86 64.84 C 569.46 55.39 589.11 52.53 607.97 53.73 C 621.86 54.69 635.79 58.14 647.86 65.24 C 793.44 149.29 938.99 233.39 1084.56 317.44 C 1101.12 326.31 1114.63 340.30 1124.34 356.26 C 1053.23 397.58 981.96 438.64 910.84 479.94 C 878.33 427.46 834.47 381.42 781.18 349.81 C 750.80 331.65 717.59 318.27 683.12 310.26 C 602.23 291.24 515.20 302.31 440.73 338.74 C 372.09 371.92 313.91 427.13 279.16 495.17 C 253.68 544.66 241.06 600.39 241.02 655.96 C 241.73 719.88 257.25 784.08 289.05 839.75 C 217.86 880.97 146.67 922.17 75.48 963.38 C 66.76 948.80 62.10 931.94 61.37 915.01 C 61.38 801.02 61.36 687.03 61.36 573.03 C 61.64 517.35 61.51 461.67 61.52 405.98 C 60.95 383.14 70.43 361.03 84.21 343.18 C 91.37 334.00 100.15 325.97 110.39 320.34 C 257.89 235.19 405.37 150.00 552.86 64.84 Z" />
<path fill="#9e72d9" opacity="1.00" d=" M 581.05 480.87 C 616.17 476.93 652.48 483.65 683.65 500.37 C 713.49 516.21 738.24 540.92 755.51 569.85 C 703.77 599.72 652.06 629.66 600.38 659.63 C 548.59 689.58 496.85 719.61 445.03 749.53 C 429.00 722.25 420.71 690.60 420.55 659.01 C 421.53 635.99 426.11 613.06 434.71 591.66 C 445.17 565.45 461.88 541.71 483.28 523.28 C 510.56 499.65 545.20 484.77 581.05 480.87 Z" />
</g>
<g id="#ffffffff">
<path fill="#ffffff" opacity="1.00" d=" M 440.73 338.74 C 515.20 302.31 602.23 291.24 683.12 310.26 C 717.59 318.27 750.80 331.65 781.18 349.81 C 834.47 381.42 878.33 427.46 910.84 479.94 C 859.09 509.97 807.31 539.94 755.51 569.85 C 738.24 540.92 713.49 516.21 683.65 500.37 C 652.48 483.65 616.17 476.93 581.05 480.87 C 545.20 484.77 510.56 499.65 483.28 523.28 C 461.88 541.71 445.17 565.45 434.71 591.66 C 426.11 613.06 421.53 635.99 420.55 659.01 C 420.71 690.60 429.00 722.25 445.03 749.53 C 462.06 778.71 487.51 802.83 517.40 818.54 C 544.54 832.87 575.31 840.45 606.03 839.69 C 637.51 839.06 668.71 829.38 695.05 812.14 C 719.69 796.18 739.94 774.04 755.44 749.23 C 807.30 779.09 859.03 809.18 910.85 839.11 C 893.94 868.37 873.39 895.60 849.24 919.27 C 823.11 945.04 792.83 966.59 759.88 982.76 C 722.97 1000.86 682.81 1012.31 641.92 1016.52 C 550.61 1026.29 455.84 1000.62 382.40 945.36 C 344.54 917.00 312.41 880.92 289.05 839.75 C 257.25 784.08 241.73 719.88 241.02 655.96 C 241.06 600.39 253.68 544.66 279.16 495.17 C 313.91 427.13 372.09 371.92 440.73 338.74 Z" />
<path fill="#ffffff" opacity="1.00" d=" M 833.14 557.66 C 843.00 557.65 852.86 557.66 862.72 557.66 C 861.15 573.13 859.50 588.60 857.94 604.07 C 869.16 604.01 880.40 604.23 891.63 603.96 C 893.20 588.51 894.84 573.07 896.55 557.64 C 906.40 557.69 916.25 557.64 926.11 557.67 C 924.51 573.14 922.89 588.61 921.31 604.08 C 930.18 604.07 939.05 604.07 947.93 604.08 C 947.93 613.61 947.95 623.14 947.91 632.68 C 938.09 632.62 928.27 632.74 918.46 632.61 C 916.79 646.28 915.57 660.01 914.10 673.71 C 922.59 673.66 931.07 673.75 939.56 673.66 C 939.67 683.22 939.76 692.80 939.52 702.36 C 930.06 702.20 920.61 702.34 911.16 702.28 C 909.35 719.18 907.64 736.09 905.89 752.99 C 895.84 753.01 885.79 753.00 875.74 753.00 C 877.52 736.09 879.34 719.20 881.12 702.29 C 869.96 702.40 858.79 702.07 847.65 702.46 C 846.15 719.29 844.13 736.07 842.58 752.90 C 832.51 753.14 822.44 752.94 812.37 753.00 C 814.15 736.10 815.94 719.20 817.76 702.30 C 809.08 702.27 800.39 702.31 791.71 702.29 C 791.70 692.76 791.70 683.23 791.71 673.70 C 801.40 673.68 811.08 673.70 820.77 673.70 C 822.27 660.03 823.68 646.35 825.16 632.68 C 816.78 632.68 808.41 632.64 800.04 632.69 C 799.93 623.16 800.00 613.62 799.99 604.08 C 809.39 604.06 818.80 604.10 828.20 604.06 C 829.84 588.59 831.48 573.12 833.14 557.66 M 854.97 632.68 C 853.51 646.32 852.21 659.98 850.68 673.61 C 861.80 673.84 872.93 673.58 884.06 673.74 C 885.75 660.08 887.01 646.35 888.53 632.67 C 877.34 632.68 866.15 632.66 854.97 632.68 Z" />
</g>
<g id="#390090ff">
<path fill="#390090" opacity="1.00" d=" M 1124.34 356.26 C 1130.54 367.03 1135.21 378.75 1137.24 391.04 C 1138.91 400.26 1138.32 409.65 1138.42 418.97 C 1138.41 584.33 1138.41 749.68 1138.41 915.04 C 1138.20 931.86 1133.32 948.43 1125.00 963.00 C 1093.32 944.19 1061.21 926.07 1029.39 907.49 C 989.84 884.76 950.42 861.80 910.85 839.11 C 859.03 809.18 807.30 779.09 755.44 749.23 C 728.55 734.10 702.04 718.30 675.23 703.01 C 650.25 688.61 625.32 674.12 600.38 659.63 C 652.06 629.66 703.77 599.72 755.51 569.85 C 807.31 539.94 859.09 509.97 910.84 479.94 C 981.96 438.64 1053.23 397.58 1124.34 356.26 M 833.14 557.66 C 831.48 573.12 829.84 588.59 828.20 604.06 C 818.80 604.10 809.39 604.06 799.99 604.08 C 800.00 613.62 799.93 623.16 800.04 632.69 C 808.41 632.64 816.78 632.68 825.16 632.68 C 823.68 646.35 822.27 660.03 820.77 673.70 C 811.08 673.70 801.40 673.68 791.71 673.70 C 791.70 683.23 791.70 692.76 791.71 702.29 C 800.39 702.31 809.08 702.27 817.76 702.30 C 815.94 719.20 814.15 736.10 812.37 753.00 C 822.44 752.94 832.51 753.14 842.58 752.90 C 844.13 736.07 846.15 719.29 847.65 702.46 C 858.79 702.07 869.96 702.40 881.12 702.29 C 879.34 719.20 877.52 736.09 875.74 753.00 C 885.79 753.00 895.84 753.01 905.89 752.99 C 907.64 736.09 909.35 719.18 911.16 702.28 C 920.61 702.34 930.06 702.20 939.52 702.36 C 939.76 692.80 939.67 683.22 939.56 673.66 C 931.07 673.75 922.59 673.66 914.10 673.71 C 915.57 660.01 916.79 646.28 918.46 632.61 C 928.27 632.74 938.09 632.62 947.91 632.68 C 947.95 623.14 947.93 613.61 947.93 604.08 C 939.05 604.07 930.18 604.07 921.31 604.08 C 922.89 588.61 924.51 573.14 926.11 557.67 C 916.25 557.64 906.40 557.69 896.55 557.64 C 894.84 573.07 893.20 588.51 891.63 603.96 C 880.40 604.23 869.16 604.01 857.94 604.07 C 859.50 588.60 861.15 573.13 862.72 557.66 C 852.86 557.66 843.00 557.65 833.14 557.66 Z" />
<path fill="#390090" opacity="1.00" d=" M 854.97 632.68 C 866.15 632.66 877.34 632.68 888.53 632.67 C 887.01 646.35 885.75 660.08 884.06 673.74 C 872.93 673.58 861.80 673.84 850.68 673.61 C 852.21 659.98 853.51 646.32 854.97 632.68 Z" />
<path fill="#390090" opacity="1.00" d=" M 75.48 963.38 C 146.67 922.17 217.86 880.97 289.05 839.75 C 312.41 880.92 344.54 917.00 382.40 945.36 C 339.02 978.94 295.95 1012.94 252.63 1046.61 C 244.51 1053.40 235.62 1059.26 227.82 1066.43 C 195.67 1047.85 163.52 1029.29 131.37 1010.73 C 119.80 1003.69 107.27 998.00 97.06 988.95 C 88.51 981.69 81.33 972.93 75.48 963.38 Z" />
</g>
<g id="#2d006fff">
<path fill="#2d006f" opacity="1.00" d=" M 445.03 749.53 C 496.85 719.61 548.59 689.58 600.38 659.63 C 625.32 674.12 650.25 688.61 675.23 703.01 C 702.04 718.30 728.55 734.10 755.44 749.23 C 739.94 774.04 719.69 796.18 695.05 812.14 C 668.71 829.38 637.51 839.06 606.03 839.69 C 575.31 840.45 544.54 832.87 517.40 818.54 C 487.51 802.83 462.06 778.71 445.03 749.53 Z" />
<path fill="#2d006f" opacity="1.00" d=" M 910.85 839.11 C 950.42 861.80 989.84 884.76 1029.39 907.49 C 1061.21 926.07 1093.32 944.19 1125.00 963.00 C 1115.71 978.83 1102.00 992.11 1085.83 1000.82 C 940.01 1085.02 794.20 1169.24 648.38 1253.44 C 634.73 1261.56 618.79 1265.06 603.04 1265.48 C 589.18 1265.82 575.16 1263.83 562.24 1258.71 C 555.84 1256.16 550.02 1252.45 544.06 1249.06 C 438.65 1188.18 333.21 1127.34 227.82 1066.43 C 235.62 1059.26 244.51 1053.40 252.63 1046.61 C 295.95 1012.94 339.02 978.94 382.40 945.36 C 455.84 1000.62 550.61 1026.29 641.92 1016.52 C 682.81 1012.31 722.97 1000.86 759.88 982.76 C 792.83 966.59 823.11 945.04 849.24 919.27 C 873.39 895.60 893.94 868.37 910.85 839.11 Z" />
</g>
</svg>
