<?xml version="1.0" encoding="UTF-8" ?>
<!DOCTYPE svg PUBLIC "-//W3C//DTD SVG 1.1//EN" "http://www.w3.org/Graphics/SVG/1.1/DTD/svg11.dtd">
<svg width="512pt" height="512pt" viewBox="0 0 512 512" version="1.1" xmlns="http://www.w3.org/2000/svg">
<g id="#30c626ff">
<path fill="#30c626" opacity="1.00" d=" M 251.16 0.00 L 262.73 0.00 C 296.79 1.02 330.65 8.65 361.69 22.74 C 319.80 64.16 278.27 105.95 236.17 147.16 C 226.40 157.39 216.36 167.36 206.08 177.08 C 194.77 188.43 183.53 199.86 172.06 211.06 C 169.34 213.39 168.06 216.84 167.27 220.22 C 162.68 238.53 157.11 256.59 152.66 274.93 C 146.24 300.46 138.70 325.68 132.10 351.16 C 128.26 366.11 123.29 380.78 120.05 395.88 C 118.83 400.09 122.67 404.72 127.04 404.09 C 134.42 403.01 141.55 400.73 148.74 398.80 C 163.46 394.49 178.37 390.91 193.13 386.75 C 212.70 381.38 232.45 376.65 251.96 371.04 C 270.66 365.91 289.47 361.20 308.20 356.21 C 311.40 355.55 313.57 352.96 315.88 350.87 C 327.24 339.89 337.99 328.30 349.39 317.37 C 356.39 311.43 362.48 304.53 368.92 298.01 C 387.97 279.03 407.12 260.15 426.10 241.11 C 435.07 233.47 442.72 224.46 451.18 216.27 C 466.54 200.93 482.09 185.76 497.33 170.31 C 506.21 195.39 510.94 221.85 512.00 248.40 L 512.00 263.57 C 510.69 298.20 502.87 332.68 488.08 364.08 C 471.31 400.11 445.97 432.10 414.80 456.75 C 383.43 481.65 346.13 499.03 306.85 506.90 C 292.63 509.88 278.12 511.22 263.63 512.00 L 248.40 512.00 C 209.83 510.59 171.47 500.90 137.29 482.84 C 89.90 458.10 50.67 418.12 26.86 370.27 C 9.71 336.10 0.55 298.01 0.00 259.80 L 0.00 249.18 C 1.41 195.73 19.93 142.86 52.62 100.51 C 80.03 64.61 117.09 36.12 158.92 19.05 C 188.12 7.01 219.59 0.65 251.16 0.00 Z" />
<path fill="#30c626" opacity="1.00" d=" M 400.58 44.62 C 404.64 47.52 408.61 50.57 412.72 53.38 L 411.92 53.49 C 385.54 79.22 359.81 105.62 333.55 131.48 C 321.45 143.74 308.89 155.53 296.84 167.84 C 282.46 183.13 266.89 197.23 252.23 212.25 C 247.07 217.75 241.16 222.51 236.22 228.21 C 233.58 231.25 231.17 236.08 234.25 239.67 C 237.58 243.34 241.24 246.72 244.71 250.27 C 255.13 259.86 264.51 270.49 274.86 280.15 C 278.93 284.03 282.44 288.68 287.34 291.58 C 290.99 293.11 294.73 290.76 297.38 288.37 C 348.39 237.73 399.41 187.10 450.39 136.42 C 457.49 130.07 463.62 122.76 470.55 116.23 C 473.17 120.35 475.67 124.56 478.23 128.73 C 465.91 141.57 452.88 153.69 440.30 166.27 C 430.87 176.16 420.99 185.62 411.45 195.40 C 403.45 202.40 396.37 210.34 388.77 217.74 C 363.18 243.16 337.60 268.60 312.01 294.02 C 308.34 297.62 304.08 301.09 302.36 306.13 C 301.05 309.68 301.61 313.55 302.37 317.15 C 303.92 324.23 306.40 331.06 308.31 338.04 C 307.03 341.68 303.03 343.85 299.36 344.55 C 273.48 350.98 247.86 358.41 222.03 365.00 C 220.14 363.99 219.02 361.93 217.30 360.64 C 207.94 352.69 200.25 343.03 191.21 334.75 C 180.08 324.69 170.01 313.53 159.27 303.07 C 166.31 276.51 173.41 249.93 180.56 223.39 C 181.44 220.68 183.56 218.24 186.07 216.98 C 194.77 218.86 203.08 222.48 211.97 223.47 C 217.51 224.18 222.89 221.54 226.62 217.57 C 261.87 182.17 297.56 147.22 332.89 111.90 C 355.45 89.47 378.20 67.22 400.58 44.62 Z" />
</g>
<g id="#fefefeff">
<path fill="#fefefe" opacity="1.00" d=" M 361.69 22.74 C 375.31 28.77 388.29 36.22 400.58 44.62 C 378.20 67.22 355.45 89.47 332.89 111.90 C 297.56 147.22 261.87 182.17 226.62 217.57 C 222.89 221.54 217.51 224.18 211.97 223.47 C 203.08 222.48 194.77 218.86 186.07 216.98 C 183.56 218.24 181.44 220.68 180.56 223.39 C 173.41 249.93 166.31 276.51 159.27 303.07 C 170.01 313.53 180.08 324.69 191.21 334.75 C 200.25 343.03 207.94 352.69 217.30 360.64 C 219.02 361.93 220.14 363.99 222.03 365.00 C 247.86 358.41 273.48 350.98 299.36 344.55 C 303.03 343.85 307.03 341.68 308.31 338.04 C 306.40 331.06 303.92 324.23 302.37 317.15 C 301.61 313.55 301.05 309.68 302.36 306.13 C 304.08 301.09 308.34 297.62 312.01 294.02 C 337.60 268.60 363.18 243.16 388.77 217.74 C 396.37 210.34 403.45 202.40 411.45 195.40 C 420.99 185.62 430.87 176.16 440.30 166.27 C 452.88 153.69 465.91 141.57 478.23 128.73 C 485.86 141.95 492.32 155.88 497.33 170.31 C 482.09 185.76 466.54 200.93 451.18 216.27 C 442.72 224.46 435.07 233.47 426.10 241.11 C 407.12 260.15 387.97 279.03 368.92 298.01 C 362.48 304.53 356.39 311.43 349.39 317.37 C 337.99 328.30 327.24 339.89 315.88 350.87 C 313.57 352.96 311.40 355.55 308.20 356.21 C 289.47 361.20 270.66 365.91 251.96 371.04 C 232.45 376.65 212.70 381.38 193.13 386.75 C 178.37 390.91 163.46 394.49 148.74 398.80 C 141.55 400.73 134.42 403.01 127.04 404.09 C 122.67 404.72 118.83 400.09 120.05 395.88 C 123.29 380.78 128.26 366.11 132.10 351.16 C 138.70 325.68 146.24 300.46 152.66 274.93 C 157.11 256.59 162.68 238.53 167.27 220.22 C 168.06 216.84 169.34 213.39 172.06 211.06 C 183.53 199.86 194.77 188.43 206.08 177.08 C 216.36 167.36 226.40 157.39 236.17 147.16 C 278.27 105.95 319.80 64.16 361.69 22.74 Z" />
<path fill="#fefefe" opacity="1.00" d=" M 333.55 131.48 C 359.81 105.62 385.54 79.22 411.92 53.49 L 412.72 53.38 C 435.22 71.02 455.03 92.19 470.55 116.23 C 463.62 122.76 457.49 130.07 450.39 136.42 C 399.41 187.10 348.39 237.73 297.38 288.37 C 294.73 290.76 290.99 293.11 287.34 291.58 C 282.44 288.68 278.93 284.03 274.86 280.15 C 264.51 270.49 255.13 259.86 244.71 250.27 C 241.24 246.72 237.58 243.34 234.25 239.67 C 231.17 236.08 233.58 231.25 236.22 228.21 C 241.16 222.51 247.07 217.75 252.23 212.25 C 266.89 197.23 282.46 183.13 296.84 167.84 C 308.89 155.53 321.45 143.74 333.55 131.48 Z" />
</g>
</svg>
