<?xml version="1.0" encoding="UTF-8" ?>
<!DOCTYPE svg PUBLIC "-//W3C//DTD SVG 1.1//EN" "http://www.w3.org/Graphics/SVG/1.1/DTD/svg11.dtd">
<svg width="600pt" height="847pt" viewBox="0 0 600 847" version="1.1" xmlns="http://www.w3.org/2000/svg">
<g id="#264de4ff">
<path fill="#264de4" opacity="1.00" d=" M 0.00 166.38 C 199.85 166.36 399.71 166.34 599.56 166.40 C 581.34 370.30 563.18 574.21 544.95 778.11 L 544.58 778.56 C 463.97 800.84 383.39 823.25 302.79 845.57 C 301.58 845.88 300.43 846.36 299.34 847.00 L 299.31 847.00 C 297.53 845.69 295.33 845.40 293.28 844.78 C 213.71 822.67 134.13 800.62 54.57 778.47 C 37.04 582.00 19.54 385.53 2.02 189.06 C 1.26 182.47 1.20 175.75 0.00 169.25 L 0.00 166.38 M 300.29 216.25 C 300.18 216.68 299.96 217.54 299.85 217.96 C 299.77 242.47 300.02 266.99 299.76 291.50 C 237.04 291.61 174.31 291.43 111.58 291.58 C 113.92 316.56 116.12 341.55 118.43 366.54 C 178.93 366.56 239.44 366.47 299.95 366.58 C 299.77 392.19 299.84 417.81 299.92 443.42 C 241.67 443.50 183.42 443.48 125.17 443.43 C 127.26 468.40 129.67 493.34 131.79 518.31 C 133.12 518.76 134.57 518.39 135.95 518.50 C 190.62 518.53 245.29 518.45 299.96 518.54 C 299.72 534.37 299.91 550.20 299.85 566.03 C 300.00 590.13 299.66 614.25 299.99 638.35 C 296.64 638.21 293.36 636.69 290.03 636.00 C 265.30 629.32 240.57 622.62 215.83 615.97 C 214.09 596.09 212.19 576.22 210.58 556.33 L 210.11 556.15 C 185.14 556.08 160.16 556.14 135.19 556.12 C 138.75 595.40 142.16 634.69 145.75 673.96 C 196.85 688.06 247.91 702.29 298.99 716.49 C 299.50 716.43 300.53 716.32 301.04 716.26 L 300.38 716.62 C 299.79 718.34 299.83 720.18 299.83 722.00 C 300.05 745.96 299.50 769.98 300.15 793.91 C 301.24 793.91 302.31 793.76 303.36 793.47 C 368.15 775.52 432.92 757.58 497.69 739.57 C 499.21 734.97 498.75 730.06 499.46 725.33 C 513.93 562.55 528.56 399.80 543.00 237.02 C 543.21 230.07 544.97 223.21 544.73 216.25 C 463.25 216.21 381.77 216.21 300.29 216.25 Z" />
</g>
<g id="#2965f1ff">
<path fill="#2965f1" opacity="1.00" d=" M 300.29 216.25 C 381.77 216.21 463.25 216.21 544.73 216.25 C 544.97 223.21 543.21 230.07 543.00 237.02 C 528.56 399.80 513.93 562.55 499.46 725.33 C 498.75 730.06 499.21 734.97 497.69 739.57 C 432.92 757.58 368.15 775.52 303.36 793.47 C 302.31 793.76 301.24 793.91 300.15 793.91 C 299.50 769.98 300.05 745.96 299.83 722.00 C 299.83 720.18 299.79 718.34 300.38 716.62 L 301.04 716.26 C 345.15 703.95 389.30 691.78 433.43 679.53 C 440.08 677.50 446.98 676.11 453.48 673.70 C 464.70 546.29 476.29 418.92 487.53 291.51 C 424.94 291.44 362.35 291.47 299.76 291.50 C 300.02 266.99 299.77 242.47 299.85 217.96 C 299.96 217.54 300.18 216.68 300.29 216.25 Z" />
<path fill="#2965f1" opacity="1.00" d=" M 299.95 366.58 C 335.03 366.65 370.11 366.54 405.19 366.63 C 402.98 392.23 400.82 417.84 398.31 443.40 C 365.51 443.42 332.72 443.38 299.92 443.42 C 299.84 417.81 299.77 392.19 299.95 366.58 Z" />
<path fill="#2965f1" opacity="1.00" d=" M 299.96 518.54 C 330.62 518.60 361.27 518.51 391.92 518.59 C 388.98 550.99 386.16 583.41 383.18 615.81 C 355.50 623.48 327.72 630.83 299.99 638.35 C 299.66 614.25 300.00 590.13 299.85 566.03 C 299.91 550.20 299.72 534.37 299.96 518.54 Z" />
</g>
<g id="#f6f6f6ff">
<path fill="#f6f6f6" opacity="1.00" d=" M 111.58 291.58 C 174.31 291.43 237.04 291.61 299.76 291.50 C 362.35 291.47 424.94 291.44 487.53 291.51 C 476.29 418.92 464.70 546.29 453.48 673.70 C 446.98 676.11 440.08 677.50 433.43 679.53 C 389.30 691.78 345.15 703.95 301.04 716.26 C 300.53 716.32 299.50 716.43 298.99 716.49 C 247.91 702.29 196.85 688.06 145.75 673.96 C 142.16 634.69 138.75 595.40 135.19 556.12 C 160.16 556.14 185.14 556.08 210.11 556.15 L 210.58 556.33 C 212.19 576.22 214.09 596.09 215.83 615.97 C 240.57 622.62 265.30 629.32 290.03 636.00 C 293.36 636.69 296.64 638.21 299.99 638.35 C 327.72 630.83 355.50 623.48 383.18 615.81 C 386.16 583.41 388.98 550.99 391.92 518.59 C 361.27 518.51 330.62 518.60 299.96 518.54 C 245.29 518.45 190.62 518.53 135.95 518.50 C 134.57 518.39 133.12 518.76 131.79 518.31 C 129.67 493.34 127.26 468.40 125.17 443.43 C 183.42 443.48 241.67 443.50 299.92 443.42 C 332.72 443.38 365.51 443.42 398.31 443.40 C 400.82 417.84 402.98 392.23 405.19 366.63 C 370.11 366.54 335.03 366.65 299.95 366.58 C 239.44 366.47 178.93 366.56 118.43 366.54 C 116.12 341.55 113.92 316.56 111.58 291.58 Z" />
</g>
</svg>
