<?xml version="1.0" encoding="UTF-8" ?>
<!DOCTYPE svg PUBLIC "-//W3C//DTD SVG 1.1//EN" "http://www.w3.org/Graphics/SVG/1.1/DTD/svg11.dtd">
<svg width="1764pt" height="214pt" viewBox="0 0 1764 214" version="1.1" xmlns="http://www.w3.org/2000/svg">
<g id="#ffffffff">
<path fill="#ffffff" opacity="1.00" d=" M 42.75 13.71 C 51.75 7.23 63.42 6.38 74.13 7.40 C 82.68 8.79 92.15 11.09 97.66 18.37 C 102.13 23.90 104.12 31.50 102.23 38.42 C 100.57 42.95 94.18 43.35 91.19 39.93 C 87.20 35.21 87.53 27.67 82.12 23.97 C 76.06 20.55 68.83 20.35 62.09 21.15 C 57.00 22.02 51.75 24.68 49.37 29.49 C 44.92 37.34 47.03 46.74 46.47 55.33 C 55.32 55.17 64.17 55.27 73.03 55.26 C 76.32 55.38 80.29 55.64 82.28 58.69 C 83.63 61.49 82.78 64.79 80.90 67.12 C 75.48 69.06 69.67 68.41 64.03 68.50 C 58.15 68.44 52.25 68.65 46.37 68.37 C 46.68 96.90 46.40 125.44 46.51 153.97 C 46.47 157.23 46.25 161.36 42.91 163.01 C 40.28 164.18 36.55 164.01 34.66 161.56 C 33.15 159.37 33.07 156.63 32.99 154.07 C 33.00 125.55 33.01 97.02 32.99 68.50 C 26.18 68.46 19.36 68.62 12.55 68.36 C 7.66 66.62 6.67 60.06 10.19 56.52 C 17.06 54.25 24.44 55.56 31.53 55.33 C 31.64 45.93 30.73 36.26 33.61 27.16 C 35.38 21.98 38.14 16.88 42.75 13.71 Z" />
<path fill="#ffffff" opacity="1.00" d=" M 806.45 9.46 C 808.19 6.59 812.38 6.34 815.07 7.95 C 818.30 10.19 818.31 14.49 818.50 18.01 C 818.51 62.68 818.49 107.34 818.51 152.00 C 818.48 154.93 818.72 157.93 817.85 160.77 C 816.34 165.29 808.42 165.92 806.90 161.09 C 806.13 157.79 806.40 154.35 806.01 151.00 C 798.46 155.58 791.14 161.33 782.16 162.67 C 771.42 164.50 760.23 164.12 749.74 161.09 C 741.38 158.61 733.28 153.84 728.72 146.19 C 725.19 140.48 723.87 133.63 723.99 126.99 C 724.02 113.65 723.98 100.32 724.00 86.99 C 724.10 78.63 727.14 70.13 733.28 64.31 C 741.39 56.33 753.08 53.45 764.12 52.82 C 774.41 52.48 785.23 53.42 794.29 58.74 C 798.03 60.78 801.45 63.35 804.71 66.07 C 804.79 50.70 804.74 35.33 804.74 19.96 C 804.76 16.43 804.33 12.54 806.45 9.46 M 760.04 68.01 C 752.17 69.12 744.57 73.67 740.91 80.88 C 738.01 86.80 738.90 93.59 738.75 99.96 C 738.88 109.97 738.47 120.01 738.98 130.01 C 739.29 136.83 743.54 143.22 749.71 146.13 C 760.27 151.14 772.52 151.59 783.86 149.41 C 791.22 148.19 796.62 142.66 802.28 138.26 C 803.44 136.99 805.78 136.16 805.49 134.07 C 805.51 116.13 805.50 98.19 805.49 80.25 C 800.97 77.11 796.44 73.93 791.54 71.41 C 781.80 66.72 770.55 66.45 760.04 68.01 Z" />
<path fill="#ffffff" opacity="1.00" d=" M 1511.99 10.00 C 1514.87 7.91 1518.76 6.12 1522.27 7.76 C 1525.08 8.69 1526.37 12.45 1524.62 14.89 C 1522.31 18.67 1518.87 21.61 1515.91 24.87 C 1501.70 39.18 1491.17 57.36 1487.18 77.22 C 1482.44 101.30 1484.75 126.84 1494.30 149.50 C 1497.87 157.56 1502.04 165.47 1507.77 172.22 C 1512.78 178.89 1519.38 184.21 1524.35 190.90 C 1527.22 194.94 1524.33 200.53 1519.65 201.36 C 1511.43 199.85 1506.10 192.92 1500.85 187.06 C 1486.76 170.96 1476.42 151.30 1472.87 130.09 C 1470.07 115.67 1469.38 100.86 1470.79 86.24 C 1472.34 66.54 1480.02 47.46 1491.98 31.79 C 1497.90 23.89 1504.12 16.06 1511.99 10.00 Z" />
<path fill="#ffffff" opacity="1.00" d=" M 1702.59 12.95 C 1702.09 8.11 1708.03 5.74 1711.90 7.69 C 1719.02 10.94 1724.19 17.14 1729.17 22.97 C 1736.00 30.72 1741.70 39.41 1746.59 48.49 C 1757.58 69.77 1759.65 94.54 1756.93 118.02 C 1755.62 129.58 1753.34 141.09 1748.94 151.90 C 1744.33 164.54 1736.63 175.78 1728.15 186.12 C 1722.75 192.32 1717.07 199.41 1708.66 201.34 C 1705.68 200.56 1702.62 198.40 1702.55 195.04 C 1703.07 188.99 1708.84 185.65 1712.28 181.24 C 1727.17 166.36 1737.32 146.84 1740.89 126.09 C 1745.52 100.65 1743.61 73.10 1731.05 50.10 C 1725.70 39.90 1718.26 31.01 1710.19 22.87 C 1707.58 19.64 1703.98 16.98 1702.59 12.95 Z" />
<path fill="#ffffff" opacity="1.00" d=" M 497.57 26.58 C 506.16 16.95 519.62 13.99 531.99 13.25 C 542.98 13.17 554.47 13.79 564.35 19.12 C 575.57 24.06 582.96 35.97 583.35 48.11 C 583.73 52.15 583.40 56.98 579.61 59.37 C 575.60 60.76 571.79 58.33 570.38 54.56 C 567.69 47.05 566.40 38.33 559.99 32.88 C 555.21 29.15 549.04 27.59 543.07 27.24 C 533.52 26.28 523.25 26.82 514.78 31.76 C 505.30 38.11 503.17 50.48 502.85 61.08 C 502.63 78.06 502.79 95.04 502.77 112.02 C 502.97 121.53 503.83 132.05 510.44 139.51 C 515.55 146.08 524.11 148.62 532.10 149.20 C 541.80 149.95 552.29 149.25 560.62 143.72 C 565.53 140.63 568.34 135.13 569.33 129.54 C 570.24 126.18 570.05 122.25 572.50 119.51 C 575.88 116.95 582.14 118.36 582.90 122.96 C 584.69 131.98 581.85 141.79 575.65 148.59 C 569.82 155.24 561.53 159.26 552.99 161.13 C 544.17 163.06 535.05 162.87 526.10 162.17 C 514.47 160.78 503.02 155.69 495.23 146.77 C 488.80 139.11 487.19 128.72 487.01 119.03 C 487.00 99.36 486.98 79.68 487.02 60.01 C 487.06 48.22 489.43 35.59 497.57 26.58 Z" />
<path fill="#ffffff" opacity="1.00" d=" M 974.08 29.01 C 981.36 18.98 993.99 14.73 1005.89 13.66 C 1020.86 12.36 1037.23 13.83 1049.56 23.28 C 1055.59 28.69 1060.23 36.04 1061.32 44.17 C 1062.11 48.64 1062.49 53.49 1060.34 57.66 C 1058.07 59.50 1055.20 60.02 1052.38 59.42 C 1047.64 55.43 1047.64 48.77 1045.25 43.48 C 1043.07 38.74 1040.73 33.42 1035.76 31.03 C 1029.47 27.45 1022.09 27.13 1015.04 26.82 C 1006.51 26.80 997.34 28.11 990.55 33.71 C 983.15 41.16 981.53 52.20 981.30 62.25 C 981.18 78.50 981.28 94.75 981.25 111.01 C 981.42 120.68 982.07 131.35 988.58 139.10 C 993.84 145.98 1002.76 148.83 1011.11 149.25 C 1020.48 149.90 1030.53 149.19 1038.67 144.04 C 1042.18 141.49 1045.34 138.12 1046.66 133.90 C 1048.19 129.66 1048.29 125.06 1049.87 120.85 C 1052.02 117.19 1057.17 118.04 1060.23 119.99 C 1062.99 125.36 1061.93 131.63 1060.48 137.22 C 1057.42 147.39 1048.86 155.18 1039.08 158.83 C 1029.53 162.44 1019.14 163.10 1009.04 162.45 C 995.94 162.12 982.70 156.85 973.90 146.98 C 967.54 139.53 965.78 129.41 965.52 119.91 C 965.46 101.61 965.52 83.31 965.49 65.02 C 965.34 52.64 966.21 39.20 974.08 29.01 Z" />
<path fill="#ffffff" opacity="1.00" d=" M 1603.90 17.61 C 1618.09 29.03 1631.06 42.96 1637.34 60.37 C 1641.29 71.61 1641.63 83.98 1638.77 95.51 C 1638.28 98.94 1636.83 102.37 1637.29 105.85 C 1637.39 107.91 1640.15 107.10 1641.48 107.66 C 1647.83 104.63 1649.91 97.51 1653.69 92.14 C 1658.47 99.20 1663.38 106.32 1666.22 114.42 C 1669.69 124.90 1670.74 136.46 1667.60 147.15 C 1665.39 155.95 1660.68 163.88 1654.88 170.77 C 1649.86 177.37 1643.41 182.66 1636.74 187.51 C 1642.59 181.17 1647.57 173.84 1650.23 165.57 C 1651.91 159.84 1651.35 153.50 1647.94 148.50 C 1641.95 149.45 1635.64 150.13 1629.79 148.17 C 1624.56 146.38 1620.87 141.45 1619.96 136.09 C 1618.34 127.38 1621.34 118.72 1621.27 110.00 C 1621.36 101.54 1620.46 92.75 1616.28 85.23 C 1611.22 95.85 1605.27 106.01 1598.53 115.64 C 1592.24 124.49 1587.20 134.18 1583.31 144.30 C 1579.69 154.32 1577.52 165.63 1581.13 175.97 C 1582.16 180.02 1585.26 182.94 1587.88 186.02 C 1574.06 176.71 1562.66 162.63 1559.30 146.04 C 1557.11 136.18 1558.93 125.87 1562.50 116.57 C 1566.46 106.55 1572.76 97.73 1578.91 88.96 C 1589.74 71.70 1600.06 53.46 1603.72 33.17 C 1604.65 28.05 1605.28 22.71 1603.90 17.61 Z" />
<path fill="#ffffff" opacity="1.00" d=" M 1104.46 55.62 C 1114.50 51.87 1125.40 51.46 1136.00 51.82 C 1144.83 52.33 1153.96 53.74 1161.65 58.39 C 1170.19 64.23 1173.83 74.96 1174.00 84.94 C 1174.00 100.96 1174.01 116.98 1173.99 133.01 C 1174.06 137.27 1173.85 141.92 1176.15 145.71 C 1178.39 148.63 1182.45 148.77 1185.40 150.66 C 1187.61 152.69 1187.48 156.12 1187.00 158.83 C 1186.12 162.12 1181.97 162.65 1179.17 161.90 C 1174.28 160.69 1169.56 158.88 1164.80 157.26 C 1161.92 156.37 1161.50 152.90 1160.51 150.49 C 1152.92 155.62 1145.31 161.76 1135.83 162.62 C 1122.34 164.23 1107.35 163.39 1096.04 155.05 C 1081.79 144.65 1080.96 121.39 1093.22 109.14 C 1100.21 102.55 1109.31 98.34 1118.85 97.23 C 1132.76 95.30 1146.65 98.90 1159.75 103.28 C 1159.59 96.59 1160.10 89.87 1159.44 83.20 C 1158.76 76.66 1153.66 71.47 1147.73 69.17 C 1138.38 65.51 1128.04 65.55 1118.21 66.71 C 1111.88 67.58 1104.95 69.70 1101.23 75.29 C 1098.39 79.39 1098.99 84.74 1097.03 89.15 C 1093.50 93.52 1084.72 91.09 1084.54 85.15 C 1083.47 72.31 1092.58 59.91 1104.46 55.62 M 1107.15 116.09 C 1097.67 121.69 1096.50 136.89 1104.67 144.10 C 1113.48 150.93 1125.47 151.66 1136.10 149.87 C 1145.51 148.28 1152.79 141.63 1160.26 136.22 C 1160.23 129.57 1160.26 122.92 1160.24 116.28 C 1150.71 113.36 1140.86 111.23 1130.87 111.06 C 1122.81 111.29 1114.17 111.67 1107.15 116.09 Z" />
<path fill="#ffffff" opacity="1.00" d=" M 1326.87 53.80 C 1328.86 51.34 1332.83 51.89 1334.49 54.45 C 1336.37 57.36 1336.89 60.93 1338.12 64.14 C 1348.23 59.20 1358.77 54.69 1369.98 53.00 C 1379.54 52.26 1389.43 52.90 1398.45 56.37 C 1405.46 59.06 1411.73 64.13 1415.00 70.99 C 1418.70 78.41 1418.95 86.90 1418.75 95.03 C 1418.73 106.41 1418.78 117.79 1418.74 129.17 C 1418.60 136.56 1416.48 144.07 1411.72 149.83 C 1405.98 157.18 1397.08 161.42 1388.01 162.87 C 1370.78 165.62 1352.11 162.40 1337.99 151.75 C 1338.01 166.83 1337.98 181.91 1338.01 196.99 C 1338.03 199.98 1337.51 203.21 1335.42 205.49 C 1332.95 207.87 1328.39 207.48 1326.52 204.55 C 1324.99 201.97 1324.75 198.87 1324.74 195.95 C 1324.76 152.63 1324.75 109.31 1324.74 66.00 C 1324.76 61.89 1324.46 57.36 1326.87 53.80 M 1357.83 68.41 C 1349.56 70.55 1343.07 76.63 1337.56 82.83 C 1337.38 100.74 1337.62 118.66 1337.44 136.57 C 1348.76 143.00 1360.68 149.69 1374.02 150.23 C 1382.50 150.23 1391.65 148.95 1398.40 143.35 C 1402.72 140.00 1404.88 134.44 1404.76 129.05 C 1404.73 115.32 1404.75 101.59 1404.75 87.86 C 1404.73 83.46 1403.29 79.01 1400.45 75.62 C 1395.40 70.09 1387.83 67.82 1380.60 67.08 C 1373.01 66.46 1365.22 66.40 1357.83 68.41 Z" />
<path fill="#ffffff" opacity="1.00" d=" M 169.53 67.86 C 176.09 60.37 184.75 53.60 195.04 52.85 C 201.78 52.62 209.14 53.90 214.16 58.78 C 219.63 63.51 222.00 70.92 221.96 77.99 C 221.88 80.18 222.23 82.74 220.57 84.47 C 218.56 87.51 213.20 88.06 211.23 84.72 C 208.24 79.90 208.52 73.61 204.81 69.16 C 199.32 64.92 191.48 65.70 185.73 69.01 C 179.25 72.72 174.30 78.49 169.74 84.29 C 169.69 105.65 169.89 127.01 169.63 148.37 C 175.42 148.12 181.22 148.31 187.02 148.25 C 192.01 148.31 197.25 147.69 201.92 149.92 C 204.46 152.97 204.22 157.10 201.98 160.24 C 199.51 161.44 196.81 162.04 194.07 162.00 C 175.71 162.01 157.35 161.98 138.99 162.01 C 135.28 161.83 130.96 162.59 127.89 160.03 C 123.95 157.09 125.79 149.59 130.88 149.23 C 138.99 148.19 147.23 149.01 155.40 148.74 C 155.72 121.95 155.25 95.15 155.63 68.37 C 149.75 68.65 143.86 68.43 137.98 68.51 C 134.76 68.49 131.26 68.54 128.49 66.67 C 125.67 64.13 126.24 59.61 128.23 56.73 C 130.06 56.03 131.91 55.24 133.91 55.31 C 142.27 55.16 150.63 55.31 158.99 55.24 C 161.35 55.26 163.83 55.09 166.04 56.10 C 169.50 58.88 169.55 63.80 169.53 67.86 Z" />
<path fill="#ffffff" opacity="1.00" d=" M 261.95 60.81 C 272.32 54.23 285.02 52.85 297.04 52.99 C 308.23 53.19 320.15 55.53 328.75 63.19 C 337.28 70.53 340.89 81.96 341.72 92.87 C 341.97 97.69 342.75 102.93 340.44 107.41 C 339.11 110.15 335.95 111.32 333.07 111.25 C 308.71 111.26 284.36 111.25 260.00 111.25 C 260.51 119.52 258.58 128.28 261.93 136.14 C 265.02 143.21 272.43 147.25 279.70 148.73 C 289.32 150.67 299.32 150.74 308.99 149.04 C 316.78 147.78 323.68 143.59 329.98 139.05 C 333.04 136.84 335.88 132.99 340.11 133.78 C 343.35 134.37 344.35 138.16 343.85 140.98 C 343.07 146.15 338.97 149.99 335.01 153.00 C 324.18 161.16 310.21 163.37 296.99 163.76 C 283.96 163.91 269.91 162.67 258.97 154.87 C 250.42 148.85 246.42 138.21 246.26 128.03 C 246.25 114.03 246.23 100.03 246.27 86.02 C 246.54 75.53 253.38 66.34 261.95 60.81 M 274.69 69.77 C 268.85 72.13 263.77 76.70 261.28 82.54 C 259.23 87.18 260.22 92.35 260.00 97.25 C 282.70 97.25 305.40 97.25 328.09 97.25 C 327.82 91.32 327.17 85.13 324.04 79.94 C 320.27 73.00 312.77 68.84 305.18 67.46 C 295.08 65.50 284.27 65.71 274.69 69.77 Z" />
<path fill="#ffffff" opacity="1.00" d=" M 378.33 63.29 C 388.84 54.83 402.93 52.88 416.02 52.98 C 427.98 53.06 440.93 55.61 449.73 64.31 C 458.04 72.13 461.09 83.87 461.67 94.92 C 461.76 99.45 462.41 104.59 459.54 108.48 C 457.87 110.86 454.73 111.31 452.03 111.26 C 427.92 111.23 403.82 111.26 379.71 111.25 C 380.24 119.35 378.51 127.84 381.48 135.62 C 384.56 143.23 392.53 147.43 400.24 148.88 C 410.69 150.79 421.59 150.81 431.95 148.34 C 440.20 146.16 447.33 141.14 453.81 135.77 C 455.73 134.12 458.34 133.06 460.84 134.05 C 464.46 135.85 464.22 140.72 462.82 143.92 C 460.08 149.83 454.37 153.58 448.95 156.77 C 435.64 163.38 420.31 164.42 405.71 163.44 C 394.37 162.54 382.22 159.50 374.28 150.80 C 367.99 143.86 365.81 134.17 365.99 125.02 C 366.03 112.33 365.96 99.64 366.02 86.95 C 366.07 77.64 371.13 68.97 378.33 63.29 M 382.89 78.85 C 378.99 84.18 379.79 91.05 379.76 97.25 C 402.48 97.26 425.21 97.23 447.93 97.26 C 447.63 89.09 445.94 80.10 439.49 74.47 C 431.57 67.05 420.00 66.11 409.69 66.32 C 399.76 67.07 388.83 70.26 382.89 78.85 Z" />
<path fill="#ffffff" opacity="1.00" d=" M 643.08 53.14 C 657.87 52.17 673.84 52.30 687.02 60.01 C 696.16 65.23 701.35 75.63 701.50 85.99 C 701.50 100.66 701.50 115.34 701.50 130.02 C 701.36 139.88 696.83 149.96 688.40 155.42 C 677.78 162.55 664.48 163.39 652.07 163.52 C 639.89 163.22 626.72 161.95 616.71 154.28 C 609.03 148.51 605.50 138.76 605.36 129.40 C 605.09 116.26 605.32 103.11 605.25 89.97 C 605.22 81.44 606.91 72.40 612.80 65.87 C 620.39 57.33 632.10 54.24 643.08 53.14 M 641.56 66.86 C 634.87 67.87 627.81 70.10 623.36 75.51 C 620.17 79.19 619.05 84.16 619.02 88.92 C 618.98 101.65 619.00 114.37 619.01 127.10 C 618.99 132.61 620.65 138.44 624.94 142.17 C 631.18 147.75 639.91 149.13 647.99 149.48 C 658.48 149.55 669.92 150.14 679.16 144.27 C 684.90 140.67 687.56 133.80 687.44 127.23 C 687.48 113.91 687.66 100.58 687.34 87.27 C 687.34 79.58 682.22 72.56 675.12 69.82 C 664.55 65.55 652.72 65.52 641.56 66.86 Z" />
<path fill="#ffffff" opacity="1.00" d=" M 863.15 59.10 C 873.83 53.59 886.19 52.65 898.02 53.08 C 908.94 53.60 920.49 56.52 928.41 64.52 C 936.31 72.17 939.45 83.36 940.09 94.05 C 940.31 98.57 940.79 103.46 938.58 107.60 C 937.19 110.28 934.01 111.38 931.15 111.25 C 906.85 111.25 882.55 111.25 858.25 111.25 C 858.83 120.13 856.46 129.82 861.11 137.96 C 865.11 144.83 873.10 148.03 880.61 149.27 C 890.77 150.75 901.30 150.68 911.29 148.11 C 919.48 145.62 926.56 140.53 933.09 135.16 C 935.64 132.74 940.96 133.28 941.83 137.08 C 943.36 142.45 939.76 147.54 935.87 150.87 C 925.07 160.51 910.08 163.26 896.06 163.74 C 882.96 163.97 868.89 162.84 857.76 155.26 C 848.88 149.31 844.65 138.42 844.50 128.03 C 844.50 114.05 844.48 100.07 844.51 86.09 C 844.87 74.40 853.09 64.33 863.15 59.10 M 876.56 68.43 C 869.64 70.59 862.81 74.86 859.77 81.69 C 857.46 86.56 858.45 92.06 858.25 97.25 C 880.95 97.26 903.64 97.23 926.33 97.27 C 926.03 93.35 926.02 89.34 924.68 85.59 C 922.50 77.22 915.41 70.64 907.15 68.39 C 897.23 65.65 886.45 65.39 876.56 68.43 Z" />
<path fill="#ffffff" opacity="1.00" d=" M 1222.43 55.63 C 1228.04 52.43 1234.98 52.11 1241.10 53.90 C 1246.83 55.65 1250.96 60.28 1254.47 64.91 C 1258.31 60.23 1262.98 55.79 1269.00 54.21 C 1276.43 52.47 1284.53 52.40 1291.62 55.54 C 1299.83 59.12 1303.33 68.58 1303.22 77.02 C 1303.30 102.01 1303.22 126.99 1303.26 151.97 C 1303.32 155.33 1302.87 158.71 1301.48 161.79 C 1298.97 163.10 1296.03 164.45 1293.26 163.06 C 1290.04 161.71 1289.46 157.88 1289.53 154.80 C 1289.44 130.54 1289.54 106.27 1289.48 82.01 C 1289.45 77.16 1288.65 71.73 1284.55 68.56 C 1280.95 66.27 1276.36 66.19 1272.32 67.08 C 1266.92 68.95 1262.87 73.26 1259.24 77.49 C 1259.27 102.01 1259.23 126.53 1259.26 151.05 C 1259.23 155.48 1259.48 160.73 1255.66 163.80 C 1253.25 164.16 1250.16 164.70 1248.41 162.57 C 1246.04 160.03 1246.15 156.28 1246.00 153.04 C 1246.00 130.03 1246.01 107.01 1245.99 84.00 C 1245.81 80.09 1245.88 75.84 1243.51 72.50 C 1240.91 67.84 1234.84 66.21 1229.90 67.44 C 1223.99 68.81 1219.59 73.41 1216.00 78.02 C 1215.99 103.35 1216.01 128.69 1215.99 154.02 C 1216.01 157.67 1215.35 161.98 1211.89 163.98 C 1209.36 164.67 1206.13 164.86 1204.27 162.70 C 1202.15 160.36 1202.31 156.99 1202.25 154.05 C 1202.25 124.37 1202.26 94.69 1202.25 65.01 C 1202.27 62.33 1202.09 59.62 1202.56 56.97 C 1203.42 53.07 1209.26 52.26 1211.44 55.42 C 1212.99 58.06 1213.71 61.08 1214.13 64.09 C 1216.89 61.27 1219.56 58.35 1222.43 55.63 Z" />
</g>
</svg>
