<?xml version="1.0" encoding="UTF-8" ?>
<!DOCTYPE svg PUBLIC "-//W3C//DTD SVG 1.1//EN" "http://www.w3.org/Graphics/SVG/1.1/DTD/svg11.dtd">
<svg width="1024pt" height="1024pt" viewBox="0 0 1024 1024" version="1.1" xmlns="http://www.w3.org/2000/svg">
<g id="#f05133ff">
<path fill="#f05133" opacity="1.00" d=" M 467.06 45.10 C 479.03 33.10 496.08 26.41 513.03 27.04 C 528.86 27.46 544.38 34.26 555.46 45.57 C 693.12 183.23 830.79 320.87 968.45 458.53 C 976.06 466.30 984.58 473.56 989.58 483.43 C 1001.04 504.27 999.01 531.59 984.52 550.46 C 978.54 558.13 971.10 564.47 964.41 571.48 C 828.75 707.13 693.10 842.80 557.44 978.45 C 547.29 988.75 533.49 995.37 519.08 996.71 C 502.27 998.43 484.87 992.93 472.15 981.80 C 466.73 976.90 461.74 971.53 456.52 966.42 C 319.53 829.44 182.54 692.46 45.55 555.48 C 33.75 543.93 26.89 527.56 26.98 511.05 C 26.88 494.49 33.76 478.08 45.60 466.52 C 142.31 369.84 238.97 273.12 335.70 176.47 C 372.33 213.14 409.03 249.76 445.64 286.45 C 438.41 303.71 437.99 323.69 444.59 341.20 C 451.65 360.41 467.11 376.20 486.01 383.96 C 486.00 472.74 486.02 561.51 486.01 650.28 C 471.82 656.11 459.53 666.43 451.35 679.40 C 442.41 693.44 438.49 710.55 440.33 727.09 C 441.89 741.85 448.03 756.09 457.71 767.34 C 467.63 779.00 481.23 787.48 496.10 791.16 C 511.48 795.04 528.09 793.82 542.74 787.73 C 558.98 781.02 572.63 768.33 580.53 752.64 C 588.27 737.44 590.49 719.54 586.75 702.90 C 582.09 681.24 567.06 662.16 547.15 652.46 C 547.08 564.52 547.16 476.57 547.11 388.63 C 580.62 421.95 613.99 455.42 647.40 488.85 C 641.58 502.99 640.26 518.94 643.73 533.84 C 647.17 549.09 655.66 563.12 667.50 573.31 C 678.77 583.13 693.08 589.37 707.93 590.99 C 724.34 592.85 741.33 589.05 755.33 580.30 C 770.13 571.15 781.55 556.65 786.86 540.08 C 791.68 525.29 791.69 508.99 786.88 494.20 C 781.48 477.33 769.75 462.61 754.59 453.46 C 736.04 442.11 712.43 439.77 691.92 446.90 C 656.09 411.05 620.22 375.24 584.42 339.38 C 589.61 324.25 589.85 307.46 584.90 292.23 C 579.52 275.32 567.76 260.60 552.56 251.46 C 534.16 240.23 510.81 237.87 490.43 244.79 C 453.27 207.60 416.10 170.43 378.92 133.28 C 408.27 103.85 437.68 74.49 467.06 45.10 Z" />
</g>
</svg>
