<?xml version="1.0" encoding="UTF-8" ?>
<!DOCTYPE svg PUBLIC "-//W3C//DTD SVG 1.1//EN" "http://www.w3.org/Graphics/SVG/1.1/DTD/svg11.dtd">
<svg width="1024pt" height="1024pt" viewBox="0 0 1024 1024" version="1.1" xmlns="http://www.w3.org/2000/svg">
<g id="#e34f26ff">
<path fill="#e34f26" opacity="1.00" d=" M 60.00 0.00 L 962.00 0.00 C 934.66 306.68 907.33 613.36 880.00 920.03 C 798.31 942.84 716.70 965.92 635.04 988.82 C 593.50 1000.59 551.87 1012.01 510.40 1024.00 L 509.64 1024.00 C 503.26 1022.01 496.82 1020.24 490.39 1018.43 C 374.26 985.66 258.18 952.70 142.01 920.05 C 114.66 613.37 87.34 306.68 60.00 0.00 M 512.07 74.08 C 511.88 112.05 512.08 150.02 511.99 188.00 C 417.33 188.12 322.68 188.03 228.03 188.04 C 229.02 202.04 229.72 216.07 231.11 230.04 C 240.07 330.01 249.08 429.97 258.01 529.95 C 342.68 529.98 427.36 529.87 512.04 530.00 C 511.98 589.80 511.97 649.60 512.07 709.40 C 510.94 709.69 509.75 709.88 508.61 709.60 C 467.04 698.51 425.55 687.08 383.96 676.08 C 381.35 646.07 378.60 616.07 376.00 586.05 C 338.68 586.05 301.35 586.07 264.03 586.04 C 268.68 645.37 273.39 704.69 278.01 764.01 C 354.93 785.07 431.78 806.39 508.67 827.59 C 509.69 827.87 510.74 827.92 511.79 827.73 C 512.36 866.50 511.70 905.29 512.14 944.06 C 611.28 916.42 710.63 889.55 809.78 861.91 C 810.97 855.33 810.99 848.62 811.78 842.00 C 834.56 586.03 857.21 330.05 880.03 74.08 C 757.37 73.96 634.72 73.93 512.07 74.08 Z" />
<path fill="#e34f26" opacity="1.00" d=" M 352.00 299.95 C 405.33 299.97 458.65 299.88 511.98 300.00 C 512.05 338.67 511.96 377.33 512.01 416.00 C 461.99 416.13 411.97 416.02 361.95 416.05 C 358.69 377.35 355.24 338.66 352.00 299.95 Z" />
</g>
<g id="#ef652aff">
<path fill="#ef652a" opacity="1.00" d=" M 512.07 74.08 C 634.72 73.93 757.37 73.96 880.03 74.08 C 857.21 330.05 834.56 586.03 811.78 842.00 C 810.99 848.62 810.97 855.33 809.78 861.91 C 710.63 889.55 611.28 916.42 512.14 944.06 C 511.70 905.29 512.36 866.50 511.79 827.73 C 535.92 820.55 560.33 814.27 584.57 807.42 C 637.05 792.99 689.50 778.41 742.00 764.05 C 746.38 720.44 749.76 676.74 753.70 633.09 C 758.83 574.39 763.94 515.69 769.07 456.98 C 770.06 443.25 772.29 429.65 774.04 416.00 C 686.70 416.00 599.35 416.00 512.01 416.00 C 511.96 377.33 512.05 338.67 511.98 300.00 C 602.65 300.00 693.32 300.00 783.99 300.00 C 786.07 273.33 789.11 246.75 791.80 220.14 C 792.70 209.44 793.24 198.71 794.05 187.99 C 700.03 188.01 606.01 188.00 511.99 188.00 C 512.08 150.02 511.88 112.05 512.07 74.08 Z" />
<path fill="#ef652a" opacity="1.00" d=" M 512.04 530.00 C 558.02 530.00 604.01 529.99 650.00 530.01 C 645.25 578.67 640.68 627.34 635.95 676.01 C 594.63 687.04 553.36 698.25 512.07 709.40 C 511.97 649.60 511.98 589.80 512.04 530.00 Z" />
</g>
<g id="#f5f5f5ff">
<path fill="#f5f5f5" opacity="1.00" d=" M 228.03 188.04 C 322.68 188.03 417.33 188.12 511.99 188.00 C 606.01 188.00 700.03 188.01 794.05 187.99 C 793.24 198.71 792.70 209.44 791.80 220.14 C 789.11 246.75 786.07 273.33 783.99 300.00 C 693.32 300.00 602.65 300.00 511.98 300.00 C 458.65 299.88 405.33 299.97 352.00 299.95 C 355.24 338.66 358.69 377.35 361.95 416.05 C 411.97 416.02 461.99 416.13 512.01 416.00 C 599.35 416.00 686.70 416.00 774.04 416.00 C 772.29 429.65 770.06 443.25 769.07 456.98 C 763.94 515.69 758.83 574.39 753.70 633.09 C 749.76 676.74 746.38 720.44 742.00 764.05 C 689.50 778.41 637.05 792.99 584.57 807.42 C 560.33 814.27 535.92 820.55 511.79 827.73 C 510.74 827.92 509.69 827.87 508.67 827.59 C 431.78 806.39 354.93 785.07 278.01 764.01 C 273.39 704.69 268.68 645.37 264.03 586.04 C 301.35 586.07 338.68 586.05 376.00 586.05 C 378.60 616.07 381.35 646.07 383.96 676.08 C 425.55 687.08 467.04 698.51 508.61 709.60 C 509.75 709.88 510.94 709.69 512.07 709.40 C 553.36 698.25 594.63 687.04 635.95 676.01 C 640.68 627.34 645.25 578.67 650.00 530.01 C 604.01 529.99 558.02 530.00 512.04 530.00 C 427.36 529.87 342.68 529.98 258.01 529.95 C 249.08 429.97 240.07 330.01 231.11 230.04 C 229.72 216.07 229.02 202.04 228.03 188.04 Z" />
</g>
</svg>
