<?xml version="1.0" encoding="UTF-8" ?>
<!DOCTYPE svg PUBLIC "-//W3C//DTD SVG 1.1//EN" "http://www.w3.org/Graphics/SVG/1.1/DTD/svg11.dtd">
<svg width="587pt" height="330pt" viewBox="0 0 587 330" version="1.1" xmlns="http://www.w3.org/2000/svg">
<g id="#dab92dff">
<path fill="#dab92d" opacity="1.00" d=" M 162.06 17.10 C 249.25 17.12 336.43 17.15 423.61 17.09 C 421.89 38.08 419.78 59.03 418.09 80.03 C 415.81 103.91 413.84 127.83 411.60 151.72 C 408.92 183.56 405.66 215.36 403.25 247.22 L 402.79 247.89 C 402.64 251.65 402.36 255.40 402.20 259.16 L 401.77 259.81 C 401.63 263.25 401.45 266.68 401.11 270.10 C 400.42 273.82 400.59 277.62 400.14 281.37 C 399.92 282.80 398.13 282.65 397.13 283.15 C 362.44 292.79 327.79 302.62 293.08 312.22 C 257.40 302.63 221.88 292.28 186.28 282.33 C 186.22 281.74 186.10 280.57 186.04 279.98 C 183.16 248.43 180.44 216.86 177.54 185.30 C 175.19 157.14 172.23 129.03 170.20 100.85 L 169.77 100.17 C 169.60 93.03 168.33 85.97 168.23 78.83 L 167.77 78.15 C 167.16 65.51 165.60 52.93 164.55 40.32 C 164.08 32.54 163.09 24.82 162.06 17.10 M 293.35 40.36 C 293.30 123.93 293.30 207.51 293.35 291.08 C 295.71 290.59 298.06 290.04 300.38 289.39 C 326.75 282.01 353.23 275.02 379.58 267.57 C 384.38 217.07 388.60 166.50 393.22 115.98 C 395.31 90.75 397.97 65.55 399.80 40.30 C 364.32 40.35 328.83 40.23 293.35 40.36 M 257.34 74.23 C 257.40 119.65 257.34 165.08 257.37 210.51 C 240.53 205.60 223.55 201.17 206.70 196.30 C 206.64 206.40 206.79 216.51 206.62 226.61 C 231.85 233.98 257.29 240.65 282.56 247.88 C 282.58 190.00 282.53 132.12 282.59 74.24 C 274.17 74.27 265.76 74.30 257.34 74.23 Z" />
</g>
<g id="#ffd83aff">
<path fill="#ffd83a" opacity="1.00" d=" M 293.35 40.36 C 328.83 40.23 364.32 40.35 399.80 40.30 C 397.97 65.55 395.31 90.75 393.22 115.98 C 388.60 166.50 384.38 217.07 379.58 267.57 C 353.23 275.02 326.75 282.01 300.38 289.39 C 298.06 290.04 295.71 290.59 293.35 291.08 C 293.30 207.51 293.30 123.93 293.35 40.36 M 303.55 74.19 C 303.53 111.79 303.53 149.39 303.55 187.00 C 320.87 184.23 338.07 180.71 355.40 177.97 C 355.09 186.50 354.30 195.02 354.30 203.56 C 337.55 208.81 320.29 212.43 303.46 217.48 C 303.63 227.60 303.47 237.73 303.55 247.85 C 327.12 241.61 350.75 235.63 374.30 229.31 C 376.18 201.09 378.89 172.91 380.69 144.67 C 363.42 146.90 346.15 149.27 328.82 150.90 C 328.83 135.51 328.81 120.13 328.83 104.74 C 347.32 104.55 365.82 104.95 384.31 104.54 C 384.79 94.39 386.15 84.31 386.71 74.16 C 358.99 74.23 331.27 74.18 303.55 74.19 Z" />
</g>
<g id="#f8f8f8ff">
<path fill="#f8f8f8" opacity="1.00" d=" M 257.34 74.23 C 265.76 74.30 274.17 74.27 282.59 74.24 C 282.53 132.12 282.58 190.00 282.56 247.88 C 257.29 240.65 231.85 233.98 206.62 226.61 C 206.79 216.51 206.64 206.40 206.70 196.30 C 223.55 201.17 240.53 205.60 257.37 210.51 C 257.34 165.08 257.40 119.65 257.34 74.23 Z" />
<path fill="#f8f8f8" opacity="1.00" d=" M 303.55 74.19 C 331.27 74.18 358.99 74.23 386.71 74.16 C 386.15 84.31 384.79 94.39 384.31 104.54 C 365.82 104.95 347.32 104.55 328.83 104.74 C 328.81 120.13 328.83 135.51 328.82 150.90 C 346.15 149.27 363.42 146.90 380.69 144.67 C 378.89 172.91 376.18 201.09 374.30 229.31 C 350.75 235.63 327.12 241.61 303.55 247.85 C 303.47 237.73 303.63 227.60 303.46 217.48 C 320.29 212.43 337.55 208.81 354.30 203.56 C 354.30 195.02 355.09 186.50 355.40 177.97 C 338.07 180.71 320.87 184.23 303.55 187.00 C 303.53 149.39 303.53 111.79 303.55 74.19 Z" />
</g>
</svg>
