<?xml version="1.0" encoding="UTF-8" ?>
<!DOCTYPE svg PUBLIC "-//W3C//DTD SVG 1.1//EN" "http://www.w3.org/Graphics/SVG/1.1/DTD/svg11.dtd">
<svg width="600pt" height="1117pt" viewBox="0 0 600 1117" version="1.1" xmlns="http://www.w3.org/2000/svg">
<g id="#ea2d2eff">
<path fill="#ea2d2e" opacity="1.00" d=" M 376.22 0.00 L 376.52 0.00 C 377.68 2.50 379.64 4.51 381.18 6.78 C 392.19 22.81 397.24 42.63 396.04 61.98 C 394.66 86.21 384.49 109.07 371.14 129.03 C 352.03 157.40 326.77 181.02 300.13 202.21 C 286.83 212.78 274.11 224.20 263.22 237.28 C 250.50 252.52 240.09 270.76 238.40 290.89 C 236.62 310.05 243.41 328.83 252.80 345.24 C 267.23 371.04 287.78 393.11 300.09 420.14 C 290.86 411.98 281.84 403.58 272.92 395.08 C 253.37 376.22 234.18 356.67 218.83 334.15 C 209.34 319.98 201.19 304.27 199.13 287.12 C 197.49 274.20 200.18 260.85 206.48 249.46 C 212.32 239.07 220.00 229.83 228.13 221.16 C 252.61 195.61 281.96 175.55 309.09 153.03 C 331.83 134.15 354.10 113.33 367.78 86.71 C 378.92 65.38 382.61 40.52 379.09 16.78 C 378.47 11.13 376.77 5.66 376.22 0.00 Z" />
<path fill="#ea2d2e" opacity="1.00" d=" M 471.26 155.70 C 471.35 155.96 471.52 156.47 471.61 156.73 C 452.88 167.35 434.57 178.73 416.68 190.72 C 401.19 201.26 386.00 212.39 372.34 225.26 C 362.99 234.21 354.12 244.07 348.56 255.88 C 342.91 267.36 342.62 281.09 347.44 292.91 C 354.54 310.75 367.30 325.41 377.87 341.19 C 384.93 352.00 388.67 365.30 386.49 378.18 C 383.94 394.14 374.17 407.85 363.02 419.09 C 351.85 430.11 339.09 439.59 325.24 446.97 C 337.83 435.73 347.91 420.26 348.91 403.03 C 349.74 389.67 343.79 376.78 335.17 366.87 C 320.63 350.09 307.81 330.90 302.82 308.97 C 298.81 291.93 300.98 273.57 308.83 257.93 C 316.75 241.80 329.29 228.41 343.11 217.14 C 367.16 197.79 395.07 183.90 423.62 172.50 C 438.93 166.55 454.47 161.04 470.40 156.98 L 471.26 155.70 Z" />
</g>
<g id="#0074bdff">
<path fill="#0074bd" opacity="1.00" d=" M 488.73 419.70 C 505.63 413.59 524.63 412.32 541.81 418.10 C 556.06 422.80 568.93 432.62 575.84 446.11 C 581.41 456.75 582.71 469.42 579.79 481.04 C 576.47 494.69 568.19 506.60 558.30 516.35 C 546.41 527.99 532.16 536.94 517.29 544.28 C 498.99 553.28 479.58 559.80 459.91 565.08 C 461.19 563.33 462.25 561.20 464.38 560.34 C 479.60 552.34 494.37 543.39 507.98 532.85 C 520.62 522.96 532.50 511.64 540.84 497.79 C 546.92 487.66 550.85 475.77 549.54 463.85 C 548.42 452.70 542.38 442.35 533.75 435.30 C 523.60 426.94 510.08 422.50 496.95 424.00 C 490.12 424.92 483.52 426.97 476.90 428.81 C 480.02 424.88 483.96 421.44 488.73 419.70 Z" />
<path fill="#0074bd" opacity="1.00" d=" M 92.91 449.87 C 130.00 432.18 170.86 421.37 212.11 421.60 C 196.08 426.22 179.83 430.26 164.13 436.00 C 155.41 439.24 146.58 442.54 138.80 447.73 C 136.32 449.53 133.42 451.70 133.07 454.98 C 133.19 458.18 136.38 459.92 138.93 461.15 C 146.18 464.28 154.08 465.47 161.84 466.65 C 188.73 470.11 215.92 470.14 242.99 469.98 C 296.77 469.12 350.56 465.82 403.87 458.64 C 419.65 456.57 435.39 454.23 451.09 451.69 C 454.75 451.14 458.37 450.26 462.09 450.15 C 450.11 455.27 438.66 461.61 427.61 468.46 C 387.55 478.87 346.25 483.62 305.04 486.59 C 254.08 489.89 202.83 490.21 151.94 485.59 C 133.60 483.72 115.16 481.53 97.41 476.37 C 91.54 474.47 85.40 472.50 80.71 468.32 C 78.34 466.37 77.22 462.77 79.00 460.06 C 82.19 455.08 87.80 452.45 92.91 449.87 Z" />
<path fill="#0074bd" opacity="1.00" d=" M 159.74 516.78 C 166.27 513.79 172.90 510.82 179.88 509.07 C 175.37 512.63 170.85 517.13 169.76 523.00 C 169.03 527.11 172.05 530.68 175.45 532.52 C 181.73 535.98 188.96 537.08 195.98 537.98 C 222.23 540.75 248.61 542.68 275.02 542.47 C 317.78 542.30 360.29 536.38 402.22 528.35 C 411.16 536.83 422.01 542.92 433.28 547.68 C 393.42 559.30 352.24 566.23 310.84 569.20 C 282.59 571.18 254.17 571.33 225.94 568.94 C 204.95 567.01 183.84 564.10 163.84 557.20 C 155.84 554.21 147.45 550.81 141.78 544.16 C 138.55 540.55 138.09 534.92 140.87 530.93 C 145.37 524.25 152.73 520.31 159.74 516.78 Z" />
<path fill="#0074bd" opacity="1.00" d=" M 197.91 592.59 C 195.01 595.38 191.07 597.72 190.16 601.94 C 189.46 605.44 192.53 608.07 195.32 609.51 C 202.34 613.01 210.23 614.09 217.92 615.15 C 242.84 618.03 267.93 620.23 293.04 619.42 C 321.68 618.59 349.99 613.83 378.10 608.64 C 391.40 616.84 405.75 623.09 420.00 629.38 C 378.03 647.00 332.49 655.42 287.06 655.82 C 262.15 655.97 237.12 653.88 212.82 648.25 C 199.22 644.94 185.53 640.81 173.60 633.27 C 168.48 629.83 163.04 625.41 161.85 619.00 C 160.98 613.58 164.72 608.86 168.73 605.73 C 177.26 599.08 187.79 595.94 197.91 592.59 Z" />
<path fill="#0074bd" opacity="1.00" d=" M 83.02 653.49 C 96.39 650.18 110.14 647.57 123.98 648.26 C 129.15 648.70 134.73 649.28 139.03 652.47 C 121.10 652.39 103.49 657.11 86.89 663.58 C 80.27 666.35 73.43 669.16 68.05 674.04 C 65.86 675.99 63.87 679.38 65.76 682.19 C 68.74 686.28 73.91 687.69 78.38 689.51 C 100.44 697.32 123.77 700.56 146.91 703.35 C 199.05 709.01 251.61 709.79 304.01 708.73 C 355.15 707.41 406.34 704.32 457.02 697.04 C 477.38 693.83 497.94 690.57 517.38 683.50 C 524.88 680.41 533.30 676.84 537.26 669.28 C 539.83 664.29 537.10 658.88 533.91 654.94 C 539.31 657.71 545.52 660.94 547.54 667.11 C 549.21 673.46 544.08 678.81 539.53 682.44 C 527.21 691.69 512.42 696.82 497.93 701.59 C 456.67 714.26 413.74 720.45 370.89 724.71 C 270.70 733.94 169.46 729.81 69.99 715.06 C 56.46 712.87 42.59 711.41 29.77 706.23 C 25.01 704.16 19.87 701.56 17.44 696.72 C 15.45 692.70 17.24 688.07 19.84 684.80 C 24.44 678.99 30.79 674.90 37.13 671.23 C 51.52 663.25 67.13 657.65 83.02 653.49 Z" />
<path fill="#0074bd" opacity="1.00" d=" M 559.63 710.67 C 567.83 706.40 576.12 701.52 581.74 693.98 C 580.45 706.23 571.83 716.15 562.06 722.92 C 545.96 734.11 527.09 740.38 508.36 745.58 C 468.08 756.20 426.49 760.74 385.03 763.66 C 332.74 767.01 280.23 767.06 227.93 763.89 C 205.57 762.46 183.23 760.34 161.16 756.42 C 149.70 754.29 138.24 751.84 127.31 747.73 C 124.43 746.51 121.31 745.55 118.95 743.40 C 168.85 751.49 219.50 753.99 269.99 754.36 C 324.87 754.45 379.83 751.35 434.18 743.56 C 459.01 739.91 483.75 735.38 508.05 729.04 C 525.70 724.35 543.27 718.87 559.63 710.67 Z" />
</g>
</svg>
