<?xml version="1.0" encoding="UTF-8" ?>
<!DOCTYPE svg PUBLIC "-//W3C//DTD SVG 1.1//EN" "http://www.w3.org/Graphics/SVG/1.1/DTD/svg11.dtd">
<svg width="2500pt" height="341pt" viewBox="0 0 2500 341" version="1.1" xmlns="http://www.w3.org/2000/svg">
<g id="#0a66c2ff">
<path fill="#0a66c2" opacity="1.00" d=" M 1053.74 0.00 L 1180.55 0.00 C 1208.04 0.21 1235.54 0.14 1263.03 0.79 C 1271.09 1.02 1279.19 1.13 1287.23 1.94 C 1292.62 2.44 1298.20 5.77 1299.29 11.43 C 1302.20 23.71 1301.80 36.47 1302.33 49.00 C 1303.13 103.64 1302.70 158.30 1302.80 212.95 C 1302.62 240.32 1302.90 267.71 1301.80 295.07 C 1301.29 302.74 1301.21 310.57 1299.00 317.99 C 1297.68 322.72 1293.03 326.19 1288.12 326.07 C 1272.75 326.97 1257.35 327.07 1241.96 327.35 C 1185.64 328.02 1129.32 328.03 1073.01 327.61 C 1045.34 327.30 1017.66 327.24 990.02 325.93 C 984.66 326.00 978.74 323.28 976.95 317.91 C 974.38 310.56 974.31 302.65 973.77 294.96 C 972.62 269.32 972.91 243.64 972.73 217.98 C 972.73 172.98 972.64 127.98 972.86 82.98 C 972.98 65.66 973.03 48.32 974.04 31.02 C 974.54 24.64 974.80 18.12 976.85 12.00 C 978.75 5.99 984.75 1.83 990.99 1.68 C 1011.86 -0.09 1032.83 0.64 1053.74 0.00 M 1042.51 44.67 C 1034.23 46.62 1026.19 51.28 1021.79 58.76 C 1017.03 66.53 1017.03 76.73 1021.33 84.70 C 1026.02 93.51 1034.91 100.64 1045.14 101.22 C 1062.58 102.48 1078.51 84.20 1074.32 67.10 C 1072.28 58.39 1065.86 50.98 1057.76 47.31 C 1053.03 45.19 1047.72 43.45 1042.51 44.67 M 1176.79 121.74 C 1165.48 126.03 1155.47 133.77 1149.00 144.05 C 1148.79 137.09 1148.72 130.13 1148.77 123.17 C 1132.63 123.17 1116.49 123.16 1100.35 123.17 C 1100.61 175.60 1100.96 228.02 1101.46 280.44 C 1117.60 280.43 1133.73 280.44 1149.86 280.43 C 1150.66 251.93 1150.73 223.39 1152.33 194.92 C 1153.12 186.98 1153.17 178.42 1157.45 171.41 C 1163.08 163.97 1173.30 162.82 1181.97 162.83 C 1188.43 162.75 1196.06 164.76 1199.06 171.09 C 1202.14 178.29 1202.09 186.33 1202.72 194.01 C 1203.94 222.80 1204.15 251.62 1204.89 280.43 C 1221.02 280.44 1237.16 280.44 1253.29 280.43 C 1253.21 248.29 1253.52 216.16 1253.04 184.03 C 1252.64 171.54 1252.88 158.39 1246.96 147.00 C 1241.30 135.76 1231.40 126.50 1219.47 122.31 C 1212.22 119.96 1204.54 119.27 1196.97 119.11 C 1190.17 119.06 1183.23 119.42 1176.79 121.74 M 1021.13 123.17 C 1021.39 175.59 1021.72 228.02 1022.24 280.44 C 1038.37 280.43 1054.50 280.43 1070.63 280.44 C 1071.14 228.02 1071.48 175.60 1071.74 123.17 C 1054.87 123.16 1038.00 123.17 1021.13 123.17 Z" />
<path fill="#0a66c2" opacity="1.00" d=" M 185.50 46.70 C 192.91 45.84 200.92 45.79 207.75 49.16 C 216.82 55.02 220.81 66.68 219.86 77.11 C 219.11 87.81 210.25 96.35 200.50 99.65 C 184.94 105.01 165.86 92.63 165.16 76.04 C 164.64 66.81 167.91 57.02 175.01 50.85 C 177.89 48.25 181.76 47.26 185.50 46.70 Z" />
<path fill="#0a66c2" opacity="1.00" d=" M 0.00 48.40 C 16.87 48.40 33.74 48.39 50.61 48.40 C 50.63 109.99 50.60 171.57 50.62 233.16 C 82.16 233.18 113.70 233.16 145.24 233.17 C 145.25 248.55 145.25 263.94 145.24 279.33 C 96.83 279.34 48.41 279.33 0.00 279.33 L 0.00 48.40 Z" />
<path fill="#0a66c2" opacity="1.00" d=" M 422.53 48.41 C 438.67 48.38 454.81 48.41 470.94 48.40 C 471.22 94.07 471.55 139.74 472.06 185.40 C 489.64 164.75 507.26 144.12 524.81 123.43 C 545.07 123.41 565.34 123.37 585.61 123.18 C 564.39 147.41 543.02 171.52 521.57 195.55 C 540.06 220.36 558.39 245.28 576.78 270.17 C 578.52 272.66 580.72 274.85 582.05 277.62 C 577.53 279.15 572.70 278.98 568.00 279.19 C 552.74 279.46 537.48 279.28 522.22 279.33 C 505.55 254.15 488.84 229.01 472.05 203.91 C 471.56 229.05 471.21 254.19 470.95 279.33 C 454.81 279.33 438.68 279.34 422.54 279.33 C 422.53 202.36 422.54 125.38 422.53 48.41 Z" />
<path fill="#0a66c2" opacity="1.00" d=" M 875.90 48.40 C 892.03 48.41 908.16 48.38 924.30 48.41 C 924.29 125.38 924.30 202.36 924.29 279.33 C 909.62 279.33 894.95 279.34 880.28 279.32 C 879.96 273.58 881.19 267.50 878.94 262.03 C 875.31 262.23 873.40 265.72 870.86 267.81 C 865.30 272.61 858.73 276.08 852.11 279.17 C 845.20 282.41 837.42 282.54 829.94 282.62 C 823.67 282.61 817.36 282.74 811.15 281.81 C 804.71 280.76 798.84 277.76 793.07 274.90 C 785.34 271.07 778.05 266.16 772.25 259.74 C 765.81 252.70 761.25 244.17 757.55 235.42 C 752.98 224.91 754.01 213.16 753.74 201.98 C 753.98 191.13 752.97 179.72 757.51 169.54 C 763.56 155.39 771.34 141.28 783.81 131.79 C 792.30 125.52 802.17 120.16 813.00 120.14 C 825.37 119.89 837.99 119.15 850.17 121.87 C 860.66 124.27 868.44 132.19 875.87 139.44 C 875.90 109.09 875.84 78.74 875.90 48.40 M 830.52 161.68 C 820.49 163.90 811.25 170.34 806.51 179.58 C 801.28 189.74 799.89 201.81 802.36 212.94 C 804.72 223.51 812.66 232.05 821.95 237.17 C 829.81 241.63 839.33 242.16 848.07 240.54 C 859.61 238.37 870.00 230.65 875.11 220.04 C 879.91 210.40 880.25 198.97 877.21 188.75 C 875.30 181.85 872.13 174.99 866.51 170.34 C 856.64 162.24 843.02 158.76 830.52 161.68 Z" />
<path fill="#0a66c2" opacity="1.00" d=" M 1401.81 48.47 C 1408.41 48.31 1415.03 48.44 1421.65 48.40 C 1421.71 119.53 1421.55 190.66 1421.73 261.79 C 1455.45 261.67 1489.16 261.77 1522.88 261.74 C 1522.88 267.60 1522.88 273.47 1522.88 279.33 C 1482.54 279.34 1442.19 279.34 1401.85 279.33 C 1401.81 202.38 1401.90 125.42 1401.81 48.47 Z" />
<path fill="#0a66c2" opacity="1.00" d=" M 2145.17 66.20 C 2151.10 64.92 2157.88 66.37 2162.23 70.76 C 2165.06 73.91 2166.97 77.92 2167.64 82.10 C 2167.90 86.47 2165.15 90.32 2162.33 93.38 C 2158.96 96.88 2154.12 100.16 2149.05 98.57 C 2144.20 97.27 2139.01 95.16 2136.09 90.89 C 2133.76 85.36 2134.62 78.93 2136.49 73.38 C 2137.70 69.53 2141.35 67.02 2145.17 66.20 Z" />
<path fill="#0a66c2" opacity="1.00" d=" M 313.21 125.12 C 319.05 122.12 325.44 119.96 332.06 119.80 C 342.14 119.47 352.29 120.63 362.05 123.21 C 373.59 126.11 383.36 134.73 388.28 145.49 C 394.38 158.40 394.78 172.99 395.55 186.99 C 396.53 217.76 395.98 248.55 396.12 279.33 C 379.99 279.34 363.85 279.34 347.72 279.33 C 347.66 255.87 347.84 232.42 347.55 208.96 C 347.28 199.46 347.28 189.85 345.34 180.50 C 343.96 173.51 339.51 166.83 332.90 163.86 C 322.51 160.11 309.84 161.78 301.76 169.68 C 297.23 173.47 295.72 179.48 294.96 185.08 C 293.78 193.87 293.67 202.76 293.43 211.62 C 293.04 234.19 292.80 256.76 292.46 279.33 C 276.40 279.33 260.34 279.34 244.27 279.33 C 244.27 227.28 244.27 175.22 244.28 123.17 C 259.67 123.15 275.07 123.19 290.46 123.14 C 290.53 130.05 290.47 136.95 290.50 143.85 C 297.70 137.21 304.43 129.75 313.21 125.12 Z" />
<path fill="#0a66c2" opacity="1.00" d=" M 623.59 126.55 C 638.91 119.38 656.27 118.64 672.88 119.78 C 687.46 120.82 702.31 125.65 712.94 136.06 C 722.11 145.16 729.44 156.43 732.87 168.97 C 736.95 184.15 736.58 200.02 737.89 215.57 C 706.28 215.70 674.66 215.24 643.06 215.95 C 636.96 216.35 630.66 215.89 624.78 217.77 C 625.93 224.11 629.41 229.72 633.27 234.76 C 637.47 240.34 644.00 243.62 650.53 245.64 C 662.03 249.05 674.79 246.25 684.42 239.31 C 688.88 236.06 692.92 232.26 697.18 228.76 C 708.55 237.11 720.06 245.29 731.21 253.92 C 723.18 261.22 714.71 268.11 705.04 273.13 C 697.43 277.03 689.64 281.32 680.96 282.02 C 673.64 282.67 666.29 282.40 658.96 282.40 C 649.89 282.29 640.62 282.17 631.93 279.26 C 616.17 274.14 602.66 263.50 592.22 250.82 C 584.64 241.14 578.20 229.62 577.97 217.03 C 577.59 205.67 577.37 194.25 578.52 182.92 C 579.41 173.88 582.27 164.95 587.54 157.49 C 596.75 144.45 608.82 133.00 623.59 126.55 M 650.81 153.73 C 641.29 157.16 632.69 163.66 627.25 172.23 C 624.73 175.92 624.87 180.50 625.01 184.77 C 646.50 184.74 667.99 184.80 689.49 184.74 C 688.56 179.37 688.28 173.64 685.19 168.95 C 681.29 162.78 676.09 156.68 668.98 154.28 C 662.92 154.10 656.75 151.41 650.81 153.73 Z" />
<path fill="#0a66c2" opacity="1.00" d=" M 169.45 123.17 C 184.86 123.16 200.26 123.16 215.67 123.17 C 215.64 175.23 215.73 227.30 215.63 279.36 C 200.24 279.30 184.85 279.35 169.47 279.33 C 169.44 227.28 169.47 175.23 169.45 123.17 Z" />
<path fill="#0a66c2" opacity="1.00" d=" M 1586.89 133.58 C 1598.21 132.00 1609.72 131.80 1621.11 132.84 C 1634.87 133.91 1646.93 142.08 1656.46 151.57 C 1663.00 158.07 1667.76 166.09 1671.55 174.43 C 1676.95 186.70 1677.95 200.25 1679.79 213.37 C 1648.85 213.38 1617.92 213.36 1586.98 213.33 C 1577.36 213.46 1567.68 213.13 1558.14 214.51 C 1555.63 215.00 1552.07 215.81 1551.83 218.92 C 1552.09 223.60 1554.60 227.76 1556.10 232.12 C 1561.04 245.22 1571.12 256.53 1584.16 261.92 C 1595.43 266.79 1608.13 266.91 1620.09 265.05 C 1628.62 263.70 1636.54 259.57 1642.95 253.83 C 1647.83 249.73 1651.81 244.62 1656.99 240.87 C 1660.58 238.34 1664.71 241.28 1667.99 242.96 C 1669.93 244.35 1673.49 246.11 1672.21 249.02 C 1669.68 254.79 1664.74 259.04 1660.17 263.18 C 1651.67 270.57 1641.78 276.31 1631.22 280.19 C 1623.46 282.89 1615.12 282.50 1607.04 282.63 C 1597.03 282.57 1586.65 282.75 1577.26 278.77 C 1567.77 275.11 1559.69 268.60 1552.70 261.34 C 1546.75 255.03 1541.35 247.99 1538.06 239.91 C 1530.53 219.85 1530.22 196.98 1538.10 176.98 C 1543.67 162.67 1553.56 149.91 1566.59 141.67 C 1572.79 137.80 1579.55 134.49 1586.89 133.58 M 1560.38 173.34 C 1555.54 180.74 1553.08 189.35 1551.50 197.96 C 1586.92 197.97 1622.35 197.96 1657.78 197.97 C 1656.79 188.77 1654.34 179.60 1648.90 171.99 C 1640.61 158.94 1626.53 149.57 1611.02 148.14 C 1591.11 145.90 1570.86 156.45 1560.38 173.34 Z" />
<path fill="#0a66c2" opacity="1.00" d=" M 2014.89 136.87 C 2024.69 131.45 2036.23 132.16 2047.04 132.50 C 2054.23 132.95 2061.90 132.75 2068.37 136.43 C 2076.73 141.08 2083.45 148.35 2088.57 156.36 C 2093.91 164.53 2093.53 174.65 2093.98 184.00 C 2094.74 215.77 2094.84 247.55 2095.29 279.33 C 2088.61 279.34 2081.94 279.32 2075.28 279.34 C 2075.18 251.90 2075.42 224.45 2075.09 197.01 C 2074.80 188.83 2075.04 180.53 2073.22 172.50 C 2069.89 161.31 2060.26 152.36 2048.94 149.61 C 2035.41 146.14 2020.94 150.09 2009.42 157.49 C 2002.05 162.19 1995.95 168.52 1989.42 174.25 C 1989.46 209.28 1989.43 244.30 1989.43 279.33 C 1983.56 279.34 1977.69 279.34 1971.83 279.33 C 1971.83 230.94 1971.82 182.56 1971.83 134.17 C 1977.70 134.17 1983.56 134.15 1989.44 134.18 C 1989.65 140.12 1988.72 146.29 1990.73 152.02 C 1998.99 147.32 2006.24 140.96 2014.89 136.87 Z" />
<path fill="#0a66c2" opacity="1.00" d=" M 2256.96 133.51 C 2269.99 130.48 2284.06 131.22 2296.43 136.49 C 2303.65 139.67 2310.98 143.88 2314.99 150.99 C 2318.10 156.52 2321.25 162.09 2323.87 167.87 C 2324.04 205.02 2323.90 242.18 2323.94 279.33 C 2318.07 279.34 2312.21 279.33 2306.35 279.34 C 2306.12 248.54 2306.92 217.72 2305.40 186.94 C 2304.89 181.30 2305.10 175.35 2302.58 170.13 C 2298.38 161.24 2290.55 154.24 2281.47 150.60 C 2272.64 147.03 2262.66 147.91 2253.78 150.79 C 2241.00 154.68 2230.68 163.45 2220.47 171.66 C 2220.56 207.55 2220.49 243.44 2220.50 279.33 C 2213.90 279.33 2207.30 279.34 2200.71 279.33 C 2200.70 230.94 2200.70 182.55 2200.71 134.17 C 2207.30 134.17 2213.90 134.15 2220.51 134.17 C 2220.50 141.06 2220.50 147.95 2220.51 154.84 C 2230.45 144.65 2243.04 136.83 2256.96 133.51 Z" />
<path fill="#0a66c2" opacity="1.00" d=" M 2386.16 142.10 C 2395.11 136.53 2405.29 132.40 2415.97 132.15 C 2432.14 131.22 2449.70 132.84 2462.94 143.13 C 2469.89 148.19 2474.81 155.43 2481.45 160.85 C 2482.97 152.04 2482.19 143.06 2482.39 134.17 C 2488.25 134.16 2494.12 134.17 2500.00 134.16 L 2500.00 235.70 C 2499.64 253.63 2500.02 271.62 2498.29 289.50 C 2497.26 300.92 2491.99 311.82 2483.79 319.81 C 2472.66 330.77 2457.48 336.73 2442.25 339.13 C 2437.31 339.82 2432.38 340.52 2427.43 341.00 L 2422.66 341.00 C 2408.21 339.92 2393.89 337.33 2380.05 333.00 C 2375.84 331.53 2370.45 330.17 2368.70 325.56 C 2367.38 319.80 2368.15 313.81 2367.97 307.95 C 2377.28 312.71 2386.74 317.44 2397.00 319.85 C 2414.27 324.13 2432.93 324.90 2449.97 319.17 C 2461.07 315.49 2470.64 307.27 2475.75 296.73 C 2482.28 282.73 2481.61 266.91 2483.04 251.87 C 2475.34 259.92 2468.14 268.77 2458.42 274.50 C 2448.73 280.46 2437.18 282.51 2425.95 282.61 C 2410.92 282.94 2395.33 279.86 2382.85 271.11 C 2370.64 262.76 2362.41 249.91 2356.51 236.60 C 2353.00 228.19 2353.89 218.86 2353.66 209.97 C 2353.88 197.93 2352.91 185.26 2358.08 174.03 C 2364.03 160.93 2374.06 149.82 2386.16 142.10 M 2414.52 148.72 C 2404.27 151.25 2394.92 157.03 2387.63 164.61 C 2373.75 179.09 2367.96 200.52 2371.79 220.11 C 2374.65 235.70 2384.13 249.98 2397.64 258.34 C 2408.89 265.61 2422.91 268.68 2436.12 266.04 C 2451.43 263.18 2465.06 253.20 2472.91 239.82 C 2482.41 223.75 2484.09 203.45 2477.89 185.90 C 2473.53 173.39 2465.14 162.11 2453.73 155.22 C 2447.53 151.32 2440.21 149.79 2433.06 148.79 C 2426.91 148.04 2420.64 147.66 2414.52 148.72 Z" />
<path fill="#0a66c2" opacity="1.00" d=" M 1745.13 134.35 C 1754.54 132.09 1764.32 132.46 1773.92 132.74 C 1781.47 133.06 1789.33 133.34 1796.25 136.74 C 1805.12 140.98 1812.69 147.58 1819.21 154.87 C 1821.19 157.02 1823.24 159.15 1825.76 160.71 C 1827.06 151.93 1826.41 143.01 1826.59 134.17 C 1832.45 134.17 1838.31 134.16 1844.19 134.17 C 1844.20 182.55 1844.19 230.94 1844.19 279.33 C 1837.58 279.34 1830.98 279.33 1824.39 279.33 C 1824.37 270.18 1824.39 261.02 1824.38 251.87 C 1821.34 256.83 1818.59 262.15 1814.02 265.93 C 1802.64 275.83 1788.33 283.29 1772.99 283.71 C 1755.91 284.26 1738.60 279.21 1724.60 269.39 C 1711.50 260.10 1703.00 245.45 1698.90 230.13 C 1693.91 211.34 1694.97 190.78 1702.79 172.90 C 1707.02 162.90 1714.56 154.75 1722.58 147.63 C 1729.24 141.98 1736.54 136.56 1745.13 134.35 M 1757.54 148.75 C 1754.19 149.17 1750.85 150.06 1748.00 151.90 C 1739.71 157.02 1732.39 163.65 1726.17 171.13 C 1718.99 179.76 1715.84 191.02 1714.94 202.04 C 1713.45 220.45 1720.18 239.56 1733.63 252.36 C 1744.47 262.92 1760.01 268.66 1775.13 266.84 C 1791.40 265.34 1805.61 254.93 1815.04 242.03 C 1820.08 235.26 1823.20 227.19 1824.33 218.83 C 1826.50 204.95 1824.62 190.33 1818.33 177.70 C 1811.97 164.98 1800.75 153.82 1786.57 150.55 C 1777.10 148.30 1767.21 147.55 1757.54 148.75 Z" />
<path fill="#0a66c2" opacity="1.00" d=" M 1912.40 142.36 C 1919.04 136.08 1928.11 133.74 1936.87 132.28 C 1940.42 132.86 1945.80 132.77 1947.07 137.01 C 1947.85 140.69 1947.81 144.57 1947.27 148.27 C 1946.55 150.98 1943.18 150.66 1941.04 150.94 C 1934.24 151.13 1927.31 152.02 1921.21 155.20 C 1910.67 160.44 1903.78 171.23 1901.28 182.49 C 1899.65 191.57 1899.61 200.83 1899.37 210.02 C 1899.06 233.12 1899.27 256.23 1899.20 279.33 C 1892.60 279.34 1886.00 279.33 1879.41 279.33 C 1879.39 230.95 1879.41 182.56 1879.40 134.17 C 1885.26 134.16 1891.13 134.17 1897.00 134.17 C 1897.49 142.29 1895.79 150.88 1898.66 158.67 C 1903.96 153.85 1906.74 146.87 1912.40 142.36 Z" />
<path fill="#0a66c2" opacity="1.00" d=" M 2119.27 134.17 C 2133.21 134.16 2147.15 134.16 2161.09 134.17 C 2161.09 182.56 2161.10 230.94 2161.09 279.33 C 2155.22 279.34 2149.35 279.33 2143.50 279.33 C 2143.22 236.45 2142.88 193.56 2142.38 150.67 C 2134.68 150.21 2126.98 149.78 2119.28 149.35 C 2119.26 144.29 2119.27 139.23 2119.27 134.17 Z" />
</g>
</svg>
