<?xml version="1.0" encoding="UTF-8" ?>
<!DOCTYPE svg PUBLIC "-//W3C//DTD SVG 1.1//EN" "http://www.w3.org/Graphics/SVG/1.1/DTD/svg11.dtd">
<svg width="700pt" height="700pt" viewBox="0 0 700 700" version="1.1" xmlns="http://www.w3.org/2000/svg">
<g id="#ffffffff">
</g>
<g id="#01a7e1ff">
<path fill="#01a7e1" opacity="1.00" d=" M 110.38 250.00 C 110.20 245.41 114.39 241.32 119.00 241.74 C 122.88 241.65 124.94 245.25 127.42 247.58 C 149.92 247.99 172.47 247.45 194.97 247.83 C 196.93 247.56 197.43 249.58 198.17 250.93 C 201.99 259.10 205.70 267.33 209.51 275.51 C 213.88 275.52 218.24 275.50 222.61 275.54 C 222.68 265.55 222.67 255.56 222.60 245.57 C 236.44 245.56 250.27 245.51 264.11 245.58 C 264.23 291.69 264.15 337.80 264.15 383.91 C 250.33 384.20 236.50 384.05 222.67 383.99 C 222.63 373.98 222.66 363.98 222.66 353.97 C 178.20 353.70 133.74 353.87 89.28 353.88 C 87.47 356.85 84.98 360.34 81.00 359.89 C 75.45 360.52 71.05 354.26 72.95 349.17 C 74.22 344.58 79.82 342.14 84.12 344.01 C 86.60 344.86 87.77 347.35 89.12 349.39 C 124.03 349.42 158.95 349.42 193.86 349.39 C 191.40 339.94 188.44 330.64 185.75 321.25 C 166.14 321.01 146.52 321.22 126.91 321.15 C 125.11 321.27 122.72 320.76 121.71 322.73 C 119.73 325.89 115.97 328.12 112.19 326.87 C 107.09 325.69 104.62 319.40 107.00 314.88 C 108.95 311.20 113.86 309.55 117.65 311.22 C 120.03 312.16 121.32 314.53 122.75 316.49 C 144.87 316.68 166.99 316.48 189.11 316.59 C 192.38 327.52 195.53 338.49 198.85 349.41 C 206.78 349.34 214.71 349.52 222.65 349.35 C 222.65 326.23 222.68 303.12 222.64 280.00 C 212.76 280.09 202.89 279.89 193.01 280.08 C 187.19 279.74 181.36 279.85 175.55 280.27 C 172.34 288.10 168.63 295.70 165.36 303.50 C 142.61 303.55 119.87 303.41 97.12 303.58 C 95.29 306.40 92.80 309.71 89.02 309.48 C 84.04 309.81 79.73 304.90 80.58 300.00 C 81.04 295.22 86.26 291.79 90.83 292.99 C 93.80 293.74 95.30 296.66 97.45 298.56 C 99.27 298.85 101.12 298.78 102.96 298.80 C 122.79 298.70 142.63 298.87 162.47 298.71 C 165.12 292.50 168.03 286.40 170.61 280.16 C 165.86 279.93 161.04 279.49 156.31 280.23 C 153.98 282.26 152.41 285.79 148.89 285.87 C 144.42 286.69 139.67 283.42 139.31 278.80 C 138.45 273.86 143.02 268.97 148.01 269.50 C 151.87 269.19 154.13 272.72 156.08 275.45 C 172.13 275.51 188.19 275.55 204.25 275.44 C 201.03 267.60 197.28 259.99 193.70 252.31 C 172.44 252.25 151.19 252.33 129.93 252.26 C 125.64 251.54 124.79 257.45 120.86 258.07 C 115.79 259.74 110.05 255.32 110.38 250.00 M 116.61 245.51 C 114.39 246.91 112.41 250.04 114.42 252.45 C 115.98 255.54 121.11 255.58 122.65 252.47 C 125.62 248.87 120.53 243.69 116.61 245.51 M 144.28 273.40 C 143.69 275.15 142.46 276.88 142.79 278.79 C 143.52 280.56 144.92 282.59 147.06 282.57 C 151.16 283.38 153.86 277.77 151.39 274.71 C 149.84 272.33 146.61 273.53 144.28 273.40 M 87.48 296.48 C 83.03 297.46 83.09 304.57 87.36 305.69 C 90.64 306.89 94.35 303.65 93.58 300.26 C 92.97 297.58 90.20 295.73 87.48 296.48 M 112.36 314.21 C 108.75 315.59 108.33 321.39 111.75 323.25 C 114.15 324.07 117.28 324.02 118.60 321.47 C 121.44 317.67 116.65 311.85 112.36 314.21 M 79.40 347.33 C 75.84 347.75 75.02 353.37 77.71 355.40 C 80.64 358.44 86.57 355.29 85.59 351.13 C 85.74 347.96 82.05 346.50 79.40 347.33 Z" />
<path fill="#01a7e1" opacity="1.00" d=" M 301.59 247.57 C 309.03 244.68 317.08 243.96 324.99 243.79 C 338.30 243.99 351.60 245.55 364.49 248.93 C 363.08 259.58 361.53 270.22 360.16 280.88 C 348.54 278.78 336.84 275.69 324.94 276.88 C 321.31 277.37 317.52 278.23 314.64 280.63 C 311.85 283.04 311.65 287.21 312.61 290.53 C 314.26 294.88 319.12 296.48 323.10 297.98 C 335.65 302.44 349.87 304.57 359.78 314.23 C 367.29 321.30 369.33 332.11 369.41 342.01 C 369.50 352.83 367.35 364.53 359.64 372.65 C 351.37 381.65 338.78 384.93 326.96 385.66 C 308.90 386.45 290.56 384.90 273.26 379.43 C 274.84 368.92 276.52 358.44 277.94 347.91 C 291.64 351.17 305.77 354.50 319.94 352.64 C 323.97 352.11 328.82 350.73 330.33 346.47 C 330.99 343.64 331.06 340.27 329.14 337.90 C 327.33 335.47 324.32 334.45 321.63 333.37 C 311.33 329.81 300.65 327.14 290.93 322.12 C 283.02 318.08 277.39 310.26 275.67 301.58 C 273.39 290.36 273.89 278.22 278.74 267.71 C 283.27 258.31 291.79 251.06 301.59 247.57 Z" />
<path fill="#01a7e1" opacity="1.00" d=" M 537.62 245.98 C 554.13 242.02 571.58 243.84 587.70 248.66 C 586.53 258.79 584.99 268.86 583.76 278.98 C 574.46 277.06 564.90 275.34 555.39 276.53 C 550.42 277.59 545.45 280.38 543.09 285.05 C 541.23 288.36 540.62 292.21 540.67 295.97 C 540.71 309.33 540.70 322.70 540.67 336.06 C 540.62 341.79 543.21 347.83 548.35 350.73 C 553.93 354.21 560.73 354.07 567.05 353.75 C 573.38 353.36 579.59 351.96 585.78 350.62 C 586.76 360.91 588.08 371.18 588.77 381.50 C 575.25 385.38 561.04 386.41 547.04 385.62 C 532.96 384.54 518.48 378.75 509.73 367.27 C 503.45 359.29 500.93 349.01 500.84 339.00 C 500.84 324.66 500.87 310.33 500.83 296.00 C 500.63 285.87 501.85 275.21 507.50 266.53 C 513.99 255.72 525.54 248.80 537.62 245.98 Z" />
<path fill="#01a7e1" opacity="1.00" d=" M 383.40 246.46 C 392.24 247.33 401.13 246.77 410.00 246.93 C 421.76 246.76 433.54 247.37 445.28 246.47 C 458.36 247.17 472.06 252.02 480.57 262.42 C 487.20 270.31 489.83 280.86 489.57 291.01 C 489.32 301.24 490.71 311.92 486.60 321.62 C 482.41 333.16 471.59 341.09 460.05 344.27 C 448.01 348.05 435.29 347.22 422.86 347.36 C 422.73 359.55 422.83 371.74 422.81 383.94 C 409.73 384.18 396.64 384.02 383.56 384.04 C 383.40 338.18 383.72 292.31 383.40 246.46 M 422.84 276.27 C 422.77 289.78 422.77 303.28 422.85 316.79 C 427.91 316.83 432.96 316.93 438.02 316.81 C 442.30 316.83 446.69 314.38 448.35 310.33 C 450.25 305.82 450.36 300.82 450.40 296.00 C 450.36 291.49 450.41 286.76 448.46 282.59 C 446.70 278.61 442.25 276.35 438.03 276.27 C 432.96 276.08 427.90 276.22 422.84 276.27 Z" />
</g>
<g id="#bfce03ff">
<path fill="#bfce03" opacity="1.00" d=" M 116.61 245.51 C 120.53 243.69 125.62 248.87 122.65 252.47 C 121.11 255.58 115.98 255.54 114.42 252.45 C 112.41 250.04 114.39 246.91 116.61 245.51 Z" />
</g>
<g id="#1c9fc0ff">
<path fill="#1c9fc0" opacity="1.00" d=" M 383.40 246.46 C 385.55 245.93 387.77 245.66 389.99 245.70 C 405.33 245.76 420.67 245.73 436.01 245.72 C 439.11 245.69 442.21 246.01 445.28 246.47 C 433.54 247.37 421.76 246.76 410.00 246.93 C 401.13 246.77 392.24 247.33 383.40 246.46 Z" />
</g>
<g id="#f9bb20ff">
<path fill="#f9bb20" opacity="1.00" d=" M 144.28 273.40 C 146.61 273.53 149.84 272.33 151.39 274.71 C 153.86 277.77 151.16 283.38 147.06 282.57 C 144.92 282.59 143.52 280.56 142.79 278.79 C 142.46 276.88 143.69 275.15 144.28 273.40 Z" />
</g>
<g id="#fefefeff">
</g>
<g id="#f07422ff">
<path fill="#f07422" opacity="1.00" d=" M 87.48 296.48 C 90.20 295.73 92.97 297.58 93.58 300.26 C 94.35 303.65 90.64 306.89 87.36 305.69 C 83.09 304.57 83.03 297.46 87.48 296.48 Z" />
</g>
<g id="#c2ce06ff">
<path fill="#c2ce06" opacity="1.00" d=" M 112.36 314.21 C 116.65 311.85 121.44 317.67 118.60 321.47 C 117.28 324.02 114.15 324.07 111.75 323.25 C 108.33 321.39 108.75 315.59 112.36 314.21 Z" />
</g>
<g id="#faba23ff">
<path fill="#faba23" opacity="1.00" d=" M 79.40 347.33 C 82.05 346.50 85.74 347.96 85.59 351.13 C 86.57 355.29 80.64 358.44 77.71 355.40 C 75.02 353.37 75.84 347.75 79.40 347.33 Z" />
</g>
<g id="#01a7e0ff">
<path fill="#01a7e0" opacity="1.00" d=" M 115.21 371.11 C 115.25 365.52 121.82 361.77 126.79 364.02 C 129.07 365.13 130.36 367.45 131.76 369.46 C 142.52 369.55 153.29 369.52 164.06 369.50 C 165.43 369.67 167.35 369.16 168.21 370.61 C 175.49 380.83 182.37 391.34 189.70 401.52 C 190.58 402.91 192.56 402.29 193.94 402.53 C 326.86 402.42 459.78 402.54 592.70 402.47 C 592.67 403.91 592.64 405.35 592.63 406.80 C 578.11 407.60 563.54 406.94 549.00 407.16 C 434.33 407.16 319.67 407.16 205.00 407.16 C 199.14 407.14 193.25 407.39 187.41 406.73 C 180.00 395.83 172.58 384.94 164.94 374.19 C 153.85 374.32 142.75 374.09 131.66 374.30 C 130.03 377.18 127.54 380.11 123.89 379.90 C 119.03 380.50 114.58 375.93 115.21 371.11 M 118.88 370.21 C 117.79 372.35 119.18 374.88 121.06 376.03 C 123.51 377.10 126.93 376.41 127.91 373.65 C 129.71 370.48 126.31 367.98 124.12 366.27 C 122.28 367.39 119.64 367.91 118.88 370.21 Z" />
</g>
<g id="#ee7527ff">
<path fill="#ee7527" opacity="1.00" d=" M 118.88 370.21 C 119.64 367.91 122.28 367.39 124.12 366.27 C 126.31 367.98 129.71 370.48 127.91 373.65 C 126.93 376.41 123.51 377.10 121.06 376.03 C 119.18 374.88 117.79 372.35 118.88 370.21 Z" />
</g>
<g id="#01a8dfff">
<path fill="#01a8df" opacity="1.00" d=" M 224.29 424.25 C 226.31 424.24 228.33 424.22 230.36 424.20 C 230.47 433.42 230.43 442.65 230.41 451.88 C 228.36 451.87 226.31 451.87 224.27 451.87 C 224.30 442.66 224.28 433.45 224.29 424.25 Z" />
</g>
<g id="#03a7e1ff">
<path fill="#03a7e1" opacity="1.00" d=" M 235.89 424.24 C 237.89 424.24 239.90 424.23 241.91 424.22 C 245.03 429.71 247.61 435.52 251.19 440.74 C 251.58 435.25 251.38 429.73 251.39 424.24 C 253.37 424.23 255.35 424.22 257.34 424.21 C 257.50 433.43 257.44 442.66 257.38 451.88 C 255.32 451.83 253.27 451.80 251.22 451.75 C 248.08 446.30 245.46 440.54 242.01 435.28 C 241.60 440.79 241.84 446.31 241.78 451.83 C 239.77 451.84 237.77 451.84 235.77 451.85 C 235.86 442.65 235.67 433.44 235.89 424.24 Z" />
<path fill="#03a7e1" opacity="1.00" d=" M 361.71 424.24 C 368.52 424.28 375.32 424.23 382.13 424.27 C 382.17 425.96 382.20 427.65 382.23 429.35 C 379.82 429.39 377.41 429.40 375.01 429.41 C 374.72 436.89 374.89 444.37 374.91 451.85 C 372.88 451.84 370.85 451.84 368.83 451.84 C 368.73 444.36 368.79 436.89 368.78 429.41 C 366.38 429.40 363.98 429.40 361.58 429.37 C 361.61 427.65 361.65 425.95 361.71 424.24 Z" />
<path fill="#03a7e1" opacity="1.00" d=" M 439.73 424.24 C 441.74 424.23 443.77 424.22 445.79 424.20 C 445.91 430.77 445.55 437.37 445.93 443.93 C 445.90 448.56 454.22 448.59 454.14 443.93 C 454.48 437.38 454.18 430.81 454.29 424.25 C 456.31 424.24 458.34 424.22 460.37 424.19 C 460.37 431.14 460.69 438.10 460.23 445.03 C 458.99 455.06 441.15 454.99 439.82 444.98 C 439.39 438.08 439.73 431.15 439.73 424.24 Z" />
<path fill="#03a7e1" opacity="1.00" d=" M 465.83 424.23 C 471.86 424.80 479.75 422.35 484.07 427.93 C 486.40 432.23 486.49 439.02 481.99 441.99 C 479.09 444.11 475.29 443.48 471.92 443.78 C 471.85 446.47 471.83 449.16 471.81 451.86 C 469.79 451.86 467.77 451.86 465.76 451.88 C 465.80 442.66 465.73 433.45 465.83 424.23 M 471.90 429.04 C 471.82 432.35 471.84 435.67 471.98 438.98 C 474.04 438.79 476.15 438.78 478.15 438.19 C 479.83 435.75 480.19 432.20 478.28 429.78 C 476.25 428.98 474.02 429.21 471.90 429.04 Z" />
<path fill="#03a7e1" opacity="1.00" d=" M 571.25 424.24 C 576.58 424.64 582.37 423.21 587.34 425.67 C 593.17 429.31 592.29 438.78 586.74 442.34 C 588.27 445.49 589.88 448.61 591.39 451.78 C 589.25 451.83 587.12 451.86 585.00 451.90 C 583.64 448.99 582.23 446.11 580.80 443.25 C 579.67 443.21 578.54 443.18 577.43 443.16 C 577.40 446.05 577.38 448.94 577.33 451.84 C 575.31 451.83 573.30 451.84 571.29 451.85 C 571.26 442.65 571.27 433.44 571.25 424.24 M 577.38 429.14 C 577.36 432.04 577.22 434.95 577.47 437.85 C 578.59 439.03 580.46 438.29 581.90 438.31 C 585.20 438.14 585.76 433.86 584.82 431.39 C 583.80 428.17 579.90 429.54 577.38 429.14 Z" />
<path fill="#03a7e1" opacity="1.00" d=" M 251.32 466.17 C 255.86 464.70 261.91 464.88 265.06 468.98 C 267.53 472.09 266.66 476.33 266.85 480.01 C 266.79 484.22 267.41 489.60 263.20 492.16 C 258.80 494.66 252.58 494.64 248.46 491.56 C 244.13 487.58 245.86 481.14 245.54 475.95 C 245.19 471.90 247.16 467.37 251.32 466.17 M 254.48 470.40 C 251.98 470.87 251.60 473.82 251.68 475.92 C 251.77 479.80 251.19 483.81 252.35 487.58 C 254.45 489.75 258.31 489.62 260.28 487.30 C 261.04 482.67 260.76 477.90 260.51 473.23 C 260.12 470.49 256.77 469.77 254.48 470.40 Z" />
<path fill="#03a7e1" opacity="1.00" d=" M 295.24 465.82 C 302.04 465.75 308.84 465.71 315.65 465.83 C 315.49 467.42 315.60 469.09 315.06 470.63 C 312.84 470.88 310.62 471.02 308.40 471.22 C 308.45 478.62 308.40 486.03 308.44 493.44 C 306.44 493.50 304.45 493.57 302.46 493.65 C 302.25 486.13 302.44 478.61 302.32 471.09 C 299.97 470.90 297.62 470.78 295.28 470.69 C 295.26 469.06 295.25 467.43 295.24 465.82 Z" />
<path fill="#03a7e1" opacity="1.00" d=" M 354.46 465.68 C 356.83 466.03 360.29 464.77 361.45 467.65 C 364.35 472.71 367.03 477.89 369.69 483.08 C 370.15 477.32 370.15 471.54 370.12 465.77 C 372.06 465.78 374.01 465.80 375.95 465.81 C 375.91 475.09 376.05 484.36 375.86 493.63 C 373.82 493.55 371.77 493.48 369.73 493.42 C 366.78 487.76 363.82 482.09 360.49 476.64 C 360.25 482.26 360.39 487.88 360.40 493.50 C 358.40 493.50 356.41 493.50 354.42 493.51 C 354.36 484.23 354.27 474.96 354.46 465.68 Z" />
<path fill="#03a7e1" opacity="1.00" d=" M 460.37 466.30 C 465.25 464.51 472.19 464.94 475.25 469.71 C 477.27 474.53 476.23 479.97 476.36 485.06 C 476.60 489.73 472.47 493.66 467.90 493.75 C 463.16 494.48 456.84 492.99 455.57 487.67 C 454.87 483.16 455.18 478.57 455.24 474.03 C 455.18 470.71 457.30 467.54 460.37 466.30 M 463.55 470.56 C 462.23 471.21 461.21 472.51 461.37 474.05 C 461.27 478.46 460.91 482.96 461.70 487.33 C 463.63 489.80 467.52 489.68 469.67 487.57 C 470.75 484.49 470.30 481.16 470.41 477.96 C 470.30 475.42 470.80 472.18 468.29 470.58 C 466.75 470.16 465.07 470.04 463.55 470.56 Z" />
</g>
<g id="#04a7e1ff">
<path fill="#04a7e1" opacity="1.00" d=" M 265.88 424.92 C 269.84 422.89 274.39 424.11 278.57 424.61 C 278.43 426.26 278.29 427.92 278.16 429.58 C 274.97 429.44 271.68 428.77 268.55 429.67 C 267.28 430.90 266.71 433.33 268.63 434.27 C 272.03 436.16 276.77 436.29 278.88 440.02 C 280.51 443.70 279.95 449.00 276.11 451.10 C 271.53 453.48 266.20 452.17 261.40 451.30 C 261.58 449.61 261.76 447.94 261.95 446.27 C 265.18 446.64 268.50 447.65 271.74 446.82 C 273.67 446.43 273.67 444.52 273.68 442.96 C 270.97 440.38 266.87 440.30 263.92 438.11 C 260.04 434.60 261.05 427.12 265.88 424.92 Z" />
<path fill="#04a7e1" opacity="1.00" d=" M 337.72 424.23 C 339.76 424.24 341.80 424.24 343.84 424.24 C 343.96 430.80 343.54 437.38 344.00 443.94 C 343.91 448.57 352.23 448.51 352.23 443.93 C 352.60 437.38 352.26 430.81 352.34 424.25 C 354.35 424.23 356.36 424.20 358.38 424.17 C 358.35 431.43 358.86 438.73 358.17 445.96 C 355.68 455.46 338.04 454.45 337.77 444.04 C 337.53 437.44 337.71 430.83 337.72 424.23 Z" />
<path fill="#04a7e1" opacity="1.00" d=" M 439.40 468.38 C 442.88 464.55 448.67 465.10 453.25 466.11 C 453.46 467.64 453.48 469.19 453.54 470.74 C 450.23 470.76 446.00 469.53 443.63 472.63 C 442.92 477.19 442.83 481.97 443.60 486.52 C 445.66 490.02 450.53 488.31 453.82 488.37 C 453.75 490.01 453.78 491.68 453.48 493.32 C 448.89 493.96 443.43 494.67 439.67 491.33 C 436.52 488.50 436.86 483.86 436.73 480.01 C 436.83 476.07 436.33 471.40 439.40 468.38 Z" />
<path fill="#04a7e1" opacity="1.00" d=" M 316.79 465.79 C 322.60 465.77 328.41 465.71 334.22 465.80 C 334.18 467.44 334.15 469.09 334.12 470.75 C 330.52 470.76 326.91 470.79 323.32 470.95 C 323.30 473.03 323.30 475.13 323.30 477.23 C 326.75 477.27 330.19 477.26 333.64 477.29 C 333.63 478.80 333.64 480.31 333.65 481.84 C 330.18 482.04 326.70 482.16 323.22 482.22 C 323.23 484.25 323.23 486.28 323.23 488.32 C 327.02 488.41 330.81 488.39 334.61 488.42 C 334.60 490.11 334.59 491.81 334.60 493.51 C 328.78 493.52 322.97 493.51 317.16 493.55 C 317.11 484.30 317.27 475.04 316.79 465.79 Z" />
<path fill="#04a7e1" opacity="1.00" d=" M 548.76 465.75 C 554.06 466.12 559.85 464.74 564.78 467.22 C 569.01 469.85 568.21 475.89 565.20 479.17 C 567.04 481.27 569.25 483.68 568.65 486.73 C 568.46 490.35 565.17 492.92 561.76 493.31 C 557.48 493.78 553.18 493.46 548.89 493.56 C 548.71 484.29 548.82 475.02 548.76 465.75 M 554.56 470.36 C 554.56 472.72 554.59 475.08 554.65 477.45 C 556.89 477.25 559.26 477.34 561.33 476.30 C 561.80 475.03 561.99 473.67 561.86 472.33 C 560.32 469.70 557.06 470.60 554.56 470.36 M 554.55 481.39 C 554.55 483.89 554.58 486.40 554.66 488.91 C 557.20 488.55 560.34 489.30 562.35 487.29 C 562.81 486.07 562.83 484.73 562.59 483.47 C 560.90 480.65 557.25 481.66 554.55 481.39 Z" />
<path fill="#04a7e1" opacity="1.00" d=" M 576.24 465.90 C 579.07 465.80 581.91 465.62 584.75 465.88 C 588.11 474.85 590.22 484.29 592.93 493.49 C 590.78 493.50 588.64 493.51 586.50 493.54 C 585.97 491.59 585.45 489.65 584.95 487.72 C 582.09 487.69 579.23 487.69 576.37 487.76 C 575.88 489.71 575.38 491.66 574.86 493.61 C 572.72 493.55 570.58 493.50 568.45 493.41 C 571.07 484.25 573.76 475.10 576.24 465.90 M 577.69 482.72 C 579.76 482.72 581.84 482.72 583.92 482.72 C 582.98 478.89 582.01 475.05 580.69 471.33 C 579.37 475.04 578.47 478.87 577.69 482.72 Z" />
</g>
<g id="#03a6e0ff">
<path fill="#03a6e0" opacity="1.00" d=" M 281.19 424.37 C 288.06 424.17 294.94 424.30 301.82 424.24 C 301.80 425.93 301.79 427.63 301.80 429.33 C 299.45 429.38 297.10 429.40 294.76 429.43 C 294.67 436.91 294.74 444.38 294.70 451.87 C 292.66 451.87 290.62 451.86 288.59 451.88 C 288.53 444.39 288.55 436.91 288.59 429.44 C 286.37 429.43 284.15 429.49 281.93 429.36 C 281.49 427.73 281.38 426.03 281.19 424.37 Z" />
<path fill="#03a6e0" opacity="1.00" d=" M 502.69 465.77 C 508.44 466.13 514.94 464.54 520.02 468.01 C 523.76 470.78 523.09 475.92 523.19 480.01 C 523.13 484.03 523.59 489.15 519.72 491.68 C 514.59 494.73 508.32 493.17 502.66 493.52 C 502.61 484.27 502.58 475.02 502.69 465.77 M 508.80 470.47 C 508.75 476.57 508.66 482.67 508.92 488.77 C 511.42 488.57 514.22 488.93 516.37 487.35 C 517.21 483.62 516.92 479.74 516.86 475.95 C 516.66 474.43 516.91 472.42 515.30 471.59 C 513.42 470.20 510.96 470.69 508.80 470.47 Z" />
</g>
<g id="#05a8e3ff">
<path fill="#05a8e3" opacity="1.00" d=" M 304.90 424.24 C 306.97 424.24 309.04 424.24 311.12 424.24 C 311.25 433.44 311.18 442.64 311.13 451.84 C 309.04 451.84 306.96 451.83 304.87 451.83 C 304.83 442.64 304.77 433.44 304.90 424.24 Z" />
</g>
<g id="#03a6dfff">
<path fill="#03a6df" opacity="1.00" d=" M 314.20 424.33 C 321.05 424.18 327.90 424.28 334.75 424.25 C 334.74 425.94 334.73 427.62 334.73 429.32 C 332.41 429.38 330.08 429.40 327.76 429.42 C 327.62 436.89 327.67 444.36 327.70 451.84 C 325.66 451.84 323.61 451.85 321.58 451.88 C 321.52 444.41 321.54 436.94 321.57 429.47 C 319.41 429.45 317.24 429.49 315.09 429.32 C 314.09 427.88 314.49 425.97 314.20 424.33 Z" />
</g>
<g id="#03a7e0ff">
<path fill="#03a7e0" opacity="1.00" d=" M 390.38 424.44 C 395.75 422.63 403.68 424.20 405.23 430.44 C 405.77 435.68 405.86 441.08 405.13 446.32 C 402.20 454.33 388.63 454.61 385.01 447.06 C 383.63 442.21 384.35 437.03 384.36 432.05 C 384.36 428.47 387.00 425.39 390.38 424.44 M 392.38 429.12 C 389.39 430.99 390.73 435.08 390.38 438.00 C 390.72 440.98 389.43 444.99 392.30 447.05 C 394.56 448.07 398.61 447.83 399.08 444.83 C 399.71 440.62 399.53 436.30 399.26 432.06 C 399.06 428.80 394.85 427.76 392.38 429.12 Z" />
<path fill="#03a7e0" opacity="1.00" d=" M 551.39 424.54 C 556.73 422.76 565.07 423.90 566.48 430.38 C 566.99 435.67 567.14 441.13 566.35 446.41 C 564.09 453.05 554.67 453.87 549.34 450.63 C 544.06 447.27 545.82 440.22 545.50 434.97 C 545.04 430.68 546.98 425.87 551.39 424.54 M 553.47 429.27 C 552.02 429.83 551.85 431.65 551.72 432.98 C 551.55 436.63 551.50 440.30 551.80 443.94 C 551.73 448.48 559.90 448.95 560.44 444.56 C 560.90 440.48 560.79 436.33 560.55 432.23 C 560.47 428.90 555.94 427.47 553.47 429.27 Z" />
<path fill="#03a7e0" opacity="1.00" d=" M 340.58 466.51 C 344.09 464.71 348.13 465.62 351.86 465.89 C 351.86 467.51 351.86 469.14 351.86 470.77 C 348.47 470.76 343.75 469.34 341.88 473.19 C 341.32 477.37 341.33 481.67 341.86 485.85 C 343.53 490.14 348.95 488.31 352.43 488.44 C 352.37 490.12 352.33 491.80 352.26 493.49 C 348.97 493.62 345.63 494.14 342.37 493.50 C 338.87 492.57 335.59 489.60 335.52 485.79 C 335.31 481.60 335.25 477.39 335.59 473.22 C 335.79 470.23 337.94 467.73 340.58 466.51 Z" />
<path fill="#03a7e0" opacity="1.00" d=" M 411.46 466.47 C 416.37 464.43 423.18 464.83 426.49 469.49 C 428.54 472.95 427.62 477.20 427.86 481.03 C 428.06 485.23 427.84 490.31 423.61 492.55 C 418.12 495.11 409.23 494.51 406.99 487.84 C 406.17 483.60 406.58 479.23 406.57 474.94 C 406.46 471.50 408.03 467.72 411.46 466.47 M 415.50 470.40 C 411.44 471.61 413.03 476.85 412.64 480.01 C 412.94 482.97 411.70 487.64 415.38 488.87 C 417.68 489.78 421.55 488.68 421.53 485.79 C 421.78 481.37 421.94 476.88 421.38 472.49 C 420.32 470.31 417.63 469.91 415.50 470.40 Z" />
</g>
<g id="#04a8e1ff">
<path fill="#04a8e1" opacity="1.00" d=" M 421.99 425.07 C 425.90 422.85 430.57 424.02 434.78 424.48 C 434.72 426.19 434.65 427.90 434.59 429.62 C 431.12 429.26 427.60 429.05 424.18 429.83 C 424.16 431.19 424.16 432.55 424.16 433.91 C 427.56 435.44 431.39 436.23 434.35 438.59 C 437.67 442.42 436.66 449.73 431.62 451.61 C 427.29 453.22 422.61 452.07 418.20 451.48 C 418.25 449.74 418.31 448.00 418.38 446.27 C 421.49 446.55 424.64 447.51 427.77 446.87 C 429.81 446.82 431.10 443.99 429.68 442.47 C 426.65 440.18 422.35 440.16 419.61 437.44 C 417.08 433.62 417.66 427.38 421.99 425.07 Z" />
<path fill="#04a8e1" opacity="1.00" d=" M 479.18 465.80 C 484.62 466.05 490.55 464.75 495.56 467.44 C 499.11 469.60 499.18 474.18 498.74 477.84 C 498.47 480.46 496.17 482.15 494.64 484.08 C 496.23 487.23 497.84 490.37 499.26 493.61 C 497.14 493.44 494.88 493.85 492.86 493.09 C 491.10 490.42 489.95 487.41 488.56 484.54 C 487.49 484.50 486.42 484.46 485.36 484.42 C 485.28 487.44 485.27 490.47 485.26 493.50 C 483.21 493.50 481.17 493.50 479.13 493.48 C 479.22 484.25 479.09 475.02 479.18 465.80 M 485.27 470.52 C 485.25 473.70 485.25 476.89 485.30 480.08 C 487.64 479.61 490.89 480.62 492.46 478.37 C 493.06 476.23 493.09 473.83 492.19 471.78 C 490.24 470.17 487.59 470.66 485.27 470.52 Z" />
</g>
<g id="#02a6dfff">
<path fill="#02a6df" opacity="1.00" d=" M 489.42 424.25 C 495.08 424.25 500.76 424.35 506.43 424.22 C 506.47 425.94 506.50 427.65 506.53 429.38 C 502.89 429.41 499.25 429.40 495.61 429.44 C 495.59 431.47 495.57 433.51 495.53 435.56 C 499.11 435.54 502.71 435.54 506.30 435.65 C 506.16 437.25 506.03 438.86 505.88 440.47 C 502.43 440.43 498.99 440.44 495.54 440.48 C 495.57 442.57 495.60 444.67 495.66 446.77 C 499.37 446.74 503.07 446.75 506.78 446.77 C 506.77 448.45 506.78 450.13 506.80 451.81 C 500.99 451.88 495.19 451.86 489.39 451.83 C 489.40 442.63 489.43 433.44 489.42 424.25 Z" />
</g>
<g id="#04a7e0ff">
<path fill="#04a7e0" opacity="1.00" d=" M 510.62 424.23 C 515.85 424.64 521.50 423.27 526.43 425.52 C 532.47 429.16 531.63 438.60 526.12 442.37 C 527.69 445.52 529.29 448.65 530.72 451.86 C 528.55 451.85 526.39 451.82 524.23 451.77 C 522.93 448.86 521.53 446.00 520.11 443.16 C 519.25 443.16 517.53 443.17 516.67 443.18 C 516.67 446.06 516.66 448.95 516.66 451.84 C 514.63 451.84 512.60 451.86 510.58 451.88 C 510.53 442.66 510.53 433.44 510.62 424.23 M 516.68 428.97 C 516.63 432.13 516.64 435.31 516.70 438.48 C 518.42 438.38 520.16 438.40 521.88 438.10 C 524.71 437.83 524.60 434.19 524.36 432.06 C 523.88 428.27 519.35 429.47 516.68 428.97 Z" />
</g>
<g id="#02a8e0ff">
<path fill="#02a8e0" opacity="1.00" d=" M 534.80 424.25 C 536.79 424.24 538.80 424.22 540.81 424.20 C 540.80 433.41 540.83 442.61 540.78 451.82 C 538.76 451.83 536.73 451.84 534.72 451.86 C 534.80 442.66 534.62 433.46 534.80 424.25 Z" />
</g>
<g id="#fcfdfaff">
</g>
<g id="#fafbfaff">
</g>
<g id="#fafcf9ff">
</g>
<g id="#fdfdfdff">
</g>
<g id="#fcfdf9ff">
</g>
<g id="#04a7dfff">
<path fill="#04a7df" opacity="1.00" d=" M 322.44 463.31 C 323.89 460.66 325.50 458.10 327.09 455.53 C 328.85 456.11 330.61 456.71 332.37 457.34 C 330.32 459.54 328.49 462.10 325.93 463.73 C 324.76 463.63 323.59 463.49 322.44 463.31 Z" />
</g>
<g id="#05a7e3ff">
<path fill="#05a7e3" opacity="1.00" d=" M 462.28 463.39 C 463.64 460.62 465.25 457.99 466.94 455.41 C 468.68 456.02 470.42 456.63 472.16 457.26 C 469.47 460.11 466.98 465.01 462.28 463.39 Z" />
</g>
<g id="#03a6e1ff">
<path fill="#03a6e1" opacity="1.00" d=" M 391.08 468.08 C 394.82 464.66 400.21 465.26 404.82 465.94 C 404.79 467.54 404.77 469.15 404.76 470.76 C 401.43 470.69 396.77 469.50 394.90 473.18 C 394.42 477.83 393.71 482.96 395.51 487.38 C 398.27 489.55 401.99 488.47 405.20 488.37 C 405.28 489.96 405.37 491.57 405.45 493.18 C 400.65 493.76 394.68 495.04 390.94 491.07 C 387.76 488.30 388.42 483.76 388.31 480.00 C 388.44 475.96 387.66 471.06 391.08 468.08 Z" />
<path fill="#03a6e1" opacity="1.00" d=" M 269.46 465.77 C 271.51 465.75 273.57 465.74 275.63 465.75 C 275.64 473.24 275.64 480.74 275.70 488.25 C 279.11 488.27 282.53 488.27 285.95 488.29 C 285.94 490.04 285.93 491.79 285.92 493.55 C 280.44 493.49 274.96 493.53 269.48 493.55 C 269.46 484.29 269.59 475.03 269.46 465.77 Z" />
</g>
<g id="#03a7dfff">
<path fill="#03a7df" opacity="1.00" d=" M 224.35 465.83 C 229.55 466.00 235.11 464.88 240.02 467.08 C 244.73 469.63 244.84 475.95 243.41 480.46 C 241.22 485.36 235.05 485.10 230.54 485.52 C 230.57 488.20 230.58 490.88 230.59 493.56 C 228.53 493.54 226.47 493.53 224.41 493.53 C 224.38 484.30 224.48 475.06 224.35 465.83 M 230.63 470.40 C 230.55 473.77 230.56 477.15 230.62 480.54 C 232.63 480.34 234.72 480.42 236.65 479.74 C 238.49 477.52 238.71 474.22 237.24 471.75 C 235.41 470.19 232.84 470.69 230.63 470.40 Z" />
</g>
<g id="#02a7dfff">
<path fill="#02a7df" opacity="1.00" d=" M 287.43 465.78 C 289.47 465.77 291.52 465.78 293.58 465.82 C 293.57 475.06 293.55 484.30 293.59 493.54 C 291.54 493.53 289.49 493.53 287.44 493.54 C 287.39 484.28 287.47 475.03 287.43 465.78 Z" />
</g>
<g id="#03a7e2ff">
<path fill="#03a7e2" opacity="1.00" d=" M 379.61 465.72 C 381.63 465.74 383.66 465.77 385.69 465.82 C 385.64 475.10 385.81 484.38 385.56 493.66 C 383.56 493.56 381.56 493.47 379.56 493.39 C 379.59 484.17 379.47 474.94 379.61 465.72 Z" />
</g>
<g id="#03a8e2ff">
<path fill="#03a8e2" opacity="1.00" d=" M 530.34 466.27 C 534.75 464.67 540.21 465.04 543.88 468.15 C 546.94 471.30 546.21 476.01 546.33 480.01 C 546.24 483.72 546.81 488.08 543.98 491.00 C 540.58 494.45 535.03 494.32 530.66 493.20 C 525.96 491.73 524.54 486.45 524.84 482.04 C 524.84 476.52 523.98 468.71 530.34 466.27 M 533.54 470.54 C 532.11 471.04 531.05 472.46 531.22 474.02 C 531.13 478.48 530.79 483.00 531.56 487.42 C 533.61 489.68 537.43 489.80 539.52 487.53 C 540.71 482.87 540.41 477.91 539.88 473.17 C 539.44 470.23 535.89 469.72 533.54 470.54 Z" />
</g>
<g id="#fcfdfbff">
</g>
<g id="#fbfdfaff">
</g>
<g id="#f9fdfbff">
</g>
<g id="#fdfdfcff">
</g>
<g id="#fbfdfbff">
</g>
<g id="#fcfdf3ff">
</g>
<g id="#fbfcfaff">
</g>
</svg>
