<?xml version="1.0" encoding="UTF-8" ?>
<!DOCTYPE svg PUBLIC "-//W3C//DTD SVG 1.1//EN" "http://www.w3.org/Graphics/SVG/1.1/DTD/svg11.dtd">
<svg width="1500pt" height="1000pt" viewBox="0 0 1500 1000" version="1.1" xmlns="http://www.w3.org/2000/svg">
<g id="#00618aff">
<path fill="#00618a" opacity="1.00" d=" M 902.77 205.76 C 909.96 201.19 919.04 201.51 927.08 203.23 C 940.44 206.22 952.79 212.53 964.41 219.61 C 968.92 222.29 972.38 226.35 976.77 229.18 C 979.45 231.02 982.87 230.35 985.93 230.73 C 992.37 231.31 998.96 230.96 1005.27 232.66 C 1015.35 235.07 1025.63 237.29 1034.96 241.95 C 1069.62 261.44 1101.95 286.03 1126.62 317.47 C 1136.58 330.08 1145.77 343.36 1153.62 357.39 C 1158.52 366.91 1161.69 377.19 1166.09 386.94 C 1173.60 404.11 1181.64 421.05 1190.20 437.72 C 1193.65 444.57 1196.28 451.92 1200.89 458.13 C 1202.12 460.00 1204.18 461.02 1206.24 461.77 C 1213.51 464.16 1220.21 467.91 1227.30 470.76 C 1243.33 477.28 1257.15 487.96 1270.90 498.25 C 1277.62 503.45 1284.22 508.80 1290.68 514.31 C 1296.66 519.36 1300.47 526.35 1305.77 532.04 C 1305.76 532.69 1305.76 533.98 1305.76 534.63 C 1296.31 537.39 1286.83 540.36 1276.94 540.95 C 1265.24 541.53 1254.35 546.26 1242.85 547.94 C 1245.82 554.70 1251.98 559.16 1257.97 563.07 C 1265.06 567.70 1272.73 571.44 1279.44 576.64 C 1289.22 584.01 1298.26 592.44 1305.82 602.11 C 1308.87 606.07 1312.99 609.06 1316.06 613.00 C 1317.75 616.07 1318.93 619.40 1320.57 622.51 C 1316.31 620.68 1313.59 616.79 1309.93 614.14 C 1303.39 609.29 1296.99 604.23 1290.03 599.98 C 1280.40 594.26 1269.78 590.49 1260.00 585.07 C 1252.58 581.03 1245.92 575.80 1239.18 570.75 C 1233.09 566.23 1228.30 560.23 1224.05 554.01 C 1221.41 550.32 1220.46 545.76 1217.91 542.03 C 1218.96 540.02 1220.47 538.16 1222.80 537.59 C 1229.89 535.56 1236.61 532.41 1243.83 530.78 C 1257.85 527.34 1272.38 527.10 1286.75 527.25 C 1284.31 521.61 1278.73 518.50 1273.85 515.27 C 1260.18 507.14 1248.13 496.45 1234.01 489.07 C 1223.31 484.78 1212.44 480.90 1201.41 477.56 C 1196.16 475.64 1190.17 473.99 1186.77 469.20 C 1177.49 456.29 1171.63 441.40 1165.11 427.00 C 1159.26 414.24 1152.79 401.77 1147.17 388.90 C 1144.27 382.34 1142.46 375.33 1139.19 368.93 C 1120.29 332.48 1092.92 300.34 1059.41 276.55 C 1047.04 267.80 1033.99 259.91 1020.03 253.99 C 1011.72 250.54 1003.12 247.24 994.00 247.17 C 986.42 247.11 978.95 245.61 971.39 245.45 C 968.30 244.63 965.85 242.40 963.45 240.42 C 956.49 233.94 947.89 229.65 939.41 225.55 C 932.81 222.64 926.26 219.39 919.18 217.84 C 916.27 217.24 913.06 216.81 910.34 218.28 C 906.19 219.78 904.68 225.06 905.86 229.01 C 908.76 239.83 917.02 247.84 923.49 256.59 C 929.10 264.40 935.11 272.08 938.99 280.96 C 945.42 295.62 948.79 311.37 954.70 326.22 C 959.10 336.44 964.13 346.90 972.52 354.49 C 975.83 357.71 978.76 362.07 978.32 366.90 C 977.66 373.69 975.02 380.07 972.70 386.43 C 965.90 402.95 964.47 421.22 965.77 438.89 C 966.86 453.88 970.80 468.73 978.02 481.96 C 980.39 486.35 984.44 489.69 989.28 491.05 C 991.07 487.83 990.64 484.01 991.24 480.49 C 992.82 467.73 993.69 454.35 999.87 442.80 C 1003.38 436.80 1008.36 431.85 1012.30 426.15 C 1014.83 428.78 1015.29 432.46 1016.37 435.79 C 1025.16 458.38 1036.71 479.81 1049.72 500.23 C 1057.96 513.03 1066.77 525.68 1078.07 536.00 C 1080.48 537.94 1082.89 539.90 1085.01 542.18 C 1075.64 538.95 1070.34 530.04 1062.76 524.27 C 1053.37 517.06 1044.55 509.08 1036.65 500.25 C 1031.65 494.49 1026.67 488.54 1023.42 481.59 C 1019.97 474.70 1016.60 467.77 1013.04 460.94 C 1011.22 468.54 1009.88 476.25 1008.99 484.01 C 1008.24 489.56 1007.46 495.42 1004.19 500.14 C 999.58 506.63 989.99 508.56 983.04 504.87 C 975.30 500.90 970.14 493.50 965.78 486.23 C 957.58 471.86 953.89 455.32 952.75 438.94 C 951.91 425.76 952.84 412.44 955.79 399.55 C 957.02 393.97 959.03 388.60 960.07 382.97 C 961.05 377.84 962.18 372.60 965.03 368.13 C 964.25 366.04 963.25 363.98 961.53 362.51 C 955.97 357.73 952.74 351.01 949.17 344.76 C 941.60 331.27 937.18 316.39 931.88 301.95 C 929.76 296.27 929.16 290.08 926.32 284.66 C 922.35 276.95 916.78 270.24 911.71 263.26 C 904.43 253.89 895.95 244.75 892.89 232.97 C 890.08 223.05 894.11 211.47 902.77 205.76 Z" />
<path fill="#00618a" opacity="1.00" d=" M 977.47 275.41 C 981.43 274.65 985.44 274.13 989.49 274.18 C 991.91 276.21 994.72 277.78 996.89 280.11 C 998.46 282.25 999.44 284.75 1000.80 287.03 C 1000.93 292.74 999.02 298.68 994.17 302.08 C 991.61 297.18 989.71 291.92 986.79 287.22 C 983.64 283.32 980.09 279.72 977.47 275.41 Z" />
<path fill="#00618a" opacity="1.00" d=" M 196.88 567.97 C 207.90 565.28 220.06 564.59 230.61 569.42 C 238.66 573.01 244.77 580.08 248.12 588.13 C 266.73 631.09 285.32 674.05 303.93 717.01 C 321.38 678.04 338.79 639.06 356.22 600.09 C 360.52 590.91 363.69 580.53 371.96 574.00 C 382.46 565.19 397.31 564.53 410.17 567.36 C 417.40 569.07 425.29 570.77 430.65 576.34 C 435.39 581.25 436.61 588.39 436.61 594.98 C 436.62 644.91 436.61 694.85 436.62 744.79 C 423.95 744.80 411.28 744.79 398.61 744.80 C 398.59 694.77 398.62 644.75 398.59 594.73 C 379.16 637.91 359.74 681.10 340.33 724.29 C 336.86 732.65 331.41 741.06 322.53 744.31 C 312.65 747.79 301.72 747.64 291.56 745.61 C 281.91 743.66 274.52 736.03 270.73 727.24 C 250.80 683.10 231.01 638.91 211.11 594.76 C 211.06 644.77 211.11 694.78 211.08 744.80 C 198.42 744.80 185.75 744.79 173.08 744.80 C 173.07 694.87 173.08 644.94 173.08 595.01 C 173.06 588.57 174.22 581.62 178.71 576.70 C 183.38 571.53 190.36 569.61 196.88 567.97 Z" />
<path fill="#00618a" opacity="1.00" d=" M 611.16 622.23 C 623.85 622.24 636.54 622.23 649.24 622.23 C 649.37 667.46 649.27 712.69 649.18 757.92 C 649.31 768.61 643.49 778.77 634.77 784.78 C 621.48 794.06 604.91 797.22 588.99 797.91 C 549.01 797.96 509.03 797.92 469.05 797.93 C 469.05 789.41 469.04 780.88 469.06 772.36 C 508.70 772.37 548.35 772.38 588.00 772.36 C 595.47 771.78 604.23 770.39 608.98 763.92 C 612.61 757.79 610.19 750.29 610.87 743.57 C 583.57 743.54 556.26 743.62 528.96 743.53 C 512.49 743.14 495.30 740.01 481.62 730.31 C 474.43 725.17 468.39 717.25 468.27 708.08 C 468.28 679.60 468.93 651.10 468.32 622.62 C 480.95 622.65 493.59 622.62 506.22 622.64 C 506.22 650.44 506.24 678.24 506.22 706.05 C 506.05 710.14 508.18 714.14 511.57 716.42 C 516.63 719.88 522.98 720.55 528.96 720.68 C 556.35 720.86 583.75 720.68 611.14 720.70 C 611.17 687.88 611.14 655.06 611.16 622.23 Z" />
</g>
<g id="#e48e00ff">
<path fill="#e48e00" opacity="1.00" d=" M 709.09 573.29 C 718.04 570.13 727.62 569.57 737.03 569.41 C 774.31 569.31 811.58 569.40 848.86 569.36 C 848.87 577.81 848.86 586.25 848.86 594.70 C 816.90 594.70 784.94 594.70 752.98 594.70 C 744.10 594.71 735.07 594.30 726.40 596.55 C 723.34 597.35 720.27 599.01 718.80 601.95 C 716.21 606.52 717.02 611.95 716.92 616.98 C 717.04 623.70 715.94 631.11 719.96 637.01 C 724.09 643.13 732.04 644.54 738.92 644.82 C 755.92 645.03 772.93 644.79 789.94 644.94 C 805.91 645.32 822.33 649.10 835.50 658.50 C 840.10 661.90 844.20 666.30 846.19 671.76 C 847.89 676.32 847.32 681.27 847.41 686.04 C 847.31 693.67 847.59 701.31 847.27 708.94 C 846.73 717.94 841.20 725.92 834.02 731.05 C 820.49 740.79 803.55 744.86 787.05 744.80 C 750.87 744.79 714.69 744.83 678.52 744.77 C 678.55 736.34 678.53 727.90 678.53 719.47 C 710.67 719.46 742.80 719.47 774.93 719.47 C 782.62 719.44 790.58 719.82 797.92 717.11 C 803.66 714.87 809.60 709.72 809.04 702.98 C 808.99 696.30 809.07 689.63 809.01 682.96 C 809.28 678.45 805.82 674.94 802.41 672.56 C 796.61 669.09 789.66 668.67 783.10 668.11 C 768.41 667.90 753.70 668.15 739.00 667.99 C 724.12 667.52 708.91 664.69 695.88 657.19 C 687.72 652.44 680.17 644.84 679.07 635.04 C 678.67 627.04 679.00 619.01 678.90 611.00 C 678.78 602.84 680.57 594.30 685.79 587.82 C 691.64 580.49 700.39 576.27 709.09 573.29 Z" />
<path fill="#e48e00" opacity="1.00" d=" M 1084.54 569.37 C 1097.21 569.36 1109.89 569.37 1122.56 569.37 C 1122.55 611.92 1122.58 654.46 1122.55 697.01 C 1122.35 702.75 1122.76 709.37 1127.46 713.39 C 1133.98 718.78 1142.95 719.11 1151.02 719.43 C 1185.03 719.51 1219.04 719.44 1253.04 719.46 C 1253.05 727.91 1253.04 736.35 1253.05 744.80 C 1221.71 744.80 1190.37 744.79 1159.03 744.80 C 1142.15 744.83 1124.77 743.55 1109.07 736.88 C 1099.60 732.85 1090.96 725.72 1087.24 715.90 C 1083.95 708.01 1084.57 699.32 1084.55 690.98 C 1084.54 650.44 1084.55 609.91 1084.54 569.37 Z" />
<path fill="#e48e00" opacity="1.00" d=" M 917.54 570.73 C 925.26 569.33 933.12 569.71 940.93 569.67 C 959.93 569.66 978.93 569.67 997.93 569.66 C 1010.30 569.40 1022.78 571.38 1034.37 575.77 C 1044.44 579.61 1053.93 586.67 1057.98 596.97 C 1061.48 605.19 1060.54 614.28 1060.66 622.98 C 1060.66 649.34 1060.67 675.70 1060.66 702.06 C 1060.65 710.18 1059.32 718.76 1054.33 725.42 C 1050.31 730.95 1044.23 734.46 1038.07 737.15 C 1050.56 748.38 1063.02 759.64 1075.48 770.90 C 1060.76 770.90 1046.05 770.90 1031.34 770.90 C 1021.26 761.77 1011.16 752.67 1001.06 743.56 C 987.06 744.28 973.07 745.83 959.03 745.50 C 947.06 745.34 935.07 745.86 923.12 745.18 C 909.49 743.65 895.47 739.95 884.52 731.35 C 875.95 724.64 871.59 713.69 871.70 702.97 C 871.64 672.33 871.67 641.69 871.68 611.05 C 871.63 601.50 875.26 591.81 882.38 585.30 C 891.91 576.40 904.96 572.75 917.54 570.73 M 920.21 600.26 C 915.61 603.22 912.55 608.47 912.71 614.00 C 912.67 641.98 912.73 669.97 912.68 697.95 C 912.72 703.07 914.22 708.43 917.76 712.27 C 923.13 718.05 931.40 719.85 939.00 720.06 C 951.01 720.15 963.03 720.08 975.05 720.09 C 964.49 710.55 953.92 701.01 943.36 691.47 C 958.08 691.46 972.79 691.46 987.51 691.47 C 996.74 699.83 1005.98 708.16 1015.22 716.50 C 1020.84 713.37 1025.19 707.55 1025.13 700.93 C 1025.17 672.61 1025.10 644.28 1025.16 615.96 C 1025.41 611.55 1024.32 606.98 1021.42 603.56 C 1015.99 597.10 1007.06 595.25 999.01 595.10 C 980.65 595.02 962.30 595.10 943.95 595.06 C 935.82 594.92 927.14 595.58 920.21 600.26 Z" />
<path fill="#e48e00" opacity="1.00" d=" M 1291.48 691.71 C 1303.65 688.26 1317.84 693.98 1323.65 705.34 C 1328.88 715.10 1327.82 727.99 1320.71 736.57 C 1312.09 747.44 1295.15 749.92 1283.62 742.32 C 1273.58 736.23 1268.85 723.34 1271.65 712.07 C 1273.76 702.25 1281.79 694.19 1291.48 691.71 M 1292.38 697.53 C 1283.14 700.14 1276.81 709.56 1277.19 719.04 C 1277.13 727.16 1281.83 735.22 1289.24 738.71 C 1297.63 742.91 1308.66 740.99 1314.92 733.92 C 1322.59 725.64 1322.52 711.51 1314.71 703.34 C 1309.20 697.29 1300.13 695.09 1292.38 697.53 Z" />
<path fill="#e48e00" opacity="1.00" d=" M 1287.71 702.77 C 1292.80 702.84 1297.90 702.58 1303.00 702.92 C 1306.34 703.13 1310.16 704.50 1311.48 707.89 C 1312.70 711.18 1312.55 715.42 1309.98 718.05 C 1308.30 719.80 1305.80 720.15 1303.60 720.82 C 1306.68 725.43 1309.69 730.09 1312.73 734.73 C 1310.62 734.73 1308.52 734.72 1306.44 734.72 C 1303.67 730.10 1300.87 725.50 1298.07 720.90 C 1296.39 720.89 1294.73 720.89 1293.09 720.90 C 1293.08 725.51 1293.08 730.13 1293.08 734.74 C 1291.27 734.72 1289.48 734.72 1287.70 734.71 C 1287.72 724.06 1287.69 713.41 1287.71 702.77 M 1293.09 707.23 C 1293.07 710.30 1293.07 713.36 1293.09 716.44 C 1296.65 716.32 1300.33 716.83 1303.80 715.80 C 1307.13 714.75 1307.36 709.08 1303.95 707.98 C 1300.47 706.74 1296.69 707.37 1293.09 707.23 Z" />
</g>
</svg>
