<?xml version="1.0" encoding="UTF-8" ?>
<!DOCTYPE svg PUBLIC "-//W3C//DTD SVG 1.1//EN" "http://www.w3.org/Graphics/SVG/1.1/DTD/svg11.dtd">
<svg width="800pt" height="665pt" viewBox="0 0 800 665" version="1.1" xmlns="http://www.w3.org/2000/svg">
<g id="#201f1fff">
<path fill="#201f1f" opacity="1.00" d=" M 212.78 13.72 C 222.49 11.92 232.43 13.80 241.86 16.22 C 266.47 23.06 288.64 36.29 309.81 50.23 C 349.13 39.36 390.51 36.54 431.06 40.31 C 446.59 41.85 462.06 44.32 477.18 48.23 C 495.92 36.06 515.45 24.62 536.84 17.77 C 547.89 14.39 559.64 11.70 571.20 13.69 C 582.14 41.11 585.72 72.22 577.16 100.78 C 588.69 112.43 598.47 125.90 605.34 140.82 C 614.24 159.89 618.25 181.04 618.16 202.03 C 618.05 227.88 616.82 254.04 610.03 279.12 C 664.52 277.04 719.44 279.47 773.03 290.00 C 772.90 290.70 772.63 292.11 772.49 292.81 C 718.78 282.30 663.75 279.86 609.16 282.04 C 607.81 286.51 606.22 290.90 604.63 295.29 C 660.95 297.29 717.41 303.83 771.79 319.04 C 771.63 319.71 771.31 321.04 771.14 321.70 C 716.47 306.79 659.85 299.86 603.27 298.19 C 597.46 311.46 589.13 323.66 578.54 333.58 C 564.55 346.82 547.16 355.94 529.09 362.28 C 506.66 370.07 483.10 374.19 459.52 376.45 C 434.69 377.49 409.82 377.39 384.98 377.37 C 373.72 377.36 362.46 377.15 351.21 376.73 C 346.27 375.56 341.12 376.65 336.11 376.09 C 312.54 373.33 289.03 368.72 266.80 360.27 C 248.77 353.43 231.60 343.84 217.39 330.72 C 207.22 321.42 198.82 310.30 192.23 298.23 C 136.50 300.13 80.74 306.97 26.87 321.69 C 26.70 321.05 26.35 319.75 26.17 319.10 C 79.69 304.02 135.31 297.47 190.77 295.43 C 188.63 291.00 186.64 286.49 184.86 281.89 C 131.57 279.98 77.89 282.58 25.47 292.79 C 25.35 292.09 25.10 290.70 24.98 290.00 C 77.18 279.74 130.65 277.16 183.73 278.99 C 176.98 259.35 173.78 238.65 172.89 217.95 C 172.13 202.56 172.17 187.00 175.39 171.86 C 180.20 147.61 192.25 125.06 209.01 106.97 C 197.72 76.95 201.08 43.09 212.78 13.72 M 272.93 189.85 C 261.25 195.02 252.18 204.51 244.58 214.54 C 235.98 226.35 229.69 240.60 229.92 255.43 C 229.38 276.02 233.36 297.57 245.22 314.81 C 255.49 329.90 271.34 340.36 288.23 346.69 C 312.40 355.83 338.39 358.64 364.02 360.02 C 388.64 361.15 413.30 360.88 437.93 360.23 C 461.75 359.27 485.97 357.47 508.61 349.47 C 524.04 344.05 538.46 334.64 547.86 321.05 C 559.11 305.05 563.19 285.19 564.03 265.94 C 564.07 261.99 564.81 257.95 563.92 254.05 C 564.12 250.70 563.88 247.34 563.07 244.09 C 559.32 226.07 548.17 210.36 534.54 198.35 C 522.60 187.91 506.51 183.79 491.00 182.99 C 474.29 181.95 457.57 183.38 440.91 184.43 C 417.04 186.46 393.00 187.00 369.08 185.56 C 349.07 184.44 329.10 182.25 309.03 182.91 C 296.73 182.93 284.23 184.84 272.93 189.85 Z" />
<path fill="#201f1f" opacity="1.00" d=" M 158.76 362.70 C 166.68 360.04 175.40 361.24 183.18 363.81 C 198.04 369.00 210.32 380.18 218.37 393.56 C 223.15 401.50 228.90 408.99 236.18 414.82 C 245.64 422.65 257.64 427.26 269.90 427.87 C 283.46 428.70 296.84 425.07 309.24 419.85 C 308.73 421.75 308.32 423.68 307.99 425.63 C 305.04 425.63 300.93 426.47 300.57 430.05 C 300.50 433.42 304.49 433.91 307.01 434.34 C 306.55 442.90 306.43 451.52 307.52 460.04 L 307.56 460.34 C 287.97 464.13 267.19 465.53 248.03 458.97 C 231.88 453.64 218.14 442.25 208.88 428.11 C 201.80 417.43 196.73 405.44 188.32 395.66 C 182.79 389.01 175.67 383.82 167.92 380.04 C 162.98 377.34 157.35 374.69 154.57 369.51 C 153.00 366.39 155.94 363.50 158.76 362.70 M 183.13 370.10 C 179.24 373.76 188.39 378.74 189.98 373.98 C 190.06 370.74 185.85 368.74 183.13 370.10 M 196.31 378.34 C 190.77 380.99 198.65 389.53 202.48 385.50 C 204.30 381.89 199.97 377.65 196.31 378.34 M 208.13 392.10 C 203.45 395.59 209.76 404.75 214.68 401.53 C 217.94 397.64 212.93 390.34 208.13 392.10 M 220.39 409.33 C 217.02 413.84 223.72 421.25 228.55 418.42 C 232.58 414.03 225.20 405.88 220.39 409.33 M 236.34 424.57 C 233.69 427.07 236.45 431.02 239.15 432.14 C 241.64 433.60 246.34 433.50 246.74 429.92 C 246.61 425.24 240.20 421.97 236.34 424.57 M 258.12 431.13 C 255.96 431.85 254.90 434.76 256.55 436.53 C 259.14 439.85 266.20 440.54 267.77 435.98 C 268.04 431.35 261.70 429.50 258.12 431.13 M 281.45 431.66 C 279.48 432.39 277.76 434.79 279.04 436.83 C 281.64 440.66 289.01 440.43 290.77 435.92 C 291.15 431.30 284.77 430.02 281.45 431.66 Z" />
<path fill="#201f1f" opacity="1.00" d=" M 342.34 385.48 C 363.08 382.59 384.07 382.61 404.97 382.54 C 419.41 382.50 434.05 383.07 448.03 387.00 C 459.99 390.38 471.13 397.41 478.25 407.73 C 481.73 412.29 483.91 417.65 487.13 422.37 L 487.37 422.73 C 489.05 435.09 488.47 447.57 488.56 460.01 C 488.56 477.00 488.56 493.98 488.57 510.97 C 489.04 520.70 487.09 530.87 490.83 540.16 C 493.90 548.57 499.95 556.15 508.28 559.78 C 511.58 561.16 514.79 563.48 515.93 567.03 C 516.68 569.07 515.20 570.93 514.09 572.51 C 511.86 573.46 509.51 574.28 507.05 574.26 C 497.14 574.30 487.10 572.95 477.85 569.27 C 470.28 566.19 463.26 561.21 458.90 554.19 C 454.71 547.64 453.12 539.76 453.08 532.07 C 453.01 523.59 453.08 515.11 453.06 506.63 C 453.04 491.41 453.10 476.20 453.04 460.98 C 452.71 451.45 451.47 441.60 446.93 433.07 C 445.82 430.84 444.13 428.99 442.17 427.50 C 441.65 453.58 442.09 479.68 441.94 505.77 C 441.91 522.85 442.01 539.93 441.87 557.01 C 442.06 564.79 443.16 572.91 447.29 579.67 C 449.34 583.17 453.00 585.11 456.06 587.59 C 457.43 589.98 458.52 592.87 457.43 595.60 C 456.68 597.89 454.54 599.21 452.50 600.22 C 450.69 600.60 448.88 600.89 447.06 601.09 C 436.42 599.62 426.04 595.44 417.58 588.79 C 412.28 584.46 407.95 578.83 405.71 572.33 C 403.81 567.11 403.50 561.50 403.55 556.01 C 403.69 538.81 403.59 521.62 403.62 504.42 C 403.60 477.96 403.65 451.49 403.72 425.03 C 403.64 422.74 403.84 419.87 401.69 418.41 C 398.86 416.39 393.94 418.12 394.36 421.99 C 394.27 449.49 394.32 477.00 394.25 504.50 C 394.25 521.02 394.24 537.54 394.26 554.05 C 395.02 566.85 390.76 580.33 380.65 588.68 C 370.99 596.55 358.43 601.55 345.87 601.04 L 344.92 600.87 C 343.10 599.90 341.09 598.75 340.50 596.64 C 339.39 593.49 340.70 590.22 342.27 587.50 C 345.31 584.74 349.35 583.09 351.73 579.63 C 355.54 574.23 355.98 567.35 356.06 560.97 C 356.06 542.71 356.05 524.46 356.06 506.20 C 355.92 479.65 356.35 453.09 355.84 426.55 C 351.70 429.07 349.56 433.64 348.06 438.07 C 345.57 445.78 344.91 453.96 344.93 462.02 C 344.96 477.07 344.93 492.13 344.94 507.18 C 344.91 515.79 345.01 524.40 344.90 533.01 C 344.78 540.85 342.88 548.84 338.35 555.34 C 334.01 561.70 327.47 566.24 320.42 569.16 C 309.41 573.60 297.32 574.73 285.54 574.05 C 283.16 572.87 280.19 571.09 280.87 567.94 C 281.53 563.05 286.55 561.08 290.53 559.43 C 300.46 555.26 308.21 545.79 309.16 534.92 C 309.75 527.27 309.30 519.60 309.43 511.94 C 309.47 494.64 309.37 477.34 309.49 460.04 C 309.77 446.20 309.32 432.25 311.58 418.53 C 313.73 408.35 318.05 398.70 324.04 390.20 L 324.16 390.17 C 330.10 388.19 336.10 386.25 342.34 385.48 Z" />
</g>
<g id="#c49b86ff">
<path fill="#c49b86" opacity="1.00" d=" M 272.93 189.85 C 284.23 184.84 296.73 182.93 309.03 182.91 C 329.10 182.25 349.07 184.44 369.08 185.56 C 393.00 187.00 417.04 186.46 440.91 184.43 C 457.57 183.38 474.29 181.95 491.00 182.99 C 506.51 183.79 522.60 187.91 534.54 198.35 C 548.17 210.36 559.32 226.07 563.07 244.09 C 563.88 247.34 564.12 250.70 563.92 254.05 C 562.19 247.42 560.54 240.72 557.50 234.55 C 552.74 224.27 545.62 215.27 537.53 207.41 C 532.15 202.20 525.83 197.90 518.83 195.18 C 507.15 190.59 494.43 189.59 482.00 189.69 C 453.94 190.10 426.11 194.76 398.03 194.68 C 376.11 194.86 354.31 192.34 332.49 190.67 C 317.91 189.75 303.14 188.94 288.67 191.53 C 278.59 193.32 268.67 197.12 260.73 203.72 C 249.53 213.13 240.27 225.06 234.74 238.66 C 232.49 244.04 231.34 249.79 229.92 255.43 C 229.69 240.60 235.98 226.35 244.58 214.54 C 252.18 204.51 261.25 195.02 272.93 189.85 Z" />
</g>
<g id="#f4cab1ff">
<path fill="#f4cab1" opacity="1.00" d=" M 288.67 191.53 C 303.14 188.94 317.91 189.75 332.49 190.67 C 354.31 192.34 376.11 194.86 398.03 194.68 C 426.11 194.76 453.94 190.10 482.00 189.69 C 494.43 189.59 507.15 190.59 518.83 195.18 C 525.83 197.90 532.15 202.20 537.53 207.41 C 545.62 215.27 552.74 224.27 557.50 234.55 C 560.54 240.72 562.19 247.42 563.92 254.05 C 564.81 257.95 564.07 261.99 564.03 265.94 C 563.19 285.19 559.11 305.05 547.86 321.05 C 538.46 334.64 524.04 344.05 508.61 349.47 C 485.97 357.47 461.75 359.27 437.93 360.23 C 413.30 360.88 388.64 361.15 364.02 360.02 C 338.39 358.64 312.40 355.83 288.23 346.69 C 271.34 340.36 255.49 329.90 245.22 314.81 C 233.36 297.57 229.38 276.02 229.92 255.43 C 231.34 249.79 232.49 244.04 234.74 238.66 C 240.27 225.06 249.53 213.13 260.73 203.72 C 268.67 197.12 278.59 193.32 288.67 191.53 M 299.39 213.47 C 290.29 216.30 283.41 223.77 279.03 231.98 C 271.85 245.67 270.29 261.92 273.29 276.98 C 275.73 288.52 281.16 300.01 290.77 307.24 C 297.36 312.32 306.42 314.24 314.37 311.51 C 324.21 308.28 331.26 299.71 335.54 290.60 C 342.43 275.40 343.22 257.64 338.31 241.74 C 335.17 231.79 329.44 222.13 320.43 216.47 C 314.28 212.51 306.40 211.30 299.39 213.47 M 486.24 213.40 C 476.61 216.25 469.52 224.32 465.10 233.02 C 458.69 245.97 457.13 261.04 459.58 275.21 C 461.73 287.00 466.93 298.81 476.41 306.51 C 483.06 311.98 492.43 314.35 500.73 311.62 C 510.51 308.45 517.67 300.06 521.96 291.01 C 529.34 275.11 529.96 256.31 524.29 239.78 C 521.00 230.46 515.29 221.52 506.71 216.27 C 500.69 212.48 493.07 211.39 486.24 213.40 M 393.37 299.41 C 388.94 301.61 387.43 307.82 390.20 311.88 C 392.52 315.69 397.96 316.97 401.79 314.73 C 405.88 312.59 407.44 306.97 405.21 302.97 C 403.12 298.78 397.42 297.12 393.37 299.41 M 379.46 325.39 C 377.87 325.57 376.58 327.38 377.19 328.93 C 379.90 337.63 388.84 343.82 397.94 343.47 C 406.70 343.38 415.10 337.30 417.70 328.91 C 418.64 326.35 415.03 324.15 413.15 326.07 C 411.23 329.41 409.59 333.18 406.09 335.21 C 398.97 340.22 387.96 337.67 383.90 329.94 C 382.74 328.22 382.15 324.98 379.46 325.39 Z" />
</g>
<g id="#ffffffff">
<path fill="#ffffff" opacity="1.00" d=" M 299.39 213.47 C 306.40 211.30 314.28 212.51 320.43 216.47 C 329.44 222.13 335.17 231.79 338.31 241.74 C 343.22 257.64 342.43 275.40 335.54 290.60 C 331.26 299.71 324.21 308.28 314.37 311.51 C 306.42 314.24 297.36 312.32 290.77 307.24 C 281.16 300.01 275.73 288.52 273.29 276.98 C 270.29 261.92 271.85 245.67 279.03 231.98 C 283.41 223.77 290.29 216.30 299.39 213.47 M 304.42 230.65 C 298.68 232.64 294.34 237.40 291.52 242.64 C 287.06 250.99 285.83 260.84 287.15 270.15 C 288.27 277.85 291.34 285.54 296.98 291.05 C 300.86 294.88 306.40 297.26 311.90 296.51 C 318.54 295.69 323.92 290.85 327.27 285.31 C 332.77 276.17 334.13 264.93 332.28 254.52 C 330.76 246.53 327.13 238.51 320.53 233.47 C 316.04 229.98 309.83 228.72 304.42 230.65 Z" />
<path fill="#ffffff" opacity="1.00" d=" M 486.24 213.40 C 493.07 211.39 500.69 212.48 506.71 216.27 C 515.29 221.52 521.00 230.46 524.29 239.78 C 529.96 256.31 529.34 275.11 521.96 291.01 C 517.67 300.06 510.51 308.45 500.73 311.62 C 492.43 314.35 483.06 311.98 476.41 306.51 C 466.93 298.81 461.73 287.00 459.58 275.21 C 457.13 261.04 458.69 245.97 465.10 233.02 C 469.52 224.32 476.61 216.25 486.24 213.40 M 484.44 230.59 C 478.94 232.45 474.70 236.87 471.86 241.80 C 467.21 249.96 465.77 259.70 466.86 268.96 C 467.81 276.88 470.77 284.82 476.41 290.61 C 480.36 294.72 486.14 297.33 491.91 296.48 C 498.26 295.66 503.47 291.12 506.79 285.87 C 512.52 276.74 514.00 265.39 512.21 254.88 C 510.75 246.78 507.12 238.65 500.47 233.52 C 496.01 230.03 489.84 228.73 484.44 230.59 Z" />
<path fill="#ffffff" opacity="1.00" d=" M 296.36 242.56 C 300.44 239.61 306.80 242.96 306.66 247.98 C 307.03 252.82 301.24 256.47 297.01 254.11 C 292.51 252.08 292.14 245.09 296.36 242.56 Z" />
<path fill="#ffffff" opacity="1.00" d=" M 480.46 242.55 C 484.48 240.85 489.25 244.71 488.43 249.00 C 488.01 253.32 482.36 255.67 479.00 252.95 C 475.21 250.42 476.13 243.94 480.46 242.55 Z" />
</g>
<g id="#ac5c51ff">
<path fill="#ac5c51" opacity="1.00" d=" M 304.42 230.65 C 309.83 228.72 316.04 229.98 320.53 233.47 C 327.13 238.51 330.76 246.53 332.28 254.52 C 334.13 264.93 332.77 276.17 327.27 285.31 C 323.92 290.85 318.54 295.69 311.90 296.51 C 306.40 297.26 300.86 294.88 296.98 291.05 C 291.34 285.54 288.27 277.85 287.15 270.15 C 285.83 260.84 287.06 250.99 291.52 242.64 C 294.34 237.40 298.68 232.64 304.42 230.65 M 296.36 242.56 C 292.14 245.09 292.51 252.08 297.01 254.11 C 301.24 256.47 307.03 252.82 306.66 247.98 C 306.80 242.96 300.44 239.61 296.36 242.56 Z" />
<path fill="#ac5c51" opacity="1.00" d=" M 484.44 230.59 C 489.84 228.73 496.01 230.03 500.47 233.52 C 507.12 238.65 510.75 246.78 512.21 254.88 C 514.00 265.39 512.52 276.74 506.79 285.87 C 503.47 291.12 498.26 295.66 491.91 296.48 C 486.14 297.33 480.36 294.72 476.41 290.61 C 470.77 284.82 467.81 276.88 466.86 268.96 C 465.77 259.70 467.21 249.96 471.86 241.80 C 474.70 236.87 478.94 232.45 484.44 230.59 M 480.46 242.55 C 476.13 243.94 475.21 250.42 479.00 252.95 C 482.36 255.67 488.01 253.32 488.43 249.00 C 489.25 244.71 484.48 240.85 480.46 242.55 Z" />
<path fill="#ac5c51" opacity="1.00" d=" M 393.37 299.41 C 397.42 297.12 403.12 298.78 405.21 302.97 C 407.44 306.97 405.88 312.59 401.79 314.73 C 397.96 316.97 392.52 315.69 390.20 311.88 C 387.43 307.82 388.94 301.61 393.37 299.41 Z" />
<path fill="#ac5c51" opacity="1.00" d=" M 379.46 325.39 C 382.15 324.98 382.74 328.22 383.90 329.94 C 387.96 337.67 398.97 340.22 406.09 335.21 C 409.59 333.18 411.23 329.41 413.15 326.07 C 415.03 324.15 418.64 326.35 417.70 328.91 C 415.10 337.30 406.70 343.38 397.94 343.47 C 388.84 343.82 379.90 337.63 377.19 328.93 C 376.58 327.38 377.87 325.57 379.46 325.39 Z" />
</g>
<g id="#9cdaf0ff">
<path fill="#9cdaf0" opacity="1.00" d=" M 183.13 370.10 C 185.85 368.74 190.06 370.74 189.98 373.98 C 188.39 378.74 179.24 373.76 183.13 370.10 Z" />
<path fill="#9cdaf0" opacity="1.00" d=" M 196.31 378.34 C 199.97 377.65 204.30 381.89 202.48 385.50 C 198.65 389.53 190.77 380.99 196.31 378.34 Z" />
<path fill="#9cdaf0" opacity="1.00" d=" M 156.02 400.00 C 157.94 392.73 160.11 385.53 162.21 378.31 C 164.25 385.59 166.51 392.80 168.37 400.13 C 169.34 403.90 167.43 408.81 163.08 409.10 C 158.20 409.90 154.68 404.39 156.02 400.00 Z" />
<path fill="#9cdaf0" opacity="1.00" d=" M 208.13 392.10 C 212.93 390.34 217.94 397.64 214.68 401.53 C 209.76 404.75 203.45 395.59 208.13 392.10 Z" />
<path fill="#9cdaf0" opacity="1.00" d=" M 220.39 409.33 C 225.20 405.88 232.58 414.03 228.55 418.42 C 223.72 421.25 217.02 413.84 220.39 409.33 Z" />
<path fill="#9cdaf0" opacity="1.00" d=" M 236.34 424.57 C 240.20 421.97 246.61 425.24 246.74 429.92 C 246.34 433.50 241.64 433.60 239.15 432.14 C 236.45 431.02 233.69 427.07 236.34 424.57 Z" />
<path fill="#9cdaf0" opacity="1.00" d=" M 300.57 430.05 C 300.93 426.47 305.04 425.63 307.99 425.63 C 307.56 428.52 307.22 431.42 307.01 434.34 C 304.49 433.91 300.50 433.42 300.57 430.05 Z" />
<path fill="#9cdaf0" opacity="1.00" d=" M 258.12 431.13 C 261.70 429.50 268.04 431.35 267.77 435.98 C 266.20 440.54 259.14 439.85 256.55 436.53 C 254.90 434.76 255.96 431.85 258.12 431.13 Z" />
<path fill="#9cdaf0" opacity="1.00" d=" M 281.45 431.66 C 284.77 430.02 291.15 431.30 290.77 435.92 C 289.01 440.43 281.64 440.66 279.04 436.83 C 277.76 434.79 279.48 432.39 281.45 431.66 Z" />
<path fill="#9cdaf0" opacity="1.00" d=" M 394.25 504.50 C 397.37 504.46 400.50 504.43 403.62 504.42 C 403.59 521.62 403.69 538.81 403.55 556.01 C 403.50 561.50 403.81 567.11 405.71 572.33 C 407.95 578.83 412.28 584.46 417.58 588.79 C 409.36 599.01 405.30 612.05 404.90 625.07 C 404.69 633.99 404.66 642.92 404.72 651.86 C 398.40 651.30 392.07 652.02 385.75 651.69 C 388.27 651.55 390.78 651.31 393.30 651.08 C 393.23 635.51 394.97 619.34 389.56 604.39 C 387.62 598.63 384.50 593.35 380.65 588.68 C 390.76 580.33 395.02 566.85 394.26 554.05 C 394.24 537.54 394.25 521.02 394.25 504.50 Z" />
<path fill="#9cdaf0" opacity="1.00" d=" M 344.94 507.18 C 348.64 506.81 352.35 506.50 356.06 506.20 C 356.05 524.46 356.06 542.71 356.06 560.97 C 355.98 567.35 355.54 574.23 351.73 579.63 C 349.35 583.09 345.31 584.74 342.27 587.50 C 339.70 584.18 337.26 580.70 334.03 577.97 C 329.92 574.41 325.02 572.00 320.42 569.16 C 327.47 566.24 334.01 561.70 338.35 555.34 C 342.88 548.84 344.78 540.85 344.90 533.01 C 345.01 524.40 344.91 515.79 344.94 507.18 Z" />
<path fill="#9cdaf0" opacity="1.00" d=" M 441.94 505.77 C 445.65 506.03 449.35 506.33 453.06 506.63 C 453.08 515.11 453.01 523.59 453.08 532.07 C 453.12 539.76 454.71 547.64 458.90 554.19 C 463.26 561.21 470.28 566.19 477.85 569.27 C 473.63 572.34 468.77 574.44 464.81 577.86 C 461.45 580.68 458.80 584.20 456.06 587.59 C 453.00 585.11 449.34 583.17 447.29 579.67 C 443.16 572.91 442.06 564.79 441.87 557.01 C 442.01 539.93 441.91 522.85 441.94 505.77 Z" />
<path fill="#9cdaf0" opacity="1.00" d=" M 488.57 510.97 C 513.24 514.96 537.78 520.65 561.01 530.01 C 574.73 535.68 588.31 542.53 599.22 552.77 C 606.13 559.35 611.93 568.13 611.90 578.00 C 611.98 588.13 605.92 597.10 598.77 603.77 C 587.42 614.24 573.33 621.15 559.13 626.87 C 536.54 635.74 512.77 641.22 488.86 645.10 C 489.03 633.40 488.84 621.69 488.78 609.99 C 488.51 598.81 493.69 587.47 502.52 580.56 C 506.11 577.46 511.49 576.76 514.09 572.51 C 515.20 570.93 516.68 569.07 515.93 567.03 C 514.79 563.48 511.58 561.16 508.28 559.78 C 499.95 556.15 493.90 548.57 490.83 540.16 C 487.09 530.87 489.04 520.70 488.57 510.97 Z" />
<path fill="#9cdaf0" opacity="1.00" d=" M 245.13 529.09 C 265.84 521.00 287.56 515.76 309.43 511.94 C 309.30 519.60 309.75 527.27 309.16 534.92 C 308.21 545.79 300.46 555.26 290.53 559.43 C 286.55 561.08 281.53 563.05 280.87 567.94 C 280.19 571.09 283.16 572.87 285.54 574.05 C 290.31 576.96 295.58 579.33 299.39 583.56 C 305.75 590.35 309.58 599.65 309.38 608.99 C 309.29 620.74 309.40 632.50 309.17 644.25 C 285.30 639.78 261.48 634.15 239.09 624.55 C 226.30 618.95 213.65 612.24 203.63 602.35 C 196.89 595.68 191.48 586.71 191.98 576.92 C 192.41 566.67 198.87 557.86 206.27 551.26 C 217.55 541.32 231.26 534.64 245.13 529.09 Z" />
<path fill="#9cdaf0" opacity="1.00" d=" M 344.92 600.87 L 345.87 601.04 C 347.82 601.37 349.76 601.73 351.71 602.11 C 354.41 610.12 356.09 618.52 356.04 627.00 C 355.98 634.60 356.04 642.21 355.77 649.81 C 352.14 649.64 348.53 649.25 344.92 649.00 C 344.65 632.96 345.03 616.91 344.92 600.87 Z" />
<path fill="#9cdaf0" opacity="1.00" d=" M 447.06 601.09 C 448.88 600.89 450.69 600.60 452.50 600.22 C 453.83 605.05 453.21 610.07 453.28 615.01 C 453.35 626.52 453.47 638.03 453.27 649.55 C 450.34 649.64 447.43 650.06 444.50 650.04 C 443.96 649.98 442.86 649.86 442.31 649.79 C 442.22 642.19 442.21 634.59 442.18 627.00 C 442.12 618.14 444.13 609.41 447.06 601.09 Z" />
</g>
<g id="#000000ff">
<path fill="#000000" opacity="1.00" d=" M 324.16 390.17 C 327.90 384.83 332.76 380.31 338.08 376.57 C 342.45 376.89 346.83 376.81 351.21 376.73 C 362.46 377.15 373.72 377.36 384.98 377.37 C 409.82 377.39 434.69 377.49 459.52 376.45 C 474.72 386.86 484.92 404.13 487.13 422.37 C 483.91 417.65 481.73 412.29 478.25 407.73 C 471.13 397.41 459.99 390.38 448.03 387.00 C 434.05 383.07 419.41 382.50 404.97 382.54 C 384.07 382.61 363.08 382.59 342.34 385.48 C 336.10 386.25 330.10 388.19 324.16 390.17 Z" />
<path fill="#000000" opacity="1.00" d=" M 309.24 419.85 C 309.82 419.52 310.99 418.86 311.58 418.53 C 309.32 432.25 309.77 446.20 309.49 460.04 L 307.52 460.04 C 306.43 451.52 306.55 442.90 307.01 434.34 C 307.22 431.42 307.56 428.52 307.99 425.63 C 308.32 423.68 308.73 421.75 309.24 419.85 Z" />
</g>
<g id="#7cbae6ff">
<path fill="#7cbae6" opacity="1.00" d=" M 285.54 574.05 C 297.32 574.73 309.41 573.60 320.42 569.16 C 325.02 572.00 329.92 574.41 334.03 577.97 C 337.26 580.70 339.70 584.18 342.27 587.50 C 340.70 590.22 339.39 593.49 340.50 596.64 C 341.09 598.75 343.10 599.90 344.92 600.87 C 345.03 616.91 344.65 632.96 344.92 649.00 C 332.94 648.05 321.00 646.38 309.17 644.25 C 309.40 632.50 309.29 620.74 309.38 608.99 C 309.58 599.65 305.75 590.35 299.39 583.56 C 295.58 579.33 290.31 576.96 285.54 574.05 Z" />
<path fill="#7cbae6" opacity="1.00" d=" M 477.85 569.27 C 487.10 572.95 497.14 574.30 507.05 574.26 C 509.51 574.28 511.86 573.46 514.09 572.51 C 511.49 576.76 506.11 577.46 502.52 580.56 C 493.69 587.47 488.51 598.81 488.78 609.99 C 488.84 621.69 489.03 633.40 488.86 645.10 C 477.06 647.06 465.18 648.54 453.27 649.55 C 453.47 638.03 453.35 626.52 453.28 615.01 C 453.21 610.07 453.83 605.05 452.50 600.22 C 454.54 599.21 456.68 597.89 457.43 595.60 C 458.52 592.87 457.43 589.98 456.06 587.59 C 458.80 584.20 461.45 580.68 464.81 577.86 C 468.77 574.44 473.63 572.34 477.85 569.27 Z" />
<path fill="#7cbae6" opacity="1.00" d=" M 345.87 601.04 C 358.43 601.55 370.99 596.55 380.65 588.68 C 384.50 593.35 387.62 598.63 389.56 604.39 C 394.97 619.34 393.23 635.51 393.30 651.08 C 390.78 651.31 388.27 651.55 385.75 651.69 C 375.75 651.19 365.72 651.04 355.76 649.99 L 355.77 649.81 C 356.04 642.21 355.98 634.60 356.04 627.00 C 356.09 618.52 354.41 610.12 351.71 602.11 C 349.76 601.73 347.82 601.37 345.87 601.04 Z" />
<path fill="#7cbae6" opacity="1.00" d=" M 417.58 588.79 C 426.04 595.44 436.42 599.62 447.06 601.09 C 444.13 609.41 442.12 618.14 442.18 627.00 C 442.21 634.59 442.22 642.19 442.31 649.79 C 442.86 649.86 443.96 649.98 444.50 650.04 L 444.77 650.07 C 438.92 651.25 432.92 650.76 427.02 651.40 C 419.60 651.89 412.15 652.14 404.72 651.86 C 404.66 642.92 404.69 633.99 404.90 625.07 C 405.30 612.05 409.36 599.01 417.58 588.79 Z" />
</g>
</svg>
