<?xml version="1.0" encoding="UTF-8" ?>
<!DOCTYPE svg PUBLIC "-//W3C//DTD SVG 1.1//EN" "http://www.w3.org/Graphics/SVG/1.1/DTD/svg11.dtd">
<svg width="1200pt" height="1171pt" viewBox="0 0 1200 1171" version="1.1" xmlns="http://www.w3.org/2000/svg">
<g id="#26c9ffff">
<path fill="#26c9ff" opacity="1.00" d=" M 204.10 5.14 C 213.72 4.67 223.35 4.82 232.98 4.80 C 479.31 4.80 725.63 4.80 971.95 4.80 C 991.74 4.48 1011.69 5.42 1031.02 9.99 C 1080.99 21.03 1126.29 51.29 1155.92 92.98 C 1181.54 128.52 1195.34 172.26 1195.19 216.05 C 1195.21 462.04 1195.21 708.03 1195.19 954.03 C 1195.32 997.55 1181.69 1041.04 1156.33 1076.46 C 1134.50 1107.33 1104.17 1132.12 1069.56 1147.34 C 1048.83 1156.50 1026.60 1162.24 1004.04 1164.30 C 991.06 1165.52 978.02 1165.23 965.01 1165.27 C 720.00 1165.27 474.99 1165.27 229.98 1165.27 C 219.65 1165.26 209.30 1165.38 199.00 1164.54 C 151.32 1160.98 105.16 1140.46 70.58 1107.45 C 50.31 1088.30 33.92 1065.06 22.68 1039.54 C 10.64 1012.41 4.67 982.69 4.80 953.03 C 4.80 711.70 4.80 470.38 4.80 229.05 C 4.82 219.00 4.66 208.92 5.50 198.89 C 8.12 164.32 19.52 130.45 38.38 101.37 C 65.48 59.07 108.23 27.10 156.51 13.23 C 171.99 8.68 188.00 6.06 204.10 5.14 M 230.38 54.48 C 180.28 55.29 131.24 78.58 98.59 116.51 C 75.30 143.17 60.13 176.84 55.82 211.99 C 54.03 225.26 54.44 238.69 54.40 252.05 C 54.41 479.71 54.38 707.38 54.41 935.05 C 54.22 972.19 65.96 1009.26 87.55 1039.48 C 114.29 1077.42 156.14 1104.40 201.86 1112.62 C 215.06 1115.19 228.55 1115.79 241.98 1115.67 C 482.31 1115.66 722.64 1115.67 962.98 1115.67 C 981.58 1115.74 1000.24 1113.33 1018.02 1107.80 C 1052.93 1097.19 1084.34 1075.53 1106.79 1046.80 C 1128.56 1019.21 1141.90 985.08 1144.52 950.03 C 1145.44 937.70 1145.00 925.33 1145.11 912.98 C 1145.10 687.32 1145.11 461.66 1145.10 236.00 C 1145.26 210.15 1139.97 184.25 1129.31 160.67 C 1108.82 114.62 1068.11 78.08 1020.00 62.94 C 1001.32 56.90 981.65 54.20 962.05 54.40 C 718.16 54.46 474.27 54.29 230.38 54.48 Z" />
</g>
<g id="#061e26ff">
<path fill="#061e26" opacity="1.00" d=" M 230.38 54.48 C 474.27 54.29 718.16 54.46 962.05 54.40 C 981.65 54.20 1001.32 56.90 1020.00 62.94 C 1068.11 78.08 1108.82 114.62 1129.31 160.67 C 1139.97 184.25 1145.26 210.15 1145.10 236.00 C 1145.11 461.66 1145.10 687.32 1145.11 912.98 C 1145.00 925.33 1145.44 937.70 1144.52 950.03 C 1141.90 985.08 1128.56 1019.21 1106.79 1046.80 C 1084.34 1075.53 1052.93 1097.19 1018.02 1107.80 C 1000.24 1113.33 981.58 1115.74 962.98 1115.67 C 722.64 1115.67 482.31 1115.66 241.98 1115.67 C 228.55 1115.79 215.06 1115.19 201.86 1112.62 C 156.14 1104.40 114.29 1077.42 87.55 1039.48 C 65.96 1009.26 54.22 972.19 54.41 935.05 C 54.38 707.38 54.41 479.71 54.40 252.05 C 54.44 238.69 54.03 225.26 55.82 211.99 C 60.13 176.84 75.30 143.17 98.59 116.51 C 131.24 78.58 180.28 55.29 230.38 54.48 M 301.93 290.00 C 298.66 289.73 297.14 293.12 297.45 295.90 C 297.43 469.94 297.44 643.98 297.45 818.03 C 297.08 820.83 299.00 823.78 302.07 823.49 C 327.06 823.57 352.06 823.56 377.05 823.49 C 380.14 823.81 382.14 820.85 381.75 818.00 C 381.78 755.22 381.75 692.44 381.76 629.66 C 400.17 629.99 418.60 631.33 437.01 630.15 C 478.01 627.93 519.78 617.68 553.70 593.70 C 579.11 575.94 598.54 549.94 608.51 520.59 C 616.20 498.63 619.03 475.21 618.80 452.02 C 618.49 429.13 614.61 406.13 605.90 384.89 C 594.24 355.87 572.63 331.11 545.62 315.38 C 510.58 294.70 469.18 287.84 428.99 287.51 C 386.63 287.50 344.25 288.06 301.93 290.00 M 807.38 421.50 C 787.09 422.21 766.72 425.99 748.08 434.21 C 729.63 442.25 713.02 454.88 701.18 471.24 C 689.77 486.85 683.00 505.69 681.33 524.93 C 679.92 543.06 681.67 561.70 688.29 578.74 C 693.88 593.20 703.18 606.02 714.40 616.63 C 726.34 628.09 740.33 637.13 754.63 645.33 C 768.64 653.12 783.35 659.59 797.04 667.98 C 809.74 675.80 822.85 684.02 831.76 696.26 C 842.03 710.15 839.65 732.16 825.66 742.70 C 813.82 751.67 798.34 753.50 783.92 753.60 C 748.96 753.41 713.81 743.68 684.40 724.59 C 683.24 723.79 681.52 723.13 680.49 724.49 C 679.13 726.35 679.43 728.78 679.34 730.95 C 679.46 754.61 679.20 778.27 679.47 801.92 C 679.28 806.36 683.48 808.51 686.92 810.10 C 706.58 819.79 728.33 824.36 749.95 827.03 C 778.92 830.28 808.76 830.10 836.96 821.99 C 856.01 816.54 874.23 807.34 888.80 793.79 C 900.36 783.09 909.41 769.71 915.01 754.99 C 923.30 733.11 924.68 708.95 920.89 685.99 C 918.20 670.43 911.74 655.54 902.10 643.03 C 890.67 628.06 875.67 616.26 859.89 606.19 C 834.79 590.06 806.35 579.65 782.36 561.72 C 775.79 556.68 769.30 550.94 765.80 543.27 C 761.12 532.61 762.73 519.31 770.42 510.45 C 778.67 500.70 791.61 496.58 803.94 495.32 C 818.59 493.99 833.36 495.31 847.84 497.66 C 865.90 500.80 883.80 506.08 899.83 515.15 C 901.64 516.18 904.16 516.47 905.85 515.02 C 907.54 513.55 907.50 511.14 907.53 509.09 C 907.48 487.44 907.56 465.79 907.49 444.14 C 907.55 440.08 905.40 435.80 901.46 434.32 C 894.20 431.27 886.53 429.29 878.87 427.55 C 855.41 422.56 831.32 421.10 807.38 421.50 Z" />
<path fill="#061e26" opacity="1.00" d=" M 381.80 365.28 C 405.54 364.43 429.47 362.30 453.11 365.62 C 473.28 368.55 493.57 376.13 508.08 390.92 C 521.86 404.64 528.99 423.79 530.84 442.90 C 532.50 461.00 531.30 479.68 525.16 496.91 C 519.77 512.23 509.45 525.83 495.88 534.81 C 479.71 545.64 460.30 550.50 441.13 552.32 C 427.77 553.63 414.33 553.19 400.93 553.18 C 394.53 553.11 388.14 552.81 381.76 552.29 C 381.78 489.95 381.70 427.62 381.80 365.28 Z" />
</g>
<g id="#d9f5ffff">
<path fill="#d9f5ff" opacity="1.00" d=" M 301.93 290.00 C 344.25 288.06 386.63 287.50 428.99 287.51 C 469.18 287.84 510.58 294.70 545.62 315.38 C 572.63 331.11 594.24 355.87 605.90 384.89 C 614.61 406.13 618.49 429.13 618.80 452.02 C 619.03 475.21 616.20 498.63 608.51 520.59 C 598.54 549.94 579.11 575.94 553.70 593.70 C 519.78 617.68 478.01 627.93 437.01 630.15 C 418.60 631.33 400.17 629.99 381.76 629.66 C 381.75 692.44 381.78 755.22 381.75 818.00 C 382.14 820.85 380.14 823.81 377.05 823.49 C 352.06 823.56 327.06 823.57 302.07 823.49 C 299.00 823.78 297.08 820.83 297.45 818.03 C 297.44 643.98 297.43 469.94 297.45 295.90 C 297.14 293.12 298.66 289.73 301.93 290.00 M 381.80 365.28 C 381.70 427.62 381.78 489.95 381.76 552.29 C 388.14 552.81 394.53 553.11 400.93 553.18 C 414.33 553.19 427.77 553.63 441.13 552.32 C 460.30 550.50 479.71 545.64 495.88 534.81 C 509.45 525.83 519.77 512.23 525.16 496.91 C 531.30 479.68 532.50 461.00 530.84 442.90 C 528.99 423.79 521.86 404.64 508.08 390.92 C 493.57 376.13 473.28 368.55 453.11 365.62 C 429.47 362.30 405.54 364.43 381.80 365.28 Z" />
<path fill="#d9f5ff" opacity="1.00" d=" M 807.38 421.50 C 831.32 421.10 855.41 422.56 878.87 427.55 C 886.53 429.29 894.20 431.27 901.46 434.32 C 905.40 435.80 907.55 440.08 907.49 444.14 C 907.56 465.79 907.48 487.44 907.53 509.09 C 907.50 511.14 907.54 513.55 905.85 515.02 C 904.16 516.47 901.64 516.18 899.83 515.15 C 883.80 506.08 865.90 500.80 847.84 497.66 C 833.36 495.31 818.59 493.99 803.94 495.32 C 791.61 496.58 778.67 500.70 770.42 510.45 C 762.73 519.31 761.12 532.61 765.80 543.27 C 769.30 550.94 775.79 556.68 782.36 561.72 C 806.35 579.65 834.79 590.06 859.89 606.19 C 875.67 616.26 890.67 628.06 902.10 643.03 C 911.74 655.54 918.20 670.43 920.89 685.99 C 924.68 708.95 923.30 733.11 915.01 754.99 C 909.41 769.71 900.36 783.09 888.80 793.79 C 874.23 807.34 856.01 816.54 836.96 821.99 C 808.76 830.10 778.92 830.28 749.95 827.03 C 728.33 824.36 706.58 819.79 686.92 810.10 C 683.48 808.51 679.28 806.36 679.47 801.92 C 679.20 778.27 679.46 754.61 679.34 730.95 C 679.43 728.78 679.13 726.35 680.49 724.49 C 681.52 723.13 683.24 723.79 684.40 724.59 C 713.81 743.68 748.96 753.41 783.92 753.60 C 798.34 753.50 813.82 751.67 825.66 742.70 C 839.65 732.16 842.03 710.15 831.76 696.26 C 822.85 684.02 809.74 675.80 797.04 667.98 C 783.35 659.59 768.64 653.12 754.63 645.33 C 740.33 637.13 726.34 628.09 714.40 616.63 C 703.18 606.02 693.88 593.20 688.29 578.74 C 681.67 561.70 679.92 543.06 681.33 524.93 C 683.00 505.69 689.77 486.85 701.18 471.24 C 713.02 454.88 729.63 442.25 748.08 434.21 C 766.72 425.99 787.09 422.21 807.38 421.50 Z" />
</g>
</svg>
