<?xml version="1.0" encoding="UTF-8" ?>
<!DOCTYPE svg PUBLIC "-//W3C//DTD SVG 1.1//EN" "http://www.w3.org/Graphics/SVG/1.1/DTD/svg11.dtd">
<svg width="300pt" height="242pt" viewBox="0 0 300 242" version="1.1" xmlns="http://www.w3.org/2000/svg">
<g id="#1e4798ff">
<path fill="#1e4798" opacity="1.00" d=" M 108.33 0.00 L 110.92 0.00 C 114.01 0.57 117.26 1.19 119.80 3.15 C 123.33 5.76 125.27 9.98 126.04 14.20 C 130.11 14.09 134.18 14.10 138.25 14.13 C 138.24 42.67 138.28 71.21 138.23 99.76 C 149.23 99.79 160.22 99.77 171.21 99.77 C 171.21 71.22 171.23 42.67 171.20 14.12 C 182.25 14.11 193.30 14.12 204.34 14.12 C 204.35 90.08 204.34 166.04 204.35 242.00 L 186.85 242.00 C 188.11 232.38 189.00 222.67 188.72 212.97 C 188.46 209.81 188.56 206.13 186.23 203.67 C 184.71 203.19 182.63 202.96 181.68 204.56 C 179.52 207.54 178.78 211.27 177.92 214.79 C 176.07 223.76 175.21 232.89 174.42 242.00 L 171.21 242.00 C 171.21 214.29 171.23 186.59 171.20 158.88 C 160.35 158.86 149.50 158.88 138.64 158.87 C 138.59 186.58 138.64 214.29 138.62 242.00 L 125.56 242.00 C 126.74 231.06 128.21 219.99 127.04 208.99 C 126.69 206.74 126.05 203.05 123.02 203.34 C 119.95 203.18 119.04 206.89 118.09 209.15 C 114.92 219.80 114.07 230.97 113.12 242.00 L 109.10 242.00 C 110.23 231.05 111.57 220.00 110.52 208.99 C 110.13 206.86 109.71 203.37 106.92 203.37 C 103.71 202.75 102.59 206.58 101.67 208.88 C 98.35 219.60 97.66 230.90 96.54 242.00 L 93.33 242.00 C 94.41 231.13 96.03 220.14 94.81 209.22 C 94.38 207.01 94.07 203.29 91.08 203.36 C 88.30 202.84 87.09 206.03 86.22 208.08 C 82.60 219.01 82.01 230.63 80.79 242.00 L 76.84 242.00 C 77.07 208.82 80.39 175.54 88.26 143.27 C 73.76 150.90 58.19 156.38 42.29 160.27 C 39.47 161.04 36.42 162.07 34.67 164.57 C 33.31 166.43 33.73 168.86 33.58 171.02 C 33.49 193.98 34.96 216.98 38.45 239.69 C 32.49 239.71 26.54 239.69 20.59 239.70 C 11.97 212.47 5.83 184.45 2.51 156.08 C -2.51 108.82 0.30 60.24 15.04 14.85 C 44.05 13.24 72.73 7.86 100.93 1.03 C 103.37 0.53 105.85 0.19 108.33 0.00 M 105.24 14.22 C 104.10 57.59 97.39 100.63 88.36 143.01 C 97.69 138.79 105.59 131.78 111.68 123.61 C 123.25 107.76 128.37 88.25 131.05 69.08 C 132.98 52.06 133.10 34.33 127.48 17.95 C 126.88 16.62 126.67 14.63 124.96 14.26 C 118.39 14.10 111.81 14.23 105.24 14.22 M 45.84 47.18 C 45.83 63.96 45.85 80.74 45.83 97.52 C 51.34 97.29 57.03 98.22 62.41 96.62 C 69.40 94.33 74.87 87.49 74.82 80.02 C 74.86 74.67 74.91 69.31 74.78 63.97 C 74.52 55.60 67.38 48.14 59.08 47.34 C 54.68 46.99 50.25 47.25 45.84 47.18 Z" />
<path fill="#1e4798" opacity="1.00" d=" M 211.26 13.27 C 224.85 13.24 238.44 13.26 252.04 13.25 C 260.05 13.24 268.18 14.92 275.20 18.88 C 284.08 23.83 290.33 32.50 293.88 41.88 C 298.99 54.74 299.31 68.77 300.00 82.40 L 300.00 89.26 C 299.18 103.74 296.98 118.39 290.77 131.63 C 283.75 146.70 272.36 160.57 256.61 166.92 C 259.55 183.62 261.88 200.42 265.18 217.04 C 266.67 225.27 266.97 233.65 266.78 242.00 L 244.03 242.00 C 244.96 230.64 246.78 219.16 245.19 207.79 C 245.05 204.93 242.64 202.24 239.65 203.59 C 237.21 205.64 236.49 208.94 235.61 211.85 C 233.18 221.72 232.36 231.90 231.43 242.00 L 228.22 242.00 C 229.23 230.25 231.41 218.25 229.16 206.53 C 228.85 202.49 223.00 202.26 221.99 206.02 C 217.25 217.36 217.13 229.96 215.65 242.00 L 211.28 242.00 C 211.27 165.76 211.32 89.51 211.26 13.27 M 238.41 59.19 C 238.46 75.94 238.42 92.69 238.43 109.44 C 242.60 109.37 246.77 109.51 250.95 109.39 C 257.66 109.09 263.68 104.31 266.21 98.20 C 267.86 94.34 267.41 90.07 267.46 85.98 C 267.40 82.33 267.61 78.68 267.34 75.04 C 266.56 66.84 259.34 59.75 251.09 59.26 C 246.87 59.05 242.63 59.21 238.41 59.19 Z" />
</g>
</svg>
