<?xml version="1.0" encoding="UTF-8" ?>
<!DOCTYPE svg PUBLIC "-//W3C//DTD SVG 1.1//EN" "http://www.w3.org/Graphics/SVG/1.1/DTD/svg11.dtd">
<svg width="935pt" height="1024pt" viewBox="0 0 935 1024" version="1.1" xmlns="http://www.w3.org/2000/svg">
<g id="#3d7aaaff">
<path fill="#3d7aaa" opacity="1.00" d=" M 441.28 0.00 L 453.77 0.00 C 482.10 0.23 510.43 2.04 538.52 5.73 C 553.82 7.82 569.27 9.82 583.90 15.00 C 613.40 25.07 640.31 44.84 655.67 72.32 C 662.33 84.21 666.62 97.44 668.08 110.99 C 668.93 118.30 668.65 125.67 668.70 133.01 C 668.67 198.96 668.72 264.91 668.66 330.86 C 668.58 365.09 651.62 398.78 624.03 419.08 C 605.69 432.82 582.87 440.36 559.97 440.36 C 492.98 440.40 426.00 440.37 359.01 440.39 C 346.66 440.49 334.22 439.83 322.00 441.97 C 287.96 447.27 256.67 466.47 235.43 493.43 C 217.15 516.46 206.13 545.49 206.05 575.01 C 206.05 608.43 206.02 641.85 206.07 675.27 C 181.05 675.31 156.03 675.30 131.01 675.29 C 115.06 675.28 98.99 672.19 84.55 665.30 C 70.07 658.48 57.50 647.95 47.56 635.47 C 35.81 620.76 27.44 603.62 21.39 585.86 C 16.10 570.29 12.77 554.15 9.36 538.09 C 4.14 512.65 0.63 486.80 0.00 460.81 L 0.00 446.25 C 0.93 409.74 7.71 373.67 16.61 338.35 C 24.48 308.54 41.01 280.53 65.51 261.47 C 89.58 242.42 120.41 232.83 150.95 232.91 C 251.00 232.87 351.05 232.91 451.10 232.89 C 451.17 223.67 450.99 214.44 451.18 205.21 C 378.52 205.17 305.85 205.24 233.19 205.18 C 233.19 178.11 233.18 151.04 233.18 123.96 C 233.22 104.35 234.19 84.10 242.05 65.83 C 247.76 52.38 257.93 41.10 270.19 33.25 C 287.07 22.38 306.58 16.51 326.01 12.09 C 363.86 3.94 402.62 0.67 441.28 0.00 M 320.51 67.61 C 307.66 70.12 296.47 79.31 291.23 91.26 C 285.63 103.64 286.53 118.75 293.73 130.29 C 299.97 140.58 310.95 147.86 322.89 149.44 C 333.84 151.03 345.35 147.80 353.91 140.79 C 363.96 132.78 369.81 119.88 369.28 107.04 C 368.95 94.19 362.29 81.69 351.77 74.30 C 342.86 67.87 331.27 65.42 320.51 67.61 Z" />
</g>
<g id="#ffde58ff">
<path fill="#ffde58" opacity="1.00" d=" M 695.90 232.90 C 723.60 232.91 751.29 232.86 778.99 232.92 C 797.80 232.96 816.88 237.92 832.42 248.74 C 846.02 258.04 856.65 271.12 864.73 285.36 C 875.00 303.49 881.62 323.43 886.65 343.58 C 896.24 382.32 903.21 421.98 903.29 461.99 C 903.42 495.16 898.29 528.32 888.18 559.91 C 880.67 582.76 872.69 605.69 860.54 626.55 C 852.03 641.07 840.88 654.52 826.25 663.18 C 811.83 671.91 794.76 675.28 778.06 675.28 C 669.07 675.32 560.08 675.28 451.09 675.31 C 451.12 684.54 451.08 693.77 451.11 703.00 C 523.64 702.99 596.17 703.05 668.70 702.99 C 668.72 727.00 668.70 751.01 668.71 775.02 C 668.66 783.40 669.00 791.84 667.74 800.16 C 665.40 817.79 657.56 834.53 645.88 847.89 C 627.50 869.00 601.93 882.28 575.93 891.57 C 546.51 901.61 515.95 908.40 485.02 911.61 C 444.86 915.78 404.09 912.38 364.91 902.83 C 332.75 895.14 300.48 884.22 274.02 863.80 C 260.26 853.18 248.36 839.73 241.19 823.78 C 235.65 811.65 233.10 798.27 233.22 784.96 C 233.23 715.63 233.16 646.30 233.23 576.97 C 233.56 541.62 252.32 507.34 281.29 487.27 C 299.18 474.64 321.01 467.64 342.94 467.81 C 410.98 467.78 479.02 467.80 547.07 467.80 C 556.38 467.75 565.74 468.10 575.00 466.87 C 607.79 462.94 638.41 445.88 660.25 421.29 C 679.66 399.63 692.38 371.87 695.22 342.86 C 696.12 334.60 695.86 326.29 695.90 318.01 C 695.90 289.64 695.89 261.27 695.90 232.90 M 567.63 758.77 C 553.84 760.69 541.55 770.28 536.08 783.04 C 530.57 795.46 531.70 810.54 538.96 822.02 C 545.04 831.87 555.43 839.00 566.88 840.86 C 577.97 842.78 589.78 839.70 598.56 832.66 C 608.46 824.92 614.42 812.50 614.39 799.94 C 614.52 788.11 609.31 776.36 600.41 768.56 C 591.62 760.67 579.29 757.02 567.63 758.77 Z" />
</g>
</svg>
