<?xml version="1.0" encoding="UTF-8" ?>
<!DOCTYPE svg PUBLIC "-//W3C//DTD SVG 1.1//EN" "http://www.w3.org/Graphics/SVG/1.1/DTD/svg11.dtd">
<svg width="837pt" height="679pt" viewBox="0 0 837 679" version="1.1" xmlns="http://www.w3.org/2000/svg">
<g id="#ffffffff">
</g>
<g id="#4d4d4dff">
<path fill="#4d4d4d" opacity="1.00" d=" M 210.22 31.90 C 211.39 26.37 217.12 23.62 221.93 21.79 L 222.22 21.87 C 224.11 22.44 226.03 22.98 228.02 23.03 C 366.01 23.00 504.01 22.95 642.00 23.04 C 643.97 22.99 645.87 22.43 647.75 21.85 L 648.05 21.76 C 649.22 22.09 650.39 22.40 651.58 22.71 C 655.19 25.31 659.39 28.24 659.98 33.04 C 660.19 37.36 659.53 41.70 659.90 46.03 C 660.56 52.01 659.45 58.00 660.06 63.98 C 659.35 90.98 660.46 117.97 659.86 144.96 C 660.43 153.63 659.63 162.29 660.04 170.96 C 660.36 184.31 659.55 197.64 659.86 211.00 C 659.77 215.33 660.31 219.66 660.15 224.00 C 659.95 229.75 659.25 235.59 660.48 241.28 C 702.36 241.39 744.23 241.25 786.11 241.35 C 792.36 241.46 796.17 247.08 800.30 250.97 C 801.42 253.15 802.33 255.50 802.26 258.01 C 802.20 261.40 803.84 264.54 803.76 267.94 C 803.74 339.97 803.74 412.01 803.76 484.04 C 804.09 487.60 802.06 490.65 800.27 493.52 C 799.00 494.76 797.75 496.02 796.51 497.29 C 793.67 499.15 790.59 501.13 787.02 500.85 C 740.33 500.81 693.65 500.87 646.96 500.82 C 644.20 500.79 641.47 501.24 638.77 501.73 C 638.14 505.43 637.80 509.18 637.86 512.95 C 637.88 524.63 637.64 536.32 638.13 548.00 C 637.80 556.34 637.62 564.69 638.11 573.03 C 637.73 585.34 637.82 597.68 638.08 610.00 C 637.57 620.66 637.91 631.35 637.99 642.02 C 637.91 647.29 634.18 651.36 630.38 654.55 C 625.30 655.84 620.12 654.39 614.99 655.02 C 611.31 655.49 607.63 654.72 603.95 654.90 C 596.98 655.42 589.97 655.32 583.00 654.91 C 569.36 655.46 555.70 655.10 542.06 655.16 C 534.94 655.26 528.71 649.87 526.58 643.29 L 526.71 642.91 C 527.41 641.02 528.05 639.07 528.04 637.04 C 527.93 582.70 528.04 528.35 528.00 474.01 C 527.92 468.35 528.73 462.53 526.76 457.09 C 527.43 452.00 532.45 448.98 535.75 445.49 C 560.34 445.30 584.94 445.54 609.53 445.36 C 610.05 419.58 609.59 393.79 609.76 368.00 C 609.61 361.77 610.05 355.51 609.54 349.30 C 609.46 347.63 607.05 348.31 605.97 348.07 C 570.13 348.41 534.27 347.81 498.44 348.36 C 497.93 350.49 498.62 352.63 499.14 354.69 C 500.28 360.55 501.42 366.42 502.76 372.23 C 506.30 381.54 510.19 391.46 518.12 397.96 C 521.40 400.60 525.86 399.47 529.59 400.67 C 531.81 402.67 535.40 404.73 534.59 408.21 C 532.71 411.30 529.47 413.51 525.89 414.15 C 520.52 411.69 514.60 412.95 508.93 412.80 C 499.34 412.99 489.75 412.58 480.16 412.75 C 468.45 413.12 456.74 412.44 445.03 412.83 C 433.60 413.18 422.08 411.95 410.70 413.37 L 410.45 414.19 C 410.01 415.74 409.83 417.34 409.82 418.95 C 409.86 473.62 409.82 528.30 409.84 582.97 C 409.88 587.78 409.58 592.63 410.27 597.43 C 422.83 597.42 435.39 597.41 447.95 597.42 C 451.05 596.97 454.13 599.81 453.86 602.95 C 453.75 605.24 454.28 608.31 452.05 609.79 C 447.89 612.75 443.24 615.86 437.99 616.08 C 306.35 616.07 174.70 616.09 43.06 616.07 C 38.21 615.57 32.91 615.00 28.91 611.94 C 25.73 610.46 21.37 608.30 22.11 604.04 C 21.46 600.65 24.43 597.02 27.95 597.43 C 39.80 597.47 51.66 597.28 63.52 597.55 C 63.83 596.04 64.17 594.52 64.18 592.98 C 64.15 524.33 64.17 455.69 64.16 387.04 C 64.22 383.71 63.93 380.36 64.37 377.05 C 66.09 373.98 69.19 370.95 72.98 371.16 C 172.32 371.11 271.67 371.27 371.00 371.08 C 373.68 367.08 373.96 361.73 374.97 357.03 C 375.91 354.18 376.37 351.17 375.89 348.18 C 325.91 348.13 275.92 348.14 225.94 348.18 C 217.08 347.61 211.70 338.86 209.99 330.99 C 210.19 314.00 210.34 296.96 209.88 279.97 C 210.58 266.33 209.93 252.66 210.05 239.03 C 210.25 211.68 210.11 184.34 210.12 157.00 C 210.49 143.00 209.64 129.00 210.19 115.02 C 209.74 99.70 210.52 84.35 210.00 69.02 C 210.56 56.65 209.69 44.26 210.22 31.90 M 230.81 45.19 C 231.25 62.44 230.87 79.71 231.00 96.96 C 231.00 158.01 230.99 219.06 231.00 280.10 C 356.70 280.10 482.40 280.11 608.10 280.10 C 608.13 272.75 608.07 265.39 608.10 258.04 C 607.98 250.83 612.99 243.98 619.78 241.67 C 626.65 239.98 633.83 241.57 640.82 240.67 L 641.70 241.56 C 642.35 232.08 641.86 222.57 642.00 213.07 C 642.03 158.73 641.94 104.39 642.04 50.04 C 641.98 48.43 642.08 46.65 640.74 45.46 L 640.74 45.26 L 640.50 45.27 C 639.50 44.36 638.34 43.94 637.01 44.01 C 503.02 43.95 369.02 44.06 235.03 43.97 C 233.54 44.04 231.86 43.90 230.81 45.19 M 624.08 260.49 L 624.10 261.35 C 622.30 264.25 623.12 267.78 622.98 270.98 C 623.00 327.01 623.03 383.03 622.97 439.05 C 622.91 440.66 623.27 442.26 624.20 443.61 L 624.22 444.45 L 623.10 444.76 C 626.98 446.46 631.57 447.16 634.37 450.68 C 637.61 453.45 637.77 457.93 638.36 461.84 C 645.09 462.84 651.91 462.34 658.69 462.42 C 697.90 462.46 737.10 462.36 776.30 462.43 C 780.98 462.36 785.83 463.02 790.28 461.17 L 788.79 461.02 C 789.13 394.20 788.76 327.37 788.98 260.54 C 734.01 260.51 679.04 260.61 624.08 260.49 M 431.46 297.68 C 423.91 300.24 418.22 307.84 418.79 315.94 C 418.62 326.69 429.53 335.76 440.08 333.85 C 449.91 332.74 457.41 322.62 455.82 312.88 C 454.69 301.67 442.06 293.82 431.46 297.68 M 76.93 386.93 C 77.09 452.59 76.75 518.26 77.10 583.92 C 76.74 584.06 76.01 584.33 75.65 584.47 C 80.72 585.29 85.87 584.96 90.98 585.01 C 190.00 585.02 289.01 585.00 388.03 585.00 C 392.15 585.01 396.29 585.09 400.37 584.48 C 400.03 584.34 399.35 584.05 399.01 583.90 C 399.22 518.26 399.04 452.61 399.10 386.97 C 291.71 386.93 184.32 387.01 76.93 386.93 M 558.91 462.87 C 572.67 463.12 586.45 462.68 600.22 463.07 C 600.59 461.82 602.13 460.32 600.93 459.09 C 600.21 457.75 598.22 458.54 597.01 458.25 C 584.03 458.42 571.02 458.02 558.06 458.44 C 555.22 458.76 556.23 463.52 558.91 462.87 M 702.21 468.27 C 695.31 470.64 691.60 479.42 694.76 486.02 C 697.31 492.51 705.51 495.84 711.88 492.98 C 718.60 490.68 722.00 482.31 719.23 475.86 C 716.96 469.16 708.70 465.66 702.21 468.27 M 533.42 470.92 C 533.70 492.61 533.46 514.30 533.54 536.00 C 533.47 566.07 533.69 596.15 533.43 626.23 C 566.03 626.26 598.64 626.22 631.25 626.25 C 631.23 574.47 631.25 522.70 631.24 470.93 C 598.63 470.95 566.03 470.96 533.42 470.92 M 194.79 597.31 C 195.20 600.59 197.08 604.50 200.97 604.29 C 226.30 604.25 251.63 604.30 276.96 604.26 C 280.99 604.70 282.93 600.63 283.27 597.26 C 253.78 597.31 224.28 597.22 194.79 597.31 M 579.37 633.45 C 573.65 635.08 571.74 642.99 575.94 647.14 C 580.19 651.84 589.01 649.31 589.97 643.00 C 591.51 637.03 585.09 631.41 579.37 633.45 Z" />
</g>
<g id="#383838ff">
<path fill="#383838" opacity="1.00" d=" M 222.22 21.87 C 228.13 21.46 234.05 21.72 239.97 21.69 C 328.97 21.66 417.97 21.71 506.98 21.67 C 553.90 21.82 600.83 21.45 647.75 21.85 C 645.87 22.43 643.97 22.99 642.00 23.04 C 504.01 22.95 366.01 23.00 228.02 23.03 C 226.03 22.98 224.11 22.44 222.22 21.87 Z" />
<path fill="#383838" opacity="1.00" d=" M 230.81 45.19 C 231.86 43.90 233.54 44.04 235.03 43.97 C 369.02 44.06 503.02 43.95 637.01 44.01 C 638.34 43.94 639.50 44.36 640.50 45.27 C 583.67 45.41 526.85 45.29 470.02 45.33 C 390.29 45.24 310.54 45.51 230.81 45.19 Z" />
<path fill="#383838" opacity="1.00" d=" M 640.74 45.46 C 642.08 46.65 641.98 48.43 642.04 50.04 C 641.94 104.39 642.03 158.73 642.00 213.07 C 641.86 222.57 642.35 232.08 641.70 241.56 L 640.82 240.67 C 640.38 234.45 640.74 228.21 640.63 221.98 C 640.70 163.14 640.49 104.30 640.74 45.46 Z" />
<path fill="#383838" opacity="1.00" d=" M 622.98 270.98 C 623.12 267.78 622.30 264.25 624.10 261.35 C 624.31 322.11 624.10 382.86 624.20 443.61 C 623.27 442.26 622.91 440.66 622.97 439.05 C 623.03 383.03 623.00 327.01 622.98 270.98 Z" />
<path fill="#383838" opacity="1.00" d=" M 526.76 457.09 C 528.73 462.53 527.92 468.35 528.00 474.01 C 528.04 528.35 527.93 582.70 528.04 637.04 C 528.05 639.07 527.41 641.02 526.71 642.91 C 526.18 626.63 526.63 610.32 526.48 594.03 C 526.48 558.69 526.48 523.34 526.48 488.00 C 526.65 477.69 526.14 467.37 526.76 457.09 Z" />
</g>
<g id="#f3f3f3ff">
<path fill="#f3f3f3" opacity="1.00" d=" M 230.81 45.19 C 310.54 45.51 390.29 45.24 470.02 45.33 C 526.85 45.29 583.67 45.41 640.50 45.27 L 640.74 45.26 L 640.74 45.46 C 640.49 104.30 640.70 163.14 640.63 221.98 C 640.74 228.21 640.38 234.45 640.82 240.67 C 633.83 241.57 626.65 239.98 619.78 241.67 C 612.99 243.98 607.98 250.83 608.10 258.04 C 608.07 265.39 608.13 272.75 608.10 280.10 C 482.40 280.11 356.70 280.10 231.00 280.10 C 230.99 219.06 231.00 158.01 231.00 96.96 C 230.87 79.71 231.25 62.44 230.81 45.19 M 302.34 61.12 C 301.22 62.20 300.11 63.29 299.00 64.38 C 298.99 69.82 299.01 75.26 298.98 80.69 C 301.05 82.95 303.67 84.95 306.88 84.95 C 331.93 85.07 356.98 84.97 382.02 85.00 C 385.95 85.40 390.05 82.06 389.97 78.02 C 389.99 74.00 390.08 69.97 389.91 65.95 C 389.71 63.92 388.04 62.55 386.76 61.13 C 385.61 60.79 384.46 60.43 383.33 60.05 C 383.15 60.26 382.81 60.69 382.64 60.90 C 382.31 60.62 381.64 60.06 381.30 59.79 L 380.67 60.96 C 380.34 60.66 379.68 60.05 379.35 59.75 L 378.90 60.57 C 378.05 60.42 377.21 60.41 376.37 60.52 C 376.11 60.35 375.60 60.00 375.34 59.82 C 375.11 60.12 374.64 60.72 374.41 61.02 L 373.67 59.71 C 373.41 60.02 372.88 60.62 372.62 60.92 C 372.32 60.64 371.71 60.08 371.40 59.80 C 371.22 60.00 370.85 60.38 370.66 60.58 C 370.13 60.53 369.08 60.43 368.55 60.38 C 367.48 60.38 366.40 60.39 365.37 60.07 C 365.10 60.29 364.56 60.73 364.28 60.94 L 363.86 60.07 C 363.06 60.22 362.27 60.37 361.48 60.51 C 360.71 60.38 359.94 60.24 359.18 60.10 C 359.06 60.21 358.83 60.44 358.71 60.55 C 357.26 60.37 355.77 60.18 354.34 60.58 C 354.16 60.39 353.78 59.99 353.59 59.80 C 353.27 60.09 352.64 60.68 352.32 60.98 L 351.70 59.74 C 351.37 60.04 350.70 60.62 350.36 60.91 C 350.11 60.61 349.60 60.01 349.35 59.71 L 348.87 60.58 C 347.99 60.39 347.11 60.38 346.24 60.52 C 346.08 60.34 345.77 59.97 345.62 59.79 C 345.29 60.08 344.64 60.67 344.32 60.97 L 343.71 59.72 C 343.49 59.92 343.04 60.32 342.82 60.52 C 341.94 60.45 341.05 60.43 340.18 60.48 C 339.98 60.30 339.59 59.93 339.39 59.75 L 338.63 60.96 C 338.36 60.67 337.83 60.08 337.57 59.79 C 337.38 59.97 337.01 60.33 336.82 60.52 C 335.92 60.41 335.01 60.43 334.12 60.54 L 333.69 59.77 C 333.42 59.99 332.87 60.44 332.60 60.66 C 331.50 60.44 330.40 60.27 329.30 60.06 C 329.13 60.27 328.78 60.70 328.61 60.91 C 328.30 60.63 327.68 60.07 327.37 59.79 C 327.21 59.98 326.88 60.36 326.71 60.55 C 325.85 60.37 324.99 60.38 324.14 60.59 L 323.66 59.78 C 323.34 60.05 322.70 60.61 322.38 60.88 C 322.12 60.60 321.61 60.02 321.35 59.73 L 320.65 60.96 C 320.33 60.66 319.68 60.05 319.36 59.75 L 318.66 60.97 C 318.46 60.78 318.05 60.39 317.85 60.20 C 316.94 60.26 316.03 60.26 315.12 60.19 L 314.62 60.99 C 314.36 60.69 313.85 60.09 313.59 59.80 C 313.40 59.98 313.02 60.34 312.84 60.52 C 312.01 60.44 311.19 60.44 310.37 60.52 C 310.11 60.35 309.58 59.99 309.32 59.81 C 309.09 60.11 308.64 60.72 308.41 61.02 L 307.87 60.11 C 306.04 60.54 304.19 60.85 302.34 61.12 M 298.96 96.27 C 299.03 116.75 299.01 137.24 298.97 157.72 C 301.29 160.29 304.42 162.24 308.02 161.98 C 392.67 162.03 477.32 161.98 561.97 162.00 C 564.25 162.05 566.48 161.52 568.66 160.90 C 569.42 160.14 570.18 159.40 570.96 158.66 C 572.04 154.60 571.53 150.39 571.62 146.24 C 571.64 131.04 571.59 115.84 571.66 100.64 C 571.65 98.35 570.68 96.22 569.94 94.11 C 568.00 93.42 566.02 92.72 563.93 92.79 C 477.96 92.79 391.99 92.80 306.02 92.80 C 303.16 92.55 300.99 94.57 298.96 96.27 M 304.42 167.61 C 301.43 168.17 298.54 170.69 298.98 173.98 C 299.03 184.02 298.95 194.07 299.01 204.12 C 298.89 208.08 303.52 210.03 306.90 209.99 C 327.61 210.03 348.33 209.97 369.04 210.01 C 372.07 209.99 375.14 210.20 378.16 209.78 C 380.86 209.36 382.98 206.75 382.95 204.03 C 383.14 195.35 382.89 186.66 383.04 177.97 C 382.99 175.76 383.18 173.49 382.62 171.33 C 381.81 168.59 378.79 167.26 376.12 167.33 C 355.11 167.29 334.09 167.35 313.08 167.30 C 310.19 167.33 307.27 167.10 304.42 167.61 M 396.41 167.61 C 393.82 168.17 391.08 170.07 390.96 172.95 C 390.65 180.30 390.97 187.66 390.85 195.02 C 390.93 198.62 390.52 202.27 391.18 205.83 C 392.55 208.67 395.92 210.01 398.94 209.99 C 421.65 210.03 444.35 209.96 467.06 210.03 C 469.20 210.03 471.65 209.93 473.19 208.18 C 475.43 206.09 474.90 202.75 475.02 200.00 C 474.87 190.98 475.22 181.95 474.85 172.94 C 474.90 169.39 471.39 167.10 468.11 167.33 C 445.75 167.28 423.40 167.38 401.04 167.28 C 399.49 167.31 397.93 167.30 396.41 167.61 M 492.40 167.63 C 489.03 168.26 487.07 171.72 487.33 174.97 C 487.29 184.33 487.32 193.68 487.32 203.04 C 486.99 207.12 491.12 210.30 494.99 210.00 C 517.67 210.02 540.34 209.97 563.02 210.03 C 565.20 209.99 567.64 209.91 569.34 208.33 C 571.44 206.55 571.69 203.59 571.70 201.02 C 571.70 193.02 571.65 185.02 571.72 177.02 C 571.67 174.38 571.84 171.27 569.70 169.32 C 567.20 166.69 563.26 167.43 560.02 167.29 C 537.49 167.58 514.90 166.87 492.40 167.63 M 300.16 218.22 C 298.57 219.29 299.20 221.46 298.84 223.07 C 300.85 223.55 302.90 223.95 304.99 223.93 C 326.68 223.85 348.36 223.91 370.04 223.89 C 373.36 223.85 376.71 224.14 380.02 223.68 C 382.70 223.15 381.65 219.88 381.25 218.04 C 356.50 217.71 331.74 218.04 306.99 217.87 C 304.71 217.87 302.41 217.80 300.16 218.22 M 392.34 218.55 C 390.64 219.00 390.09 221.44 391.50 222.56 C 393.30 224.03 395.78 223.85 397.97 223.93 C 422.68 223.78 447.40 224.03 472.11 223.81 C 474.62 224.01 475.35 221.08 474.84 219.13 C 473.73 217.59 471.63 218.06 470.00 217.88 C 447.00 217.92 424.00 217.93 400.99 217.88 C 398.11 217.96 395.10 217.56 392.34 218.55 M 487.42 218.95 C 487.41 220.25 487.40 221.56 487.39 222.86 C 489.20 223.56 491.09 224.03 493.04 223.94 C 518.33 223.75 543.62 224.09 568.90 223.76 C 569.03 221.84 569.15 219.92 569.27 218.00 C 544.17 217.76 519.07 218.02 493.96 217.87 C 491.72 217.79 489.50 218.13 487.42 218.95 M 298.84 228.91 C 298.93 230.22 299.06 231.53 299.26 232.83 C 300.24 234.47 302.41 233.96 304.01 234.19 C 329.75 234.14 355.48 234.28 381.22 234.11 C 381.58 232.26 381.70 230.38 381.59 228.50 C 356.42 227.86 331.22 228.48 306.04 228.19 C 303.61 228.10 301.20 228.37 298.84 228.91 M 391.46 229.51 C 390.21 230.31 390.59 232.69 391.87 233.22 C 393.74 234.21 395.95 234.12 398.01 234.22 C 420.34 234.16 442.67 234.18 465.00 234.20 C 467.91 234.14 470.90 234.51 473.76 233.80 C 475.44 232.75 474.72 230.45 475.14 228.82 C 470.47 227.85 465.70 228.30 460.98 228.25 C 440.31 228.21 419.65 228.29 398.98 228.21 C 396.46 228.30 393.53 227.70 391.46 229.51 M 488.04 228.35 C 487.86 229.87 487.29 231.42 487.62 232.97 C 489.38 234.49 491.86 234.11 494.02 234.21 C 519.09 234.05 544.16 234.41 569.22 234.04 C 568.82 232.13 570.30 227.86 567.08 228.28 C 540.74 228.24 514.39 228.14 488.04 228.35 M 298.97 240.88 C 298.34 243.27 300.88 244.83 302.98 244.51 C 328.83 244.51 354.68 244.43 380.53 244.54 C 381.59 243.01 382.40 241.22 381.63 239.36 C 380.24 238.49 378.56 238.51 376.99 238.47 C 352.32 238.55 327.66 238.49 303.00 238.50 C 301.39 238.55 298.87 238.68 298.97 240.88 M 390.66 240.89 C 390.71 243.66 393.69 244.63 396.00 244.50 C 420.69 244.51 445.38 244.44 470.07 244.53 C 471.59 244.49 473.20 244.49 474.56 243.70 C 474.85 242.18 474.84 240.64 474.91 239.11 C 469.67 238.02 464.31 238.65 459.01 238.51 C 437.98 238.51 416.96 238.50 395.93 238.51 C 394.05 238.74 391.14 238.51 390.66 240.89 M 487.96 239.18 C 486.77 241.08 487.39 244.55 490.12 244.44 C 516.39 244.62 542.67 244.33 568.94 244.58 C 569.05 242.64 569.15 240.70 569.27 238.76 C 544.19 238.15 519.09 238.74 494.01 238.46 C 491.99 238.54 489.83 238.23 487.96 239.18 M 298.85 252.98 C 299.53 253.60 300.21 254.23 300.89 254.87 C 326.96 254.88 353.03 254.97 379.08 254.83 C 382.81 254.77 381.90 250.40 381.26 248.00 C 354.81 247.82 328.37 247.94 301.93 247.93 C 298.99 247.66 298.87 250.89 298.85 252.98 M 393.12 248.20 C 391.88 248.58 391.20 249.81 390.62 250.88 C 390.78 253.51 393.55 255.07 395.98 254.88 C 420.30 254.94 444.63 254.83 468.95 254.93 C 470.51 254.83 472.18 255.08 473.66 254.44 C 475.34 253.31 475.08 250.92 474.82 249.17 C 473.77 247.57 471.65 248.04 470.02 247.86 C 448.02 247.99 426.01 247.89 404.01 247.92 C 400.38 247.99 396.71 247.57 393.12 248.20 M 490.99 254.90 C 516.98 254.79 542.98 255.08 568.97 254.75 C 569.07 252.50 569.13 250.25 569.15 248.00 C 543.09 247.81 517.02 247.97 490.95 247.91 C 486.17 246.94 486.33 255.75 490.99 254.90 M 298.87 259.71 C 298.88 260.59 298.89 262.36 298.90 263.24 C 303.11 264.69 307.60 263.98 311.96 264.10 C 321.97 263.98 331.99 264.34 341.99 263.96 C 344.35 263.99 344.53 260.85 343.51 259.34 C 342.58 257.77 340.52 258.11 338.99 257.99 C 326.99 258.04 314.99 257.94 302.99 258.03 C 301.37 257.85 300.10 258.84 298.87 259.71 M 391.38 259.41 C 391.05 260.65 390.81 261.91 390.66 263.19 C 395.69 264.55 400.92 264.06 406.06 264.10 C 414.73 264.10 423.40 264.10 432.07 264.13 C 433.74 263.97 435.83 264.41 436.97 262.84 C 437.44 260.83 436.60 258.02 434.14 258.09 C 422.41 257.85 410.67 258.11 398.94 257.97 C 396.39 258.03 393.55 257.80 391.38 259.41 M 487.74 264.01 C 502.25 264.17 516.77 264.17 531.28 264.01 C 531.16 262.05 531.05 260.11 530.93 258.16 C 517.28 257.88 503.61 257.95 489.96 258.09 C 486.93 258.32 487.40 261.87 487.74 264.01 Z" />
<path fill="#f3f3f3" opacity="1.00" d=" M 624.08 260.49 C 679.04 260.61 734.01 260.51 788.98 260.54 C 788.76 327.37 789.13 394.20 788.79 461.02 C 771.88 460.54 754.95 460.93 738.03 460.81 C 705.20 460.80 672.38 460.81 639.56 460.81 C 640.28 452.26 632.91 443.97 624.22 444.45 L 624.20 443.61 C 624.10 382.86 624.31 322.11 624.10 261.35 L 624.08 260.49 M 647.40 276.94 C 646.60 277.77 645.80 278.59 645.00 279.42 C 645.00 284.14 645.00 288.86 645.00 293.59 C 645.79 294.39 646.59 295.20 647.40 296.02 C 666.80 296.26 686.23 296.27 705.63 296.01 C 706.43 295.28 707.24 294.55 708.05 293.83 C 708.16 289.55 708.29 285.26 708.13 280.99 C 708.21 279.30 706.76 278.16 705.95 276.86 C 693.29 276.48 680.62 276.79 667.95 276.69 C 661.10 276.80 654.24 276.43 647.40 276.94 M 646.06 304.04 C 645.44 305.96 644.89 307.94 644.97 309.99 C 645.07 325.03 644.92 340.08 645.03 355.12 C 644.91 358.75 648.54 361.40 651.99 360.99 C 688.31 361.00 724.64 361.00 760.97 360.99 C 763.82 361.40 766.12 359.60 768.04 357.76 C 768.17 342.18 768.02 326.61 768.13 311.03 C 768.21 308.63 767.73 306.27 767.02 304.00 C 762.19 302.29 757.01 303.19 752.02 303.00 C 720.69 302.99 689.36 303.01 658.03 303.00 C 654.02 303.01 649.89 302.57 646.06 304.04 M 645.01 369.94 C 644.91 378.98 645.09 388.02 644.95 397.07 C 646.45 398.20 647.86 399.92 649.95 399.73 C 665.99 399.80 682.04 399.78 698.08 399.74 C 700.74 399.90 703.73 398.02 703.68 395.11 C 703.96 388.08 703.63 381.03 703.81 373.99 C 703.69 371.33 704.24 368.01 701.80 366.18 C 700.54 364.93 698.64 365.16 697.03 365.07 C 681.33 365.19 665.63 365.06 649.93 365.13 C 647.28 364.89 644.73 367.25 645.01 369.94 M 713.25 365.38 C 711.30 366.01 710.46 368.07 710.62 369.99 C 710.60 378.33 710.61 386.67 710.61 395.01 C 710.28 397.47 712.36 400.00 714.91 399.76 C 730.61 399.80 746.32 399.74 762.02 399.78 C 764.22 399.92 767.06 399.36 767.84 396.99 C 768.47 392.35 768.03 387.65 768.14 382.99 C 768.01 377.99 768.49 372.96 767.84 367.99 C 767.07 365.62 764.25 365.01 762.06 365.11 C 748.39 365.09 734.71 365.15 721.04 365.10 C 718.44 365.14 715.80 364.83 713.25 365.38 M 644.80 411.04 C 661.53 411.39 678.27 411.06 695.00 411.21 C 697.60 411.20 700.24 411.33 702.83 410.92 C 705.26 409.45 703.24 406.23 700.87 406.54 C 682.95 406.48 665.02 406.49 647.10 406.54 C 644.82 406.53 645.19 409.52 644.80 411.04 M 711.13 406.44 C 710.80 407.92 710.47 409.40 710.16 410.89 C 716.77 411.48 723.42 411.07 730.05 411.18 C 742.72 411.09 755.40 411.39 768.06 411.03 C 768.03 409.60 768.00 408.17 767.98 406.75 C 749.04 406.14 730.08 406.76 711.13 406.44 M 646.03 414.40 C 645.53 416.01 644.27 417.92 645.41 419.54 C 646.65 420.62 648.41 420.44 649.95 420.53 C 666.90 420.42 683.86 420.56 700.82 420.46 C 704.65 421.07 704.75 414.06 700.94 414.55 C 682.64 414.38 664.33 414.68 646.03 414.40 M 710.61 414.77 C 710.65 416.49 710.31 418.30 710.93 419.97 C 713.87 420.95 717.03 420.39 720.07 420.50 C 736.04 420.26 752.04 420.92 767.99 420.17 C 767.98 418.39 767.98 416.61 767.99 414.83 C 764.01 414.39 760.00 414.46 756.01 414.51 C 740.88 414.68 725.73 414.16 710.61 414.77 M 644.80 423.97 C 645.11 425.31 644.91 426.94 645.90 428.06 C 647.55 428.53 649.29 428.50 651.01 428.53 C 667.64 428.41 684.27 428.56 700.90 428.47 C 703.33 428.73 704.07 426.08 703.96 424.15 C 697.00 423.50 689.99 423.93 683.01 423.81 C 670.27 423.91 657.53 423.62 644.80 423.97 M 710.11 424.08 C 710.59 425.88 710.40 428.85 713.10 428.45 C 731.38 428.42 749.68 428.73 767.96 428.28 C 767.98 426.83 768.01 425.39 768.04 423.95 C 755.36 423.64 742.68 423.89 730.00 423.81 C 723.37 423.91 716.73 423.55 710.11 424.08 M 644.81 436.13 C 657.81 436.96 670.88 436.26 683.90 436.49 C 690.59 436.24 697.36 437.12 703.99 435.89 C 704.10 434.02 703.48 431.54 701.08 431.88 C 683.05 431.77 665.01 431.75 646.98 431.88 C 644.68 431.75 645.09 434.65 644.81 436.13 M 710.65 431.83 C 710.97 433.33 709.47 436.60 712.08 436.44 C 730.75 436.41 749.45 436.76 768.12 436.26 C 768.05 434.81 767.98 433.37 767.92 431.93 C 748.83 431.68 729.74 431.86 710.65 431.83 M 645.09 440.19 C 645.19 442.00 644.51 445.28 647.05 445.57 C 656.06 445.73 665.08 445.58 674.10 445.64 C 677.09 445.96 677.48 442.37 676.95 440.21 C 666.34 439.88 655.70 439.84 645.09 440.19 M 710.59 439.95 C 710.60 441.87 710.74 443.79 711.00 445.70 C 720.99 445.59 730.98 445.56 740.97 445.72 C 741.23 443.83 741.38 441.94 741.42 440.05 C 731.14 439.94 720.87 440.03 710.59 439.95 Z" />
<path fill="#f3f3f3" opacity="1.00" d=" M 76.93 386.93 C 184.32 387.01 291.71 386.93 399.10 386.97 C 399.04 452.61 399.22 518.26 399.01 583.90 C 385.03 583.34 371.02 583.83 357.03 583.66 C 267.70 583.66 178.37 583.67 89.03 583.66 C 85.05 583.70 81.06 583.45 77.10 583.92 C 76.75 518.26 77.09 452.59 76.93 386.93 M 144.20 399.89 C 142.80 401.67 140.85 403.48 141.03 405.96 C 141.09 410.83 139.84 416.63 144.27 420.07 C 162.51 420.63 180.78 420.13 199.03 420.33 C 200.99 420.11 203.65 420.74 204.79 418.67 C 206.68 416.18 205.83 412.88 206.04 410.00 C 205.83 407.10 206.67 403.81 204.79 401.30 C 203.63 399.21 200.94 399.95 198.98 399.71 C 180.72 399.85 162.45 399.51 144.20 399.89 M 140.99 431.67 C 141.40 433.74 141.38 435.85 141.31 437.95 C 141.26 452.19 141.35 466.44 141.26 480.67 C 142.03 483.60 145.05 485.32 147.98 485.01 C 207.97 484.99 267.97 484.99 327.97 485.01 C 330.11 485.11 332.48 484.51 333.76 482.64 C 335.02 480.31 334.99 477.58 335.02 475.01 C 334.97 461.33 335.02 447.65 335.00 433.97 C 335.24 431.13 333.65 428.07 330.80 427.26 C 327.90 426.75 324.94 427.02 322.02 426.99 C 263.65 427.04 205.27 426.95 146.89 427.03 C 144.01 426.88 142.02 429.25 140.99 431.67 M 143.41 490.40 C 141.04 492.13 141.39 495.39 141.28 497.97 C 141.43 505.36 141.15 512.76 141.40 520.15 C 141.30 523.54 145.03 525.36 148.02 525.02 C 164.03 524.96 180.05 525.04 196.06 524.99 C 198.24 525.24 199.68 523.39 201.20 522.17 C 201.02 512.78 201.27 503.39 201.11 494.01 C 201.33 491.37 198.61 489.19 196.11 489.26 C 180.41 489.17 164.71 489.30 149.01 489.20 C 147.10 489.24 144.97 489.11 143.41 490.40 M 212.32 489.38 C 209.53 489.59 207.71 492.31 208.00 494.98 C 208.03 503.36 207.90 511.76 208.06 520.14 C 207.91 522.82 210.29 525.11 212.96 524.94 C 228.98 525.09 245.02 524.95 261.05 525.01 C 263.89 525.35 266.97 523.10 266.75 520.08 C 266.76 511.41 266.85 502.72 266.71 494.05 C 266.78 491.07 263.92 488.95 261.09 489.24 C 244.84 489.32 228.56 489.03 212.32 489.38 M 278.34 489.46 C 275.80 489.93 274.61 492.62 274.85 494.99 C 274.88 503.33 274.79 511.67 274.89 520.01 C 274.52 522.86 277.31 525.19 280.02 524.99 C 296.04 525.02 312.06 524.99 328.07 525.00 C 331.45 525.49 333.65 522.16 333.60 519.13 C 333.85 512.08 333.58 505.02 333.72 497.97 C 333.59 495.56 333.91 492.73 332.12 490.83 C 330.36 488.73 327.38 489.33 324.97 489.19 C 309.43 489.44 293.86 488.89 278.34 489.46 M 141.80 531.96 C 141.70 533.61 140.65 536.76 143.47 536.37 C 162.78 536.48 182.13 536.77 201.44 536.21 C 201.03 534.81 201.50 532.83 199.95 532.04 C 195.63 531.50 191.26 531.92 186.92 531.82 C 171.88 531.90 156.84 531.63 141.80 531.96 M 208.29 532.10 C 208.18 533.46 208.07 534.84 207.97 536.22 C 212.95 536.69 217.96 536.46 222.96 536.49 C 237.64 536.28 252.34 536.92 266.99 536.16 C 266.89 534.79 266.79 533.43 266.70 532.07 C 255.81 531.50 244.91 531.96 234.02 531.81 C 225.44 531.96 216.85 531.49 208.29 532.10 M 275.34 532.44 C 274.01 533.94 274.89 536.69 277.10 536.44 C 294.75 536.61 312.41 536.37 330.07 536.54 C 331.46 536.37 333.13 536.85 334.34 535.96 C 334.43 534.61 334.44 533.27 334.39 531.94 C 316.95 531.62 299.51 531.95 282.06 531.77 C 279.81 531.80 277.49 531.67 275.34 532.44 M 141.63 541.00 C 141.57 542.40 141.57 543.81 141.62 545.23 C 146.71 546.01 151.87 545.63 157.00 545.69 C 170.02 545.72 183.04 545.64 196.06 545.74 C 197.67 545.68 199.41 545.82 200.86 544.97 C 201.19 543.39 200.98 541.78 200.95 540.21 C 183.64 539.49 166.30 540.15 148.98 539.87 C 146.53 540.02 143.74 539.45 141.63 541.00 M 208.27 540.13 C 208.18 541.79 208.09 543.46 208.00 545.13 C 210.30 545.56 212.63 545.80 214.96 545.75 C 231.65 545.54 248.36 545.89 265.04 545.59 C 267.68 545.12 266.63 541.74 266.18 539.93 C 246.88 540.03 227.56 539.62 208.27 540.13 M 274.76 543.01 C 274.45 545.94 278.03 545.59 279.96 545.72 C 297.31 545.65 314.67 545.74 332.02 545.67 C 335.56 546.23 334.32 542.07 334.20 539.99 C 315.79 539.82 297.38 539.91 278.97 539.93 C 276.94 539.62 274.56 540.60 274.76 543.01 M 142.29 548.39 C 140.69 550.53 141.59 553.04 142.88 555.06 C 161.92 554.97 180.97 554.95 200.01 555.07 C 201.55 552.83 201.42 550.20 200.17 547.88 C 182.43 547.90 164.70 547.92 146.97 547.86 C 145.40 547.91 143.79 547.86 142.29 548.39 M 208.82 547.93 C 208.01 550.22 208.09 552.63 208.89 554.92 C 227.95 554.88 247.01 554.85 266.07 554.93 C 266.73 552.74 267.47 550.18 265.92 548.18 C 262.94 547.69 259.92 547.90 256.92 547.89 C 240.89 547.94 224.85 547.86 208.82 547.93 M 276.30 548.22 C 273.09 550.18 275.15 555.75 278.94 554.88 C 296.64 554.87 314.35 554.95 332.05 554.85 C 335.57 554.97 334.25 550.23 334.08 548.02 C 316.71 547.72 299.34 548.04 281.96 547.86 C 280.07 547.88 278.14 547.75 276.30 548.22 M 141.53 557.99 C 141.48 559.61 141.65 561.23 141.75 562.85 C 141.90 563.36 142.19 564.37 142.34 564.88 L 142.89 564.94 C 141.94 566.58 141.46 568.40 141.20 570.27 C 147.37 571.63 153.72 570.78 159.98 571.00 C 164.66 570.79 169.52 571.70 174.06 570.17 C 173.69 568.45 173.34 566.74 172.99 565.03 L 173.93 565.01 C 173.69 564.52 173.20 563.52 172.96 563.03 C 182.03 563.00 191.10 562.93 200.17 563.07 C 201.22 561.17 202.17 557.28 198.99 557.08 C 181.65 556.87 164.31 557.09 146.97 556.98 C 145.13 557.07 143.08 556.76 141.53 557.99 M 208.10 558.17 C 208.06 559.79 208.48 561.39 208.79 562.98 L 210.06 562.96 C 209.77 563.48 209.19 564.52 208.90 565.05 C 208.20 566.90 206.95 570.65 210.01 570.87 C 219.69 571.18 229.40 570.92 239.09 571.02 C 239.10 569.07 239.11 567.12 239.12 565.18 L 240.07 565.19 C 239.80 564.61 239.27 563.46 239.01 562.89 C 248.05 562.90 257.09 562.86 266.13 562.92 C 266.76 561.00 266.79 559.01 266.23 557.08 C 248.14 557.13 230.05 557.13 211.96 557.07 C 210.60 557.14 209.00 556.89 208.10 558.17 M 274.86 557.76 C 274.87 559.19 274.88 560.62 274.90 562.06 C 276.29 562.46 277.68 562.86 279.12 563.10 C 278.31 563.74 277.53 564.43 276.78 565.16 C 273.60 566.06 274.43 571.60 277.89 570.96 C 286.94 571.08 295.99 571.00 305.04 570.99 C 308.51 571.65 309.41 566.22 306.31 565.13 C 305.18 564.40 304.15 563.46 302.85 563.07 C 313.29 562.94 323.73 563.01 334.17 563.01 C 334.46 560.85 335.60 557.01 332.15 557.10 C 315.78 556.84 299.40 557.11 283.03 556.97 C 280.28 556.89 277.54 557.16 274.86 557.76 Z" />
<path fill="#f3f3f3" opacity="1.00" d=" M 533.42 470.92 C 566.03 470.96 598.63 470.95 631.24 470.93 C 631.25 522.70 631.23 574.47 631.25 626.25 C 598.64 626.22 566.03 626.26 533.43 626.23 C 533.69 596.15 533.47 566.07 533.54 536.00 C 533.46 514.30 533.70 492.61 533.42 470.92 M 543.96 484.19 C 544.00 488.34 543.71 492.50 544.07 496.64 C 546.02 498.83 549.25 498.99 551.99 499.00 C 573.82 498.96 595.66 499.08 617.50 498.93 C 618.11 498.64 619.33 498.05 619.94 497.75 C 621.67 493.12 621.49 487.71 619.97 483.04 C 618.50 482.61 617.03 482.14 615.50 482.24 C 614.49 482.26 613.49 482.30 612.50 482.34 C 610.45 482.21 608.40 482.25 606.35 482.33 C 605.41 482.31 604.47 482.29 603.54 482.30 C 602.52 482.27 601.51 482.26 600.51 482.27 C 599.51 482.26 598.50 482.25 597.51 482.27 C 596.43 482.29 595.35 482.35 594.29 482.48 C 593.98 482.31 593.35 481.96 593.04 481.79 C 592.69 481.97 591.99 482.32 591.64 482.50 C 590.52 482.22 589.41 482.23 588.31 482.51 C 588.01 482.33 587.40 481.97 587.10 481.78 C 586.74 481.96 586.03 482.31 585.68 482.48 C 584.61 482.36 583.54 482.28 582.48 482.22 C 581.43 482.28 580.38 482.36 579.35 482.47 C 579.04 482.37 578.43 482.16 578.12 482.06 C 576.56 482.29 574.98 482.30 573.42 482.32 C 572.38 482.28 571.35 482.34 570.33 482.50 C 570.02 482.32 569.40 481.97 569.09 481.80 C 568.73 481.97 568.03 482.31 567.68 482.48 C 566.61 482.36 565.56 482.30 564.51 482.28 C 563.50 482.27 562.50 482.27 561.51 482.26 C 560.46 482.25 559.42 482.34 558.40 482.53 C 558.07 482.35 557.41 481.98 557.08 481.80 C 556.73 481.97 556.03 482.31 555.68 482.48 C 554.62 482.37 553.57 482.28 552.52 482.22 C 551.46 482.27 550.40 482.35 549.36 482.45 C 548.99 482.28 548.26 481.94 547.89 481.77 C 546.57 482.56 545.25 483.37 543.96 484.19 M 546.33 503.03 C 545.54 503.76 544.76 504.49 543.98 505.23 C 543.87 519.09 543.84 532.95 544.00 546.81 C 544.73 547.53 545.46 548.26 546.19 548.99 C 570.35 549.16 594.51 549.15 618.66 548.99 C 619.43 548.20 620.21 547.41 620.99 546.63 C 621.01 532.89 621.00 519.16 621.00 505.42 C 620.18 504.61 619.37 503.80 618.57 503.00 C 594.49 503.02 570.41 502.96 546.33 503.03 M 543.96 556.05 C 543.76 563.38 543.76 570.75 543.97 578.09 C 543.73 580.90 546.91 581.45 549.05 581.39 C 571.36 581.38 593.68 581.38 615.99 581.39 C 618.24 581.62 620.78 580.62 620.83 578.04 C 621.28 570.67 620.85 563.26 621.01 555.88 C 620.34 555.14 619.68 554.41 619.02 553.69 C 595.37 553.70 571.72 553.70 548.07 553.68 C 546.49 553.68 543.84 553.85 543.96 556.05 M 543.91 589.93 C 543.78 596.97 543.82 604.02 543.89 611.05 C 543.46 613.40 545.88 614.94 547.99 614.72 C 571.02 614.73 594.06 614.74 617.09 614.71 C 619.14 614.97 621.02 613.18 620.94 611.13 C 621.14 603.79 620.93 596.44 620.99 589.09 C 620.29 588.40 619.60 587.70 618.92 587.02 C 595.25 586.96 571.58 587.05 547.91 586.96 C 546.07 586.69 543.76 587.81 543.91 589.93 Z" />
</g>
<g id="#ff4522ff">
<path fill="#ff4522" opacity="1.00" d=" M 302.34 61.12 C 304.19 60.85 306.04 60.54 307.87 60.11 L 308.41 61.02 C 308.64 60.72 309.09 60.11 309.32 59.81 C 309.58 59.99 310.11 60.35 310.37 60.52 C 311.19 60.44 312.01 60.44 312.84 60.52 C 313.02 60.34 313.40 59.98 313.59 59.80 C 313.85 60.09 314.36 60.69 314.62 60.99 L 315.12 60.19 C 316.03 60.26 316.94 60.26 317.85 60.20 C 318.05 60.39 318.46 60.78 318.66 60.97 L 319.36 59.75 C 319.68 60.05 320.33 60.66 320.65 60.96 L 321.35 59.73 C 321.61 60.02 322.12 60.60 322.38 60.88 C 322.70 60.61 323.34 60.05 323.66 59.78 L 324.14 60.59 C 324.99 60.38 325.85 60.37 326.71 60.55 C 326.88 60.36 327.21 59.98 327.37 59.79 C 327.68 60.07 328.30 60.63 328.61 60.91 C 328.78 60.70 329.13 60.27 329.30 60.06 C 330.40 60.27 331.50 60.44 332.60 60.66 C 332.87 60.44 333.42 59.99 333.69 59.77 L 334.12 60.54 C 335.01 60.43 335.92 60.41 336.82 60.52 C 337.01 60.33 337.38 59.97 337.57 59.79 C 337.83 60.08 338.36 60.67 338.63 60.96 L 339.39 59.75 C 339.59 59.93 339.98 60.30 340.18 60.48 C 341.05 60.43 341.94 60.45 342.82 60.52 C 343.04 60.32 343.49 59.92 343.71 59.72 L 344.32 60.97 C 344.64 60.67 345.29 60.08 345.62 59.79 C 345.77 59.97 346.08 60.34 346.24 60.52 C 347.11 60.38 347.99 60.39 348.87 60.58 L 349.35 59.71 C 349.60 60.01 350.11 60.61 350.36 60.91 C 350.70 60.62 351.37 60.04 351.70 59.74 L 352.32 60.98 C 352.64 60.68 353.27 60.09 353.59 59.80 C 353.78 59.99 354.16 60.39 354.34 60.58 C 355.77 60.18 357.26 60.37 358.71 60.55 C 358.83 60.44 359.06 60.21 359.18 60.10 C 359.94 60.24 360.71 60.38 361.48 60.51 C 362.27 60.37 363.06 60.22 363.86 60.07 L 364.28 60.94 C 364.56 60.73 365.10 60.29 365.37 60.07 C 366.40 60.39 367.48 60.38 368.55 60.38 C 369.08 60.43 370.13 60.53 370.66 60.58 C 370.85 60.38 371.22 60.00 371.40 59.80 C 371.71 60.08 372.32 60.64 372.62 60.92 C 372.88 60.62 373.41 60.02 373.67 59.71 L 374.41 61.02 C 374.64 60.72 375.11 60.12 375.34 59.82 C 375.60 60.00 376.11 60.35 376.37 60.52 C 377.21 60.41 378.05 60.42 378.90 60.57 L 379.35 59.75 C 379.68 60.05 380.34 60.66 380.67 60.96 L 381.30 59.79 C 381.64 60.06 382.31 60.62 382.64 60.90 C 382.81 60.69 383.15 60.26 383.33 60.05 C 384.46 60.43 385.61 60.79 386.76 61.13 C 388.04 62.55 389.71 63.92 389.91 65.95 C 390.08 69.97 389.99 74.00 389.97 78.02 C 390.05 82.06 385.95 85.40 382.02 85.00 C 356.98 84.97 331.93 85.07 306.88 84.95 C 303.67 84.95 301.05 82.95 298.98 80.69 C 299.01 75.26 298.99 69.82 299.00 64.38 C 300.11 63.29 301.22 62.20 302.34 61.12 Z" />
<path fill="#ff4522" opacity="1.00" d=" M 647.40 276.94 C 654.24 276.43 661.10 276.80 667.95 276.69 C 680.62 276.79 693.29 276.48 705.95 276.86 C 706.76 278.16 708.21 279.30 708.13 280.99 C 708.29 285.26 708.16 289.55 708.05 293.83 C 707.24 294.55 706.43 295.28 705.63 296.01 C 686.23 296.27 666.80 296.26 647.40 296.02 C 646.59 295.20 645.79 294.39 645.00 293.59 C 645.00 288.86 645.00 284.14 645.00 279.42 C 645.80 278.59 646.60 277.77 647.40 276.94 Z" />
<path fill="#ff4522" opacity="1.00" d=" M 144.20 399.89 C 162.45 399.51 180.72 399.85 198.98 399.71 C 200.94 399.95 203.63 399.21 204.79 401.30 C 206.67 403.81 205.83 407.10 206.04 410.00 C 205.83 412.88 206.68 416.18 204.79 418.67 C 203.65 420.74 200.99 420.11 199.03 420.33 C 180.78 420.13 162.51 420.63 144.27 420.07 C 139.84 416.63 141.09 410.83 141.03 405.96 C 140.85 403.48 142.80 401.67 144.20 399.89 Z" />
<path fill="#ff4522" opacity="1.00" d=" M 543.96 484.19 C 545.25 483.37 546.57 482.56 547.89 481.77 C 548.26 481.94 548.99 482.28 549.36 482.45 C 550.40 482.35 551.46 482.27 552.52 482.22 C 553.57 482.28 554.62 482.37 555.68 482.48 C 556.03 482.31 556.73 481.97 557.08 481.80 C 557.41 481.98 558.07 482.35 558.40 482.53 C 559.42 482.34 560.46 482.25 561.51 482.26 C 562.50 482.27 563.50 482.27 564.51 482.28 C 565.56 482.30 566.61 482.36 567.68 482.48 C 568.03 482.31 568.73 481.97 569.09 481.80 C 569.40 481.97 570.02 482.32 570.33 482.50 C 571.35 482.34 572.38 482.28 573.42 482.32 C 574.98 482.30 576.56 482.29 578.12 482.06 C 578.43 482.16 579.04 482.37 579.35 482.47 C 580.38 482.36 581.43 482.28 582.48 482.22 C 583.54 482.28 584.61 482.36 585.68 482.48 C 586.03 482.31 586.74 481.96 587.10 481.78 C 587.40 481.97 588.01 482.33 588.31 482.51 C 589.41 482.23 590.52 482.22 591.64 482.50 C 591.99 482.32 592.69 481.97 593.04 481.79 C 593.35 481.96 593.98 482.31 594.29 482.48 C 595.35 482.35 596.43 482.29 597.51 482.27 C 598.50 482.25 599.51 482.26 600.51 482.27 C 601.51 482.26 602.52 482.27 603.54 482.30 C 604.47 482.29 605.41 482.31 606.35 482.33 C 608.40 482.25 610.45 482.21 612.50 482.34 C 613.49 482.30 614.49 482.26 615.50 482.24 C 617.03 482.14 618.50 482.61 619.97 483.04 C 621.49 487.71 621.67 493.12 619.94 497.75 C 619.33 498.05 618.11 498.64 617.50 498.93 C 595.66 499.08 573.82 498.96 551.99 499.00 C 549.25 498.99 546.02 498.83 544.07 496.64 C 543.71 492.50 544.00 488.34 543.96 484.19 Z" />
</g>
<g id="#47dee5ff">
<path fill="#47dee5" opacity="1.00" d=" M 298.96 96.27 C 300.99 94.57 303.16 92.55 306.02 92.80 C 391.99 92.80 477.96 92.79 563.93 92.79 C 566.02 92.72 568.00 93.42 569.94 94.11 C 570.68 96.22 571.65 98.35 571.66 100.64 C 571.59 115.84 571.64 131.04 571.62 146.24 C 571.53 150.39 572.04 154.60 570.96 158.66 C 570.18 159.40 569.42 160.14 568.66 160.90 C 566.48 161.52 564.25 162.05 561.97 162.00 C 477.32 161.98 392.67 162.03 308.02 161.98 C 304.42 162.24 301.29 160.29 298.97 157.72 C 299.01 137.24 299.03 116.75 298.96 96.27 Z" />
<path fill="#47dee5" opacity="1.00" d=" M 646.06 304.04 C 649.89 302.57 654.02 303.01 658.03 303.00 C 689.36 303.01 720.69 302.99 752.02 303.00 C 757.01 303.19 762.19 302.29 767.02 304.00 C 767.73 306.27 768.21 308.63 768.13 311.03 C 768.02 326.61 768.17 342.18 768.04 357.76 C 766.12 359.60 763.82 361.40 760.97 360.99 C 724.64 361.00 688.31 361.00 651.99 360.99 C 648.54 361.40 644.91 358.75 645.03 355.12 C 644.92 340.08 645.07 325.03 644.97 309.99 C 644.89 307.94 645.44 305.96 646.06 304.04 Z" />
<path fill="#47dee5" opacity="1.00" d=" M 140.99 431.67 C 142.02 429.25 144.01 426.88 146.89 427.03 C 205.27 426.95 263.65 427.04 322.02 426.99 C 324.94 427.02 327.90 426.75 330.80 427.26 C 333.65 428.07 335.24 431.13 335.00 433.97 C 335.02 447.65 334.97 461.33 335.02 475.01 C 334.99 477.58 335.02 480.31 333.76 482.64 C 332.48 484.51 330.11 485.11 327.97 485.01 C 267.97 484.99 207.97 484.99 147.98 485.01 C 145.05 485.32 142.03 483.60 141.26 480.67 C 141.35 466.44 141.26 452.19 141.31 437.95 C 141.38 435.85 141.40 433.74 140.99 431.67 Z" />
<path fill="#47dee5" opacity="1.00" d=" M 546.33 503.03 C 570.41 502.96 594.49 503.02 618.57 503.00 C 619.37 503.80 620.18 504.61 621.00 505.42 C 621.00 519.16 621.01 532.89 620.99 546.63 C 620.21 547.41 619.43 548.20 618.66 548.99 C 594.51 549.15 570.35 549.16 546.19 548.99 C 545.46 548.26 544.73 547.53 544.00 546.81 C 543.84 532.95 543.87 519.09 543.98 505.23 C 544.76 504.49 545.54 503.76 546.33 503.03 Z" />
</g>
<g id="#999999ff">
<path fill="#999999" opacity="1.00" d=" M 304.42 167.61 C 307.27 167.10 310.19 167.33 313.08 167.30 C 334.09 167.35 355.11 167.29 376.12 167.33 C 378.79 167.26 381.81 168.59 382.62 171.33 C 383.18 173.49 382.99 175.76 383.04 177.97 C 382.89 186.66 383.14 195.35 382.95 204.03 C 382.98 206.75 380.86 209.36 378.16 209.78 C 375.14 210.20 372.07 209.99 369.04 210.01 C 348.33 209.97 327.61 210.03 306.90 209.99 C 303.52 210.03 298.89 208.08 299.01 204.12 C 298.95 194.07 299.03 184.02 298.98 173.98 C 298.54 170.69 301.43 168.17 304.42 167.61 Z" />
<path fill="#999999" opacity="1.00" d=" M 396.41 167.61 C 397.93 167.30 399.49 167.31 401.04 167.28 C 423.40 167.38 445.75 167.28 468.11 167.33 C 471.39 167.10 474.90 169.39 474.85 172.94 C 475.22 181.95 474.87 190.98 475.02 200.00 C 474.90 202.75 475.43 206.09 473.19 208.18 C 471.65 209.93 469.20 210.03 467.06 210.03 C 444.35 209.96 421.65 210.03 398.94 209.99 C 395.92 210.01 392.55 208.67 391.18 205.83 C 390.52 202.27 390.93 198.62 390.85 195.02 C 390.97 187.66 390.65 180.30 390.96 172.95 C 391.08 170.07 393.82 168.17 396.41 167.61 Z" />
<path fill="#999999" opacity="1.00" d=" M 492.40 167.63 C 514.90 166.87 537.49 167.58 560.02 167.29 C 563.26 167.43 567.20 166.69 569.70 169.32 C 571.84 171.27 571.67 174.38 571.72 177.02 C 571.65 185.02 571.70 193.02 571.70 201.02 C 571.69 203.59 571.44 206.55 569.34 208.33 C 567.64 209.91 565.20 209.99 563.02 210.03 C 540.34 209.97 517.67 210.02 494.99 210.00 C 491.12 210.30 486.99 207.12 487.32 203.04 C 487.32 193.68 487.29 184.33 487.33 174.97 C 487.07 171.72 489.03 168.26 492.40 167.63 Z" />
<path fill="#999999" opacity="1.00" d=" M 645.01 369.94 C 644.73 367.25 647.28 364.89 649.93 365.13 C 665.63 365.06 681.33 365.19 697.03 365.07 C 698.64 365.16 700.54 364.93 701.80 366.18 C 704.24 368.01 703.69 371.33 703.81 373.99 C 703.63 381.03 703.96 388.08 703.68 395.11 C 703.73 398.02 700.74 399.90 698.08 399.74 C 682.04 399.78 665.99 399.80 649.95 399.73 C 647.86 399.92 646.45 398.20 644.95 397.07 C 645.09 388.02 644.91 378.98 645.01 369.94 Z" />
<path fill="#999999" opacity="1.00" d=" M 713.25 365.38 C 715.80 364.83 718.44 365.14 721.04 365.10 C 734.71 365.15 748.39 365.09 762.06 365.11 C 764.25 365.01 767.07 365.62 767.84 367.99 C 768.49 372.96 768.01 377.99 768.14 382.99 C 768.03 387.65 768.47 392.35 767.84 396.99 C 767.06 399.36 764.22 399.92 762.02 399.78 C 746.32 399.74 730.61 399.80 714.91 399.76 C 712.36 400.00 710.28 397.47 710.61 395.01 C 710.61 386.67 710.60 378.33 710.62 369.99 C 710.46 368.07 711.30 366.01 713.25 365.38 Z" />
<path fill="#999999" opacity="1.00" d=" M 143.41 490.40 C 144.97 489.11 147.10 489.24 149.01 489.20 C 164.71 489.30 180.41 489.17 196.11 489.26 C 198.61 489.19 201.33 491.37 201.11 494.01 C 201.27 503.39 201.02 512.78 201.20 522.17 C 199.68 523.39 198.24 525.24 196.06 524.99 C 180.05 525.04 164.03 524.96 148.02 525.02 C 145.03 525.36 141.30 523.54 141.40 520.15 C 141.15 512.76 141.43 505.36 141.28 497.97 C 141.39 495.39 141.04 492.13 143.41 490.40 Z" />
<path fill="#999999" opacity="1.00" d=" M 212.32 489.38 C 228.56 489.03 244.84 489.32 261.09 489.24 C 263.92 488.95 266.78 491.07 266.71 494.05 C 266.85 502.72 266.76 511.41 266.75 520.08 C 266.97 523.10 263.89 525.35 261.05 525.01 C 245.02 524.95 228.98 525.09 212.96 524.94 C 210.29 525.11 207.91 522.82 208.06 520.14 C 207.90 511.76 208.03 503.36 208.00 494.98 C 207.71 492.31 209.53 489.59 212.32 489.38 Z" />
<path fill="#999999" opacity="1.00" d=" M 278.34 489.46 C 293.86 488.89 309.43 489.44 324.97 489.19 C 327.38 489.33 330.36 488.73 332.12 490.83 C 333.91 492.73 333.59 495.56 333.72 497.97 C 333.58 505.02 333.85 512.08 333.60 519.13 C 333.65 522.16 331.45 525.49 328.07 525.00 C 312.06 524.99 296.04 525.02 280.02 524.99 C 277.31 525.19 274.52 522.86 274.89 520.01 C 274.79 511.67 274.88 503.33 274.85 494.99 C 274.61 492.62 275.80 489.93 278.34 489.46 Z" />
<path fill="#999999" opacity="1.00" d=" M 543.96 556.05 C 543.84 553.85 546.49 553.68 548.07 553.68 C 571.72 553.70 595.37 553.70 619.02 553.69 C 619.68 554.41 620.34 555.14 621.01 555.88 C 620.85 563.26 621.28 570.67 620.83 578.04 C 620.78 580.62 618.24 581.62 615.99 581.39 C 593.68 581.38 571.36 581.38 549.05 581.39 C 546.91 581.45 543.73 580.90 543.97 578.09 C 543.76 570.75 543.76 563.38 543.96 556.05 Z" />
<path fill="#999999" opacity="1.00" d=" M 543.91 589.93 C 543.76 587.81 546.07 586.69 547.91 586.96 C 571.58 587.05 595.25 586.96 618.92 587.02 C 619.60 587.70 620.29 588.40 620.99 589.09 C 620.93 596.44 621.14 603.79 620.94 611.13 C 621.02 613.18 619.14 614.97 617.09 614.71 C 594.06 614.74 571.02 614.73 547.99 614.72 C 545.88 614.94 543.46 613.40 543.89 611.05 C 543.82 604.02 543.78 596.97 543.91 589.93 Z" />
</g>
<g id="#aeaeaeff">
<path fill="#aeaeae" opacity="1.00" d=" M 300.16 218.22 C 302.41 217.80 304.71 217.87 306.99 217.87 C 331.74 218.04 356.50 217.71 381.25 218.04 C 381.65 219.88 382.70 223.15 380.02 223.68 C 376.71 224.14 373.36 223.85 370.04 223.89 C 348.36 223.91 326.68 223.85 304.99 223.93 C 302.90 223.95 300.85 223.55 298.84 223.07 C 299.20 221.46 298.57 219.29 300.16 218.22 Z" />
<path fill="#aeaeae" opacity="1.00" d=" M 392.34 218.55 C 395.10 217.56 398.11 217.96 400.99 217.88 C 424.00 217.93 447.00 217.92 470.00 217.88 C 471.63 218.06 473.73 217.59 474.84 219.13 C 475.35 221.08 474.62 224.01 472.11 223.81 C 447.40 224.03 422.68 223.78 397.97 223.93 C 395.78 223.85 393.30 224.03 391.50 222.56 C 390.09 221.44 390.64 219.00 392.34 218.55 Z" />
<path fill="#aeaeae" opacity="1.00" d=" M 487.42 218.95 C 489.50 218.13 491.72 217.79 493.96 217.87 C 519.07 218.02 544.17 217.76 569.27 218.00 C 569.15 219.92 569.03 221.84 568.90 223.76 C 543.62 224.09 518.33 223.75 493.04 223.94 C 491.09 224.03 489.20 223.56 487.39 222.86 C 487.40 221.56 487.41 220.25 487.42 218.95 Z" />
<path fill="#aeaeae" opacity="1.00" d=" M 298.84 228.91 C 301.20 228.37 303.61 228.10 306.04 228.19 C 331.22 228.48 356.42 227.86 381.59 228.50 C 381.70 230.38 381.58 232.26 381.22 234.11 C 355.48 234.28 329.75 234.14 304.01 234.19 C 302.41 233.96 300.24 234.47 299.26 232.83 C 299.06 231.53 298.93 230.22 298.84 228.91 Z" />
<path fill="#aeaeae" opacity="1.00" d=" M 391.46 229.51 C 393.53 227.70 396.46 228.30 398.98 228.21 C 419.65 228.29 440.31 228.21 460.98 228.25 C 465.70 228.30 470.47 227.85 475.14 228.82 C 474.72 230.45 475.44 232.75 473.76 233.80 C 470.90 234.51 467.91 234.14 465.00 234.20 C 442.67 234.18 420.34 234.16 398.01 234.22 C 395.95 234.12 393.74 234.21 391.87 233.22 C 390.59 232.69 390.21 230.31 391.46 229.51 Z" />
<path fill="#aeaeae" opacity="1.00" d=" M 488.04 228.35 C 514.39 228.14 540.74 228.24 567.08 228.28 C 570.30 227.86 568.82 232.13 569.22 234.04 C 544.16 234.41 519.09 234.05 494.02 234.21 C 491.86 234.11 489.38 234.49 487.62 232.97 C 487.29 231.42 487.86 229.87 488.04 228.35 Z" />
<path fill="#aeaeae" opacity="1.00" d=" M 298.97 240.88 C 298.87 238.68 301.39 238.55 303.00 238.50 C 327.66 238.49 352.32 238.55 376.99 238.47 C 378.56 238.51 380.24 238.49 381.63 239.36 C 382.40 241.22 381.59 243.01 380.53 244.54 C 354.68 244.43 328.83 244.51 302.98 244.51 C 300.88 244.83 298.34 243.27 298.97 240.88 Z" />
<path fill="#aeaeae" opacity="1.00" d=" M 390.66 240.89 C 391.14 238.51 394.05 238.74 395.93 238.51 C 416.96 238.50 437.98 238.51 459.01 238.51 C 464.31 238.65 469.67 238.02 474.91 239.11 C 474.84 240.64 474.85 242.18 474.56 243.70 C 473.20 244.49 471.59 244.49 470.07 244.53 C 445.38 244.44 420.69 244.51 396.00 244.50 C 393.69 244.63 390.71 243.66 390.66 240.89 Z" />
<path fill="#aeaeae" opacity="1.00" d=" M 487.96 239.18 C 489.83 238.23 491.99 238.54 494.01 238.46 C 519.09 238.74 544.19 238.15 569.27 238.76 C 569.15 240.70 569.05 242.64 568.94 244.58 C 542.67 244.33 516.39 244.62 490.12 244.44 C 487.39 244.55 486.77 241.08 487.96 239.18 Z" />
<path fill="#aeaeae" opacity="1.00" d=" M 298.85 252.98 C 298.87 250.89 298.99 247.66 301.93 247.93 C 328.37 247.94 354.81 247.82 381.26 248.00 C 381.90 250.40 382.81 254.77 379.08 254.83 C 353.03 254.97 326.96 254.88 300.89 254.87 C 300.21 254.23 299.53 253.60 298.85 252.98 Z" />
<path fill="#aeaeae" opacity="1.00" d=" M 393.12 248.20 C 396.71 247.57 400.38 247.99 404.01 247.92 C 426.01 247.89 448.02 247.99 470.02 247.86 C 471.65 248.04 473.77 247.57 474.82 249.17 C 475.08 250.92 475.34 253.31 473.66 254.44 C 472.18 255.08 470.51 254.83 468.95 254.93 C 444.63 254.83 420.30 254.94 395.98 254.88 C 393.55 255.07 390.78 253.51 390.62 250.88 C 391.20 249.81 391.88 248.58 393.12 248.20 Z" />
<path fill="#aeaeae" opacity="1.00" d=" M 490.99 254.90 C 486.33 255.75 486.17 246.94 490.95 247.91 C 517.02 247.97 543.09 247.81 569.15 248.00 C 569.13 250.25 569.07 252.50 568.97 254.75 C 542.98 255.08 516.98 254.79 490.99 254.90 Z" />
<path fill="#aeaeae" opacity="1.00" d=" M 644.80 411.04 C 645.19 409.52 644.82 406.53 647.10 406.54 C 665.02 406.49 682.95 406.48 700.87 406.54 C 703.24 406.23 705.26 409.45 702.83 410.92 C 700.24 411.33 697.60 411.20 695.00 411.21 C 678.27 411.06 661.53 411.39 644.80 411.04 Z" />
<path fill="#aeaeae" opacity="1.00" d=" M 711.13 406.44 C 730.08 406.76 749.04 406.14 767.98 406.75 C 768.00 408.17 768.03 409.60 768.06 411.03 C 755.40 411.39 742.72 411.09 730.05 411.18 C 723.42 411.07 716.77 411.48 710.16 410.89 C 710.47 409.40 710.80 407.92 711.13 406.44 Z" />
<path fill="#aeaeae" opacity="1.00" d=" M 646.03 414.40 C 664.33 414.68 682.64 414.38 700.94 414.55 C 704.75 414.06 704.65 421.07 700.82 420.46 C 683.86 420.56 666.90 420.42 649.95 420.53 C 648.41 420.44 646.65 420.62 645.41 419.54 C 644.27 417.92 645.53 416.01 646.03 414.40 Z" />
<path fill="#aeaeae" opacity="1.00" d=" M 710.61 414.77 C 725.73 414.16 740.88 414.68 756.01 414.51 C 760.00 414.46 764.01 414.39 767.99 414.83 C 767.98 416.61 767.98 418.39 767.99 420.17 C 752.04 420.92 736.04 420.26 720.07 420.50 C 717.03 420.39 713.87 420.95 710.93 419.97 C 710.31 418.30 710.65 416.49 710.61 414.77 Z" />
<path fill="#aeaeae" opacity="1.00" d=" M 644.80 423.97 C 657.53 423.62 670.27 423.91 683.01 423.81 C 689.99 423.93 697.00 423.50 703.96 424.15 C 704.07 426.08 703.33 428.73 700.90 428.47 C 684.27 428.56 667.64 428.41 651.01 428.53 C 649.29 428.50 647.55 428.53 645.90 428.06 C 644.91 426.94 645.11 425.31 644.80 423.97 Z" />
<path fill="#aeaeae" opacity="1.00" d=" M 710.11 424.08 C 716.73 423.55 723.37 423.91 730.00 423.81 C 742.68 423.89 755.36 423.64 768.04 423.95 C 768.01 425.39 767.98 426.83 767.96 428.28 C 749.68 428.73 731.38 428.42 713.10 428.45 C 710.40 428.85 710.59 425.88 710.11 424.08 Z" />
<path fill="#aeaeae" opacity="1.00" d=" M 644.81 436.13 C 645.09 434.65 644.68 431.75 646.98 431.88 C 665.01 431.75 683.05 431.77 701.08 431.88 C 703.48 431.54 704.10 434.02 703.99 435.89 C 697.36 437.12 690.59 436.24 683.90 436.49 C 670.88 436.26 657.81 436.96 644.81 436.13 Z" />
<path fill="#aeaeae" opacity="1.00" d=" M 710.65 431.83 C 729.74 431.86 748.83 431.68 767.92 431.93 C 767.98 433.37 768.05 434.81 768.12 436.26 C 749.45 436.76 730.75 436.41 712.08 436.44 C 709.47 436.60 710.97 433.33 710.65 431.83 Z" />
<path fill="#aeaeae" opacity="1.00" d=" M 645.09 440.19 C 655.70 439.84 666.34 439.88 676.95 440.21 C 677.48 442.37 677.09 445.96 674.10 445.64 C 665.08 445.58 656.06 445.73 647.05 445.57 C 644.51 445.28 645.19 442.00 645.09 440.19 Z" />
<path fill="#aeaeae" opacity="1.00" d=" M 710.59 439.95 C 720.87 440.03 731.14 439.94 741.42 440.05 C 741.38 441.94 741.23 443.83 740.97 445.72 C 730.98 445.56 720.99 445.59 711.00 445.70 C 710.74 443.79 710.60 441.87 710.59 439.95 Z" />
<path fill="#aeaeae" opacity="1.00" d=" M 141.80 531.96 C 156.84 531.63 171.88 531.90 186.92 531.82 C 191.26 531.92 195.63 531.50 199.95 532.04 C 201.50 532.83 201.03 534.81 201.44 536.21 C 182.13 536.77 162.78 536.48 143.47 536.37 C 140.65 536.76 141.70 533.61 141.80 531.96 Z" />
<path fill="#aeaeae" opacity="1.00" d=" M 208.29 532.10 C 216.85 531.49 225.44 531.96 234.02 531.81 C 244.91 531.96 255.81 531.50 266.70 532.07 C 266.79 533.43 266.89 534.79 266.99 536.16 C 252.34 536.92 237.64 536.28 222.96 536.49 C 217.96 536.46 212.95 536.69 207.97 536.22 C 208.07 534.84 208.18 533.46 208.29 532.10 Z" />
<path fill="#aeaeae" opacity="1.00" d=" M 275.34 532.44 C 277.49 531.67 279.81 531.80 282.06 531.77 C 299.51 531.95 316.95 531.62 334.39 531.94 C 334.44 533.27 334.43 534.61 334.34 535.96 C 333.13 536.85 331.46 536.37 330.07 536.54 C 312.41 536.37 294.75 536.61 277.10 536.44 C 274.89 536.69 274.01 533.94 275.34 532.44 Z" />
<path fill="#aeaeae" opacity="1.00" d=" M 141.63 541.00 C 143.74 539.45 146.53 540.02 148.98 539.87 C 166.30 540.15 183.64 539.49 200.95 540.21 C 200.98 541.78 201.19 543.39 200.86 544.97 C 199.41 545.82 197.67 545.68 196.06 545.74 C 183.04 545.64 170.02 545.72 157.00 545.69 C 151.87 545.63 146.71 546.01 141.62 545.23 C 141.57 543.81 141.57 542.40 141.63 541.00 Z" />
<path fill="#aeaeae" opacity="1.00" d=" M 208.27 540.13 C 227.56 539.62 246.88 540.03 266.18 539.93 C 266.63 541.74 267.68 545.12 265.04 545.59 C 248.36 545.89 231.65 545.54 214.96 545.75 C 212.63 545.80 210.30 545.56 208.00 545.13 C 208.09 543.46 208.18 541.79 208.27 540.13 Z" />
<path fill="#aeaeae" opacity="1.00" d=" M 274.76 543.01 C 274.56 540.60 276.94 539.62 278.97 539.93 C 297.38 539.91 315.79 539.82 334.20 539.99 C 334.32 542.07 335.56 546.23 332.02 545.67 C 314.67 545.74 297.31 545.65 279.96 545.72 C 278.03 545.59 274.45 545.94 274.76 543.01 Z" />
<path fill="#aeaeae" opacity="1.00" d=" M 208.82 547.93 C 224.85 547.86 240.89 547.94 256.92 547.89 C 259.92 547.90 262.94 547.69 265.92 548.18 C 267.47 550.18 266.73 552.74 266.07 554.93 C 247.01 554.85 227.95 554.88 208.89 554.92 C 208.09 552.63 208.01 550.22 208.82 547.93 Z" />
<path fill="#aeaeae" opacity="1.00" d=" M 276.30 548.22 C 278.14 547.75 280.07 547.88 281.96 547.86 C 299.34 548.04 316.71 547.72 334.08 548.02 C 334.25 550.23 335.57 554.97 332.05 554.85 C 314.35 554.95 296.64 554.87 278.94 554.88 C 275.15 555.75 273.09 550.18 276.30 548.22 Z" />
<path fill="#aeaeae" opacity="1.00" d=" M 208.10 558.17 C 209.00 556.89 210.60 557.14 211.96 557.07 C 230.05 557.13 248.14 557.13 266.23 557.08 C 266.79 559.01 266.76 561.00 266.13 562.92 C 257.09 562.86 248.05 562.90 239.01 562.89 C 229.36 562.92 219.71 562.84 210.06 562.96 L 208.79 562.98 C 208.48 561.39 208.06 559.79 208.10 558.17 Z" />
<path fill="#aeaeae" opacity="1.00" d=" M 142.89 564.94 C 152.91 565.28 162.96 565.07 172.99 565.03 C 173.34 566.74 173.69 568.45 174.06 570.17 C 169.52 571.70 164.66 570.79 159.98 571.00 C 153.72 570.78 147.37 571.63 141.20 570.27 C 141.46 568.40 141.94 566.58 142.89 564.94 Z" />
<path fill="#aeaeae" opacity="1.00" d=" M 208.90 565.05 C 218.97 565.18 229.05 565.00 239.12 565.18 C 239.11 567.12 239.10 569.07 239.09 571.02 C 229.40 570.92 219.69 571.18 210.01 570.87 C 206.95 570.65 208.20 566.90 208.90 565.05 Z" />
<path fill="#aeaeae" opacity="1.00" d=" M 277.89 570.96 C 274.43 571.60 273.60 566.06 276.78 565.16 C 286.62 565.03 296.47 565.07 306.31 565.13 C 309.41 566.22 308.51 571.65 305.04 570.99 C 295.99 571.00 286.94 571.08 277.89 570.96 Z" />
</g>
<g id="#b7b5b5ff">
<path fill="#b7b5b5" opacity="1.00" d=" M 298.87 259.71 C 300.10 258.84 301.37 257.85 302.99 258.03 C 314.99 257.94 326.99 258.04 338.99 257.99 C 340.52 258.11 342.58 257.77 343.51 259.34 C 344.53 260.85 344.35 263.99 341.99 263.96 C 331.99 264.34 321.97 263.98 311.96 264.10 C 307.60 263.98 303.11 264.69 298.90 263.24 C 298.89 262.36 298.88 260.59 298.87 259.71 Z" />
<path fill="#b7b5b5" opacity="1.00" d=" M 391.38 259.41 C 393.55 257.80 396.39 258.03 398.94 257.97 C 410.67 258.11 422.41 257.85 434.14 258.09 C 436.60 258.02 437.44 260.83 436.97 262.84 C 435.83 264.41 433.74 263.97 432.07 264.13 C 423.40 264.10 414.73 264.10 406.06 264.10 C 400.92 264.06 395.69 264.55 390.66 263.19 C 390.81 261.91 391.05 260.65 391.38 259.41 Z" />
<path fill="#b7b5b5" opacity="1.00" d=" M 487.74 264.01 C 487.40 261.87 486.93 258.32 489.96 258.09 C 503.61 257.95 517.28 257.88 530.93 258.16 C 531.05 260.11 531.16 262.05 531.28 264.01 C 516.77 264.17 502.25 264.17 487.74 264.01 Z" />
<path fill="#b7b5b5" opacity="1.00" d=" M 431.46 297.68 C 442.06 293.82 454.69 301.67 455.82 312.88 C 457.41 322.62 449.91 332.74 440.08 333.85 C 429.53 335.76 418.62 326.69 418.79 315.94 C 418.22 307.84 423.91 300.24 431.46 297.68 Z" />
<path fill="#b7b5b5" opacity="1.00" d=" M 558.91 462.87 C 556.23 463.52 555.22 458.76 558.06 458.44 C 571.02 458.02 584.03 458.42 597.01 458.25 C 598.22 458.54 600.21 457.75 600.93 459.09 C 602.13 460.32 600.59 461.82 600.22 463.07 C 586.45 462.68 572.67 463.12 558.91 462.87 Z" />
<path fill="#b7b5b5" opacity="1.00" d=" M 702.21 468.27 C 708.70 465.66 716.96 469.16 719.23 475.86 C 722.00 482.31 718.60 490.68 711.88 492.98 C 705.51 495.84 697.31 492.51 694.76 486.02 C 691.60 479.42 695.31 470.64 702.21 468.27 Z" />
<path fill="#b7b5b5" opacity="1.00" d=" M 142.29 548.39 C 143.79 547.86 145.40 547.91 146.97 547.86 C 164.70 547.92 182.43 547.90 200.17 547.88 C 201.42 550.20 201.55 552.83 200.01 555.07 C 180.97 554.95 161.92 554.97 142.88 555.06 C 141.59 553.04 140.69 550.53 142.29 548.39 Z" />
<path fill="#b7b5b5" opacity="1.00" d=" M 141.53 557.99 C 143.08 556.76 145.13 557.07 146.97 556.98 C 164.31 557.09 181.65 556.87 198.99 557.08 C 202.17 557.28 201.22 561.17 200.17 563.07 C 191.10 562.93 182.03 563.00 172.96 563.03 C 162.56 563.03 152.15 563.25 141.75 562.85 C 141.65 561.23 141.48 559.61 141.53 557.99 Z" />
<path fill="#b7b5b5" opacity="1.00" d=" M 274.86 557.76 C 277.54 557.16 280.28 556.89 283.03 556.97 C 299.40 557.11 315.78 556.84 332.15 557.10 C 335.60 557.01 334.46 560.85 334.17 563.01 C 323.73 563.01 313.29 562.94 302.85 563.07 C 294.94 563.08 287.03 563.04 279.12 563.10 C 277.68 562.86 276.29 562.46 274.90 562.06 C 274.88 560.62 274.87 559.19 274.86 557.76 Z" />
<path fill="#b7b5b5" opacity="1.00" d=" M 194.79 597.31 C 224.28 597.22 253.78 597.31 283.27 597.26 C 282.93 600.63 280.99 604.70 276.96 604.26 C 251.63 604.30 226.30 604.25 200.97 604.29 C 197.08 604.50 195.20 600.59 194.79 597.31 Z" />
<path fill="#b7b5b5" opacity="1.00" d=" M 579.37 633.45 C 585.09 631.41 591.51 637.03 589.97 643.00 C 589.01 649.31 580.19 651.84 575.94 647.14 C 571.74 642.99 573.65 635.08 579.37 633.45 Z" />
</g>
<g id="#3d3d3dff">
<path fill="#3d3d3d" opacity="1.00" d=" M 410.70 413.37 C 422.08 411.95 433.60 413.18 445.03 412.83 C 456.74 412.44 468.45 413.12 480.16 412.75 C 489.75 412.58 499.34 412.99 508.93 412.80 C 514.60 412.95 520.52 411.69 525.89 414.15 C 487.41 414.32 448.93 414.22 410.45 414.19 L 410.70 413.37 Z" />
</g>
<g id="#3f3f3fff">
<path fill="#3f3f3f" opacity="1.00" d=" M 624.22 444.45 C 632.91 443.97 640.28 452.26 639.56 460.81 C 672.38 460.81 705.20 460.80 738.03 460.81 C 754.95 460.93 771.88 460.54 788.79 461.02 L 790.28 461.17 C 785.83 463.02 780.98 462.36 776.30 462.43 C 737.10 462.36 697.90 462.46 658.69 462.42 C 651.91 462.34 645.09 462.84 638.36 461.84 C 637.77 457.93 637.61 453.45 634.37 450.68 C 631.57 447.16 626.98 446.46 623.10 444.76 L 624.22 444.45 Z" />
</g>
<g id="#fbfbfbff">
<path fill="#fbfbfb" opacity="1.00" d=" M 141.75 562.85 C 152.15 563.25 162.56 563.03 172.96 563.03 C 173.20 563.52 173.69 564.52 173.93 565.01 L 172.99 565.03 C 162.96 565.07 152.91 565.28 142.89 564.94 L 142.34 564.88 C 142.19 564.37 141.90 563.36 141.75 562.85 Z" />
<path fill="#fbfbfb" opacity="1.00" d=" M 210.06 562.96 C 219.71 562.84 229.36 562.92 239.01 562.89 C 239.27 563.46 239.80 564.61 240.07 565.19 L 239.12 565.18 C 229.05 565.00 218.97 565.18 208.90 565.05 C 209.19 564.52 209.77 563.48 210.06 562.96 Z" />
<path fill="#fbfbfb" opacity="1.00" d=" M 279.12 563.10 C 287.03 563.04 294.94 563.08 302.85 563.07 C 304.15 563.46 305.18 564.40 306.31 565.13 C 296.47 565.07 286.62 565.03 276.78 565.16 C 277.53 564.43 278.31 563.74 279.12 563.10 Z" />
</g>
<g id="#3c3c3cff">
<path fill="#3c3c3c" opacity="1.00" d=" M 75.65 584.47 C 76.01 584.33 76.74 584.06 77.10 583.92 C 81.06 583.45 85.05 583.70 89.03 583.66 C 178.37 583.67 267.70 583.66 357.03 583.66 C 371.02 583.83 385.03 583.34 399.01 583.90 C 399.35 584.05 400.03 584.34 400.37 584.48 C 396.29 585.09 392.15 585.01 388.03 585.00 C 289.01 585.00 190.00 585.02 90.98 585.01 C 85.87 584.96 80.72 585.29 75.65 584.47 Z" />
</g>
</svg>
