<?xml version="1.0" encoding="UTF-8" ?>
<!DOCTYPE svg PUBLIC "-//W3C//DTD SVG 1.1//EN" "http://www.w3.org/Graphics/SVG/1.1/DTD/svg11.dtd">
<svg width="512pt" height="512pt" viewBox="0 0 512 512" version="1.1" xmlns="http://www.w3.org/2000/svg">
<g id="#ffffffff">
</g>
<g id="#58595bff">
<path fill="#58595b" opacity="1.00" d=" M 7.80 125.01 C 7.78 112.89 18.92 102.33 31.01 102.86 C 125.68 102.86 220.35 102.87 315.02 102.86 C 320.31 102.93 325.84 102.33 330.88 104.36 C 339.30 107.47 345.38 115.96 345.50 124.95 C 345.62 141.53 345.49 158.10 345.55 174.68 C 338.56 174.65 331.56 174.67 324.57 174.67 C 324.60 161.65 324.60 148.63 324.57 135.61 C 225.94 135.59 127.32 135.61 28.69 135.60 C 28.69 204.09 28.69 272.57 28.69 341.06 C 102.82 341.07 176.95 341.05 251.07 341.07 C 251.10 353.20 251.10 365.33 251.08 377.47 C 177.76 377.46 104.44 377.49 31.11 377.46 C 21.95 377.71 12.98 371.95 9.54 363.43 C 7.37 358.61 7.74 353.20 7.75 348.05 C 7.78 273.70 7.69 199.35 7.80 125.01 Z" />
<path fill="#58595b" opacity="1.00" d=" M 261.79 210.01 C 261.66 197.76 272.68 186.92 284.92 187.16 C 331.63 187.07 378.34 187.16 425.04 187.12 C 435.15 186.22 445.61 192.05 449.30 201.67 C 450.82 205.23 451.12 209.16 451.05 213.00 C 450.97 226.19 451.12 239.38 450.98 252.57 C 444.84 252.52 438.70 252.54 432.56 252.53 C 432.54 239.09 432.56 225.64 432.56 212.20 C 381.77 212.21 330.98 212.21 280.20 212.20 C 280.24 268.48 280.17 324.77 280.24 381.05 C 316.82 381.08 353.40 381.05 389.98 381.06 C 390.71 390.42 387.88 400.81 393.40 409.16 C 359.91 409.11 326.42 409.15 292.93 409.14 C 287.41 409.07 281.63 409.70 276.40 407.50 C 267.45 404.04 261.33 394.65 261.75 385.06 C 261.77 326.71 261.70 268.36 261.79 210.01 M 354.37 387.56 C 348.97 388.81 346.77 396.34 350.80 400.22 C 354.56 404.63 362.59 402.54 363.79 396.90 C 365.49 391.46 359.77 385.82 354.37 387.56 Z" />
<path fill="#58595b" opacity="1.00" d=" M 410.36 261.54 C 413.82 260.62 417.45 260.87 421.00 260.85 C 443.02 260.91 465.04 260.80 487.06 260.89 C 496.22 260.72 504.35 268.94 504.22 278.07 C 504.26 316.03 504.27 354.00 504.22 391.97 C 504.36 401.11 496.15 409.31 487.00 409.12 C 463.02 409.15 439.04 409.16 415.06 409.11 C 408.04 409.20 401.32 404.48 398.91 397.91 C 397.41 394.13 397.82 389.98 397.76 386.01 C 397.80 350.01 397.73 314.01 397.80 278.01 C 397.75 270.53 403.18 263.52 410.36 261.54 M 411.52 279.53 C 411.55 315.73 411.50 351.92 411.55 388.12 C 437.84 388.13 464.14 388.13 490.44 388.12 C 490.46 351.92 490.44 315.73 490.45 279.54 C 464.14 279.54 437.83 279.54 411.52 279.53 Z" />
<path fill="#58595b" opacity="1.00" d=" M 120.35 388.53 C 122.55 388.12 124.81 388.27 127.03 388.25 C 161.70 388.30 196.38 388.22 231.05 388.29 C 234.78 388.20 238.24 391.34 238.47 395.08 C 238.67 397.67 238.70 400.28 238.41 402.87 C 237.90 406.47 234.43 409.24 230.82 409.14 C 194.75 409.12 158.67 409.17 122.59 409.12 C 118.22 409.37 114.37 405.38 114.73 401.03 C 114.21 396.31 114.75 389.83 120.35 388.53 Z" />
</g>
<g id="#1c75bcff">
<path fill="#1c75bc" opacity="1.00" d=" M 65.60 172.12 C 80.40 172.12 95.20 172.13 110.00 172.11 C 110.04 218.54 109.97 264.97 110.03 311.39 C 95.23 311.37 80.42 311.38 65.62 311.39 C 65.59 264.96 65.63 218.54 65.60 172.12 Z" />
<path fill="#1c75bc" opacity="1.00" d=" M 121.66 172.13 C 164.85 172.11 208.04 172.12 251.23 172.12 C 251.25 193.06 251.25 214.00 251.23 234.95 C 208.04 234.96 164.85 234.95 121.66 234.95 C 121.65 214.01 121.64 193.07 121.66 172.13 Z" />
<path fill="#1c75bc" opacity="1.00" d=" M 318.20 233.76 C 342.25 233.72 366.29 233.75 390.34 233.75 C 390.37 253.17 390.34 272.60 390.35 292.03 C 366.30 291.91 342.25 292.03 318.20 291.97 C 318.19 272.56 318.19 253.16 318.20 233.76 Z" />
<path fill="#1c75bc" opacity="1.00" d=" M 121.66 248.56 C 164.86 248.52 208.06 248.57 251.26 248.54 C 251.23 269.49 251.24 290.44 251.25 311.39 C 208.05 311.36 164.86 311.40 121.66 311.37 C 121.65 290.43 121.64 269.49 121.66 248.56 Z" />
<path fill="#1c75bc" opacity="1.00" d=" M 431.72 297.75 C 444.57 297.74 457.42 297.73 470.28 297.76 C 470.31 309.10 470.26 320.44 470.30 331.79 C 457.43 331.78 444.57 331.79 431.70 331.78 C 431.72 320.44 431.68 309.10 431.72 297.75 Z" />
<path fill="#1c75bc" opacity="1.00" d=" M 318.19 299.70 C 342.24 299.75 366.29 299.69 390.34 299.73 C 390.36 319.14 390.36 338.55 390.34 357.96 C 366.30 358.04 342.25 357.93 318.21 358.00 C 318.16 338.57 318.21 319.14 318.19 299.70 Z" />
<path fill="#1c75bc" opacity="1.00" d=" M 431.72 338.24 C 444.57 338.23 457.42 338.24 470.27 338.24 C 470.32 349.59 470.26 360.93 470.30 372.28 C 457.43 372.25 444.57 372.29 431.71 372.26 C 431.71 360.92 431.69 349.58 431.72 338.24 Z" />
</g>
</svg>
