<?xml version="1.0" encoding="UTF-8" ?>
<!DOCTYPE svg PUBLIC "-//W3C//DTD SVG 1.1//EN" "http://www.w3.org/Graphics/SVG/1.1/DTD/svg11.dtd">
<svg width="1280pt" height="960pt" viewBox="0 0 1280 960" version="1.1" xmlns="http://www.w3.org/2000/svg">
<g id="#cd6799ff">
<path fill="#cd6799" opacity="1.00" d=" M 468.53 13.28 C 518.76 1.78 570.81 -2.79 622.18 2.32 C 659.95 6.25 697.77 15.40 731.24 33.80 C 756.09 47.48 778.44 67.13 791.53 92.62 C 801.77 112.40 805.69 134.90 805.94 157.01 C 806.12 195.36 793.79 232.88 775.11 266.06 C 746.74 316.06 704.35 357.69 654.95 386.87 C 623.80 405.36 589.27 417.30 554.42 426.64 C 511.63 437.77 467.18 443.46 422.96 440.91 C 402.34 439.54 381.50 436.73 362.22 428.96 C 343.76 421.57 326.54 410.65 312.85 396.15 C 306.21 389.05 300.23 381.06 297.07 371.77 C 295.61 367.43 293.81 362.70 295.13 358.10 C 296.24 354.88 300.56 352.11 303.72 354.28 C 307.30 356.60 310.06 359.92 313.00 362.96 C 321.14 371.95 331.63 378.46 342.51 383.64 C 364.18 393.79 388.20 398.11 412.02 398.54 C 429.79 398.91 447.51 396.84 465.03 393.98 C 487.08 390.34 508.86 384.99 530.05 377.89 C 586.88 358.80 640.15 327.22 681.28 283.28 C 703.63 259.12 722.69 231.02 732.19 199.24 C 738.46 178.02 739.85 154.44 731.26 133.65 C 725.94 120.15 714.92 109.77 702.80 102.25 C 685.57 91.61 665.86 85.69 646.07 82.00 C 606.24 74.92 565.30 76.92 525.50 83.28 C 464.53 93.31 405.72 114.20 350.37 141.39 C 316.62 158.19 283.55 176.43 251.87 196.88 C 220.96 216.92 191.22 239.04 164.85 264.84 C 144.11 285.25 125.33 308.11 112.28 334.25 C 99.98 358.78 93.74 386.64 96.23 414.07 C 98.87 441.38 112.64 466.31 130.13 486.96 C 152.98 513.92 181.11 535.67 208.91 557.23 C 239.33 580.85 270.61 603.86 296.77 632.34 C 338.53 609.57 380.14 586.54 421.97 563.91 C 424.90 562.56 426.25 559.47 428.18 557.09 C 439.63 542.02 453.17 528.60 467.98 516.84 C 480.60 506.93 494.24 498.12 509.14 492.06 C 521.39 487.10 535.01 484.10 548.16 486.96 C 556.83 488.74 564.81 493.83 569.78 501.20 C 576.72 511.37 578.84 523.97 579.28 536.04 C 579.51 547.32 578.60 558.70 576.00 569.69 C 576.38 569.13 577.14 567.99 577.52 567.43 C 582.23 563.58 587.55 559.61 593.98 559.86 C 602.24 560.13 611.01 563.09 616.60 569.42 C 620.84 574.23 620.54 581.13 618.90 586.94 C 610.21 619.90 601.00 652.73 593.38 685.96 C 589.92 701.79 585.81 717.69 585.87 734.02 C 585.96 739.24 585.91 744.63 587.79 749.59 C 593.02 745.52 595.62 739.18 598.75 733.55 C 615.25 702.60 629.31 670.45 643.72 638.50 C 660.88 600.08 678.09 561.70 694.92 523.14 C 701.68 506.89 709.73 491.05 714.07 473.90 C 716.22 466.29 717.80 458.52 720.15 450.96 C 720.93 447.53 724.23 445.68 727.19 444.35 C 734.89 441.06 743.27 439.79 751.53 438.84 C 761.69 437.95 772.01 437.28 782.13 438.88 C 788.39 440.03 795.41 442.39 798.61 448.36 C 800.44 451.12 798.89 454.27 798.02 457.06 C 791.45 476.58 784.21 496.31 783.38 517.11 C 782.65 528.78 784.48 540.38 786.10 551.91 C 787.86 569.39 796.97 584.81 804.49 600.32 C 827.15 563.05 848.84 525.14 868.18 486.04 C 874.21 473.10 880.92 460.20 883.61 446.05 C 886.12 434.84 889.24 423.75 893.09 412.92 C 894.41 408.49 899.25 406.80 903.14 405.29 C 916.93 400.82 931.62 399.96 946.02 400.15 C 953.57 400.47 961.66 401.44 967.87 406.15 C 970.65 408.40 973.45 412.13 971.98 415.88 C 967.46 429.78 962.37 443.55 959.19 457.84 C 955.90 472.33 955.28 487.41 957.38 502.12 C 958.88 512.07 959.43 522.30 963.15 531.75 C 969.26 547.99 977.85 563.13 985.60 578.61 C 1033.79 554.98 1089.33 546.55 1142.35 554.84 C 1178.02 560.62 1212.84 575.67 1239.01 600.99 C 1260.88 621.98 1276.39 650.42 1278.84 680.91 C 1280.34 698.56 1277.44 716.94 1268.29 732.31 C 1259.47 747.42 1245.88 759.49 1230.38 767.45 C 1224.41 770.43 1217.87 773.32 1211.04 772.40 C 1207.31 771.81 1205.86 766.18 1208.79 763.82 C 1211.76 761.01 1215.46 759.14 1218.80 756.81 C 1232.58 747.70 1244.34 734.70 1249.62 718.84 C 1254.67 704.69 1252.86 689.04 1247.80 675.17 C 1241.13 656.76 1228.52 640.84 1213.04 629.00 C 1187.72 609.62 1156.14 600.46 1124.89 596.57 C 1082.72 591.37 1038.70 594.17 999.15 610.63 C 1004.44 624.55 1008.54 639.07 1009.68 653.97 C 1010.82 666.86 1008.28 680.00 1002.57 691.60 C 992.60 711.83 975.28 727.32 956.99 739.96 C 941.78 750.49 924.34 756.96 907.00 763.00 C 898.98 765.46 890.22 767.37 881.97 764.83 C 874.70 762.90 867.94 758.37 864.24 751.71 C 859.48 743.31 859.22 733.21 860.38 723.87 C 862.55 707.80 868.22 692.31 876.38 678.34 C 891.31 652.55 911.65 630.15 934.65 611.32 C 925.92 593.26 916.04 575.53 910.87 556.02 C 906.34 540.31 902.30 524.43 899.59 508.29 C 876.99 553.58 851.75 597.63 822.73 639.13 C 828.93 653.79 834.32 668.97 836.49 684.80 C 838.72 701.07 837.48 718.02 831.51 733.40 C 825.98 747.86 816.34 760.54 804.53 770.46 C 791.07 781.71 775.38 790.07 758.97 796.13 C 742.82 802.94 725.38 806.47 707.91 807.27 C 700.06 807.43 691.93 807.38 684.51 804.50 C 677.20 801.51 671.02 794.29 671.51 786.04 C 671.76 776.45 677.47 768.39 683.12 761.11 C 700.24 739.00 718.73 717.99 736.63 696.52 C 747.19 684.10 756.50 670.73 766.16 657.63 C 757.36 638.40 746.71 619.92 740.15 599.74 C 734.89 582.13 730.23 564.30 727.14 546.17 C 707.97 594.03 687.69 641.50 664.59 687.61 C 649.11 718.14 633.15 748.45 616.23 778.21 C 611.51 787.66 605.04 796.11 598.19 804.09 C 591.35 811.75 583.65 819.11 574.08 823.20 C 563.32 827.83 549.78 824.76 542.12 815.88 C 534.50 807.22 531.48 795.63 529.73 784.50 C 526.80 763.53 528.33 742.20 531.52 721.35 C 521.66 745.67 511.20 769.77 499.38 793.22 C 492.92 805.70 486.61 818.56 476.99 828.98 C 470.25 836.30 461.08 841.58 451.08 842.57 C 439.20 843.64 426.07 842.32 416.65 834.27 C 407.25 826.02 400.78 815.01 395.35 803.88 C 385.60 783.16 379.71 760.70 377.34 737.95 C 375.29 719.92 377.28 701.79 379.50 683.88 C 382.14 663.66 386.46 643.60 393.47 624.42 C 368.94 637.39 345.14 651.66 321.19 665.65 C 330.49 683.32 334.77 703.17 336.81 722.90 C 339.27 748.37 337.48 774.24 331.59 799.13 C 324.30 830.25 309.89 859.74 289.20 884.15 C 265.13 912.97 233.55 935.64 198.16 948.36 C 162.74 961.23 123.26 963.39 86.95 952.94 C 76.34 949.47 67.88 941.50 61.15 932.86 C 48.78 916.62 42.47 896.29 41.64 876.01 C 40.76 854.76 45.85 833.59 54.39 814.21 C 60.14 800.91 68.63 788.99 78.07 778.08 C 90.37 764.02 104.29 751.46 118.87 739.82 C 145.84 718.40 175.00 699.89 204.98 682.99 C 220.10 674.24 235.90 666.77 251.17 658.29 C 237.41 646.34 222.53 635.78 207.64 625.30 C 172.99 601.16 137.68 577.84 104.89 551.16 C 75.94 527.61 48.45 501.53 27.81 470.22 C 13.61 448.36 2.49 423.70 0.00 397.52 L 0.00 387.60 C 1.30 366.50 7.37 345.96 15.74 326.64 C 28.61 297.07 46.90 270.13 67.63 245.54 C 94.39 213.98 125.31 186.13 158.37 161.32 C 219.84 115.38 288.12 79.15 358.91 49.85 C 394.59 35.29 430.86 21.76 468.53 13.28 M 531.56 536.68 C 524.35 538.55 517.84 542.43 511.90 546.84 C 501.80 554.38 493.41 563.98 486.56 574.52 C 476.18 590.14 467.23 606.73 459.77 623.94 C 450.66 644.92 445.18 667.39 442.82 690.12 C 441.18 706.81 441.04 723.77 443.87 740.35 C 445.18 747.27 446.82 754.34 450.54 760.42 C 452.18 762.96 454.66 765.74 457.99 765.46 C 462.05 764.77 464.86 761.38 467.36 758.39 C 472.77 751.40 476.79 743.46 480.67 735.55 C 490.75 714.39 498.89 692.39 507.34 670.55 C 515.50 650.24 523.07 629.68 529.86 608.87 C 535.49 591.46 541.02 573.95 544.45 555.95 C 545.16 550.75 546.48 545.25 544.82 540.12 C 542.31 535.41 536.05 535.54 531.56 536.68 M 916.30 681.29 C 911.54 691.62 906.77 702.05 903.86 713.07 C 902.97 717.09 901.70 722.06 904.84 725.44 C 915.33 721.52 925.52 716.39 934.01 708.98 C 954.94 691.41 961.94 660.40 953.11 634.93 C 938.35 648.14 925.29 663.57 916.30 681.29 M 281.55 684.45 C 268.08 692.76 254.28 700.55 241.00 709.17 C 214.67 726.28 189.05 744.66 165.90 765.93 C 152.31 778.28 140.78 792.98 132.46 809.38 C 124.96 824.37 119.61 840.99 120.34 857.92 C 120.82 866.59 123.36 875.96 130.32 881.71 C 137.27 887.08 146.48 888.20 155.01 887.93 C 170.42 887.21 185.29 882.01 198.96 875.08 C 216.40 866.11 232.09 853.78 245.14 839.15 C 266.10 815.90 281.29 787.01 286.12 755.92 C 289.99 732.13 287.90 707.62 281.55 684.45 M 751.78 731.70 C 743.51 741.08 735.06 750.31 726.60 759.53 C 724.40 761.96 721.88 764.17 720.34 767.12 C 724.66 769.59 729.54 766.31 733.54 764.54 C 747.80 755.65 761.25 744.91 771.21 731.25 C 779.57 719.90 784.60 705.91 783.95 691.71 C 773.47 705.24 763.15 718.91 751.78 731.70 Z" />
</g>
</svg>
