<?xml version="1.0" encoding="UTF-8" ?>
<!DOCTYPE svg PUBLIC "-//W3C//DTD SVG 1.1//EN" "http://www.w3.org/Graphics/SVG/1.1/DTD/svg11.dtd">
<svg width="2560pt" height="487pt" viewBox="0 0 2560 487" version="1.1" xmlns="http://www.w3.org/2000/svg">
<g id="#149ef2ff">
<path fill="#149ef2" opacity="1.00" d=" M 148.20 1.23 C 153.70 0.66 159.54 -0.92 164.85 1.41 C 172.66 4.57 176.84 14.23 174.04 22.14 C 172.50 27.07 168.23 30.30 164.59 33.65 C 142.69 53.96 126.27 80.11 117.42 108.63 C 107.02 141.99 106.99 178.50 117.34 211.86 C 130.42 254.59 160.80 291.60 200.04 312.92 C 205.20 315.38 209.46 320.12 210.14 325.95 C 211.65 334.73 205.13 344.00 196.18 345.06 C 164.11 349.09 130.93 344.02 101.57 330.48 C 74.77 318.20 51.19 298.97 33.77 275.17 C 13.07 247.18 1.30 212.79 0.28 178.00 C -0.47 149.21 5.44 120.12 18.20 94.25 C 33.99 62.17 60.23 35.36 91.97 18.91 C 109.44 9.63 128.65 3.95 148.20 1.23 Z" />
</g>
<g id="#ffa30fff">
<path fill="#ffa30f" opacity="1.00" d=" M 298.13 1.13 C 329.98 -1.84 362.67 3.70 391.67 17.26 C 421.80 31.46 447.60 54.73 464.72 83.31 C 478.18 105.61 486.04 131.11 488.42 156.99 C 489.15 165.08 482.82 172.70 474.91 174.00 C 468.68 175.36 462.18 172.56 458.22 167.72 C 436.97 143.67 408.91 125.72 378.14 116.58 C 345.51 106.88 310.02 106.70 277.40 116.56 C 234.50 129.22 197.01 159.14 175.28 198.25 C 172.85 203.31 168.78 208.04 163.03 209.17 C 154.10 211.51 143.86 205.32 142.51 196.04 C 139.04 169.68 141.86 142.53 150.51 117.40 C 161.81 84.41 183.43 55.11 211.49 34.43 C 236.62 15.71 266.95 4.14 298.13 1.13 Z" />
</g>
<g id="#000000ff">
<path fill="#000000" opacity="1.00" d=" M 1185.25 41.24 C 1187.38 40.41 1189.71 40.56 1191.96 40.51 C 1204.29 40.60 1216.62 40.45 1228.95 40.58 C 1234.42 40.45 1238.96 45.64 1238.47 51.03 C 1238.46 151.02 1238.50 251.02 1238.45 351.01 C 1238.69 356.16 1234.21 360.89 1229.05 360.82 C 1216.02 360.93 1202.98 360.83 1189.96 360.87 C 1186.35 361.10 1182.57 359.55 1180.68 356.37 C 1178.64 353.30 1179.26 349.47 1179.17 346.00 C 1179.25 247.09 1179.06 148.18 1179.26 49.28 C 1179.50 45.74 1181.95 42.51 1185.25 41.24 Z" />
<path fill="#000000" opacity="1.00" d=" M 1563.30 41.39 C 1565.37 40.44 1567.71 40.56 1569.96 40.51 C 1582.30 40.58 1594.65 40.47 1607.00 40.56 C 1612.58 40.26 1617.34 45.46 1616.88 50.96 C 1616.86 151.00 1616.92 251.05 1616.85 351.09 C 1617.07 356.34 1612.36 361.06 1607.11 360.84 C 1593.74 360.88 1580.36 360.90 1566.99 360.83 C 1561.85 360.87 1557.36 356.17 1557.61 351.04 C 1557.55 251.05 1557.60 151.05 1557.59 51.05 C 1557.31 47.05 1559.55 42.97 1563.30 41.39 Z" />
<path fill="#000000" opacity="1.00" d=" M 744.55 122.74 C 767.78 120.55 791.99 122.08 813.61 131.50 C 828.08 137.42 841.19 146.82 850.99 159.04 C 855.20 164.89 859.62 171.44 859.44 178.96 C 859.50 184.00 854.97 188.37 849.96 188.23 C 838.65 188.31 827.34 188.27 816.03 188.24 C 812.25 188.38 809.13 185.91 806.45 183.56 C 799.66 177.52 792.79 171.29 784.36 167.62 C 776.20 163.56 766.84 163.08 757.89 163.31 C 748.82 163.63 739.27 166.10 732.83 172.86 C 723.66 181.65 723.67 199.02 734.46 206.51 C 743.82 213.06 755.14 215.81 766.02 218.76 C 783.63 223.48 801.96 225.50 819.09 231.98 C 832.08 236.73 844.39 243.92 853.93 254.04 C 865.14 265.92 869.54 282.97 868.45 298.99 C 867.47 314.70 859.80 329.67 848.15 340.18 C 837.15 350.09 823.37 356.59 809.05 360.07 C 789.11 364.94 768.36 365.91 747.93 364.58 C 727.93 363.31 708.10 357.51 691.01 346.97 C 679.32 339.18 668.51 329.03 662.93 315.89 C 661.31 312.09 660.09 307.67 661.65 303.65 C 663.21 300.03 667.11 297.70 671.02 297.76 C 682.67 297.68 694.32 297.78 705.97 297.72 C 707.99 297.79 710.31 297.60 711.96 299.03 C 718.09 303.87 723.83 309.21 730.12 313.84 C 737.77 319.05 746.56 322.91 755.86 323.69 C 768.39 324.90 781.68 324.04 792.99 318.05 C 798.96 314.97 804.21 309.76 805.78 303.05 C 807.29 296.26 806.49 288.50 802.11 282.88 C 798.20 278.12 792.47 275.36 786.87 273.10 C 768.22 266.17 748.44 263.21 729.34 257.85 C 712.74 252.72 695.65 246.36 683.14 233.82 C 672.91 223.66 667.43 209.36 667.14 195.04 C 666.24 179.03 672.71 163.19 683.32 151.36 C 698.86 134.11 721.76 124.94 744.55 122.74 Z" />
<path fill="#000000" opacity="1.00" d=" M 1001.55 122.78 C 1022.45 120.81 1043.92 121.86 1064.05 128.18 C 1086.43 135.24 1106.50 150.35 1118.00 170.99 C 1127.26 187.44 1131.68 206.26 1132.60 225.02 C 1133.08 238.03 1133.12 251.07 1132.49 264.09 C 1131.07 286.42 1124.72 309.03 1111.10 327.08 C 1096.81 346.04 1074.57 357.94 1051.48 362.30 C 1034.55 365.49 1017.13 365.84 1000.01 364.08 C 979.07 361.83 958.11 354.92 941.74 341.32 C 927.16 329.56 917.28 312.80 911.97 294.99 C 905.39 273.98 905.88 251.71 906.27 229.95 C 906.62 210.31 910.54 190.41 919.92 173.00 C 928.29 157.35 941.45 144.43 957.00 135.94 C 970.68 128.40 986.08 124.42 1001.55 122.78 M 1007.47 167.65 C 995.04 169.83 983.97 177.80 977.77 188.76 C 968.63 204.50 967.94 223.30 967.83 241.04 C 967.93 255.52 967.71 270.28 971.74 284.33 C 975.02 296.01 981.80 307.23 992.31 313.69 C 1004.47 320.87 1019.46 321.82 1033.08 319.12 C 1045.73 316.67 1056.83 308.10 1062.70 296.67 C 1070.88 281.17 1071.47 263.18 1071.62 246.04 C 1071.51 230.17 1071.78 213.82 1066.30 198.69 C 1062.47 187.73 1055.14 177.62 1044.73 172.13 C 1033.38 166.19 1019.91 165.42 1007.47 167.65 Z" />
<path fill="#000000" opacity="1.00" d=" M 1387.19 122.19 C 1407.37 121.11 1428.01 122.78 1447.10 129.79 C 1465.89 136.75 1482.74 149.42 1493.61 166.38 C 1505.90 185.50 1510.93 208.50 1511.20 231.01 C 1511.45 249.38 1511.94 268.01 1507.82 286.04 C 1503.68 304.72 1495.16 322.85 1481.36 336.35 C 1466.43 350.94 1446.50 359.79 1426.00 362.99 C 1406.78 365.97 1387.03 365.91 1367.87 362.52 C 1346.34 358.69 1325.41 348.81 1310.72 332.32 C 1292.91 312.43 1285.51 285.24 1284.74 259.03 C 1284.32 236.67 1283.57 213.74 1290.39 192.15 C 1296.12 172.83 1307.79 155.16 1324.11 143.20 C 1342.17 129.57 1364.84 123.43 1387.19 122.19 M 1385.48 167.73 C 1374.83 169.76 1365.01 175.89 1358.77 184.80 C 1349.62 197.54 1347.09 213.63 1346.50 228.96 C 1346.07 242.96 1345.96 257.03 1347.46 270.97 C 1349.20 285.53 1354.49 300.55 1366.00 310.25 C 1373.70 316.93 1384.01 319.85 1394.04 320.37 C 1404.62 320.92 1415.70 319.45 1424.93 313.94 C 1433.73 308.81 1440.14 300.23 1443.81 290.83 C 1449.68 275.97 1449.94 259.73 1450.03 243.98 C 1449.91 228.94 1449.97 213.50 1444.88 199.15 C 1440.89 187.47 1432.93 176.71 1421.59 171.35 C 1410.41 166.09 1397.49 165.49 1385.48 167.73 Z" />
<path fill="#000000" opacity="1.00" d=" M 1738.93 125.90 C 1756.10 121.35 1774.15 120.80 1791.76 122.68 C 1810.07 124.73 1828.20 130.80 1843.00 141.99 C 1859.27 153.95 1871.06 171.39 1877.54 190.42 C 1884.40 209.78 1886.05 230.56 1885.41 250.96 C 1885.26 256.78 1879.72 261.21 1874.06 260.79 C 1824.04 260.82 1774.01 260.79 1723.99 260.80 C 1723.73 276.61 1727.50 293.09 1737.25 305.81 C 1743.96 314.18 1753.47 320.63 1764.18 322.37 C 1772.50 323.71 1781.14 323.30 1789.31 321.20 C 1800.42 317.72 1810.31 310.60 1817.27 301.27 C 1819.78 297.75 1823.40 294.54 1828.03 294.75 C 1841.99 294.58 1855.97 294.67 1869.94 294.70 C 1874.18 294.64 1878.88 297.49 1879.39 301.97 C 1879.56 308.75 1876.00 314.86 1872.51 320.42 C 1865.17 331.26 1855.14 340.23 1844.02 347.06 C 1827.30 356.88 1808.38 363.03 1789.03 364.50 C 1766.63 366.28 1743.38 364.58 1722.59 355.49 C 1703.58 347.27 1687.57 332.47 1677.59 314.35 C 1670.06 300.74 1665.83 285.52 1663.83 270.16 C 1661.26 249.23 1661.38 227.84 1665.60 207.13 C 1669.21 189.62 1676.37 172.64 1687.67 158.68 C 1700.59 142.56 1719.01 131.16 1738.93 125.90 M 1740.28 175.36 C 1727.54 187.56 1723.68 206.11 1723.78 223.13 C 1757.18 223.14 1790.58 223.13 1823.98 223.13 C 1823.99 214.44 1823.14 205.66 1820.43 197.37 C 1816.16 183.44 1805.99 171.02 1792.17 165.82 C 1774.92 159.53 1753.70 162.19 1740.28 175.36 Z" />
<path fill="#000000" opacity="1.00" d=" M 1956.98 140.95 C 1974.33 129.21 1995.10 123.05 2015.96 122.16 C 2037.83 121.23 2060.49 122.46 2080.88 131.15 C 2092.86 136.16 2104.06 143.62 2112.02 154.00 C 2123.38 168.34 2128.35 186.89 2128.56 204.97 C 2128.59 232.31 2128.56 259.65 2128.57 286.99 C 2128.45 299.61 2129.65 312.71 2124.80 324.70 C 2116.64 347.84 2093.50 364.61 2068.96 365.09 C 2043.98 365.19 2019.00 365.11 1994.02 365.13 C 1978.73 365.10 1963.52 359.92 1951.38 350.62 C 1936.92 339.71 1926.88 323.08 1924.18 305.15 C 1921.52 288.36 1925.12 270.63 1934.36 256.35 C 1943.76 241.53 1958.75 230.31 1975.74 225.80 C 1984.59 223.29 1993.85 223.29 2002.94 222.48 C 2024.64 220.79 2046.34 219.15 2068.04 217.42 C 2067.86 206.18 2069.12 194.52 2065.10 183.76 C 2062.35 176.01 2056.48 169.25 2048.70 166.30 C 2038.31 162.29 2026.80 161.96 2015.87 163.38 C 2003.12 165.03 1991.36 173.06 1985.60 184.60 C 1983.76 188.81 1979.75 192.28 1974.99 192.28 C 1962.69 192.39 1950.38 192.33 1938.08 192.31 C 1934.64 192.44 1930.97 190.92 1929.48 187.67 C 1927.26 182.84 1929.28 177.50 1930.86 172.80 C 1935.60 159.54 1945.74 149.04 1956.98 140.95 M 2011.93 261.15 C 1997.84 263.12 1986.14 275.71 1985.37 289.94 C 1984.16 303.39 1992.81 316.82 2005.44 321.49 C 2013.59 324.90 2022.51 323.17 2031.04 322.85 C 2037.03 322.39 2043.07 322.37 2049.04 321.60 C 2059.79 319.87 2068.50 309.93 2068.64 299.01 C 2068.73 283.83 2068.66 268.65 2068.67 253.48 C 2049.75 256.03 2030.84 258.62 2011.93 261.15 Z" />
<path fill="#000000" opacity="1.00" d=" M 2228.49 122.80 C 2235.90 121.42 2243.47 121.98 2250.97 121.80 C 2269.96 121.91 2288.95 121.54 2307.94 121.48 C 2314.20 121.26 2320.05 126.65 2320.08 132.97 C 2320.17 139.98 2320.19 147.00 2320.07 154.02 C 2320.05 160.74 2313.56 166.11 2306.99 165.47 C 2292.00 165.48 2277.01 165.44 2262.02 165.48 C 2248.78 165.33 2237.54 177.89 2238.75 191.01 C 2238.80 243.01 2238.74 295.00 2238.78 347.00 C 2238.70 350.14 2239.09 353.56 2237.39 356.38 C 2235.56 359.70 2231.81 361.66 2228.08 361.63 C 2214.69 361.76 2201.29 361.55 2187.91 361.74 C 2184.09 361.83 2180.52 359.32 2178.93 355.93 C 2177.33 352.89 2177.66 349.35 2177.63 346.04 C 2177.67 291.70 2177.62 237.37 2177.65 183.04 C 2177.61 166.47 2184.80 150.13 2196.86 138.80 C 2205.53 130.52 2216.70 124.92 2228.49 122.80 Z" />
<path fill="#000000" opacity="1.00" d=" M 2418.19 122.17 C 2434.42 121.11 2450.71 121.92 2466.96 121.67 C 2494.53 121.46 2521.75 134.57 2538.84 156.20 C 2551.47 171.88 2558.65 191.84 2558.88 211.98 C 2558.93 258.00 2558.94 304.03 2558.87 350.05 C 2559.02 356.35 2553.40 361.99 2547.10 361.84 C 2534.72 361.91 2522.35 361.85 2509.98 361.87 C 2505.60 362.07 2501.18 359.85 2499.02 356.00 C 2496.78 352.39 2497.46 347.98 2497.37 343.95 C 2497.36 299.96 2497.42 255.97 2497.34 211.98 C 2497.27 196.44 2489.38 181.22 2476.71 172.23 C 2462.67 161.91 2443.11 159.97 2427.25 167.11 C 2413.70 172.99 2403.12 185.26 2399.36 199.55 C 2397.55 205.87 2397.54 212.49 2397.61 219.01 C 2397.63 261.00 2397.60 303.00 2397.63 344.99 C 2397.54 348.45 2397.99 352.16 2396.32 355.35 C 2394.41 359.23 2390.23 361.83 2385.92 361.84 C 2373.26 361.89 2360.61 361.88 2347.96 361.84 C 2340.74 362.10 2335.09 354.97 2336.06 348.00 C 2336.09 307.67 2336.06 267.34 2336.07 227.01 C 2336.16 217.72 2335.64 208.36 2337.19 199.15 C 2341.12 173.08 2357.14 149.28 2379.56 135.47 C 2391.22 128.21 2404.53 123.60 2418.19 122.17 Z" />
</g>
<g id="#8252deff">
<path fill="#8252de" opacity="1.00" d=" M 292.48 141.69 C 322.15 138.05 352.76 142.09 380.40 153.50 C 427.49 172.60 465.15 213.40 480.17 261.97 C 492.14 299.52 490.42 341.00 476.61 377.81 C 464.01 411.18 440.53 440.29 410.61 459.69 C 387.17 475.08 359.80 484.06 331.96 486.76 C 328.16 487.14 324.20 486.29 321.04 484.12 C 314.71 479.91 311.96 471.14 314.84 464.09 C 316.28 460.17 319.55 457.41 322.55 454.69 C 354.65 425.72 375.03 384.24 378.40 341.13 C 380.95 310.92 375.49 280.04 362.51 252.62 C 347.52 220.68 322.54 193.58 292.02 175.90 C 286.86 173.12 280.95 170.12 279.07 164.09 C 275.31 154.56 282.15 142.66 292.48 141.69 Z" />
</g>
<g id="#f20057ff">
<path fill="#f20057" opacity="1.00" d=" M 325.44 277.69 C 334.61 275.09 345.24 281.58 346.39 291.20 C 350.47 323.48 345.26 356.91 331.39 386.36 C 313.71 424.39 281.70 455.49 243.19 472.09 C 188.91 496.02 122.52 489.90 73.60 456.31 C 48.52 439.21 28.12 415.28 15.42 387.70 C 7.31 370.11 2.39 351.11 0.33 331.87 C -0.32 327.30 0.72 322.40 3.74 318.84 C 8.39 313.09 17.00 311.01 23.73 314.12 C 26.64 315.38 28.93 317.62 31.01 319.95 C 51.46 342.87 78.14 360.14 107.41 369.45 C 133.65 377.81 161.86 379.90 189.05 375.52 C 220.33 370.54 250.14 356.74 274.24 336.18 C 290.37 322.47 304.01 305.83 314.24 287.29 C 316.48 282.75 320.40 278.87 325.44 277.69 Z" />
</g>
</svg>
