<?xml version="1.0" encoding="UTF-8" ?>
<!DOCTYPE svg PUBLIC "-//W3C//DTD SVG 1.1//EN" "http://www.w3.org/Graphics/SVG/1.1/DTD/svg11.dtd">
<svg width="1024pt" height="1024pt" viewBox="0 0 1024 1024" version="1.1" xmlns="http://www.w3.org/2000/svg">
<g id="#3178c6ff">
<path fill="#3178c6" opacity="1.00" d=" M 95.68 0.00 L 927.37 0.00 C 943.59 0.66 959.68 5.09 973.74 13.24 C 990.80 23.02 1004.86 37.93 1013.59 55.57 C 1019.86 68.01 1023.16 81.80 1024.00 95.68 L 1024.00 926.58 C 1023.48 943.06 1019.02 959.43 1010.76 973.72 C 1001.26 990.30 986.92 1004.05 969.94 1012.83 C 957.11 1019.57 942.77 1023.15 928.33 1024.00 L 97.44 1024.00 C 80.21 1023.47 63.09 1018.59 48.35 1009.61 C 31.56 999.49 17.85 984.33 9.51 966.58 C 3.80 954.64 0.80 941.53 0.00 928.35 L 0.00 95.82 C 1.12 71.51 11.20 47.71 28.29 30.33 C 45.81 12.08 70.46 1.21 95.68 0.00 M 764.80 477.81 C 745.61 480.64 726.38 484.63 708.56 492.50 C 695.65 498.18 683.47 505.59 672.60 514.60 C 659.74 525.40 649.76 539.31 642.38 554.32 C 633.14 573.49 630.63 595.20 631.61 616.26 C 632.63 637.39 638.62 658.62 650.86 676.06 C 658.87 687.18 668.19 697.44 679.12 705.79 C 694.38 717.67 711.51 726.88 728.85 735.34 C 736.96 739.43 745.51 742.51 753.76 746.27 C 770.66 753.94 788.15 760.83 803.28 771.78 C 812.67 778.13 821.29 786.08 826.67 796.18 C 832.22 807.20 832.59 820.95 826.86 831.98 C 823.07 839.51 816.37 845.17 809.04 849.11 C 797.05 855.57 783.49 858.55 770.01 859.66 C 749.28 861.29 728.26 859.71 708.10 854.53 C 681.37 847.38 655.71 835.44 634.11 817.99 C 633.86 849.99 634.07 881.99 634.00 913.99 C 650.96 922.70 669.40 928.13 688.01 931.99 C 712.67 937.00 737.88 939.01 763.02 938.98 C 787.25 938.94 811.51 936.48 835.14 931.05 C 853.30 926.78 870.83 919.68 886.65 909.75 C 900.14 900.90 912.33 889.54 920.34 875.40 C 937.49 843.39 942.71 805.10 934.24 769.74 C 929.57 750.52 919.68 732.42 904.92 719.10 C 886.93 700.18 863.53 687.93 840.39 676.53 C 826.80 669.86 812.63 664.49 798.91 658.12 C 785.34 652.30 771.89 645.85 760.09 636.87 C 753.09 631.67 746.45 625.68 741.87 618.18 C 735.17 606.91 735.29 591.76 742.75 580.88 C 749.08 571.52 759.07 565.18 769.57 561.43 C 787.28 555.09 806.40 554.09 825.03 555.20 C 845.96 556.64 866.66 561.27 886.29 568.65 C 898.05 572.91 909.25 578.73 919.41 586.03 C 919.38 554.71 919.42 523.39 919.39 492.07 C 893.32 482.14 865.54 477.39 837.77 475.75 C 813.46 474.37 788.95 474.35 764.80 477.81 M 236.00 486.00 C 236.00 513.33 236.00 540.67 236.00 568.00 C 278.67 568.01 321.33 567.99 364.00 568.00 C 364.01 690.00 363.99 812.00 364.00 934.00 C 398.00 934.00 432.00 934.00 466.00 934.00 C 466.01 812.00 465.99 690.00 466.00 568.00 C 508.67 567.99 551.33 568.01 594.00 568.00 C 594.00 540.67 594.00 513.34 594.00 486.00 C 474.67 486.00 355.33 486.00 236.00 486.00 M 630.37 814.96 C 631.54 815.94 632.76 816.98 633.97 817.98 C 633.97 816.63 633.98 815.29 634.00 813.97 C 632.77 814.26 631.57 814.61 630.37 814.96 Z" />
</g>
<g id="#ffffffff">
<path fill="#ffffff" opacity="1.00" d=" M 764.80 477.81 C 788.95 474.35 813.46 474.37 837.77 475.75 C 865.54 477.39 893.32 482.14 919.39 492.07 C 919.42 523.39 919.38 554.71 919.41 586.03 C 909.25 578.73 898.05 572.91 886.29 568.65 C 866.66 561.27 845.96 556.64 825.03 555.20 C 806.40 554.09 787.28 555.09 769.57 561.43 C 759.07 565.18 749.08 571.52 742.75 580.88 C 735.29 591.76 735.17 606.91 741.87 618.18 C 746.45 625.68 753.09 631.67 760.09 636.87 C 771.89 645.85 785.34 652.30 798.91 658.12 C 812.63 664.49 826.80 669.86 840.39 676.53 C 863.53 687.93 886.93 700.18 904.92 719.10 C 919.68 732.42 929.57 750.52 934.24 769.74 C 942.71 805.10 937.49 843.39 920.34 875.40 C 912.33 889.54 900.14 900.90 886.65 909.75 C 870.83 919.68 853.30 926.78 835.14 931.05 C 811.51 936.48 787.25 938.94 763.02 938.98 C 737.88 939.01 712.67 937.00 688.01 931.99 C 669.40 928.13 650.96 922.70 634.00 913.99 C 634.07 881.99 633.86 849.99 634.11 817.99 C 655.71 835.44 681.37 847.38 708.10 854.53 C 728.26 859.71 749.28 861.29 770.01 859.66 C 783.49 858.55 797.05 855.57 809.04 849.11 C 816.37 845.17 823.07 839.51 826.86 831.98 C 832.59 820.95 832.22 807.20 826.67 796.18 C 821.29 786.08 812.67 778.13 803.28 771.78 C 788.15 760.83 770.66 753.94 753.76 746.27 C 745.51 742.51 736.96 739.43 728.85 735.34 C 711.51 726.88 694.38 717.67 679.12 705.79 C 668.19 697.44 658.87 687.18 650.86 676.06 C 638.62 658.62 632.63 637.39 631.61 616.26 C 630.63 595.20 633.14 573.49 642.38 554.32 C 649.76 539.31 659.74 525.40 672.60 514.60 C 683.47 505.59 695.65 498.18 708.56 492.50 C 726.38 484.63 745.61 480.64 764.80 477.81 Z" />
<path fill="#ffffff" opacity="1.00" d=" M 236.00 486.00 C 355.33 486.00 474.67 486.00 594.00 486.00 C 594.00 513.34 594.00 540.67 594.00 568.00 C 551.33 568.01 508.67 567.99 466.00 568.00 C 465.99 690.00 466.01 812.00 466.00 934.00 C 432.00 934.00 398.00 934.00 364.00 934.00 C 363.99 812.00 364.01 690.00 364.00 568.00 C 321.33 567.99 278.67 568.01 236.00 568.00 C 236.00 540.67 236.00 513.33 236.00 486.00 Z" />
<path fill="#ffffff" opacity="1.00" d=" M 630.37 814.96 C 631.57 814.61 632.77 814.26 634.00 813.97 C 633.98 815.29 633.97 816.63 633.97 817.98 C 632.76 816.98 631.54 815.94 630.37 814.96 Z" />
</g>
</svg>
