<?xml version="1.0" encoding="UTF-8" ?>
<!DOCTYPE svg PUBLIC "-//W3C//DTD SVG 1.1//EN" "http://www.w3.org/Graphics/SVG/1.1/DTD/svg11.dtd">
<svg width="1280pt" height="478pt" viewBox="0 0 1280 478" version="1.1" xmlns="http://www.w3.org/2000/svg">
<g id="#a435f0ff">
<path fill="#a435f0" opacity="1.00" d=" M 4.00 57.05 C 36.94 38.02 69.88 19.00 102.84 0.01 C 135.78 19.03 168.76 37.98 201.66 57.07 C 201.61 76.05 201.65 95.04 201.64 114.03 C 168.68 95.05 135.76 76.00 102.80 57.03 C 69.88 76.05 36.94 95.04 4.01 114.05 C 3.98 95.05 4.01 76.05 4.00 57.05 Z" />
</g>
<g id="#000000ff">
<path fill="#000000" opacity="1.00" d=" M 403.16 79.43 C 420.27 79.45 437.38 79.41 454.49 79.45 C 454.48 178.77 454.50 278.08 454.48 377.39 C 437.37 377.40 420.26 377.41 403.15 377.39 C 403.14 370.80 403.16 364.21 403.14 357.61 C 387.58 371.81 366.98 379.68 346.15 381.56 C 323.69 383.70 300.28 379.84 280.67 368.33 C 253.30 352.59 233.76 324.21 228.50 293.11 C 224.38 268.56 226.30 242.49 236.73 219.67 C 246.59 198.38 263.49 180.36 284.12 169.17 C 305.98 157.48 332.00 154.71 356.19 159.39 C 373.28 162.79 389.94 169.85 403.14 181.41 C 403.17 147.42 403.13 113.43 403.16 79.43 M 329.55 204.74 C 318.03 206.55 307.15 211.88 298.50 219.67 C 287.51 229.31 280.40 243.04 278.30 257.46 C 276.03 273.00 277.84 289.54 285.52 303.42 C 294.41 319.60 310.84 331.53 329.10 334.53 C 345.31 337.20 362.71 334.58 376.65 325.61 C 389.74 317.14 400.27 304.22 404.43 289.05 C 408.00 276.01 407.91 261.92 404.04 248.95 C 399.70 234.46 389.51 222.18 376.98 213.94 C 363.12 204.89 345.76 202.18 329.55 204.74 Z" />
<path fill="#000000" opacity="1.00" d=" M 575.91 156.88 C 597.54 154.46 620.19 156.49 640.02 165.96 C 655.63 173.30 668.71 185.26 678.82 199.12 C 688.43 212.33 694.67 227.90 697.20 244.03 C 699.44 257.58 699.00 271.40 697.68 285.01 C 641.93 285.07 586.17 285.01 530.42 285.04 C 531.59 299.97 538.29 314.68 549.99 324.25 C 564.86 336.66 585.26 340.31 604.13 338.47 C 620.86 336.91 636.70 329.36 649.14 318.16 C 661.98 325.51 674.75 332.96 687.59 340.32 C 676.19 353.38 662.20 364.28 646.40 371.50 C 629.13 379.46 609.96 382.89 591.00 382.50 C 573.32 382.24 555.51 378.99 539.41 371.54 C 521.61 363.33 506.14 350.02 495.67 333.43 C 485.91 318.03 480.93 299.96 479.72 281.86 C 478.62 264.46 479.78 246.72 485.03 230.02 C 491.41 209.30 504.50 190.75 521.88 177.80 C 537.48 165.93 556.49 158.95 575.91 156.88 M 548.85 214.81 C 539.71 222.27 533.20 233.06 531.73 244.85 C 570.01 244.88 608.29 244.86 646.57 244.86 C 646.21 235.82 642.71 226.99 636.83 220.13 C 628.47 210.48 617.15 203.09 604.49 200.70 C 585.12 197.13 563.93 201.86 548.85 214.81 Z" />
<path fill="#000000" opacity="1.00" d=" M 818.77 158.79 C 834.14 156.38 850.49 157.61 864.63 164.44 C 875.63 169.71 884.71 178.66 890.50 189.36 C 901.97 176.15 917.01 165.78 934.06 161.34 C 949.79 157.25 966.55 156.34 982.51 159.67 C 998.38 163.02 1013.04 172.22 1022.41 185.54 C 1034.27 202.11 1038.33 222.95 1038.46 243.00 C 1038.49 287.80 1038.48 332.59 1038.47 377.39 C 1021.36 377.40 1004.25 377.41 987.14 377.39 C 987.12 334.94 987.17 292.49 987.12 250.04 C 986.96 236.16 983.42 220.98 972.47 211.55 C 957.56 199.10 933.31 201.27 919.94 215.03 C 910.06 224.95 905.90 239.30 905.89 253.03 C 905.87 294.49 905.89 335.96 905.88 377.42 C 888.91 377.44 871.95 377.44 854.98 377.43 C 854.95 334.96 855.00 292.50 854.96 250.03 C 854.78 237.05 851.76 223.14 842.43 213.55 C 829.51 200.39 806.65 200.27 792.57 211.67 C 780.47 221.20 774.77 236.93 774.57 252.00 C 774.50 293.81 774.59 335.63 774.53 377.44 C 757.57 377.43 740.62 377.45 723.66 377.43 C 723.65 305.61 723.65 233.79 723.66 161.98 C 740.62 161.96 757.58 161.94 774.54 161.99 C 774.55 169.43 774.54 176.87 774.54 184.31 C 785.59 170.84 801.54 161.52 818.77 158.79 Z" />
<path fill="#000000" opacity="1.00" d=" M 4.01 161.94 C 21.26 161.93 38.51 161.92 55.75 161.94 C 55.78 203.96 55.74 245.97 55.77 287.99 C 55.74 299.72 59.41 311.75 67.37 320.56 C 78.31 332.89 96.05 338.20 112.09 335.04 C 123.73 332.86 134.60 326.24 141.35 316.44 C 147.34 307.90 149.93 297.35 149.87 287.01 C 149.89 245.32 149.86 203.63 149.88 161.94 C 167.13 161.93 184.38 161.92 201.63 161.95 C 201.63 205.28 201.66 248.62 201.62 291.96 C 201.52 311.80 196.72 332.34 184.26 348.18 C 170.26 365.85 149.02 376.88 127.04 380.82 C 108.52 384.05 89.27 383.76 70.97 379.36 C 49.05 374.02 28.46 360.95 16.49 341.54 C 7.37 326.79 3.99 309.19 4.01 292.03 C 3.99 248.67 4.00 205.30 4.01 161.94 Z" />
<path fill="#000000" opacity="1.00" d=" M 1043.44 161.95 C 1060.96 161.92 1078.50 161.93 1096.03 161.94 C 1117.02 214.36 1137.93 266.82 1158.93 319.24 C 1180.45 266.84 1202.01 214.46 1223.45 162.03 C 1241.00 161.82 1258.56 161.98 1276.11 161.95 C 1245.45 234.32 1214.72 306.66 1184.04 379.02 C 1177.79 393.47 1171.96 408.09 1165.36 422.38 C 1157.49 438.72 1147.93 455.08 1133.15 466.12 C 1122.69 474.00 1109.59 477.59 1096.63 478.00 L 1070.20 478.00 C 1070.20 462.71 1070.19 447.43 1070.20 432.14 C 1081.28 431.36 1093.44 434.41 1103.56 428.54 C 1113.91 422.09 1119.00 410.37 1123.66 399.61 C 1126.26 393.10 1129.61 386.81 1131.78 380.18 C 1102.51 307.37 1072.83 234.71 1043.44 161.95 Z" />
</g>
</svg>
